<?xml version="1.0" standalone="no"?>
<!DOCTYPE svg PUBLIC "-//W3C//DTD SVG 1.1//EN" "http://www.w3.org/Graphics/SVG/1.1/DTD/svg11.dtd" >
<svg xmlns="http://www.w3.org/2000/svg" xmlns:xlink="http://www.w3.org/1999/xlink" version="1.1">
<metadata>
Created by FontForge 20170924 at Sun May  8 16:02:12 2016
 By www-data
</metadata>
<defs>
<font id="ElliotSans-Light" horiz-adv-x="570" >
  <font-face 
    font-family="Elliot Sans Light"
    font-weight="300"
    font-stretch="normal"
    units-per-em="1000"
    panose-1="0 0 4 0 0 0 0 0 0 0"
    ascent="800"
    descent="-200"
    x-height="525"
    cap-height="700"
    bbox="-100 -325 1399 785"
    underline-thickness="50"
    underline-position="-100"
    unicode-range="U+0020-2212"
  />
<missing-glyph horiz-adv-x="513" 
d="M420 -325h-325v1025h325v-1025zM172 631v-33h67v-38h-68v-34h170v34h-67v38h67v33h-169zM171 499v-106h170v34h-67v72h-103zM239 427h-34v37h34v-37zM171 365v-34h68v-38h-68v-34h103v72h67v34h-170zM308 303v-67h-137v-35h170v102h-33zM239 178v-57h35v23h34v-48h-103
v82h-34v-116h170v116h-102zM171 1v-116h170v116h-170zM308 -81h-103v48h103v-48zM171 -138v-34h72l-72 -48v-34h170v34h-104l72 48h32v34h-170z" />
    <glyph glyph-name=".notdef" horiz-adv-x="513" 
d="M420 -325h-325v1025h325v-1025zM172 631v-33h67v-38h-68v-34h170v34h-67v38h67v33h-169zM171 499v-106h170v34h-67v72h-103zM239 427h-34v37h34v-37zM171 365v-34h68v-38h-68v-34h103v72h67v34h-170zM308 303v-67h-137v-35h170v102h-33zM239 178v-57h35v23h34v-48h-103
v82h-34v-116h170v116h-102zM171 1v-116h170v116h-170zM308 -81h-103v48h103v-48zM171 -138v-34h72l-72 -48v-34h170v34h-104l72 48h32v34h-170z" />
    <glyph glyph-name="space" unicode=" " horiz-adv-x="260" 
 />
    <glyph glyph-name="A" unicode="A" horiz-adv-x="655" 
d="M25 0l280 700h45l280 -700h-45l-110 274h-295l-110 -274h-45zM197 316h261l-130 327z" />
    <glyph glyph-name="B" unicode="B" horiz-adv-x="605" 
d="M535 293.5q30 -46.5 30 -107.5q0 -52 -22 -94.5t-60.5 -67t-86.5 -24.5h-334v371v329h299q47 0 86 -24t61 -66.5t22 -94.5q0 -49 -20 -89.5t-54 -65.5q49 -20 79 -66.5zM104 371h257q55 0 91 41t36 103t-36 102.5t-91 40.5h-257v-287zM487.5 82.5q35.5 40.5 35.5 103.5
q0 62 -36 102.5t-91 40.5h-292v-287h292q56 0 91.5 40.5z" />
    <glyph glyph-name="C" unicode="C" horiz-adv-x="656" 
d="M511 17q65 34 110 96l-33 24q-41 -54 -96 -83t-119 -29q-78 0 -142.5 43t-101.5 118t-37 165t37 164.5t101.5 117.5t142.5 43q64 0 119 -29t95 -83l34 24q-45 62 -110 96t-138 34q-89 0 -163 -48.5t-117 -133t-43 -185.5q0 -102 43 -186t117 -133t163 -49q73 0 138 34z
" />
    <glyph glyph-name="D" unicode="D" horiz-adv-x="652" 
d="M446 654.5q73 -45.5 114.5 -125.5t41.5 -179q0 -98 -41.5 -178t-114.5 -126t-162 -46h-222v700h222q89 0 162 -45.5zM539.5 229q20.5 57 20.5 121q0 65 -20.5 122t-58.5 99t-89 64.5t-108 22.5h-180v-616h180q57 0 108 22.5t89 64.5q38 43 58.5 100z" />
    <glyph glyph-name="E" unicode="E" horiz-adv-x="551" 
d="M104 658v-287h385v-42h-385v-287h385v-42h-427v700h427v-42h-385z" />
    <glyph glyph-name="F" unicode="F" horiz-adv-x="513" 
d="M62 700h389v-42h-347v-286h347v-42h-347v-330h-42v700z" />
    <glyph glyph-name="G" unicode="G" horiz-adv-x="721" 
d="M659 332v-332h-42v127l-9 -14q-43 -62 -104.5 -96t-130.5 -34q-89 0 -163 48.5t-117 133t-43 185.5t43 185.5t117 133t163 48.5q73 0 138 -33.5t111 -95.5l-34 -25q-40 54 -95.5 83t-119.5 29q-78 0 -142.5 -43t-101.5 -117.5t-37 -164.5t37 -164.5t101.5 -117.5
t142.5 -43q58 0 110.5 29.5t89.5 82.5q19 27 29.5 57t14.5 72v24h-248v42h290z" />
    <glyph glyph-name="H" unicode="H" horiz-adv-x="642" 
d="M538 700h42v-700h-42v329h-434v-329h-42v700h42v-329h434v329z" />
    <glyph glyph-name="I" unicode="I" horiz-adv-x="186" 
d="M114 700h-42v-700h42v700z" />
    <glyph glyph-name="J" unicode="J" horiz-adv-x="526" 
d="M365 8q46 26 72.5 71t26.5 101v520h-42v-520q0 -68 -45 -112t-114 -44t-114 44t-45 112v83h-42v-83q0 -56 26 -101t72 -71t103 -26q56 0 102 26z" />
    <glyph glyph-name="K" unicode="K" horiz-adv-x="635" 
d="M530 0l-311 365l-115 -107v-258h-42v700h42v-384l414 384h62l-330 -307l335 -393h-55z" />
    <glyph glyph-name="L" unicode="L" 
d="M498 42h-384v658h-42v-700h426v42z" />
    <glyph glyph-name="M" unicode="M" horiz-adv-x="796" 
d="M734 700v-700h-42v602l-271 -602h-46l-271 602v-602h-42v700h44l292 -649l292 649h44z" />
    <glyph glyph-name="N" unicode="N" horiz-adv-x="656" 
d="M547 0l-443 633v-633h-42v700h47l443 -633v633h42v-700h-47z" />
    <glyph glyph-name="O" unicode="O" horiz-adv-x="748" 
d="M537.5 32q74.5 49 117.5 133t43 186q0 101 -43 185.5t-117.5 133t-163.5 48.5q-90 0 -164 -48.5t-117 -133t-43 -185.5q0 -102 43 -186.5t117 -133t164 -48.5q89 0 163.5 49zM516.5 633q64.5 -43 102 -117.5t37.5 -164.5t-37.5 -164.5t-102 -118t-142.5 -43.5
t-142.5 43.5t-102 118t-37.5 164.5t37.5 164.5t102 117.5t142.5 43t142.5 -43z" />
    <glyph glyph-name="P" unicode="P" horiz-adv-x="572" 
d="M449 675.5q39 -24.5 61 -66.5t22 -94t-22 -94.5t-61 -66.5t-87 -24h-258v-330h-42v351v349h300q48 0 87 -24.5zM454 412.5q36 40.5 36 102.5t-36 102.5t-92 40.5h-258v-286h258q56 0 92 40.5z" />
    <glyph glyph-name="Q" unicode="Q" horiz-adv-x="748" 
d="M537.5 668.5q74.5 -48.5 117.5 -133t43 -185.5q0 -77 -25.5 -145.5t-71.5 -118.5l84 -70l-27 -33l-87 73q-41 -36 -91 -55t-106 -19q-90 0 -164 48.5t-117 133t-43 186.5q0 101 43 185.5t117 133t164 48.5q89 0 163.5 -48.5zM569 113q41 45 64 106t23 131
q0 90 -37.5 164.5t-102 117.5t-142.5 43t-142.5 -43t-102 -117.5t-37.5 -164.5t37.5 -164.5t102 -118t142.5 -43.5q91 0 164 60l-129 108l27 32z" />
    <glyph glyph-name="R" unicode="R" horiz-adv-x="581" 
d="M62 0v351v349h301q48 0 87 -24.5t61 -66.5t22 -94t-22 -94t-61 -66.5t-87 -24.5h-26l219 -330h-50l-219 330h-183v-330h-42zM104 372h259q56 0 92 40.5t36 102.5t-36 102.5t-92 40.5h-259v-286z" />
    <glyph glyph-name="S" unicode="S" horiz-adv-x="569" 
d="M405.5 9q56.5 27 90 73t33.5 100q0 69 -53 123t-136 71l-52 9l-55 12l-2 1h-1q-59 13 -96 51t-37 85q0 38 25 70.5t67.5 51.5t92.5 19q63 0 113 -30t66 -77l40 13q-20 60 -81.5 98t-137.5 38q-61 0 -113.5 -24.5t-83 -66.5t-30.5 -92q0 -63 47 -112.5t122 -65.5
q32 -8 57 -12l51 -10q68 -13 111.5 -55.5t43.5 -96.5q0 -43 -27.5 -79t-74.5 -57.5t-103 -21.5q-73 0 -130 35.5t-71 89.5l-41 -11q19 -69 86.5 -112.5t155.5 -43.5q67 0 123.5 27z" />
    <glyph glyph-name="T" unicode="T" horiz-adv-x="665" 
d="M603 658h-249v-658h-42v658h-250v42h541v-42z" />
    <glyph glyph-name="U" unicode="U" horiz-adv-x="655" 
d="M463 16q61 34 95.5 93.5t34.5 132.5v458h-42v-458q0 -62 -29 -112t-79.5 -78t-114.5 -28t-115 28t-80 78t-29 112v458h-42v-458q0 -73 35 -132.5t95.5 -93.5t135.5 -34q74 0 135 34z" />
    <glyph glyph-name="V" unicode="V" horiz-adv-x="589" 
d="M272 0l-252 700h45l229 -638l230 638h45l-252 -700h-45z" />
    <glyph glyph-name="W" unicode="W" horiz-adv-x="858" 
d="M214 0l-194 700h44l171 -621l172 621h44l172 -621l172 621h43l-193 -700h-44l-172 621l-172 -621h-43z" />
    <glyph glyph-name="X" unicode="X" horiz-adv-x="621" 
d="M285 350l-245 350h51l220 -313l219 313h51l-245 -350l245 -350h-51l-219 313l-220 -313h-51z" />
    <glyph glyph-name="Y" unicode="Y" horiz-adv-x="590" 
d="M580 700l-264 -357v-343h-42v343l-264 357h52l233 -315l233 315h52z" />
    <glyph glyph-name="Z" unicode="Z" horiz-adv-x="584" 
d="M522 642l-420 -600h420v-42h-460v58l419 600h-419v42h460v-58z" />
    <glyph glyph-name="a" unicode="a" horiz-adv-x="493" 
d="M340 507q47 -26 74 -71t27 -101v-335h-42v54q-27 -30 -68.5 -46.5t-89.5 -16.5q-56 0 -102 22t-72.5 59.5t-26.5 83.5q0 45 26.5 82.5t72.5 59.5t102 22q48 0 89.5 -16.5t68.5 -46.5v78q0 45 -21 80.5t-58.5 55.5t-84.5 20q-44 0 -80 -18t-59 -51l-35 24q29 41 74 64
t100 23q58 0 105 -26zM320.5 49.5q36.5 16.5 57.5 44.5t21 62q0 33 -21 61t-57.5 44.5t-79.5 16.5q-44 0 -80.5 -16.5t-57.5 -44.5t-21 -61q0 -34 21 -62t57.5 -44.5t80.5 -16.5q43 0 79.5 16.5z" />
    <glyph glyph-name="b" unicode="b" 
d="M410 498q55 -36 86.5 -98.5t31.5 -137.5t-31.5 -137t-86 -98t-120.5 -36q-60 0 -111.5 31t-84.5 84v-106h-42v700h42v-282q33 54 84.5 85t111.5 31q65 0 120 -36zM389 63.5q45 30.5 71 83t26 115.5q0 64 -26 116.5t-71 83t-99 30.5t-99 -30.5t-71 -83t-26 -116.5
q0 -63 26 -115.5t71 -83t99 -30.5t99 30.5z" />
    <glyph glyph-name="c" unicode="c" horiz-adv-x="472" 
d="M363 13.5q45 22.5 79 63.5l-33 27q-28 -35 -64.5 -53t-77.5 -18q-54 0 -98.5 30.5t-70.5 83t-26 115.5t26 116t70.5 83.5t98.5 30.5q41 0 77.5 -18.5t64.5 -52.5l33 26q-34 42 -79 64.5t-96 22.5q-65 0 -119.5 -36t-86 -98.5t-31.5 -137.5t31.5 -137t86 -98t119.5 -36
q51 0 96 22.5z" />
    <glyph glyph-name="d" unicode="d" 
d="M518 700v-700h-42v106q-33 -53 -84.5 -84t-111.5 -31q-66 0 -120.5 36t-86 98t-31.5 137t31.5 137.5t86 98.5t120.5 36q60 0 111.5 -31t84.5 -85v282h42zM379 63.5q45 30.5 71 83t26 115.5q0 64 -26 116.5t-71 83t-99 30.5t-99 -30.5t-71 -83t-26 -116.5q0 -63 26 -115.5
t71 -83t99 -30.5t99 30.5z" />
    <glyph glyph-name="e" unicode="e" horiz-adv-x="538" 
d="M498 241h-415q4 -58 31 -105.5t69.5 -75t93.5 -27.5q42 0 79 18.5t64 52.5l33 -27q-34 -41 -79.5 -63.5t-96.5 -22.5q-65 0 -119.5 36t-86 98t-31.5 137q0 76 30 138.5t82 98t117 35.5q64 0 116.5 -35.5t82.5 -98t30 -138.5v-21zM455 283q-4 60 -29 108t-66 74.5
t-91 26.5q-51 0 -92 -26.5t-66 -74.5t-28 -108h372z" />
    <glyph glyph-name="f" unicode="f" horiz-adv-x="408" 
d="M219 636q-33 -40 -33 -97v-13h168v-42h-168v-484h-42v484h-119v42h119v13q0 49 21 90t57 65t79 24q46 0 87 -30l-25 -33q-31 21 -62 21q-49 0 -82 -40z" />
    <glyph glyph-name="g" unicode="g" horiz-adv-x="568" 
d="M516 525v-532q0 -62 -30 -113t-83 -80t-118 -29q-62 0 -114.5 28t-83.5 77l36 22q24 -40 67 -62.5t95 -22.5q54 0 97 23.5t67.5 64.5t24.5 92v113q-33 -53 -84.5 -84t-111.5 -31q-66 0 -120.5 36t-86 98t-31.5 137t31.5 137t86 98t120.5 36q60 0 111.5 -31t84.5 -84v107
h42zM377 63.5q45 30.5 71 83t26 115.5t-26 115.5t-71 83t-99 30.5t-99 -30.5t-71 -83t-26 -115.5t26 -115.5t71 -83t99 -30.5t99 30.5z" />
    <glyph glyph-name="h" unicode="h" horiz-adv-x="500" 
d="M350 504q45 -30 71.5 -81.5t26.5 -113.5v-309h-42v309q0 51 -21 93t-56.5 66t-78.5 24t-79 -24t-56.5 -66t-20.5 -93v-309h-42v700h42v-251q28 40 68.5 62.5t87.5 22.5q55 0 100 -30z" />
    <glyph glyph-name="i" unicode="i" horiz-adv-x="198" 
d="M125 697.5q-11 10.5 -26 10.5q-16 0 -26.5 -10.5t-10.5 -25.5q0 -16 10.5 -26.5t26.5 -10.5q15 0 26 10.5t11 26.5q0 15 -11 25.5zM120 525h-42v-525h42v525z" />
    <glyph glyph-name="j" unicode="j" horiz-adv-x="196" 
d="M143.5 698.5q-10.5 10.5 -26.5 10.5q-15 0 -25.5 -10.5t-10.5 -26.5q0 -15 10.5 -25.5t25.5 -10.5q16 0 26.5 10.5t10.5 25.5q0 16 -10.5 26.5zM62 -168.5q35 23.5 55.5 64.5t20.5 90v539h-42v-539q0 -57 -32 -96.5t-79 -39.5q-33 0 -59 20l-26 -33q38 -29 85 -29
q42 0 77 23.5z" />
    <glyph glyph-name="k" unicode="k" horiz-adv-x="506" 
d="M411 0l-227 266l-80 -75v-191h-42v700h42v-451l298 276h62l-249 -231l251 -294h-55z" />
    <glyph glyph-name="l" unicode="l" horiz-adv-x="166" 
d="M104 700h-42v-700h42v700z" />
    <glyph glyph-name="m" unicode="m" horiz-adv-x="782" 
d="M641 505.5q41 -27.5 65 -74.5t24 -104v-327h-42v327q0 45 -18.5 82.5t-50 59.5t-69.5 22t-70 -22t-50 -59.5t-18 -82.5v-327h-42v327q0 45 -18.5 82.5t-50 59.5t-69.5 22t-69.5 -22t-50 -59.5t-18.5 -82.5v-327h-42v525h42v-64q25 34 61 53t77 19q52 0 94 -29t65 -79
q23 50 65 79t94 29q50 0 91 -27.5z" />
    <glyph glyph-name="n" unicode="n" horiz-adv-x="501" 
d="M350.5 504q45.5 -30 72 -82t26.5 -115v-307h-42v307q0 51 -21 93.5t-57 67t-79 24.5t-78.5 -24.5t-56.5 -67t-21 -93.5v-307h-42v525h42v-77q28 40 68.5 63t87.5 23q55 0 100.5 -30z" />
    <glyph glyph-name="o" unicode="o" horiz-adv-x="556" 
d="M398.5 27q54.5 36 86 98t31.5 137t-31.5 137.5t-86.5 98.5t-120 36q-66 0 -120.5 -36t-86 -98.5t-31.5 -137.5t31.5 -137t86 -98t120.5 -36t120.5 36zM377 461.5q45 -30.5 71 -83t26 -116.5q0 -63 -26 -115.5t-71 -83t-99 -30.5t-99 30.5t-71 83t-26 115.5q0 64 26 116.5
t71 83t99 30.5t99 -30.5z" />
    <glyph glyph-name="p" unicode="p" horiz-adv-x="569" 
d="M409.5 498q54.5 -36 86 -98t31.5 -137t-31.5 -137t-86 -98t-119.5 -36q-61 0 -112.5 31t-83.5 84v-282h-42v700h42v-106q32 53 83.5 84t112.5 31q65 0 119.5 -36zM388.5 64.5q44.5 30.5 70.5 83t26 115.5t-26 115.5t-70.5 83t-98.5 30.5t-99 -30.5t-71 -83t-26 -115.5
t26 -115.5t71 -83t99 -30.5t98.5 30.5z" />
    <glyph glyph-name="q" unicode="q" horiz-adv-x="569" 
d="M517 525v-700h-42v281q-32 -53 -83.5 -84t-112.5 -31q-65 0 -119.5 36t-86 98t-31.5 137t31.5 137t86 98t119.5 36q61 0 112.5 -31t83.5 -84v107h42zM378 63.5q45 30.5 71 83t26 115.5t-26 115.5t-71 83t-99 30.5t-98.5 -30.5t-70.5 -83t-26 -115.5t26 -115.5t70.5 -83
t98.5 -30.5t99 30.5z" />
    <glyph glyph-name="r" unicode="r" horiz-adv-x="439" 
d="M361 511q43 -23 73 -64l-34 -25q-25 34 -58.5 52t-72.5 18q-48 0 -88 -27.5t-63 -74.5t-23 -104h-1v-286h-42l1 525h42v-91q30 47 75.5 73.5t98.5 26.5q49 0 92 -23z" />
    <glyph glyph-name="s" unicode="s" horiz-adv-x="441" 
d="M310 11q42 20 66.5 54.5t24.5 75.5q0 52 -39 93t-101 53q-13 3 -23.5 4.5t-13.5 2.5l-39 8l-2 1h-1q-40 9 -65 34.5t-25 57.5q0 40 37 68.5t89 28.5q43 0 77 -21t45 -53l40 14q-14 45 -59.5 73.5t-102.5 28.5q-45 0 -83.5 -19t-61.5 -51t-23 -69q0 -47 35 -84.5t91 -49.5
q5 -1 16 -3.5t24 -4.5l37 -7q47 -10 76.5 -39t29.5 -66q0 -30 -19 -54.5t-51.5 -39t-70.5 -14.5q-50 0 -88.5 24.5t-48.5 61.5l-41 -11q14 -52 64 -84.5t114 -32.5q50 0 92 20z" />
    <glyph glyph-name="t" unicode="t" horiz-adv-x="388" 
d="M378 20q-40 -29 -87 -29q-43 0 -79 23.5t-57 64.5t-21 91v317h-119v42h119v171h42v-171h169v-42h-169v-317q0 -38 15.5 -69.5t41.5 -49.5t58 -18q35 0 62 21z" />
    <glyph glyph-name="u" unicode="u" horiz-adv-x="497" 
d="M445 525v-525h-42v76q-28 -40 -68 -62.5t-86 -22.5q-55 0 -100 30t-71 82t-26 115v307h42v-307q0 -51 20.5 -93.5t56 -67t78.5 -24.5q42 0 77.5 24.5t56 67t20.5 93.5v307h42z" />
    <glyph glyph-name="v" unicode="v" horiz-adv-x="460" 
d="M208 0l-198 525h45l175 -465l176 465h44l-197 -525h-45z" />
    <glyph glyph-name="w" unicode="w" horiz-adv-x="694" 
d="M167 0l-157 525h44l135 -451l136 451h44l135 -451l136 451h44l-158 -525h-44l-135 452l-136 -452h-44z" />
    <glyph glyph-name="x" unicode="x" horiz-adv-x="497" 
d="M223 262l-193 263h52l167 -227l166 227h52l-192 -263l192 -262h-52l-166 227l-167 -227h-52z" />
    <glyph glyph-name="y" unicode="y" horiz-adv-x="472" 
d="M462 525l-221 -604q-51 -149 -160 -149q-38 0 -71 18l21 37q22 -13 50 -13q40 0 69.5 30t50.5 91l22 59l-194 531h45l171 -470l172 470h45z" />
    <glyph glyph-name="z" unicode="z" horiz-adv-x="481" 
d="M429 470l-334 -428h334v-42h-377v55l334 428h-334v42h377v-55z" />
    <glyph glyph-name="zero" unicode="0" horiz-adv-x="580" 
d="M447 63q26 32 45 74.5t26 87.5q10 63 12 125v1q-2 61 -12 125q-7 45 -26 87.5t-45 74.5q-66 80 -157 80t-157 -80q-26 -32 -45 -74.5t-26 -87.5q-10 -64 -12 -125v-1q2 -62 12 -125q7 -45 26 -87.5t45 -74.5q66 -80 157 -80t157 80zM103 469q11 67 41 114t69 70t77 23
t77 -23t69 -70t41 -114q9 -53 11 -119q-2 -65 -11 -118q-11 -67 -41 -114t-69 -70t-77 -23t-77 23t-69 70t-41 114q-9 53 -11 118q2 66 11 119z" />
    <glyph glyph-name="one" unicode="1" horiz-adv-x="375" 
d="M280 700v-700h-42v658l-143 -108l-25 33l155 117h55z" />
    <glyph glyph-name="two" unicode="2" horiz-adv-x="535" 
d="M467 42h-366q15 78 56.5 133.5t89.5 82.5l125 69q53 27 83 75t30 107q0 58 -30 105.5t-81.5 75t-113.5 27.5q-72 0 -129 -36.5t-81 -97.5l39 -15q20 49 66.5 78t105.5 29q50 0 92 -22t66 -60t24 -84t-24 -84.5t-67 -60.5l-125 -69q-61 -34 -106 -99.5t-61 -145.5
q-2 -10 -4 -26l-4 -24h415v42z" />
    <glyph glyph-name="three" unicode="3" horiz-adv-x="549" 
d="M477 700h-394v-42h329l-267 -275l25 -33q43 22 95 22t95.5 -23t69 -63t25.5 -88t-25.5 -87.5t-69 -62.5t-95.5 -23q-59 0 -107.5 29.5t-69.5 78.5l-38 -16q25 -61 84 -98t131 -37q64 0 117 28.5t84 78t31 109.5t-31 109.5t-84 78t-117 28.5q-22 0 -33 -2l245 252v36z" />
    <glyph glyph-name="four" unicode="4" horiz-adv-x="581" 
d="M541 222v-42h-105v-180h-42v180h-342v56l337 464h47v-478h105zM394 635l-301 -413h301v413z" />
    <glyph glyph-name="five" unicode="5" horiz-adv-x="551" 
d="M83 372l37 -17q26 29 62.5 45t76.5 16q53 0 96.5 -26t68.5 -71t25 -99t-25 -98.5t-68.5 -70.5t-96.5 -26q-56 0 -102 29t-69 80l-38 -18q29 -62 85 -98t124 -36q64 0 117 31.5t84 86t31 120.5t-31 120.5t-84 86t-117 31.5q-67 0 -125 -36l41 236h299v42h-335z" />
    <glyph glyph-name="six" unicode="6" horiz-adv-x="558" 
d="M398.5 426.5q50.5 -31.5 80 -86t29.5 -120.5q0 -65 -29.5 -119.5t-80 -86t-111.5 -31.5q-66 0 -119.5 36t-80.5 97q-29 54 -36 173q-1 14 -1 44q0 86 12 150q14 68 43 118.5t71 78.5q57 38 124 38q63 0 114.5 -32.5t74.5 -87.5l-39 -16q-18 43 -59 68.5t-91 25.5
q-55 0 -100 -31q-35 -23 -60 -67t-36 -103q-12 -61 -12 -141q28 56 80 90t115 34q61 0 111.5 -31.5zM378 51q41 26 64.5 70.5t23.5 98.5t-23.5 99t-64.5 71t-91 26t-91 -26t-64.5 -71t-23.5 -99t23.5 -98.5t64.5 -70.5t91 -26t91 26z" />
    <glyph glyph-name="seven" unicode="7" horiz-adv-x="533" 
d="M493 670l-309 -670h-47l304 658h-391v42h443v-30z" />
    <glyph glyph-name="eight" unicode="8" horiz-adv-x="548" 
d="M463 306q35 -51 35 -114q0 -58 -29.5 -105.5t-81 -75.5t-113.5 -28t-113.5 28t-81 75.5t-29.5 105.5q0 63 35 114t94 76q-45 23 -71 64.5t-26 91.5t25.5 91t69.5 65t97 24t97.5 -24t70 -65t25.5 -91t-26.5 -91.5t-71.5 -64.5q59 -25 94 -76zM144 468.5
q20 -31.5 54.5 -49.5t75.5 -18t76 18t55 49.5t20 69.5t-20 70t-55 50t-76 18t-75.5 -18t-54.5 -50t-20 -70t20 -69.5zM366 47q42 22 66 60.5t24 84.5t-24 84t-66 60.5t-92 22.5t-92 -22.5t-66 -60.5t-24 -84t24 -84.5t66 -60.5t92 -22t92 22z" />
    <glyph glyph-name="nine" unicode="9" horiz-adv-x="558" 
d="M508 365q0 -84 -12 -147q-13 -67 -42.5 -118t-71.5 -79q-57 -38 -123 -38q-64 0 -115.5 32.5t-74.5 86.5l39 17q18 -43 59 -68.5t92 -25.5q55 0 100 31q35 23 60 67t36 103q11 64 11 141q-28 -57 -80 -90.5t-115 -33.5q-61 0 -111.5 31.5t-80 86t-29.5 120.5
q0 65 29.5 119.5t80 86t111.5 31.5q66 0 119.5 -36t80.5 -97q17 -31 25.5 -78t10.5 -95q1 -15 1 -47zM362 311q41 26 65 71t24 99t-24 98.5t-65 70.5t-91 26q-49 0 -90 -26t-65 -70.5t-24 -98.5t24 -99t65 -71t90 -26q50 0 91 26z" />
    <glyph glyph-name="fraction" unicode="&#x2044;" horiz-adv-x="610" 
d="M63 -26l527 753h-43l-527 -753h43z" />
    <glyph glyph-name="asterisk" unicode="*" horiz-adv-x="269" 
d="M65 444l69 95l70 -95l22 15l-69 96l112 37l-8 26l-113 -37v119h-27v-118l-113 36l-8 -26l112 -37l-69 -96z" />
    <glyph glyph-name="backslash" unicode="\" horiz-adv-x="386" 
d="M366 -17l-312 753h-34l312 -753h34z" />
    <glyph glyph-name="periodcentered" unicode="&#xb7;" horiz-adv-x="164" 
d="M112 312.5q-12 12.5 -30 12.5q-17 0 -29.5 -12.5t-12.5 -29.5t12.5 -29.5t29.5 -12.5q18 0 30 12.5t12 29.5t-12 29.5z" />
    <glyph glyph-name="bullet" unicode="&#x2022;" horiz-adv-x="286" 
d="M187.5 394.5q-18.5 18.5 -44.5 18.5t-44.5 -18.5t-18.5 -44.5t18.5 -44.5t44.5 -18.5t44.5 18.5t18.5 44.5t-18.5 44.5z" />
    <glyph glyph-name="colon" unicode=":" horiz-adv-x="184" 
d="M121.5 521.5q-12.5 12.5 -29.5 12.5t-29.5 -12.5t-12.5 -29.5t12.5 -29.5t29.5 -12.5t29.5 12.5t12.5 29.5t-12.5 29.5zM121.5 71.5q-12.5 12.5 -29.5 12.5t-29.5 -12.5t-12.5 -29.5t12.5 -29.5t29.5 -12.5t29.5 12.5t12.5 29.5t-12.5 29.5z" />
    <glyph glyph-name="comma" unicode="," horiz-adv-x="176" 
d="M43 -113q51 56 67 116t16 106h-56q1 -39 -7 -93t-36 -116z" />
    <glyph glyph-name="exclam" unicode="!" horiz-adv-x="184" 
d="M103 197l20 366v137h-63v-137l21 -366h22zM121.5 63.5q-12.5 12.5 -29.5 12.5t-29.5 -12.5t-12.5 -29.5t12.5 -29.5t29.5 -12.5t29.5 12.5t12.5 29.5t-12.5 29.5z" />
    <glyph glyph-name="numbersign" unicode="#" horiz-adv-x="695" 
d="M384 0l50 187h136v46h-124l63 234h136v46h-124l50 187h-47l-50 -187h-163l50 187h-47l-50 -187h-137v-46h125l-63 -234h-139v-46h127l-50 -187h47l50 187h163l-50 -187h47zM299 467h163l-63 -234h-163z" />
    <glyph glyph-name="period" unicode="." horiz-adv-x="184" 
d="M122 62.5q-12 12.5 -30 12.5q-17 0 -29.5 -12.5t-12.5 -29.5t12.5 -29.5t29.5 -12.5q18 0 30 12.5t12 29.5t-12 29.5z" />
    <glyph glyph-name="question" unicode="?" horiz-adv-x="506" 
d="M352 691q48 -27 76 -74t28 -103q0 -57 -27 -96.5t-74 -79.5q-42 -34 -61.5 -65.5t-19.5 -75.5h-44q1 55 25 95t72 80q43 35 64 67.5t21 74.5q0 44 -22 81t-59.5 58t-83.5 21q-54 0 -96.5 -28t-59.5 -75l-41 15q23 60 76 96t120 36q58 0 106 -27zM286.5 64
q-12.5 12 -29.5 12q-18 0 -30 -12.5t-12 -30.5q0 -17 12.5 -29t30.5 -12q17 0 29 12.5t12 30.5q0 17 -12.5 29z" />
    <glyph glyph-name="quotedbl" unicode="&#x22;" horiz-adv-x="327" 
d="M132 700h-42v-222h42v222zM237 700h-42v-222h42v222z" />
    <glyph glyph-name="quotesingle" unicode="'" horiz-adv-x="206" 
d="M43 478q51 56 67 116t16 106h-56q1 -39 -7 -93t-36 -116z" />
    <glyph glyph-name="semicolon" unicode=";" horiz-adv-x="190" 
d="M127.5 521.5q-12.5 12.5 -29.5 12.5q-18 0 -30 -12.5t-12 -29.5t12 -29.5t30 -12.5q17 0 29.5 12.5t12.5 29.5t-12.5 29.5zM43 -130q51 56 67 116t16 106h-56q1 -39 -7 -93t-36 -116z" />
    <glyph glyph-name="slash" unicode="/" horiz-adv-x="386" 
d="M20 -17l312 753h34l-312 -753h-34z" />
    <glyph glyph-name="underscore" unicode="_" horiz-adv-x="590" 
d="M550 -60h-510v-50h510v50z" />
    <glyph glyph-name="braceleft" unicode="{" horiz-adv-x="356" 
d="M178.5 316q-15.5 -31 -46.5 -46l-19 -10l19 -10q31 -15 46.5 -46t15.5 -74v-231q0 -31 19 -51.5t48 -20.5h15v-25h-24q-42 0 -71 32t-29 78v229q0 37 -20 64.5t-52 32.5v44q32 6 52 33t20 65v228q0 46 29 78t71 32h24v-24h-15q-28 0 -47.5 -21t-19.5 -52v-231
q0 -43 -15.5 -74z" />
    <glyph glyph-name="braceright" unicode="}" horiz-adv-x="356" 
d="M225 270l18 -11l-18 -10q-62 -28 -62 -120v-231q0 -30 -20 -51t-48 -21h-15v-25h24q42 0 71.5 32.5t29.5 78.5v228q0 38 20 65t51 32v45q-31 5 -51 32t-20 65v228q0 46 -29.5 78.5t-71.5 32.5h-24v-25h15q28 0 48 -21t20 -51v-231q0 -92 62 -120z" />
    <glyph glyph-name="bracketleft" unicode="[" horiz-adv-x="293" 
d="M213 -198v42h-91v832h91v42h-133v-916h133z" />
    <glyph glyph-name="bracketright" unicode="]" horiz-adv-x="293" 
d="M80 -198v42h91v832h-91v42h133v-916h-133z" />
    <glyph glyph-name="parenleft" unicode="(" horiz-adv-x="333" 
d="M253 -198q-118 220 -118 458t118 458h-32q-141 -210 -141 -458t141 -458h32z" />
    <glyph glyph-name="parenright" unicode=")" horiz-adv-x="334" 
d="M80 -198q119 219 119 458t-119 458h32q142 -209 142 -458t-142 -458h-32z" />
    <glyph glyph-name="emdash" unicode="&#x2014;" horiz-adv-x="865" 
d="M765 293h-665v-35h665v35z" />
    <glyph glyph-name="endash" unicode="&#x2013;" horiz-adv-x="610" 
d="M550 293h-490v-35h490v35z" />
    <glyph glyph-name="hyphen" unicode="-" horiz-adv-x="435" 
d="M375 293h-315v-35h315v35z" />
    <glyph glyph-name="quotedblleft" unicode="&#x201c;" horiz-adv-x="379" 
d="M164 718q-80 -87 -84 -223h57q-2 37 6 92.5t37 117.5zM283 718q-51 -56 -67 -116.5t-16 -106.5h56q-1 39 7 93.5t36 116.5z" />
    <glyph glyph-name="quotedblright" unicode="&#x201d;" horiz-adv-x="379" 
d="M96 478q51 56 67 116t16 106h-56q1 -39 -7 -93t-36 -116zM215 478q80 88 84 222h-57q2 -37 -6 -92t-37 -117z" />
    <glyph glyph-name="quoteleft" unicode="&#x2018;" horiz-adv-x="259" 
d="M163 718q-51 -57 -67 -117t-16 -106h56q-4 110 43 209z" />
    <glyph glyph-name="quoteright" unicode="&#x2019;" horiz-adv-x="259" 
d="M96 478q51 56 67 116t16 106h-56q1 -39 -7 -93.5t-36 -115.5z" />
    <glyph glyph-name="dollar" unicode="$" horiz-adv-x="612" 
d="M504.5 83.5q-27.5 -44.5 -75 -73t-104.5 -32.5v-68h-39v67q-75 5 -132.5 49.5t-73.5 109.5l48 12q12 -49 56 -82.5t102 -38.5v315l-37 9q-69 17 -112.5 67t-43.5 114q0 48 25.5 89.5t70 67t97.5 29.5v67h39v-67q65 -6 115 -43.5t66 -94.5l-47 -14q-12 41 -49 69t-85 33
v-284l33 -7q77 -17 125.5 -72t48.5 -125q0 -52 -27.5 -96.5zM286 392v277q-61 -5 -102.5 -44.5t-41.5 -92.5q0 -46 32.5 -82.5t83.5 -49.5l3 -1zM405 52.5q36 21.5 57 55t21 72.5q0 53 -38 94.5t-98 54.5q-17 4 -22 5v-307q44 4 80 25.5z" />
    <glyph glyph-name="asciitilde" unicode="~" horiz-adv-x="580" 
d="M468 349.5q35 24.5 52 67.5l-33 13q-13 -34 -38.5 -52t-59.5 -18q-23 0 -43 10.5t-43 33.5q-24 25 -50.5 39.5t-61.5 14.5q-44 0 -79 -24.5t-52 -67.5l33 -13q14 34 39 52t59 18q24 0 44 -10.5t43 -33.5q23 -24 49.5 -39t61.5 -15q44 0 79 24.5z" />
    <glyph glyph-name="equal" unicode="=" horiz-adv-x="645" 
d="M585 397h-525v-35h525v35zM585 188h-525v-35h525v35z" />
    <glyph glyph-name="greater" unicode="&#x3e;" horiz-adv-x="627" 
d="M80 0v40l410 195l-410 194v39l467 -221v-26z" />
    <glyph glyph-name="less" unicode="&#x3c;" horiz-adv-x="627" 
d="M547 0v40l-410 195l410 194v39l-467 -221v-26z" />
    <glyph glyph-name="minus" unicode="&#x2212;" horiz-adv-x="435" 
d="M375 293h-315v-35h315v35z" />
    <glyph glyph-name="percent" unicode="%" horiz-adv-x="937" 
d="M236 -26l527 753h-42l-527 -753h42zM329 344q38 34 49 98q7 39 7 66v1q0 28 -7 66q-11 64 -49.5 98t-81.5 35q-43 -1 -81 -35t-49 -98q-7 -38 -7 -66v-1q0 -27 7 -66q11 -64 49.5 -98t81.5 -34t81 34zM309.5 635q24.5 -31 31.5 -68q5 -33 5 -59q0 -25 -5 -58
q-7 -37 -31.5 -68t-62.5 -31q-37 0 -61.5 31t-31.5 68q-5 33 -5 59q0 25 5 58q7 37 31.5 68t61.5 31q38 0 62.5 -31zM791 28q38 34 49 98q7 39 7 66v1q0 28 -7 66q-11 64 -49.5 98t-81.5 35q-43 -1 -81 -35t-49 -98q-7 -38 -7 -66v-1q0 -27 7 -66q11 -64 49.5 -98t81.5 -34
t81 34zM771.5 319q24.5 -31 31.5 -68q5 -32 5 -59q0 -25 -5 -58q-6 -36 -31 -67.5t-63 -31.5q-37 0 -61.5 31t-31.5 68q-5 33 -5 59t5 58q7 37 31.5 68t61.5 31q38 0 62.5 -31z" />
    <glyph glyph-name="plus" unicode="+" horiz-adv-x="610" 
d="M550 258h-228v-228h-35v228h-227v35h227v227h35v-227h228v-35z" />
    <glyph glyph-name="at" unicode="@" horiz-adv-x="818" 
d="M526 250l95 285h-53l-24 -64q-17 45 -45 63q-28 20 -60 20q-51 0 -96 -25q-45 -26 -74 -67q-31 -40 -48 -92q-17 -53 -17 -102q0 -29 9 -56q9 -24 26 -45q18 -21 41 -31q24 -12 55 -12q37 0 70 21q30 19 56 45h2q3 -34 21 -50q20 -17 45 -17q41 0 82 23q41 22 74 61
q34 40 53 92q20 50 20 111q0 69 -25 125q-25 55 -71 97q-43 41 -106 64q-60 22 -133 22q-76 0 -141 -28q-65 -27 -116 -77q-49 -49 -78 -116q-28 -66 -28 -144t27 -146q26 -65 76 -118q50 -49 117 -78q65 -28 147 -28q46 0 92 12t85 34q44 27 73 56q35 35 56 73h-51
q-22 -31 -50 -55q-30 -25 -63 -41q-35 -17 -69 -26q-36 -9 -73 -9q-68 0 -125 24q-59 26 -100 68q-43 44 -66 101q-24 59 -24 126t23 128q22 59 64 104q44 45 99 70q57 25 127 25q60 0 108 -17q51 -18 90 -51q37 -32 61 -82q22 -47 22 -110q0 -40 -14 -85q-13 -43 -36 -79
q-25 -37 -54 -58q-31 -23 -63 -23q-12 0 -18 7q-5 8 -5 18v7q0 5 2 19q3 13 8 31zM435 501q16 0 29 -8q13 -7 24 -20q12 -13 18 -30q7 -14 7 -34q0 -34 -13 -73q-11 -38 -35 -76q-24 -36 -52 -59q-30 -24 -64 -24q-37 0 -59 26q-23 24 -23 70q0 35 12 75q13 41 34 74
q24 35 53 57q31 22 69 22z" />
    <glyph glyph-name="ampersand" unicode="&#x26;" horiz-adv-x="688" 
d="M580 0l-90 99q-44 -68 -103.5 -91.5t-109.5 -23.5q-61 0 -113.5 27t-83 73t-30.5 100q0 41 18.5 79t52.5 66l94 74l-49 55q-19 20 -32 44.5t-13 59.5q0 38 18.5 70t51 50t70.5 18q39 0 71 -18t50.5 -50t18.5 -70q0 -65 -49 -106l-1 -1l-73 -57l203 -224q25 63 31 154
l43 -2q-6 -109 -42 -187l125 -139h-58zM249 430l75 59q34 29 34 73q0 40 -28 67.5t-69 27.5t-69 -27.5t-28 -67.5q0 -25 9.5 -42t24.5 -33zM374.5 49q50.5 22 86.5 83l-217 239l-96 -76q-26 -22 -40.5 -51t-14.5 -60q0 -43 25 -79t67 -57t92 -21q47 0 97.5 22z" />
    <glyph glyph-name="trademark" unicode="&#x2122;" horiz-adv-x="1461" 
d="M603 658h-249v-658h-42v658h-250v42h541v-42zM1399 700v-700h-42v602l-271 -602h-46l-271 602v-602h-42v700h44l292 -649l292 649h44z" />
    <glyph glyph-name="asciicircum" unicode="^" horiz-adv-x="519" 
d="M459 299l-187 401h-24l-188 -401h39l161 345l161 -345h38z" />
    </font>
</defs>
</svg>
