<?xml version="1.0" standalone="no"?>
<!DOCTYPE svg PUBLIC "-//W3C//DTD SVG 1.1//EN" "http://www.w3.org/Graphics/SVG/1.1/DTD/svg11.dtd" >
<svg xmlns="http://www.w3.org/2000/svg" xmlns:xlink="http://www.w3.org/1999/xlink" version="1.1">
<metadata>
Created by FontForge 20170924 at Mon Feb  6 08:51:19 2017
 By www-data
Copyright (c) 2017 by Monocromo s.n.c. All rights reserved.
</metadata>
<defs>
<font id="AronGrotesque-Black" horiz-adv-x="668" >
  <font-face 
    font-family="Aron Grotesque"
    font-weight="900"
    font-stretch="normal"
    units-per-em="1000"
    panose-1="2 0 5 4 3 0 0 2 0 4"
    ascent="750"
    descent="-250"
    x-height="508"
    cap-height="680"
    bbox="-55 -258 1224 956"
    underline-thickness="50"
    underline-position="-100"
    unicode-range="U+000D-FB06"
  />
<missing-glyph horiz-adv-x="707" 
d="M80 750h547v-750h-547v750zM196 107h316v535h-316v-535z" />
    <glyph glyph-name="fi" unicode="fi" horiz-adv-x="709" 
d="M626 508v-508h-137v383h-249v-383h-138v383h-79v125h79q0 49 15.5 94.5t47.5 80t82.5 55t121.5 20.5q24 0 56 -2.5t62 -5.5t54.5 -6.5t35.5 -6.5q23 -5 44 -26.5t21 -56.5t-25 -59t-60 -24q-31 0 -45 12.5t-25 23.5q-8 8 -18 15.5t-24 13t-33 9t-45 3.5q-30 0 -53.5 -5.5
t-40 -20.5t-25 -42.5t-8.5 -71.5h386z" />
    <glyph glyph-name="ff" unicode="ff" horiz-adv-x="798" 
d="M745 508l-16 -125h-94v-383h-137v383h-258v-383h-138v383h-79v125h79q0 49 9 94.5t31.5 80t60.5 55t96 20.5q30 0 57 -4.5t47 -9.5q24 -6 43 -14l-58 -96q-7 3 -17 7q-8 2 -19.5 4.5t-24.5 2.5q-44 0 -65.5 -31.5t-21.5 -108.5h258q0 49 5.5 94.5t22 80t48 55t83.5 20.5
q25 0 49 -4.5t44 -9.5q23 -6 43 -14l-57 -96q-17 5 -28.5 6t-16.5 1q-20 0 -31 -9t-16.5 -26t-7 -42t-1.5 -56h110z" />
    <glyph glyph-name="ffi" unicode="ffi" horiz-adv-x="1105" 
d="M1022 508v-508h-137v383h-249v-383h-138v383h-258v-383h-138v383h-79v125h79q0 49 9 94.5t31.5 80t60.5 55t96 20.5q30 0 57 -4.5t47 -9.5q24 -6 43 -14l-58 -96q-7 3 -17 7q-8 2 -19.5 4.5t-24.5 2.5q-44 0 -65.5 -31.5t-21.5 -108.5h258q0 49 15.5 94.5t47.5 80
t82.5 55t121.5 20.5q24 0 56 -2.5t62 -5.5t54.5 -6.5t35.5 -6.5q23 -5 44 -26.5t21 -56.5t-25 -59t-60 -24q-31 0 -45 12.5t-25 23.5q-8 8 -18 15.5t-24 13t-33 9t-45 3.5q-30 0 -53.5 -5.5t-40 -20.5t-25 -42.5t-8.5 -71.5h386z" />
    <glyph glyph-name="fl" unicode="fl" horiz-adv-x="699" 
d="M488 515q0 13 -4.5 35t-19 44t-40.5 38t-68 16q-22 0 -43 -8t-37 -25t-26 -43.5t-10 -63.5h110l-16 -125h-94v-383h-138v383h-79v125h79q0 50 13.5 95t42 79.5t73.5 55t108 20.5q45 0 74 -13t46 -28q19 -18 29 -41v74l138 8v-758h-138v515z" />
    <glyph glyph-name="s_t" unicode="st" horiz-adv-x="827" 
d="M674 380v-125q0 -54 1 -85.5t8 -48t21.5 -21t40.5 -4.5v-90q-9 -4 -19 -7q-19 -7 -42 -7q-20 0 -46 7t-48.5 26.5t-38 54t-15.5 89.5v211h-79v128h79q0 61 -27.5 93.5t-82.5 32.5q-37 0 -62 -25t-25 -63q0 -31 12 -54.5t21 -30.5l-91 -90q-6 6 -14 10q-7 4 -18 7t-26 3
q-14 0 -23.5 -7.5t-9.5 -18.5q0 -16 21.5 -27t50.5 -30q23 -15 45 -30.5t39.5 -35.5t28.5 -46.5t11 -63.5q0 -32 -13.5 -58t-36.5 -44t-53.5 -28t-63.5 -10q-35 0 -66.5 10.5t-54.5 24.5q-27 16 -50 36l87 85q8 -9 19 -16q10 -6 24 -10.5t33 -4.5t28.5 9t9.5 22
q0 17 -16.5 30.5t-42.5 30.5q-19 12 -43 26t-45 34.5t-35 50t-14 72.5q0 25 13 48t35.5 39.5t52.5 26.5t65 10q9 0 14 -1q-10 26 -10 64q0 35 14 67.5t40.5 57t64 39.5t84.5 15q43 0 87.5 -14t80 -44t58 -77.5t22.5 -114.5h110l-16 -128h-94z" />
    <glyph glyph-name="ffl" unicode="ffl" horiz-adv-x="1094" 
d="M883 515q0 13 -4.5 35t-19 44t-40.5 38t-68 16q-22 0 -43 -8t-37 -25t-26 -43.5t-10 -63.5h110l-16 -125h-94v-383h-138v383h-257v-383h-138v383h-79v125h79q0 49 9 94.5t31.5 80t60.5 55t96 20.5q30 0 57 -4.5t47 -9.5q24 -6 43 -14l-58 -96q-7 3 -17 7q-8 2 -19.5 4.5
t-24.5 2.5q-44 0 -65.5 -31.5t-21.5 -108.5h257q0 50 13.5 95t42 79.5t73.5 55t108 20.5q43 0 71.5 -11.5t45 -26.5t24 -28t8.5 -16v74l138 8v-758h-138v515z" />
    <glyph glyph-name="IJ" unicode="IJ" horiz-adv-x="736" 
d="M263 680v-494l-150 -16v510h150zM643 680v-410q0 -54 -13.5 -104t-43 -88.5t-77.5 -62t-117 -23.5q-64 0 -114.5 21t-79.5 56l115 117q4 -14 14 -25t22 -18t24 -10.5t20 -3.5q16 0 33.5 9.5t32.5 32t25 59.5t10 93v220h-103l17 137h235z" />
    <glyph glyph-name="ij" unicode="ij" horiz-adv-x="579" 
d="M340 654q0 18 6.5 33.5t18 27t27 18.5t33.5 7t33.5 -7t27 -18.5t18.5 -27t7 -33.5t-7 -33.5t-18.5 -27t-27 -18t-33.5 -6.5q-35 0 -60 25t-25 60zM93 508h137v-508h-137v508zM76 654q0 18 6.5 33.5t18 27t27 18.5t33.5 7t33.5 -7t27 -18.5t18.5 -27t7 -33.5t-7 -33.5
t-18.5 -27t-27 -18t-33.5 -6.5q-35 0 -60 25t-25 60zM230 -95q1 -3 3.5 -9.5t9.5 -13t19 -11t32 -4.5q18 0 30.5 6.5t20 23t10.5 43t3 67.5v501h138v-507q0 -61 -6 -109t-27 -81.5t-61 -51t-108 -17.5q-35 0 -61 5t-45 14.5t-32.5 22t-23.5 27.5z" />
    <glyph glyph-name="c_t" unicode="ct" horiz-adv-x="925" 
d="M397 346q-22 25 -46 35t-50 10t-48 -11t-38 -29.5t-25.5 -44t-9.5 -54.5q0 -28 9.5 -52.5t25.5 -43t38 -29t48 -10.5t50 10t46 35l92 -92q-36 -38 -85 -58t-103 -20q-53 0 -100 20t-82 55t-55.5 82.5t-20.5 102.5t20.5 103t55.5 84t82 56.5t100 20.5q7 0 15 -0.5t16 -1.5
q-9 19 -10 34.5t-1 31.5q0 35 14 67t40.5 57t64 39.5t84.5 14.5q43 0 87.5 -14t80 -44t58 -77.5t22.5 -114.5h110l-16 -128h-94v-125q0 -54 1 -85.5t8 -48t21.5 -21t40.5 -4.5v-90q-9 -4 -19 -7q-19 -7 -42 -7q-20 0 -46 7t-48.5 26.5t-38 54t-15.5 89.5v211h-79v128h79
q0 61 -30 93.5t-83 32.5q-36 0 -60 -22.5t-24 -64.5q0 -26 8 -46t18 -34q11 -17 27 -29z" />
    <glyph glyph-name=".notdef" horiz-adv-x="707" 
d="M80 750h547v-750h-547v750zM196 107h316v535h-316v-535z" />
    <glyph glyph-name="NULL" horiz-adv-x="0" 
 />
    <glyph glyph-name="NULL" horiz-adv-x="0" 
 />
    <glyph glyph-name="nonmarkingreturn" unicode="&#xd;" horiz-adv-x="250" 
 />
    <glyph glyph-name="space" unicode=" " horiz-adv-x="250" 
 />
    <glyph glyph-name="E" unicode="E" horiz-adv-x="566" 
d="M507 543h-264v-130h217v-137h-217v-139h280l-16 -137h-414v680h414v-137z" />
    <glyph glyph-name="F" unicode="F" horiz-adv-x="558" 
d="M515 543h-272v-161h241l-16 -137h-225v-245h-150v680h422v-137z" />
    <glyph glyph-name="G" unicode="G" horiz-adv-x="718" 
d="M423 350h217v-272q-47 -48 -109 -67t-134 -19t-134.5 27.5t-109 75t-73.5 111t-27 136.5q0 72 27 135.5t73.5 110t109 73.5t134.5 27q75 0 137.5 -27.5t110.5 -77.5l-109 -97q-26 30 -62 47.5t-77 17.5q-40 0 -75.5 -16.5t-61.5 -45.5t-41.5 -67.5t-15.5 -81.5
q0 -44 15.5 -82t41.5 -67t61.5 -45.5t75.5 -16.5q29 0 57.5 6t49.5 23v69h-98z" />
    <glyph glyph-name="H" unicode="H" horiz-adv-x="730" 
d="M637 680v-680h-150v276h-244v-276h-150v680h150v-267h244v268z" />
    <glyph glyph-name="I" unicode="I" horiz-adv-x="376" 
d="M263 680v-680l-150 -8v688h150z" />
    <glyph glyph-name="J" unicode="J" horiz-adv-x="480" 
d="M387 680v-407q0 -56 -6.5 -107t-27 -89.5t-59 -61.5t-103.5 -23q-54 0 -101.5 21t-76.5 56l113 116q11 -29 19.5 -42.5t31.5 -13.5q24 0 36 11t17.5 35t6 62.5t0.5 94.5v211h-102l17 137h235z" />
    <glyph glyph-name="K" unicode="K" horiz-adv-x="678" 
d="M93 680l150 8v-211l205 203h207l-257 -227l232 -453h-166l-181 350l-40 -34v-316h-150v680z" />
    <glyph glyph-name="L" unicode="L" horiz-adv-x="485" 
d="M93 0v680l150 8v-538h232l-14 -150h-368z" />
    <glyph glyph-name="N" unicode="N" horiz-adv-x="733" 
d="M640 8l-127 -16l-283 431v-423h-137v672l137 16l142 -213q27 -40 52 -78t45 -68l32 -48l12 -18v417h127v-672z" />
    <glyph glyph-name="O" unicode="O" horiz-adv-x="789" 
d="M53 340q0 72 27 135.5t73.5 110.5t109.5 74.5t134 27.5t134 -27.5t109.5 -74.5t73.5 -110.5t27 -135.5t-27 -135.5t-73.5 -110.5t-109.5 -74.5t-134 -27.5t-134 27.5t-109.5 74.5t-73.5 110.5t-27 135.5zM203 340q0 -44 15.5 -82.5t41.5 -67t61.5 -45t75.5 -16.5
t75.5 16.5t61.5 45t41.5 67t15.5 82.5q0 43 -15.5 81.5t-41.5 67.5t-61.5 45.5t-75.5 16.5t-75.5 -16.5t-61.5 -45.5t-41.5 -67.5t-15.5 -81.5z" />
    <glyph glyph-name="P" unicode="P" horiz-adv-x="571" 
d="M243 680h36q64 0 113 -17t81 -46.5t48.5 -69t16.5 -85.5t-16 -86t-47.5 -70t-78 -47t-107.5 -17h-46v-242h-150v672zM243 543v-172h36q62 0 85.5 19.5t23.5 66.5q0 48 -26 67t-83 19h-36z" />
    <glyph glyph-name="Q" unicode="Q" horiz-adv-x="794" 
d="M436 -6q-10 -1 -19 -1.5t-20 -0.5q-72 0 -134.5 27t-109 74t-73.5 110.5t-27 136.5q0 72 27 135.5t73.5 110.5t109.5 74.5t134 27.5t134 -27.5t109.5 -74.5t73.5 -110.5t27 -135.5q0 -94 -44 -171t-116 -124l93 -217l-153 -16zM203 340q0 -44 15.5 -82t41.5 -67
t61.5 -45.5t75.5 -16.5t75.5 16.5t61.5 45.5t41.5 67t15.5 82q0 43 -15.5 81.5t-41.5 67.5t-61.5 45.5t-75.5 16.5t-75.5 -16.5t-61.5 -45.5t-41.5 -67.5t-15.5 -81.5z" />
    <glyph glyph-name="R" unicode="R" horiz-adv-x="629" 
d="M575 466q0 -69 -38.5 -119.5t-99.5 -73.5l139 -265l-144 -16l-140 265h-49v-257h-150v672l150 8h98q54 0 97.5 -17t73.5 -46t46.5 -68t16.5 -83zM243 386h78q33 0 53.5 8t31.5 20t15 26t4 26q0 15 -4 28.5t-15 24.5t-31.5 17.5t-53.5 6.5h-78v-157z" />
    <glyph glyph-name="S" unicode="S" horiz-adv-x="511" 
d="M262 688q35 0 69 -10t60 -22q31 -14 59 -31l-77 -110q-26 22 -50 29t-48 7q-30 0 -48 -14.5t-18 -34.5q0 -27 21 -50.5t74 -54.5q46 -27 78 -50t52 -48t29.5 -54.5t9.5 -70.5q0 -44 -18 -78t-48 -57t-68 -35t-77 -12q-48 0 -87.5 14.5t-68.5 32.5q-34 20 -63 47l91 90
q15 -13 34 -24q17 -9 39 -16t49 -7q31 0 49 14.5t18 37.5q0 16 -6.5 29t-20 24.5t-33 23t-44.5 25.5q-32 18 -61 40t-51 50.5t-35 63.5t-13 79q0 29 12 59.5t36.5 55.5t63 41t91.5 16z" />
    <glyph glyph-name="T" unicode="T" horiz-adv-x="512" 
d="M181 543h-148v137h446v-137h-148v-543l-150 -8v551z" />
    <glyph glyph-name="U" unicode="U" horiz-adv-x="654" 
d="M581 281q0 -62 -14 -114.5t-44 -91.5t-77.5 -61t-114.5 -22q-71 0 -120 22t-79.5 61t-44.5 91.5t-14 114.5v399l150 8v-399q0 -38 3.5 -68t15 -50.5t33 -31t56.5 -10.5q33 0 55 9.5t35 29.5t18 50t5 71v391h137v-399z" />
    <glyph glyph-name="V" unicode="V" horiz-adv-x="678" 
d="M3 672l154 16l184 -421l179 421l155 -16l-288 -672h-96z" />
    <glyph glyph-name="W" unicode="W" horiz-adv-x="811" 
d="M3 672l150 16l94 -410l102 402h123l100 -414l89 422l147 -16l-162 -672h-108l-137 430l-113 -430h-123z" />
    <glyph glyph-name="X" unicode="X" horiz-adv-x="636" 
d="M5 672l163 16l155 -227l136 227l155 -16l-212 -329l229 -335l-165 -16l-161 235l-143 -235l-156 16l221 336z" />
    <glyph glyph-name="Y" unicode="Y" horiz-adv-x="569" 
d="M3 672l166 16l129 -195l110 195l158 -16l-203 -307v-365h-150v364z" />
    <glyph glyph-name="Z" unicode="Z" horiz-adv-x="584" 
d="M270 129h242l-16 -129h-453l265 551h-218v129h446z" />
    <glyph glyph-name="b" unicode="b" horiz-adv-x="642" 
d="M83 750l137 8v-328q12 24 30 43q16 16 41.5 29.5t63.5 13.5q42 0 85.5 -18.5t78.5 -52.5t57.5 -82t22.5 -106q0 -54 -19.5 -102t-52.5 -84t-77.5 -57.5t-94.5 -21.5q-38 0 -63.5 13t-41.5 30q-18 18 -30 43v-78h-137v750zM208 252q0 -27 9.5 -51.5t26.5 -43t40 -29.5
t49 -11q27 0 51 11t41 29.5t27 43t10 51.5q0 29 -10 54.5t-27 44t-41 29.5t-51 11q-26 0 -49 -11t-40 -29.5t-26.5 -44t-9.5 -54.5z" />
    <glyph glyph-name="c" unicode="c" horiz-adv-x="522" 
d="M489 70q-36 -37 -84 -57.5t-104 -20.5q-53 0 -100 20.5t-82 56t-55.5 83.5t-20.5 102t20.5 102t55.5 83.5t82 56t100 20.5q56 0 104 -20.5t84 -57.5l-92 -92q-22 25 -46 35t-50 10t-48 -11t-38 -29.5t-25.5 -44t-9.5 -54.5q0 -28 9.5 -52.5t25.5 -43t38 -29t48 -10.5
t50 10t46 35z" />
    <glyph glyph-name="d" unicode="d" horiz-adv-x="617" 
d="M549 0h-137v78q-12 -25 -30 -43q-16 -17 -41.5 -30t-63.5 -13q-50 0 -94.5 21.5t-77.5 57.5t-52.5 84t-19.5 102q0 58 22.5 106t57.5 82t78.5 52.5t85.5 18.5q38 0 63.5 -13.5t41.5 -29.5q18 -19 30 -43v320l137 8v-758zM424 252q0 29 -9.5 54.5t-26.5 44t-40 29.5
t-49 11q-27 0 -51 -11t-41 -29.5t-27 -44t-10 -54.5q0 -27 10 -51.5t27 -43t41 -29.5t51 -11q26 0 49 11t40 29.5t26.5 43t9.5 51.5z" />
    <glyph glyph-name="f" unicode="f" horiz-adv-x="402" 
d="M239 383v-383h-137v383h-79v125h79q0 49 5.5 94.5t22 80t48 55t83.5 20.5q25 0 49 -4.5t44 -9.5q23 -6 43 -14l-57 -96q-17 5 -28.5 6t-16.5 1q-20 0 -31 -9t-16.5 -26t-7 -42t-1.5 -56h111l-16 -125h-95z" />
    <glyph glyph-name="g" unicode="g" horiz-adv-x="622" 
d="M422 78q-12 -25 -30 -43q-16 -17 -41.5 -30t-63.5 -13q-50 0 -94.5 21.5t-77.5 57.5t-52.5 84t-19.5 102q0 58 22.5 106t57.5 82t78.5 52.5t85.5 18.5q38 0 63.5 -13.5t41.5 -29.5q18 -19 30 -43v78l137 8v-502q0 -81 -23 -133.5t-60.5 -83.5t-87 -43t-101.5 -12
q-25 0 -50 3t-48 10.5t-42.5 19.5t-34.5 29l95 95q5 -9 16 -16q9 -6 24.5 -11t39.5 -5q44 0 70.5 9t41 27.5t19 46t4.5 64.5v64zM434 252q0 29 -9.5 54.5t-26.5 44t-40 29.5t-49 11q-27 0 -51 -11t-41 -29.5t-27 -44t-10 -54.5q0 -27 10 -51.5t27 -43t41 -29.5t51 -11
q26 0 49 11t40 29.5t26.5 43t9.5 51.5z" />
    <glyph glyph-name="h" unicode="h" horiz-adv-x="576" 
d="M370 516q55 0 85.5 -21.5t44 -57t16 -80.5t2.5 -92v-265h-138v205q0 51 -1 86.5t-6.5 57.5t-17.5 32t-34 10q-19 0 -37 -5.5t-32 -12.5q-17 -8 -32 -18v-355h-137v750l137 8v-315q21 20 46 36q21 14 48 25.5t56 11.5z" />
    <glyph glyph-name="i" unicode="i" horiz-adv-x="313" 
d="M78 654q0 35 24 60t59 25t60 -25t25 -60t-25 -59t-60 -24t-59 24t-24 59zM93 508h137v-508h-137v508z" />
    <glyph glyph-name="j" unicode="j" horiz-adv-x="313" 
d="M230 1q0 -47 -9.5 -93t-34.5 -83t-68.5 -60t-110.5 -23q-14 0 -25.5 1t-19.5 3q-10 2 -17 4l47 118q2 -1 5 -1h10q20 0 36 6.5t27 23t17 43t6 67.5v501h137v-507zM77 654q0 35 24 60t59 25t60 -25t25 -60t-25 -59t-60 -24t-59 24t-24 59z" />
    <glyph glyph-name="k" unicode="k" horiz-adv-x="558" 
d="M83 680l137 8v-316l148 136h171l-168 -157l179 -351h-152l-137 265l-41 -37v-228h-137v680z" />
    <glyph glyph-name="l" unicode="l" horiz-adv-x="303" 
d="M93 750l137 8v-758h-137v750z" />
    <glyph glyph-name="m" unicode="m" horiz-adv-x="845" 
d="M639 516q54 0 84 -21.5t43.5 -57t16 -80.5t2.5 -92v-265h-137v205q0 51 -1 86.5t-6.5 57.5t-17.5 32t-34 10q-17 0 -33.5 -5.5t-29.5 -12.5q-15 -8 -29 -18v-355h-132v205q0 51 -1 86.5t-6.5 57.5t-17.5 32t-34 10q-17 0 -33.5 -5.5t-30.5 -12.5q-17 -8 -32 -18v-355
h-137v508l132 8l5 -73q39 34 79.5 53.5t80.5 19.5q41 0 66 -18t37 -46q35 25 74.5 44.5t91.5 19.5z" />
    <glyph glyph-name="n" unicode="n" horiz-adv-x="587" 
d="M388 516q53 0 81.5 -21.5t42 -57t15.5 -80.5t2 -91v-266h-137v205q0 51 -1 86.5t-6.5 57.5t-17.5 32t-34 10q-28 0 -50 -5.5t-39 -12.5q-19 -8 -34 -18v-355h-137v508l132 8l5 -73q37 30 82 51.5t96 21.5z" />
    <glyph glyph-name="o" unicode="o" horiz-adv-x="610" 
d="M43 254q0 54 20.5 102t56 83.5t83.5 56t102 20.5t102 -20.5t83.5 -56t56 -83.5t20.5 -102t-20.5 -102t-56 -83.5t-83.5 -56t-102 -20.5t-102 20.5t-83.5 56t-56 83.5t-20.5 102zM186 254q0 -28 9.5 -53t25.5 -43.5t37.5 -29.5t46.5 -11t46.5 11t37.5 29.5t25.5 43.5
t9.5 53t-9.5 53t-25.5 43.5t-37.5 29.5t-46.5 11t-46.5 -11t-37.5 -29.5t-25.5 -43.5t-9.5 -53z" />
    <glyph glyph-name="p" unicode="p" horiz-adv-x="627" 
d="M68 508l137 8v-86q12 24 30 43q16 16 41.5 29.5t63.5 13.5q42 0 85.5 -18.5t78.5 -52.5t57.5 -82t22.5 -106q0 -54 -19.5 -102t-52.5 -84t-77.5 -57.5t-94.5 -21.5q-38 0 -63.5 13t-41.5 30q-18 18 -30 43v-328h-137v758zM193 252q0 -27 9.5 -51.5t26.5 -43t40 -29.5
t49 -11q27 0 51 11t41 29.5t27 43t10 51.5q0 29 -10 54.5t-27 44t-41 29.5t-51 11q-26 0 -49 -11t-40 -29.5t-26.5 -44t-9.5 -54.5z" />
    <glyph glyph-name="q" unicode="q" horiz-adv-x="622" 
d="M559 -250h-137v328q-12 -25 -30 -43q-16 -17 -41.5 -30t-63.5 -13q-50 0 -94.5 21.5t-77.5 57.5t-52.5 84t-19.5 102q0 58 22.5 106t57.5 82t78.5 52.5t85.5 18.5q38 0 63.5 -13.5t41.5 -29.5q18 -19 30 -43v78l137 8v-766zM434 252q0 29 -9.5 54.5t-26.5 44t-40 29.5
t-49 11q-27 0 -51 -11t-41 -29.5t-27 -44t-10 -54.5q0 -27 10 -51.5t27 -43t41 -29.5t51 -11q26 0 49 11t40 29.5t26.5 43t9.5 51.5z" />
    <glyph glyph-name="r" unicode="r" horiz-adv-x="424" 
d="M339 384q-4 1 -8 3q-10 4 -23 4q-19 0 -36 -5.5t-31 -12.5q-16 -8 -31 -18v-355h-137v508l132 8l5 -73q39 36 73 54.5t76 18.5q16 0 27 -2.5t19 -4.5q9 -4 14 -7z" />
    <glyph glyph-name="s" unicode="s" horiz-adv-x="424" 
d="M219 516q37 0 65 -8.5t48 -19.5q23 -12 40 -27l-91 -90q-6 6 -14 10q-7 4 -18 7t-26 3q-14 0 -23.5 -7.5t-9.5 -18.5q0 -16 21.5 -27t50.5 -30q23 -15 45 -30.5t39.5 -35.5t28.5 -46.5t11 -63.5q0 -32 -13.5 -58t-36.5 -44t-53.5 -28t-63.5 -10q-35 0 -66.5 10.5
t-54.5 24.5q-27 16 -50 36l87 85q8 -9 19 -16q10 -6 24 -10.5t33 -4.5t28.5 9t9.5 22q0 17 -16.5 30.5t-42.5 30.5q-19 12 -43 26t-45 34.5t-35 50t-14 72.5q0 25 13 48t35.5 39.5t52.5 26.5t65 10z" />
    <glyph glyph-name="t" unicode="t" horiz-adv-x="403" 
d="M250 380v-125q0 -54 1 -85.5t8 -48t21.5 -21t40.5 -4.5v-90q-9 -4 -19 -7q-19 -7 -42 -7q-20 0 -46 7t-48.5 26.5t-38 54t-15.5 89.5v211h-79v128h79v172h138v-172h110l-16 -128h-94z" />
    <glyph glyph-name="u" unicode="u" horiz-adv-x="555" 
d="M201 -8q-56 0 -86 21.5t-43.5 57t-16 80.5t-2.5 92v265h138v-205q0 -51 1 -86.5t6.5 -57.5t17.5 -32t34 -10q18 0 36 5.5t32 12.5q17 8 32 18v355h137v-508l-130 -8l-7 73q-21 -21 -46 -37q-21 -14 -47.5 -25t-55.5 -11z" />
    <glyph glyph-name="v" unicode="v" horiz-adv-x="524" 
d="M8 508l144 8l114 -300l113 300l137 -8l-202 -508h-97z" />
    <glyph glyph-name="w" unicode="w" horiz-adv-x="667" 
d="M8 508l143 8l79 -284l75 276h78l84 -276l82 284l110 -8l-148 -508h-96l-77 228l-55 -228h-103z" />
    <glyph glyph-name="x" unicode="x" horiz-adv-x="515" 
d="M8 508l157 8l88 -147l95 147l125 -8l-145 -228l179 -280l-155 -8l-106 174l-109 -174l-129 8l158 260z" />
    <glyph glyph-name="y" unicode="y" horiz-adv-x="564" 
d="M5 508l147 8l136 -311l131 311l140 -8l-342 -766l-118 16l120 284z" />
    <glyph glyph-name="z" unicode="z" horiz-adv-x="477" 
d="M245 113h196l-14 -113h-394l198 395h-158v113h371z" />
    <glyph glyph-name="D" unicode="D" horiz-adv-x="716" 
d="M320 680q79 0 142.5 -24t108 -68.5t68.5 -108t24 -142.5q0 -77 -24 -139t-68.5 -106t-108 -68t-142.5 -24h-227v680h227zM296 137q61 0 102.5 10t67 33t36.5 61.5t11 95.5q0 60 -14.5 99.5t-42 63t-68 33.5t-92.5 10h-53v-406h53z" />
    <glyph glyph-name="A" unicode="A" horiz-adv-x="689" 
d="M532 -8l-50 117h-268l-47 -117l-154 16l285 672h102l286 -672zM271 246h151l-76 181z" />
    <glyph glyph-name="period" unicode="." horiz-adv-x="408" 
d="M60 76q0 35 24.5 59.5t59.5 24.5t59.5 -24.5t24.5 -59.5t-24.5 -59.5t-59.5 -24.5t-59.5 24.5t-24.5 59.5z" />
    <glyph glyph-name="comma" unicode="," horiz-adv-x="408" 
d="M60 -114q11 29 18 55.5t10.5 56.5t5 67t1.5 87l133 8q0 -31 -6 -69t-17 -77.5t-26.5 -77t-34.5 -66.5z" />
    <glyph glyph-name="colon" unicode=":" horiz-adv-x="408" 
d="M60 76q0 35 24.5 59.5t59.5 24.5t59.5 -24.5t24.5 -59.5t-24.5 -59.5t-59.5 -24.5t-59.5 24.5t-24.5 59.5zM60 424q0 18 6.5 33t18 26.5t27 18t32.5 6.5t32.5 -6.5t27 -18t18 -26.5t6.5 -33q0 -35 -24.5 -59.5t-59.5 -24.5t-59.5 24.5t-24.5 59.5z" />
    <glyph glyph-name="semicolon" unicode=";" horiz-adv-x="424" 
d="M76 424q0 18 6.5 33t18 26.5t27 18t32.5 6.5t32.5 -6.5t27 -18t18 -26.5t6.5 -33q0 -35 -24.5 -59.5t-59.5 -24.5t-59.5 24.5t-24.5 59.5zM60 -114q11 29 18 55.5t10.5 56.5t5 67t1.5 87l133 8q0 -31 -6 -69t-17 -77.5t-26.5 -77t-34.5 -66.5z" />
    <glyph glyph-name="quoteleft" unicode="&#x2018;" horiz-adv-x="337" 
d="M292 734q-8 -27 -12 -44.5t-6.5 -35t-3 -41t-0.5 -62.5l-130 -12q0 62 17.5 118t49.5 101z" />
    <glyph glyph-name="quoteright" unicode="&#x2019;" horiz-adv-x="392" 
d="M145 758q32 -45 49.5 -101t17.5 -118l-129 12q0 39 -0.5 62.5t-3 41t-7 35t-12.5 44.5z" />
    <glyph glyph-name="quotedblleft" unicode="&#x201c;" horiz-adv-x="532" 
d="M292 734q-8 -27 -12 -44.5t-6.5 -35t-3 -41t-0.5 -62.5l-130 -12q0 62 17.5 118t49.5 101zM487 734q-8 -27 -12.5 -44.5t-7 -35t-3 -41t-0.5 -62.5l-130 -12q0 62 17.5 118t49.5 101z" />
    <glyph glyph-name="quotedblright" unicode="&#x201d;" horiz-adv-x="587" 
d="M145 758q32 -45 49.5 -101t17.5 -118l-129 12q0 39 -0.5 62.5t-3 41t-7 35t-12.5 44.5zM340 758q32 -45 49.5 -101t17.5 -118l-130 12q0 39 -0.5 62.5t-3 41t-7 35t-12.5 44.5z" />
    <glyph glyph-name="exclam" unicode="!" horiz-adv-x="488" 
d="M140 76q0 35 24.5 59.5t59.5 24.5t59.5 -24.5t24.5 -59.5t-24.5 -59.5t-59.5 -24.5t-59.5 24.5t-24.5 59.5zM151 462v218h146v-218l-19 -217h-108z" />
    <glyph glyph-name="question" unicode="?" horiz-adv-x="625" 
d="M180 382q43 0 70 7t42.5 19.5t21.5 29.5t6 36t-6.5 36t-17.5 29.5t-26 19.5t-32 7q-27 0 -49.5 -13.5t-34.5 -48.5l-94 90q29 49 78 71.5t100 22.5q41 0 78.5 -16.5t66 -45t45.5 -66t17 -79.5q0 -35 -11 -66.5t-31 -57.5t-47 -44.5t-59 -26.5l-5 -69h-108l-14 165h10z
M154 76q0 17 6.5 32.5t18 27t26.5 18t33 6.5q35 0 59 -24.5t24 -59.5t-24 -59.5t-59 -24.5q-18 0 -33 6.5t-26.5 18t-18 27t-6.5 32.5z" />
    <glyph glyph-name="less" unicode="&#x3c;" 
d="M80 341l508 167v-140l-355 -108l355 -117v-143l-508 183v158z" />
    <glyph glyph-name="lessequal" unicode="&#x2264;" 
d="M588 0h-508v125h508v-125zM588 508v-131l-252 -60l252 -61v-131l-508 128v128z" />
    <glyph glyph-name="equal" unicode="=" 
d="M80 438h508v-125h-508v125zM80 211h508v-125h-508v125z" />
    <glyph glyph-name="approxequal" unicode="&#x2248;" 
d="M80 399q17 15 37 26q17 10 40 18.5t50 8.5q38 0 67.5 -10.5t57.5 -22.5t58 -22.5t71 -10.5q30 0 53.5 8t40.5 18q19 11 33 26v-125q-14 -16 -33 -27q-17 -10 -40.5 -18t-53.5 -8q-39 0 -68.5 10.5t-57.5 22.5t-58 22.5t-70 10.5q-27 0 -50 -8t-40 -18q-20 -11 -37 -26
v125zM80 211q17 15 37 26q17 10 40 18.5t50 8.5q38 0 67.5 -10.5t57.5 -22.5t58 -22.5t71 -10.5q30 0 53.5 8t40.5 18q19 11 33 26v-125q-14 -16 -33 -27q-17 -10 -40.5 -18t-53.5 -8q-39 0 -68.5 10.5t-57.5 22.5t-58 22.5t-70 10.5q-27 0 -50 -8t-40 -18q-20 -11 -37 -26
v125z" />
    <glyph glyph-name="logicalnot" unicode="&#xac;" 
d="M80 344h508v-254h-137v129h-371v125z" />
    <glyph glyph-name="greater" unicode="&#x3e;" 
d="M588 183l-508 -183v143l355 117l-355 108v140l508 -167v-158z" />
    <glyph glyph-name="greaterequal" unicode="&#x2265;" 
d="M80 125h508v-125h-508v125zM588 381v-128l-508 -128v131l252 61l-252 60v131z" />
    <glyph glyph-name="hyphen" unicode="-" horiz-adv-x="569" 
d="M80 324h409v-126h-409v126z" />
    <glyph glyph-name="endash" unicode="&#x2013;" horiz-adv-x="707" 
d="M80 324h547v-126h-547v126z" />
    <glyph glyph-name="emdash" unicode="&#x2014;" horiz-adv-x="896" 
d="M80 324h736v-126h-736v126z" />
    <glyph glyph-name="periodcentered" unicode="&#xb7;" horiz-adv-x="488" 
d="M160 261q0 35 24.5 59.5t59.5 24.5t59.5 -24.5t24.5 -59.5t-24.5 -59.5t-59.5 -24.5t-59.5 24.5t-24.5 59.5z" />
    <glyph glyph-name="asterisk" unicode="*" horiz-adv-x="609" 
d="M363 750q-4 -21 -6.5 -39l-5 -36t-4 -38t-3.5 -46q35 25 71.5 51.5t77.5 37.5l36 -142q-26 0 -45 -0.5t-36.5 -1.5t-35 -4t-39.5 -7q32 -28 67 -58t56 -65l-129 -71q-3 15 -8 35t-12 40.5t-15 39t-17 30.5q-9 -22 -18 -41.5t-19.5 -38t-24 -36.5t-31.5 -37l-105 106
q10 7 29 16.5t39 21t38.5 23.5t27.5 24q-43 8 -89 16.5t-82 29.5l75 126q4 -5 17.5 -19.5t30 -30t34 -30t30.5 -19.5q-15 42 -26.5 81.5t-11.5 81.5h134z" />
    <glyph glyph-name="plus" unicode="+" 
d="M80 325h186v183h137v-183h185v-126h-185v-199h-137v199h-186v126z" />
    <glyph glyph-name="plusminus" unicode="&#xb1;" 
d="M80 399h186v119h137v-119h185v-115h-185v-119h-137v119h-186v115zM80 115h508v-115h-508v115z" />
    <glyph glyph-name="slash" unicode="/" horiz-adv-x="470" 
d="M259 680h131l-178 -680h-132z" />
    <glyph glyph-name="backslash" unicode="\" horiz-adv-x="470" 
d="M390 0h-133l-177 680h131z" />
    <glyph glyph-name="fraction" unicode="&#x2044;" horiz-adv-x="470" 
d="M259 680h131l-178 -680h-132z" />
    <glyph glyph-name="at" unicode="@" horiz-adv-x="872" 
d="M669 341q0 53 -19 96.5t-51.5 74.5t-74.5 48t-88 17t-88 -17.5t-74.5 -48.5t-51.5 -75t-19 -96q0 -47 16 -89.5t48 -75.5t79.5 -52.5t110.5 -19.5l-21 -111q-74 0 -139 27.5t-113 74.5t-76 110.5t-28 135.5t28 135.5t76 110.5t113 74.5t139 27.5t139 -27.5t113 -74.5
t76 -110.5t28 -135.5q0 -62 -12.5 -108.5t-34 -78t-50.5 -47t-62 -15.5q-34 0 -59.5 12.5t-43 31t-28 39.5t-13.5 39q-4 -10 -13 -18.5t-21 -15t-24 -10t-22 -3.5q-31 0 -51.5 8.5t-32.5 22.5t-17 31t-5 34q0 35 15.5 56t40 33t54.5 17t58 9q0 19 -5 33.5t-33 14.5
q-16 0 -27.5 -1.5t-19.5 -3.5q-10 -3 -16 -5l-46 79q20 7 42 13q19 5 41 9.5t45 4.5q45 0 70 -17.5t36 -44t13 -57t2 -56.5t0.5 -55.5t4.5 -54.5t13 -42t25 -17q21 0 37 40t16 124zM465 265q3 12 5 25q1 7 1 13q-28 0 -47.5 -7t-19.5 -29q0 -12 6 -23t17 -11q15 0 24 9
t14 23z" />
    <glyph glyph-name="parenleft" unicode="(" horiz-adv-x="403" 
d="M358 -94q-61 0 -103 20t-67.5 69.5t-36.5 133.5t-11 211t11 211t36.5 133.5t67.5 69.5t103 20l-22 -125q-22 -9 -34 -37t-17.5 -69t-6.5 -93t-1 -110t1 -110t6.5 -93.5t17.5 -69t34 -36.5z" />
    <glyph glyph-name="parenright" unicode=")" horiz-adv-x="458" 
d="M82 31q22 9 34 36.5t17.5 69t6.5 93.5t1 110t-1 110t-6.5 93t-17.5 69t-34 37l-22 125q61 0 103 -20t67.5 -69.5t36.5 -133.5t11 -211t-11 -211t-36.5 -133.5t-67.5 -69.5t-103 -20z" />
    <glyph glyph-name="bracketright" unicode="]" horiz-adv-x="457" 
d="M277 -94h-217l15 125h65v618h-65l-15 125h217v-868z" />
    <glyph glyph-name="bracketleft" unicode="[" horiz-adv-x="402" 
d="M140 774h217l-15 -125h-65v-618h65l15 -125h-217v868z" />
    <glyph glyph-name="braceleft" unicode="{" horiz-adv-x="497" 
d="M430 649q-17 -3 -26.5 -13.5t-14.5 -34t-8 -64.5t-7 -106q-1 -17 -6.5 -33t-17 -28.5t-28.5 -20.5t-41 -9q24 -1 41 -9t28.5 -20.5t17 -28.5t6.5 -33q4 -65 7 -106t8 -64.5t14.5 -34t26.5 -13.5l22 -125q-56 0 -96 15.5t-66 55t-39 108t-16 174.5l-95 29v104l95 29
q3 106 16 174.5t39 108t66 55t96 15.5z" />
    <glyph glyph-name="braceright" unicode="}" horiz-adv-x="552" 
d="M60 774q56 0 96 -15.5t66 -55t39 -108t16 -174.5l95 -29v-104l-95 -29q-3 -106 -16 -174.5t-39 -108t-66 -55t-96 -15.5l22 125q17 3 26.5 13.5t14.5 34t8 64.5t7 106q1 17 6.5 33t17 28.5t28.5 20.5t41 9q-24 1 -41 9t-28.5 20.5t-17 28.5t-6.5 33q-4 65 -7 106t-8 64.5
t-14.5 34t-26.5 13.5z" />
    <glyph glyph-name="guillemotleft" unicode="&#xab;" horiz-adv-x="878" 
d="M80 341l352 167v-142l-244 -113l244 -113v-140l-352 163v178zM446 341l352 167v-142l-244 -113l244 -113v-140l-352 163v178z" />
    <glyph glyph-name="quotedblbase" unicode="&#x201e;" horiz-adv-x="587" 
d="M60 -90q8 27 12.5 44.5t7 35t3 41t0.5 62.5l129 12q0 -62 -17.5 -118t-49.5 -101zM254 -90q8 27 12.5 44.5t7 35t3 41t0.5 62.5l130 12q0 -62 -17.5 -118t-49.5 -101z" />
    <glyph glyph-name="quotesinglbase" unicode="&#x201a;" horiz-adv-x="392" 
d="M60 -90q8 27 12.5 44.5t7 35t3 41t0.5 62.5l129 12q0 -62 -17.5 -118t-49.5 -101z" />
    <glyph glyph-name="quotesingle" unicode="'" horiz-adv-x="291" 
d="M80 750h131l-24 -211h-83z" />
    <glyph glyph-name="quotedbl" unicode="&#x22;" horiz-adv-x="470" 
d="M80 750h131l-24 -211h-83zM259 750h131l-24 -211h-83z" />
    <glyph glyph-name="exclamdbl" unicode="&#x203c;" horiz-adv-x="754" 
d="M140 76q0 35 24.5 59.5t59.5 24.5t59.5 -24.5t24.5 -59.5t-24.5 -59.5t-59.5 -24.5t-59.5 24.5t-24.5 59.5zM151 462v218h146v-218l-19 -217h-108zM407 76q0 17 6.5 32.5t18 27t26.5 18t33 6.5q35 0 59 -24.5t24 -59.5t-24 -59.5t-59 -24.5q-18 0 -33 6.5t-26.5 18
t-18 27t-6.5 32.5zM417 462v218h147v-218l-19 -217h-108z" />
    <glyph glyph-name="exclamdown" unicode="&#xa1;" horiz-adv-x="403" 
d="M145 604q0 35 24.5 59.5t59.5 24.5t59.5 -24.5t24.5 -59.5t-24.5 -59.5t-59.5 -24.5t-59.5 24.5t-24.5 59.5zM175 435h108l19 -217v-218h-146v218z" />
    <glyph glyph-name="questiondown" unicode="&#xbf;" horiz-adv-x="570" 
d="M405 298q-43 0 -70 -7t-42.5 -19.5t-21.5 -29.5t-6 -36t6.5 -36t17.5 -29.5t26 -19.5t32 -7q27 0 49.5 13.5t34.5 48.5l94 -90q-15 -25 -35 -42.5t-43 -29t-49 -17t-51 -5.5q-41 0 -78.5 16.5t-66 45t-45.5 66t-17 79.5q0 35 11 66.5t31 57.5t47 44.5t59 26.5l5 69h108
l14 -165h-10zM431 604q0 -17 -6.5 -32.5t-18 -27t-26.5 -18t-33 -6.5q-35 0 -59 24.5t-24 59.5t24 59.5t59 24.5q18 0 33 -6.5t26.5 -18t18 -27t6.5 -32.5z" />
    <glyph glyph-name="underscore" unicode="_" horiz-adv-x="707" 
d="M80 -8h547v-125h-547v125z" />
    <glyph glyph-name="brokenbar" unicode="&#xa6;" horiz-adv-x="457" 
d="M160 305v437l137 16v-437zM297 219v-461l-137 -16v461z" />
    <glyph glyph-name="bar" unicode="|" horiz-adv-x="457" 
d="M160 742l137 16v-1000l-137 -16v1000z" />
    <glyph glyph-name="percent" unicode="%" horiz-adv-x="949" 
d="M498 680h131l-177 -680h-132zM177 510q0 -19 5 -35.5t13 -28.5t18.5 -19t22.5 -7t22.5 7t19 19t13.5 28.5t5 35.5t-5 35.5t-13.5 29t-19 19.5t-22.5 7t-22.5 -7t-18.5 -19.5t-13 -29t-5 -35.5zM80 510q0 37 12 69.5t33 56.5t49.5 38t61.5 14t61.5 -14t49.5 -38
t33.5 -56.5t12.5 -69.5t-12.5 -69t-33.5 -56t-49.5 -38t-61.5 -14t-61.5 14t-49.5 38t-33 56t-12 69zM653 169q0 -19 5 -35.5t13 -28.5t18.5 -19t22.5 -7t22.5 7t19 19t13.5 28.5t5 35.5t-5 35.5t-13.5 29t-19 19.5t-22.5 7t-22.5 -7t-18.5 -19.5t-13 -29t-5 -35.5zM556 169
q0 37 12 69.5t33 56.5t49.5 38t61.5 14t61.5 -14t49.5 -38t33.5 -56.5t12.5 -69.5t-12.5 -69t-33.5 -56t-49.5 -38t-61.5 -14t-61.5 14t-49.5 38t-33 56t-12 69z" />
    <glyph glyph-name="asciicircum" unicode="^" 
d="M588 296h-150l-104 234l-104 -234h-150l173 384h162z" />
    <glyph glyph-name="ellipsis" unicode="&#x2026;" horiz-adv-x="735" 
d="M80 76q0 35 24.5 59.5t59.5 24.5t59.5 -24.5t24.5 -59.5t-24.5 -59.5t-59.5 -24.5t-59.5 24.5t-24.5 59.5zM284 76q0 17 6.5 32.5t18 27t26.5 18t33 6.5q35 0 59 -24.5t24 -59.5t-24 -59.5t-59 -24.5q-18 0 -33 6.5t-26.5 18t-18 27t-6.5 32.5zM487 76q0 35 24.5 59.5
t59.5 24.5q18 0 33 -6.5t26.5 -18t18 -27t6.5 -32.5t-6.5 -32.5t-18 -27t-26.5 -18t-33 -6.5q-35 0 -59.5 24.5t-24.5 59.5z" />
    <glyph glyph-name="asciitilde" unicode="~" horiz-adv-x="776" 
d="M281 372q36 0 66 -16t56.5 -34.5t50 -34.5t45.5 -16q29 0 44.5 13t22.5 30q8 18 9 43h121q-10 -58 -35 -104q-11 -20 -25.5 -38.5t-35 -32.5t-46.5 -23t-59 -9q-36 0 -66 16t-56.5 34.5t-50.5 34.5t-46 16q-29 0 -44.5 -13.5t-22.5 -29.5q-8 -19 -9 -43h-120q9 57 34 103
q10 19 25.5 38t35.5 33.5t46.5 23.5t59.5 9z" />
    <glyph glyph-name="dagger" unicode="&#x2020;" horiz-adv-x="630" 
d="M247 750h137v-234h166l-15 -125h-151v-383l-137 -16v399h-152l-15 125h167v234z" />
    <glyph glyph-name="daggerdbl" unicode="&#x2021;" horiz-adv-x="630" 
d="M80 555h167v195h137v-195h166l-15 -125h-151v-78h166l-15 -125h-151v-219l-137 -16v235h-152l-15 125h167v78h-152z" />
    <glyph glyph-name="minus" unicode="&#x2212;" 
d="M80 325h508v-126h-508v126z" />
    <glyph glyph-name="bullet" unicode="&#x2022;" horiz-adv-x="574" 
d="M160 261q0 26 10 49.5t27 41t40 27.5t50 10q26 0 49 -10t40.5 -27.5t27.5 -41t10 -49.5t-10 -49.5t-27.5 -40.5t-40.5 -27t-49 -10q-27 0 -50 10t-40 27t-27 40.5t-10 49.5z" />
    <glyph glyph-name="trademark" unicode="&#x2122;" horiz-adv-x="860" 
d="M501 517l-20 -181l-107 8l73 336h87l46 -151l46 151h92l62 -336l-103 -8l-22 181l-41 -181h-79zM369 586h-93v-242l-104 -8v250h-92v94h289v-94z" />
    <glyph glyph-name="section" unicode="&#xa7;" horiz-adv-x="590" 
d="M510 198q0 -43 -17 -76t-45 -56q31 -27 46.5 -59.5t15.5 -82.5q0 -44 -18 -78t-48 -57t-68 -35t-77 -12q-48 0 -87.5 14.5t-68.5 32.5q-34 20 -63 47l91 90q15 -13 34 -24q17 -9 39 -16t49 -7q31 0 49 14.5t18 37.5q0 16 -6.5 28t-20 22.5t-33 21t-44.5 24.5
q-32 18 -61 37.5t-51 44t-35 57t-13 76.5q0 33 15.5 67.5t47.5 60.5q-29 26 -46 60.5t-17 85.5q0 29 12 59.5t36.5 55.5t63 41t91.5 16q35 0 69 -10t60 -22q31 -14 59 -31l-77 -110q-26 22 -50 29t-48 7q-30 0 -48 -14.5t-18 -34.5q0 -14 7 -23.5t19.5 -18.5t30 -18
t38.5 -21q46 -26 78.5 -49t52.5 -48t29 -55t9 -71zM360 205q0 23 -13 39t-39 33q-29 -2 -45.5 -15.5t-16.5 -33.5q0 -23 19 -38t51 -35q44 11 44 50z" />
    <glyph glyph-name="copyright" unicode="&#xa9;" horiz-adv-x="872" 
d="M80 410q0 72 28 135.5t76 110.5t113 74.5t139 27.5t139 -27.5t113 -74.5t76 -110.5t28 -135.5t-28 -135.5t-76 -110.5t-113 -74.5t-139 -27.5t-139 27.5t-113 74.5t-76 110.5t-28 135.5zM561 289q-24 -26 -56 -40.5t-69 -14.5q-34 0 -64 14t-52 38t-35 56t-13 68t13 68
t35 56t52 38t64 14q73 0 125 -55l-82 -77q-5 5 -11.5 12.5t-28.5 7.5q-6 0 -13.5 -2.5t-14.5 -9t-11.5 -19t-4.5 -33.5t4 -33.5t10.5 -19t13.5 -9t13 -2.5q22 0 29 7.5t12 12.5zM203 410q0 -50 18 -93t49.5 -75t74 -50.5t91.5 -18.5t91.5 18.5t74 50.5t49.5 75t18 93t-18 93
t-49.5 75t-74 50.5t-91.5 18.5t-91.5 -18.5t-74 -50.5t-49.5 -75t-18 -93z" />
    <glyph glyph-name="ordfeminine" unicode="&#xaa;" horiz-adv-x="430" 
d="M272 403l-6 47q-4 -10 -13 -18.5t-21 -15t-24 -10t-22 -3.5q-31 0 -51.5 8.5t-32.5 22.5t-17 31t-5 34q0 35 15.5 56t40 33t54.5 17t58 9q0 19 -5 33.5t-33 14.5q-16 0 -27.5 -1.5t-19.5 -3.5q-10 -3 -16 -5l-46 79q20 7 42 13q19 5 41 9.5t45 4.5q45 0 70 -17.5t36 -44
t13 -57t2 -56.5v-175zM242 502q3 12 5 25q1 7 1 13q-28 0 -47.5 -7t-19.5 -29q0 -12 6 -23t17 -11q15 0 24 9t14 23z" />
    <glyph glyph-name="degree" unicode="&#xb0;" horiz-adv-x="501" 
d="M195 594q0 -24 16 -41t39 -17t39.5 17t16.5 41q0 23 -16.5 40t-39.5 17t-39 -17t-16 -40zM80 595q0 34 13.5 63.5t36.5 51.5t54 35t66 13t66 -13t54.5 -35t37 -51.5t13.5 -63.5t-13.5 -63.5t-37 -51.5t-54.5 -34.5t-66 -12.5t-66 12.5t-54 34.5t-36.5 51.5t-13.5 63.5z
" />
    <glyph glyph-name="mu" unicode="&#xb5;" horiz-adv-x="595" 
d="M367 -8q-29 0 -56 11t-48 25q-25 16 -46 37v-315l-137 -8v766h137v-355q15 -10 32 -18q14 -7 32 -12.5t37 -5.5q22 0 34 10t17.5 32t6.5 57.5t1 86.5v205h138v-265q0 -47 -2.5 -92t-16 -80.5t-44 -57t-85.5 -21.5z" />
    <glyph glyph-name="paragraph" unicode="&#xb6;" horiz-adv-x="755" 
d="M493 555h-57v-805h-137v492q-46 0 -86 16.5t-69.5 45.5t-46.5 68.5t-17 85.5t17 86.5t46.5 70.5t69.5 47.5t86 17.5h376v-125h-45v-805h-137v805z" />
    <glyph glyph-name="multiply" unicode="&#xd7;" horiz-adv-x="613" 
d="M301 168l-130 -132l-90 88l135 129l-136 138l92 92l137 -135l133 137l88 -90l-136 -132l139 -138l-95 -94z" />
    <glyph glyph-name="divide" unicode="&#xf7;" 
d="M249 76q0 17 6.5 32.5t18 27t26.5 18t33 6.5q35 0 59 -24.5t24 -59.5t-24 -59.5t-59 -24.5q-18 0 -33 6.5t-26.5 18t-18 27t-6.5 32.5zM249 424q0 35 24.5 59.5t59.5 24.5q17 0 32 -6.5t26.5 -18t18 -26.5t6.5 -33q0 -35 -24 -59.5t-59 -24.5q-18 0 -33 6.5t-26.5 18
t-18 27t-6.5 32.5zM80 315h508v-125h-508v125z" />
    <glyph glyph-name="currency" unicode="&#xa4;" horiz-adv-x="989" 
d="M252 254q0 35 9.5 67.5t26.5 60.5l-128 118l169 16l44 -53q26 16 57 24.5t64 8.5t64 -8.5t59 -24.5l43 53l169 -16l-129 -119q36 -56 36 -127q0 -35 -9.5 -67.5t-26.5 -60.5l129 -118l-169 -16l-43 53q-56 -33 -123 -33q-68 0 -121 32l-44 -52l-169 16l128 118
q-17 28 -26.5 60t-9.5 68zM389 254q0 -24 8 -45.5t22.5 -37.5t33.5 -25t41 -9t41 9t33 25t22.5 37.5t8.5 45.5t-8.5 45.5t-22.5 37.5t-33 25t-41 9t-41 -9t-33.5 -25t-22.5 -37.5t-8 -45.5z" />
    <glyph glyph-name="cent" unicode="&#xa2;" horiz-adv-x="766" 
d="M350 1q-42 11 -76.5 34t-60 56t-39.5 74t-14 87t14 87.5t39.5 74.5t60 57t76.5 36v95l137 16v-112q34 -8 64 -25.5t55 -42.5l-92 -92q-22 25 -46 35t-50 10t-48 -11t-38 -29.5t-25.5 -44t-9.5 -54.5q0 -28 9.5 -52.5t25.5 -43t38 -29t48 -10.5t50 10t46 35l92 -92
q-50 -51 -119 -68v-96l-137 -16v111z" />
    <glyph glyph-name="dollar" unicode="$" horiz-adv-x="750" 
d="M310 1q-34 9 -61.5 23t-47.5 28q-23 16 -41 34l92 91q16 -13 34 -24q16 -9 38 -16.5t49 -7.5q31 0 49 14.5t18 37.5q0 19 -12 34t-32 28t-45 25.5t-51 26.5q-24 13 -46.5 30t-39.5 40.5t-27.5 53t-10.5 67.5q0 24 8 48.5t24.5 46.5t41.5 39.5t60 26.5v95l137 16v-109
q31 -8 56 -17.5t42 -17.5q20 -10 36 -19l-77 -112q-15 10 -32 18q-15 7 -34 13t-40 6q-41 0 -56.5 -15t-15.5 -33q0 -16 10 -28.5t27 -24t38.5 -23t45.5 -24.5q26 -14 51.5 -32.5t46 -43.5t33 -57.5t12.5 -74.5q0 -36 -11.5 -64t-31.5 -48t-46 -33t-54 -20v-93l-137 -16v111
z" />
    <glyph glyph-name="Euro" unicode="&#x20ac;" horiz-adv-x="965" 
d="M178 467h56q18 49 50 89.5t74 69.5t92.5 45.5t105.5 16.5q75 0 138 -27.5t111 -77.5l-109 -97q-27 30 -62.5 47.5t-77.5 17.5q-48 0 -88.5 -23t-66.5 -61h285l-18 -100h-304q-2 -6 -2 -13.5v-13.5v-10t1 -9h308l-18 -100h-257q26 -42 68 -67t92 -25q42 0 78.5 18.5
t62.5 47.5l103 -102q-47 -48 -109.5 -74.5t-134.5 -26.5q-56 0 -107 17t-93 47.5t-74 72.5t-50 92h-72l18 100h35q-1 5 -1 10v11v12.5t1 12.5h-53z" />
    <glyph glyph-name="franc" unicode="&#x20a3;" horiz-adv-x="835" 
d="M178 180h72v500h425v-137h-276v-152h242l-16 -137h-226v-74h112l-18 -100h-94v-80h-149v80h-90z" />
    <glyph glyph-name="sterling" unicode="&#xa3;" horiz-adv-x="776" 
d="M445 551q-11 0 -21.5 -5t-19.5 -17.5t-14.5 -32.5t-5.5 -50v-125h99l-18 -100h-81v-71h232l-14 -150h-368v221h-74l18 100h56v132q0 112 51 173.5t156 61.5q47 0 77.5 -15t49.5 -32q22 -21 34 -47l-94 -89q-7 13 -20.5 29.5t-42.5 16.5z" />
    <glyph glyph-name="yen" unicode="&#xa5;" horiz-adv-x="883" 
d="M187 399h159l-186 273l166 16l129 -195l110 195l158 -16l-181 -273h153v-100h-175v-66h175v-100h-175v-133h-150v133h-183v100h183v66h-183v100z" />
    <glyph glyph-name="lira" unicode="&#x20a4;" horiz-adv-x="776" 
d="M234 453q0 112 51 173.5t156 61.5q47 0 77.5 -15t49.5 -32q22 -21 34 -47l-94 -89q-7 13 -20.5 29.5t-42.5 16.5q-11 0 -21.5 -5t-19.5 -17.5t-14.5 -32.5t-5.5 -50v-4h99l-18 -100h-81v-46h99l-18 -100h-81v-46h232l-14 -150h-368v196h-74l18 100h56v46h-74l18 100h56
v11z" />
    <glyph glyph-name="peseta" unicode="&#x20a7;" horiz-adv-x="939" 
d="M175 493h79v187h170q67 0 116 -15t81 -40.5t50 -59.5t24 -72h84l-15 -100h-72q-8 -38 -27.5 -70.5t-51 -56.5t-75.5 -38t-100 -14h-34v-214h-150v393h-94zM432 343q50 0 74.5 13t34.5 37h-137v-50h28zM404 493h137q-12 24 -37.5 37t-71.5 13h-28v-50z" />
    <glyph glyph-name="colonmonetary" unicode="&#x20a1;" horiz-adv-x="987" 
d="M768 70q-36 -38 -84.5 -58t-103.5 -20q-24 0 -46.5 4t-43.5 12l-56 -97l-110 41l69 120q-6 6 -12 13t-11 15l-100 -172l-110 41l161 281q1 1 1 4q0 40 11.5 77t32 68t49 55.5t62.5 39.5l80 137l109 -44l-48 -74q10 -2 19 -4l18 -4l63 108l109 -44l-73 -119q5 -3 7.5 -5.5
l6.5 -6.5l-92 -92q-21 25 -45.5 35t-50.5 10q-25 0 -47 -11t-38 -29.5t-25.5 -44t-9.5 -54.5q0 -28 9.5 -52.5t25.5 -43t38 -29t47 -10.5q26 0 50.5 10t45.5 35z" />
    <glyph glyph-name="florin" unicode="&#x192;" horiz-adv-x="773" 
d="M318 383h-85l19 125h66q0 49 5.5 94.5t22 80t48 55t83.5 20.5q25 0 49 -4.5t44 -9.5q23 -6 43 -14l-57 -96q-17 5 -28.5 6t-16.5 1q-20 0 -31 -9t-16.5 -26t-7 -42t-1.5 -56h114l-23 -125h-91v-391q0 -49 -5.5 -94.5t-22 -80t-48 -55t-83.5 -20.5q-26 0 -49.5 4.5
t-43.5 9.5q-23 6 -43 14l57 96q17 -5 28.5 -6t16.5 -1q19 0 30.5 9t17 26t7 41.5t1.5 56.5v391z" />
    <glyph glyph-name="numbersign" unicode="#" horiz-adv-x="1096" 
d="M458 268h130l50 144h-131zM275 538h129l50 142h145l-49 -142h130l50 142h145l-49 -142h110l-22 -126h-131l-49 -144h109l-22 -126h-130l-48 -142h-145l48 142h-131l-48 -142h-145l48 142h-110l22 126h130l50 144h-109z" />
    <glyph glyph-name="Eth" unicode="&#xd0;" horiz-adv-x="716" 
d="M27 391h66v289h227q79 0 142.5 -24t108 -68.5t68.5 -108t24 -142.5q0 -77 -24 -139t-68.5 -106t-108 -68t-142.5 -24h-227v294h-81zM296 137q61 0 102.5 10t67 33t36.5 61.5t11 95.5q0 60 -14.5 99.5t-42 63t-68 33.5t-92.5 10h-53v-152h110l-15 -97h-95v-157h53z" />
    <glyph glyph-name="eth" unicode="&#xf0;" horiz-adv-x="620" 
d="M129 619l110 37q-13 12 -31 26.5t-35 27.5q-20 15 -41 29l174 19l23 -23q9 -10 18.5 -20t15.5 -18l121 41l33 -73l-102 -34q33 -45 61.5 -89t49.5 -90.5t33.5 -95t12.5 -102.5q0 -53 -21.5 -100.5t-57.5 -83.5t-83.5 -57t-99.5 -21q-53 0 -100.5 21t-83.5 57t-57 83.5
t-21 100.5t21 100.5t57 83.5t83.5 57t100.5 21q11 0 22.5 -0.5t21.5 -2.5q-13 19 -26.5 39.5t-30.5 38.5l-135 -45zM191 254q0 -29 9.5 -53.5t25.5 -43.5t37.5 -29.5t46.5 -10.5t46.5 10.5t37.5 29.5t25.5 43.5t9.5 53.5q0 28 -9.5 53t-25.5 44t-37.5 29.5t-46.5 10.5
t-46.5 -10.5t-37.5 -29.5t-25.5 -44t-9.5 -53z" />
    <glyph glyph-name="germandbls" unicode="&#xdf;" horiz-adv-x="615" 
d="M78 0v508q0 58 8 104t30 78.5t59 50t96 17.5q18 0 49.5 -5t62.5 -20.5t53.5 -44.5t22.5 -78q0 -38 -11 -67t-24.5 -53.5t-24.5 -46t-11 -44.5q0 -26 22 -47.5t51 -40.5q21 -13 44 -29t42.5 -37t32 -48.5t12.5 -64.5q0 -32 -13.5 -58t-37 -44t-54.5 -28t-66 -10
t-66.5 10.5t-54.5 24.5q-27 16 -50 36l83 81q9 -9 20 -16q10 -6 25 -10.5t35 -4.5q19 0 30.5 9.5t11.5 22.5q0 22 -17.5 33.5t-43.5 28.5q-18 12 -43 26.5t-47 35t-37.5 50t-15.5 72.5q0 32 11 55.5t24.5 45t25 45t11.5 56.5q0 16 -12 28t-35 12q-27 0 -44 -31t-17 -107
v-495h-137z" />
    <glyph glyph-name="breve" unicode="&#x2d8;" horiz-adv-x="490" 
d="M199 727q0 -28 12.5 -39.5t33.5 -11.5t33.5 11.5t12.5 39.5l56 15q2 -6 2.5 -17t0.5 -17q0 -52 -27 -85t-78 -33t-78 33t-27 85q0 6 0.5 17t2.5 17z" />
    <glyph glyph-name="caron" unicode="&#x2c7;" horiz-adv-x="552" 
d="M412 703l-136 -131l-136 131l30 47q6 -3 20.5 -12t31.5 -18.5t32 -18.5t22 -12q6 3 21.5 12t32.5 18.5t31.5 18.5t20.5 12z" />
    <glyph glyph-name="cedilla" unicode="&#xb8;" horiz-adv-x="459" 
d="M247 -118q0 16 -12.5 20t-22.5 6q-11 2 -14 9t-3 15q0 4 2 9.5t4 8.5l32 54l68 4l-39 -66q57 -32 57 -96q0 -22 -8 -41t-22 -33t-33.5 -22t-41.5 -8q-27 0 -45.5 11t-28.5 20l54 89q5 -3 11.5 -4.5t12.5 -1.5q17 0 23 7.5t6 18.5z" />
    <glyph glyph-name="dotaccent" unicode="&#x2d9;" horiz-adv-x="424" 
d="M140 636q0 30 21 51t51 21t51 -21t21 -51t-21 -51t-51 -21t-51 21t-21 51z" />
    <glyph glyph-name="hungarumlaut" unicode="&#x2dd;" horiz-adv-x="599" 
d="M300 630q10 5 16 18.5t9 30t2.5 34t-1.5 31.5q-1 6 -1 10.5t-1 6.5q-1 3 -2 5l137 -24q-3 -23 -16.5 -50t-32.5 -51t-40 -41t-40 -20zM140 630q11 5 17 18.5t8.5 30t2.5 34t-1 31.5q-2 13 -3 17q-1 3 -2 5l138 -24q-3 -23 -16.5 -50t-32.5 -51t-40 -41t-40 -20z" />
    <glyph glyph-name="grave" unicode="`" horiz-adv-x="507" 
d="M342 580q-55 9 -106.5 36.5t-95.5 71.5l105 104q10 -32 27 -64q14 -27 37 -56.5t58 -49.5z" />
    <glyph glyph-name="ogonek" unicode="&#x2db;" horiz-adv-x="473" 
d="M289 0q-18 -18 -31 -36q-12 -16 -21.5 -35.5t-9.5 -38.5q0 -9 7 -23t24 -14q12 0 19 5q4 2 5 5l51 -83q-2 -5 -7 -11.5t-14 -12.5t-22.5 -10t-32.5 -4q-23 0 -44 9t-37 25t-26 38t-10 49q0 42 27 74t65 63h57z" />
    <glyph glyph-name="ring" unicode="&#x2da;" horiz-adv-x="495" 
d="M140 665q0 22 8.5 41.5t23 34t34 23t41.5 8.5t41.5 -8.5t34.5 -23t23.5 -34t8.5 -41.5t-8.5 -41.5t-23.5 -34t-34.5 -23t-41.5 -8.5t-41.5 8.5t-34 23t-23 34t-8.5 41.5zM213 665q0 -14 10.5 -24.5t24.5 -10.5t24.5 10.5t10.5 24.5t-10.5 24.5t-24.5 10.5t-24.5 -10.5
t-10.5 -24.5z" />
    <glyph glyph-name="tilde" unicode="&#x2dc;" horiz-adv-x="694" 
d="M554 724q-1 -18 -4.5 -44t-14.5 -50t-31.5 -41t-56.5 -17q-26 0 -53 13t-53.5 28t-49.5 28t-40 13t-28 -6t-17.5 -15t-9.5 -18.5t-4 -16.5h-52q1 18 4.5 44t14 50t31.5 41t57 17q26 0 53.5 -13t54 -28t49 -28t39.5 -13t28 6t17.5 15t9.5 18.5t4 16.5h52z" />
    <glyph glyph-name="zerosuperior" unicode="&#x2070;" horiz-adv-x="463" 
d="M80 510q0 37 12 69.5t32 56.5t47.5 38t59.5 14q31 0 59 -14t48.5 -38t32.5 -56.5t12 -69.5t-12 -69t-32.5 -56t-48.5 -38t-59 -14q-32 0 -59.5 14t-47.5 38t-32 56t-12 69zM174 510q0 -19 5 -35.5t13 -28.5t18 -19t21 -7q22 0 40 26t18 64q0 19 -5 35.5t-13 29
t-18.5 19.5t-21.5 7t-21 -7t-18 -19.5t-13 -29t-5 -35.5z" />
    <glyph glyph-name="onesuperior" unicode="&#xb9;" horiz-adv-x="324" 
d="M97 680h147v-339h-93v252h-71z" />
    <glyph glyph-name="twosuperior" unicode="&#xb2;" horiz-adv-x="377" 
d="M194 688q45 0 74 -27t29 -74q0 -19 -6 -31l-15 -30l-52 -98h73l-8 -87h-209l107 204q8 14 10.5 20.5t2.5 13.5q0 9 -6.5 15.5t-17.5 6.5q-8 0 -14.5 -2.5t-11.5 -4.5q-6 -4 -11 -7l-50 69q18 15 47.5 23.5t57.5 8.5z" />
    <glyph glyph-name="threesuperior" unicode="&#xb3;" horiz-adv-x="377" 
d="M185 688q21 0 39.5 -8t32 -21.5t21.5 -32t8 -39.5q0 -22 -9 -39.5t-23 -31.5q20 -14 31.5 -34.5t11.5 -46.5q0 -21 -8.5 -39.5t-22.5 -32.5t-33.5 -22t-41.5 -8q-24 0 -44 7.5t-35 16.5q-18 11 -32 25l53 52q7 -5 14 -9q6 -3 14 -5.5t17 -2.5q15 0 22.5 8.5t7.5 17.5
q0 15 -12.5 25t-39.5 10h-17l9 77h18q17 0 24.5 8.5t7.5 18.5q0 9 -5.5 16t-18.5 7q-6 0 -13 -3t-13 -6l-14 -8l-44 67q13 9 28 16q13 6 30 11.5t37 5.5z" />
    <glyph glyph-name="foursuperior" unicode="&#x2074;" horiz-adv-x="425" 
d="M224 680h87v-212h34l-8 -79h-26v-48h-85v48h-146v72zM226 468v106l-68 -106h68z" />
    <glyph glyph-name="fivesuperior" unicode="&#x2075;" horiz-adv-x="377" 
d="M206 454q0 10 -3 18.5t-11.5 13.5t-25 8t-43.5 3l23 183h139l-9 -85h-55l-6 -48q44 -13 63 -40t19 -62q0 -23 -8.5 -43.5t-23.5 -35.5t-35.5 -24t-44.5 -9q-23 0 -42.5 7.5t-33.5 16.5q-17 11 -29 24l56 56q5 -5 10 -9q5 -3 11.5 -5.5t16.5 -2.5q17 0 24.5 10t7.5 24z
" />
    <glyph glyph-name="sixsuperior" unicode="&#x2076;" horiz-adv-x="368" 
d="M80 440q0 19 5 35.5t13 30.5l90 174h92l-87 -161l29 26q10 -2 21.5 -10t21.5 -21.5t16.5 -32.5t6.5 -41t-8 -41.5t-22 -34t-33 -23t-41 -8.5t-41 8.5t-33 23t-22 34t-8 41.5zM160 441q0 -14 7 -24t17 -10t17 10t7 24t-7 24.5t-17 10.5t-17 -10.5t-7 -24.5z" />
    <glyph glyph-name="sevensuperior" unicode="&#x2077;" horiz-adv-x="370" 
d="M80 599l9 81h201l-113 -339h-88l86 258h-95z" />
    <glyph glyph-name="eightsuperior" unicode="&#x2078;" horiz-adv-x="375" 
d="M295 439q0 -22 -8.5 -41.5t-23 -33.5t-34 -22.5t-42.5 -8.5t-42.5 8.5t-34 22.5t-22.5 33.5t-8 41.5q0 32 17 53t39 35q-16 13 -28 30.5t-12 43.5q0 37 26 62t65 25q40 0 65.5 -25t25.5 -62q0 -26 -11.5 -43.5t-27.5 -30.5q22 -14 39 -35t17 -53zM161 439
q0 -12 6.5 -22.5t19.5 -10.5t20 10.5t7 22.5q0 28 -27 45q-12 -8 -19 -19t-7 -26zM187 620q-6 0 -12.5 -5.5t-6.5 -18.5q0 -11 5.5 -21t13.5 -16q8 6 14.5 16t6.5 21q0 13 -7 18.5t-14 5.5z" />
    <glyph glyph-name="ninesuperior" unicode="&#x2079;" horiz-adv-x="368" 
d="M288 581q0 -19 -5 -35.5t-13 -30.5l-90 -174h-92l87 161l-29 -26q-10 2 -21.5 10t-21.5 21.5t-16.5 32t-6.5 41.5q0 22 8 41.5t22 34t33 23t41 8.5t41 -8.5t33 -23t22 -34t8 -41.5zM208 580q0 14 -7 24t-17 10t-17 -10t-7 -24t7 -24.5t17 -10.5t17 10.5t7 24.5z" />
    <glyph glyph-name="parenleftsuperior" unicode="&#x207d;" horiz-adv-x="318" 
d="M238 297q-22 0 -49.5 8.5t-51.5 31.5t-40.5 65t-16.5 108t16.5 108t40.5 65t51.5 31.5t49.5 8.5l-16 -95q-26 -8 -34.5 -41t-8.5 -77t8.5 -77t34.5 -41z" />
    <glyph glyph-name="parenrightsuperior" unicode="&#x207e;" horiz-adv-x="318" 
d="M96 392q26 8 34.5 41t8.5 77t-8.5 77t-34.5 41l-16 95q22 0 49.5 -8.5t51.5 -31.5t40.5 -65t16.5 -108t-16.5 -108t-40.5 -65t-51.5 -31.5t-49.5 -8.5z" />
    <glyph glyph-name="zeroinferior" unicode="&#x2080;" horiz-adv-x="463" 
d="M80 169q0 37 12 69.5t32 56.5t47.5 38t59.5 14q31 0 59 -14t48.5 -38t32.5 -56.5t12 -69.5t-12 -69t-32.5 -56t-48.5 -38t-59 -14q-32 0 -59.5 14t-47.5 38t-32 56t-12 69zM174 169q0 -19 5 -35.5t13 -28.5t18 -19t21 -7q22 0 40 26t18 64q0 19 -5 35.5t-13 29
t-18.5 19.5t-21.5 7t-21 -7t-18 -19.5t-13 -29t-5 -35.5z" />
    <glyph glyph-name="oneinferior" unicode="&#x2081;" horiz-adv-x="324" 
d="M97 339h147v-339h-93v252h-71z" />
    <glyph glyph-name="twoinferior" unicode="&#x2082;" horiz-adv-x="377" 
d="M194 347q45 0 74 -27t29 -74q0 -19 -6 -31l-15 -30l-52 -98h73l-8 -87h-209l107 204q8 14 10.5 20.5t2.5 13.5q0 9 -6.5 15.5t-17.5 6.5q-8 0 -14.5 -2.5t-11.5 -4.5q-6 -4 -11 -7l-50 69q18 15 47.5 23.5t57.5 8.5z" />
    <glyph glyph-name="threeinferior" unicode="&#x2083;" horiz-adv-x="377" 
d="M185 347q21 0 39.5 -8t32 -21.5t21.5 -32t8 -39.5q0 -22 -9 -39.5t-23 -31.5q20 -14 31.5 -34.5t11.5 -46.5q0 -21 -8.5 -39.5t-22.5 -32.5t-33.5 -22t-41.5 -8q-24 0 -44 7.5t-35 16.5q-18 11 -32 25l53 52q7 -5 14 -9q6 -3 14 -5.5t17 -2.5q15 0 22.5 8.5t7.5 17.5
q0 15 -12.5 25t-39.5 10h-17l9 77h18q17 0 24.5 8.5t7.5 18.5q0 9 -5.5 16t-18.5 7q-6 0 -13 -3t-13 -6l-14 -8l-44 67q13 9 28 16q13 6 30 11.5t37 5.5z" />
    <glyph glyph-name="fourinferior" unicode="&#x2084;" horiz-adv-x="425" 
d="M224 339h87v-212h34l-8 -79h-26v-48h-85v48h-146v72zM226 127v106l-68 -106h68z" />
    <glyph glyph-name="fiveinferior" unicode="&#x2085;" horiz-adv-x="377" 
d="M206 113q0 10 -3 18.5t-11.5 13.5t-25 8t-43.5 3l23 183h139l-9 -85h-55l-6 -48q44 -13 63 -40t19 -62q0 -23 -8.5 -43.5t-23.5 -35.5t-35.5 -24t-44.5 -9q-23 0 -42.5 7.5t-33.5 16.5q-17 11 -29 24l56 56q5 -5 10 -9q5 -3 11.5 -5.5t16.5 -2.5q17 0 24.5 10t7.5 24z
" />
    <glyph glyph-name="sixinferior" unicode="&#x2086;" horiz-adv-x="368" 
d="M80 99q0 19 5 35.5t13 30.5l90 174h92l-87 -161l29 26q10 -2 21.5 -10t21.5 -21.5t16.5 -32.5t6.5 -41t-8 -41.5t-22 -34t-33 -23t-41 -8.5t-41 8.5t-33 23t-22 34t-8 41.5zM160 100q0 -14 7 -24t17 -10t17 10t7 24t-7 24.5t-17 10.5t-17 -10.5t-7 -24.5z" />
    <glyph glyph-name="seveninferior" unicode="&#x2087;" horiz-adv-x="370" 
d="M80 258l9 81h201l-113 -339h-88l86 258h-95z" />
    <glyph glyph-name="eightinferior" unicode="&#x2088;" horiz-adv-x="375" 
d="M295 98q0 -22 -8.5 -41.5t-23 -33.5t-34 -22.5t-42.5 -8.5t-42.5 8.5t-34 22.5t-22.5 33.5t-8 41.5q0 32 17 53t39 35q-16 13 -28 30.5t-12 43.5q0 37 26 62t65 25q40 0 65.5 -25t25.5 -62q0 -26 -11.5 -43.5t-27.5 -30.5q22 -14 39 -35t17 -53zM161 98q0 -12 6.5 -22.5
t19.5 -10.5t20 10.5t7 22.5q0 28 -27 45q-12 -8 -19 -19t-7 -26zM187 279q-6 0 -12.5 -5.5t-6.5 -18.5q0 -11 5.5 -21t13.5 -16q8 6 14.5 16t6.5 21q0 13 -7 18.5t-14 5.5z" />
    <glyph glyph-name="nineinferior" unicode="&#x2089;" horiz-adv-x="368" 
d="M288 240q0 -19 -5 -35.5t-13 -30.5l-90 -174h-92l87 161l-29 -26q-10 2 -21.5 10t-21.5 21.5t-16.5 32t-6.5 41.5q0 22 8 41.5t22 34t33 23t41 8.5t41 -8.5t33 -23t22 -34t8 -41.5zM208 239q0 14 -7 24t-17 10t-17 -10t-7 -24t7 -24.5t17 -10.5t17 10.5t7 24.5z" />
    <glyph glyph-name="parenleftinferior" unicode="&#x208d;" horiz-adv-x="318" 
d="M238 -43q-22 0 -49.5 8.5t-51.5 31.5t-40.5 65t-16.5 108t16.5 108t40.5 65t51.5 31.5t49.5 8.5l-16 -95q-26 -8 -34.5 -41t-8.5 -77t8.5 -77t34.5 -41z" />
    <glyph glyph-name="parenrightinferior" unicode="&#x208e;" horiz-adv-x="318" 
d="M96 52q26 8 34.5 41t8.5 77t-8.5 77t-34.5 41l-16 95q22 0 49.5 -8.5t51.5 -31.5t40.5 -65t16.5 -108t-16.5 -108t-40.5 -65t-51.5 -31.5t-49.5 -8.5z" />
    <glyph glyph-name="notequal" unicode="&#x2260;" 
d="M80 438h223l25 70h142l-24 -70h142v-125h-185l-34 -102h219v-125h-262l-29 -86h-142l29 86h-104v125h147l34 102h-181v125z" />
    <glyph glyph-name="guillemotright" unicode="&#xbb;" horiz-adv-x="878" 
d="M798 163l-352 -163v140l243 113l-243 113v142l352 -167v-178zM432 163l-352 -163v140l243 113l-243 113v142l352 -167v-178z" />
    <glyph glyph-name="guilsinglleft" unicode="&#x2039;" horiz-adv-x="570" 
d="M80 341l410 167v-139l-275 -109l275 -107v-153l-410 183v158z" />
    <glyph glyph-name="guilsinglright" unicode="&#x203a;" horiz-adv-x="570" 
d="M490 183l-410 -183v153l276 107l-276 109v139l410 -167v-158z" />
    <glyph glyph-name="ordmasculine" unicode="&#xba;" horiz-adv-x="591" 
d="M80 580q0 37 14 69.5t38 56.5t56.5 38t69.5 14q23 0 38.5 -5t25.5 -10q11 -6 19 -14l55 29l115 -16l-87 -96q4 -9 8.5 -30t4.5 -36q0 -37 -14 -69t-38.5 -56t-57 -38t-69.5 -14t-69.5 14t-56.5 38t-38 56t-14 69zM177 579q0 -18 6 -34t16.5 -28.5t25.5 -20t33 -7.5
t33.5 7.5t26 20t16.5 28.5t6 34q0 17 -6 33.5t-16.5 29t-26 20t-33.5 7.5t-33 -7.5t-25.5 -20t-16.5 -29t-6 -33.5z" />
    <glyph glyph-name="registered" unicode="&#xae;" horiz-adv-x="872" 
d="M80 410q0 72 28 135.5t76 110.5t113 74.5t139 27.5t139 -27.5t113 -74.5t76 -110.5t28 -135.5t-28 -135.5t-76 -110.5t-113 -74.5t-139 -27.5t-139 27.5t-113 74.5t-76 110.5t-28 135.5zM203 410q0 -50 18 -93t49.5 -75t74 -50.5t91.5 -18.5t91.5 18.5t74 50.5t49.5 75
t18 93t-18 93t-49.5 75t-74 50.5t-91.5 18.5t-91.5 -18.5t-74 -50.5t-49.5 -75t-18 -93zM446 578q21 0 46.5 -3t47.5 -14.5t36.5 -33.5t14.5 -60q0 -42 -17 -64t-41 -33l64 -120l-108 -16l-63 122h-20v-114h-104v336h144zM406 482v-37h40q25 0 33 5t8 16q0 9 -7.5 12.5
t-33.5 3.5h-40z" />
    <glyph glyph-name="perthousand" unicode="&#x2030;" horiz-adv-x="1304" 
d="M498 680h131l-177 -680h-132zM177 510q0 -19 5 -35.5t13 -28.5t18.5 -19t22.5 -7t22.5 7t19 19t13.5 28.5t5 35.5t-5 35.5t-13.5 29t-19 19.5t-22.5 7t-22.5 -7t-18.5 -19.5t-13 -29t-5 -35.5zM80 510q0 37 12 69.5t33 56.5t49.5 38t61.5 14t61.5 -14t49.5 -38
t33.5 -56.5t12.5 -69.5t-12.5 -69t-33.5 -56t-49.5 -38t-61.5 -14t-61.5 14t-49.5 38t-33 56t-12 69zM653 169q0 -19 5 -35.5t13 -28.5t18.5 -19t22.5 -7t22.5 7t19 19t13.5 28.5t5 35.5t-5 35.5t-13.5 29t-19 19.5t-22.5 7t-22.5 -7t-18.5 -19.5t-13 -29t-5 -35.5zM556 169
q0 37 12 69.5t33 56.5t49.5 38t61.5 14t61.5 -14t49.5 -38t33.5 -56.5t12.5 -69.5t-12.5 -69t-33.5 -56t-49.5 -38t-61.5 -14t-61.5 14t-49.5 38t-33 56t-12 69zM1008 169q0 -19 5 -35.5t13 -28.5t18.5 -19t22.5 -7t22.5 7t19 19t13.5 28.5t5 35.5t-5 35.5t-13.5 29
t-19 19.5t-22.5 7t-22.5 -7t-18.5 -19.5t-13 -29t-5 -35.5zM911 169q0 37 12 69.5t33 56.5t49.5 38t61.5 14t61.5 -14t49.5 -38t33.5 -56.5t12.5 -69.5t-12.5 -69t-33.5 -56t-49.5 -38t-61.5 -14t-61.5 14t-49.5 38t-33 56t-12 69z" />
    <glyph glyph-name="Thorn" unicode="&#xde;" horiz-adv-x="571" 
d="M93 680h150v-94h48q59 0 105 -17t77.5 -47t48 -70t16.5 -86t-16.5 -86t-47.5 -69t-75.5 -46t-100.5 -17h-55v-148l-150 -8v688zM271 277q34 0 57 4.5t36 15t18.5 26.5t5.5 40q0 48 -27 67t-90 19h-28v-172h28z" />
    <glyph glyph-name="thorn" unicode="&#xfe;" horiz-adv-x="676" 
d="M80 750l137 8v-328q12 24 30 43q16 16 41.5 29.5t63.5 13.5q42 0 85.5 -18.5t78.5 -52.5t57.5 -82t22.5 -106q0 -54 -19.5 -102t-52.5 -84t-77.5 -57.5t-94.5 -21.5q-38 0 -63.5 13t-41.5 30q-18 18 -30 43v-336l-137 8v1000zM205 252q0 -27 9.5 -51.5t26.5 -43t40 -29.5
t49 -11q27 0 51 11t41 29.5t27 43t10 51.5q0 29 -10 54.5t-27 44t-41 29.5t-51 11q-26 0 -49 -11t-40 -29.5t-26.5 -44t-9.5 -54.5z" />
    <glyph glyph-name="dotlessi" unicode="&#x131;" horiz-adv-x="313" 
d="M93 508h137v-508h-137v508z" />
    <glyph glyph-name="acute" unicode="&#xb4;" horiz-adv-x="507" 
d="M140 622q34 20 57.5 49.5t37.5 56.5q17 32 27 64l105 -104q-44 -44 -95.5 -71.5t-106.5 -36.5z" />
    <glyph glyph-name="circumflex" unicode="&#x2c6;" horiz-adv-x="552" 
d="M382 580q-6 3 -20.5 12t-31.5 18.5t-32.5 18.5t-21.5 12q-7 -3 -22 -12t-32 -18.5t-31.5 -18.5t-20.5 -12l-30 47l136 131l136 -131z" />
    <glyph glyph-name="dieresis" unicode="&#xa8;" horiz-adv-x="618" 
d="M140 636q0 30 21 51t51 21t51 -21t21 -51t-21 -51t-51 -21t-51 21t-21 51zM334 636q0 30 21 51t51 21t51 -21t21 -51t-21 -51t-51 -21t-51 21t-21 51z" />
    <glyph glyph-name="AE" unicode="&#xc6;" horiz-adv-x="820" 
d="M347 246v182l-76 -182h76zM214 109l-47 -117l-154 16l284 672h464v-137h-264v-130h217v-137h-217v-139h280l-16 -137h-414v109h-133z" />
    <glyph glyph-name="OE" unicode="&#x152;" horiz-adv-x="942" 
d="M883 543h-264v-130h217v-137h-217v-139h280l-16 -137h-410q-38 -8 -76 -8q-72 0 -134.5 27.5t-109 75t-73.5 111t-27 136.5q0 72 27 135.5t73.5 110t109 73.5t134.5 27q19 0 37.5 -2t38.5 -6h410v-137zM397 129q35 0 72 16v391q-35 15 -72 15q-40 0 -75.5 -16.5
t-61.5 -45.5t-41.5 -67.5t-15.5 -81.5q0 -44 15.5 -82t41.5 -67t61.5 -45.5t75.5 -16.5z" />
    <glyph glyph-name="oe" unicode="&#x153;" horiz-adv-x="961" 
d="M878 70q-36 -37 -84 -57.5t-104 -20.5q-57 0 -106.5 23t-84.5 63q-36 -40 -86 -63t-108 -23q-54 0 -102 20.5t-83.5 56t-56 83.5t-20.5 102t20.5 102t56 83.5t83.5 56t102 20.5q58 0 108 -23.5t86 -62.5q35 40 84.5 63t106.5 23q14 0 37.5 -2.5t50.5 -12t54.5 -28.5
t50 -52.5t36.5 -83t14 -120.5h-360q11 -48 45.5 -74t71.5 -26q23 0 46 8.5t50 36.5zM186 254q0 -28 9.5 -53t25.5 -43.5t37.5 -29.5t46.5 -11t46.5 11t37.5 29.5t25.5 43.5t9.5 53t-9.5 53t-25.5 43.5t-37.5 29.5t-46.5 11t-46.5 -11t-37.5 -29.5t-25.5 -43.5t-9.5 -53z
M690 391q-35 0 -64 -20t-44 -52h210q-8 30 -34 51t-68 21z" />
    <glyph glyph-name="nsuperior" unicode="&#x207f;" horiz-adv-x="538" 
d="M243 758q42 0 65 -14.5t34.5 -38.5t13.5 -54.5t2 -62.5v-180h-104v162q0 50 -5.5 79t-26.5 29q-12 0 -22.5 -5.5t-18.5 -11.5q-10 -8 -17 -17v-236h-104v345l80 5l8 -43q17 19 41 31t54 12z" />
    <glyph glyph-name="Eng" unicode="&#x14a;" horiz-adv-x="753" 
d="M650 23q0 -56 -6.5 -107t-27 -89.5t-59 -61.5t-103.5 -23q-54 0 -101.5 21t-76.5 56l113 116q11 -29 19.5 -42.5t31.5 -13.5q19 0 31 8t18 26t8.5 46t2.5 68l-260 396v-423h-137v672l137 16l260 -391v383h150v-657z" />
    <glyph glyph-name="eng" unicode="&#x14b;" horiz-adv-x="587" 
d="M388 516q53 0 81.5 -21.5t42 -57t15.5 -80.5t2 -91v-265q0 -47 -9.5 -93t-34.5 -83t-68.5 -60t-110.5 -23q-14 0 -25.5 1t-19.5 3q-10 2 -17 4l47 118q2 -1 5 -1h10q20 0 36 6.5t27 23t17 43t6 67.5v198q0 51 -1 86.5t-6.5 57.5t-17.5 32t-34 10q-28 0 -50 -5.5
t-39 -12.5q-19 -8 -34 -18v-355h-137v508l132 8l5 -73q37 30 82 51.5t96 21.5z" />
    <glyph glyph-name="estimated" unicode="&#x212e;" horiz-adv-x="684" 
d="M579 140q-32 -66 -95 -107t-142 -41q-54 0 -102 20.5t-83.5 56t-56 83.5t-20.5 102t20.5 102t56 83.5t83.5 56t102 20.5t102 -20.5t83.5 -56t56 -83.5t20.5 -102v-13.5t-1 -13.5h-376v-108q23 -23 52.5 -36t61.5 -13q50 0 82 17.5t58 52.5h98zM341 439q-32 0 -61.5 -14
t-52.5 -37v-90h227v90q-24 23 -54 37t-59 14z" />
    <glyph glyph-name="partialdiff" unicode="&#x2202;" horiz-adv-x="644" 
d="M189 742q23 8 47 12t50 4q57 0 108 -30t88.5 -82t59.5 -122t22 -149t-19 -149t-52 -122t-77 -82t-94 -30q-53 0 -97.5 21t-76.5 57t-50 83.5t-18 100.5t18 100.5t50 83.5t76.5 57t97.5 21q49 0 89 -20q-20 64 -53.5 100.5t-71.5 36.5q-13 0 -18.5 -1.5t-10.5 -3.5z
M335 391q-58 0 -88 -37t-30 -100t23.5 -100t81.5 -37q52 0 78 58.5t26 188.5q-10 7 -23 13q-11 5 -28 9.5t-40 4.5z" />
    <glyph glyph-name="uni00AD" unicode="&#xad;" horiz-adv-x="569" 
d="M80 324h409v-126h-409v126z" />
    <glyph glyph-name="periodcentered" horiz-adv-x="328" 
d="M80 261q0 35 24.5 59.5t59.5 24.5t59.5 -24.5t24.5 -59.5t-24.5 -59.5t-59.5 -24.5t-59.5 24.5t-24.5 59.5z" />
    <glyph glyph-name="onehalf" unicode="&#xbd;" horiz-adv-x="1013" 
d="M513 680h131l-177 -680h-133zM177 680h147v-339h-93v252h-71zM750 347q45 0 74 -27t29 -74q0 -19 -6 -31l-15 -30l-52 -98h73l-8 -87h-209l107 204q8 14 10.5 20.5t2.5 13.5q0 9 -6.5 15.5t-17.5 6.5q-8 0 -14.5 -2.5t-11.5 -4.5q-6 -4 -11 -7l-50 69q18 15 47.5 23.5
t57.5 8.5z" />
    <glyph glyph-name="onethird" unicode="&#x2153;" horiz-adv-x="1031" 
d="M518 680h131l-177 -680h-133zM177 680h147v-339h-93v252h-71zM759 347q21 0 39.5 -8t32 -21.5t21.5 -32t8 -39.5q0 -22 -9 -39.5t-23 -31.5q20 -14 31.5 -34.5t11.5 -46.5q0 -21 -8.5 -39.5t-22.5 -32.5t-33.5 -22t-41.5 -8q-24 0 -44 7.5t-35 16.5q-18 11 -32 25l53 52
q7 -5 14 -9q6 -3 14 -5.5t17 -2.5q15 0 22.5 8.5t7.5 17.5q0 15 -12.5 25t-39.5 10h-17l9 77h18q17 0 24.5 8.5t7.5 18.5q0 9 -5.5 16t-18.5 7q-6 0 -13 -3t-13 -6l-14 -8l-44 67q13 9 28 16q13 6 30 11.5t37 5.5z" />
    <glyph glyph-name="onequarter" unicode="&#xbc;" horiz-adv-x="1049" 
d="M518 680h131l-177 -680h-133zM177 680h147v-339h-93v252h-71zM768 339h87v-212h34l-8 -79h-26v-48h-85v48h-146v72zM770 127v106l-68 -106h68z" />
    <glyph glyph-name="oneeighth" unicode="&#x215b;" horiz-adv-x="1017" 
d="M518 680h131l-177 -680h-133zM177 680h147v-339h-93v252h-71zM857 98q0 -22 -8.5 -41.5t-23 -33.5t-34 -22.5t-42.5 -8.5t-42.5 8.5t-34 22.5t-22.5 33.5t-8 41.5q0 32 17 53t39 35q-16 13 -28 30.5t-12 43.5q0 37 26 62t65 25q40 0 65.5 -25t25.5 -62q0 -26 -11.5 -43.5
t-27.5 -30.5q22 -14 39 -35t17 -53zM723 98q0 -12 6.5 -22.5t19.5 -10.5t20 10.5t7 22.5q0 28 -27 45q-12 -8 -19 -19t-7 -26zM749 279q-6 0 -12.5 -5.5t-6.5 -18.5q0 -11 5.5 -21t13.5 -16q8 6 14.5 16t6.5 21q0 13 -7 18.5t-14 5.5z" />
    <glyph glyph-name="twothirds" unicode="&#x2154;" horiz-adv-x="1063" 
d="M562 680h131l-178 -680h-132zM274 688q45 0 74 -27t29 -74q0 -19 -6 -31l-15 -30l-52 -98h73l-8 -87h-209l107 204q8 14 10.5 20.5t2.5 13.5q0 9 -6.5 15.5t-17.5 6.5q-8 0 -14.5 -2.5t-11.5 -4.5q-6 -4 -11 -7l-50 69q18 15 47.5 23.5t57.5 8.5zM791 347q21 0 39.5 -8
t32 -21.5t21.5 -32t8 -39.5q0 -22 -9 -39.5t-23 -31.5q20 -14 31.5 -34.5t11.5 -46.5q0 -21 -8.5 -39.5t-22.5 -32.5t-33.5 -22t-41.5 -8q-24 0 -44 7.5t-35 16.5q-18 11 -32 25l53 52q7 -5 14 -9q6 -3 14 -5.5t17 -2.5q15 0 22.5 8.5t7.5 17.5q0 15 -12.5 25t-39.5 10h-17
l9 77h18q17 0 24.5 8.5t7.5 18.5q0 9 -5.5 16t-18.5 7q-6 0 -13 -3t-13 -6l-14 -8l-44 67q13 9 28 16q13 6 30 11.5t37 5.5z" />
    <glyph glyph-name="threequarters" unicode="&#xbe;" horiz-adv-x="1116" 
d="M573 680h131l-177 -680h-133zM265 688q21 0 39.5 -8t32 -21.5t21.5 -32t8 -39.5q0 -22 -9 -39.5t-23 -31.5q20 -14 31.5 -34.5t11.5 -46.5q0 -21 -8.5 -39.5t-22.5 -32.5t-33.5 -22t-41.5 -8q-24 0 -44 7.5t-35 16.5q-18 11 -32 25l53 52q7 -5 14 -9q6 -3 14 -5.5
t17 -2.5q15 0 22.5 8.5t7.5 17.5q0 15 -12.5 25t-39.5 10h-17l9 77h18q17 0 24.5 8.5t7.5 18.5q0 9 -5.5 16t-18.5 7q-6 0 -13 -3t-13 -6l-14 -8l-44 67q13 9 28 16q13 6 30 11.5t37 5.5zM835 339h87v-212h34l-8 -79h-26v-48h-85v48h-146v72zM837 127v106l-68 -106h68z" />
    <glyph glyph-name="threeeighths" unicode="&#x215c;" horiz-adv-x="1102" 
d="M583 680h131l-177 -680h-133zM265 688q21 0 39.5 -8t32 -21.5t21.5 -32t8 -39.5q0 -22 -9 -39.5t-23 -31.5q20 -14 31.5 -34.5t11.5 -46.5q0 -21 -8.5 -39.5t-22.5 -32.5t-33.5 -22t-41.5 -8q-24 0 -44 7.5t-35 16.5q-18 11 -32 25l53 52q7 -5 14 -9q6 -3 14 -5.5
t17 -2.5q15 0 22.5 8.5t7.5 17.5q0 15 -12.5 25t-39.5 10h-17l9 77h18q17 0 24.5 8.5t7.5 18.5q0 9 -5.5 16t-18.5 7q-6 0 -13 -3t-13 -6l-14 -8l-44 67q13 9 28 16q13 6 30 11.5t37 5.5zM942 98q0 -22 -8.5 -41.5t-23 -33.5t-34 -22.5t-42.5 -8.5t-42.5 8.5t-34 22.5
t-22.5 33.5t-8 41.5q0 32 17 53t39 35q-16 13 -28 30.5t-12 43.5q0 37 26 62t65 25q40 0 65.5 -25t25.5 -62q0 -26 -11.5 -43.5t-27.5 -30.5q22 -14 39 -35t17 -53zM808 98q0 -12 6.5 -22.5t19.5 -10.5t20 10.5t7 22.5q0 28 -27 45q-12 -8 -19 -19t-7 -26zM834 279
q-6 0 -12.5 -5.5t-6.5 -18.5q0 -11 5.5 -21t13.5 -16q8 6 14.5 16t6.5 21q0 13 -7 18.5t-14 5.5z" />
    <glyph glyph-name="fiveeighths" unicode="&#x215d;" horiz-adv-x="1102" 
d="M573 680h131l-177 -680h-133zM286 454q0 10 -3 18.5t-11.5 13.5t-25 8t-43.5 3l23 183h139l-9 -85h-55l-6 -48q44 -13 63 -40t19 -62q0 -23 -8.5 -43.5t-23.5 -35.5t-35.5 -24t-44.5 -9q-23 0 -42.5 7.5t-33.5 16.5q-17 11 -29 24l56 56q5 -5 10 -9q5 -3 11.5 -5.5
t16.5 -2.5q17 0 24.5 10t7.5 24zM942 98q0 -22 -8.5 -41.5t-23 -33.5t-34 -22.5t-42.5 -8.5t-42.5 8.5t-34 22.5t-22.5 33.5t-8 41.5q0 32 17 53t39 35q-16 13 -28 30.5t-12 43.5q0 37 26 62t65 25q40 0 65.5 -25t25.5 -62q0 -26 -11.5 -43.5t-27.5 -30.5q22 -14 39 -35
t17 -53zM808 98q0 -12 6.5 -22.5t19.5 -10.5t20 10.5t7 22.5q0 28 -27 45q-12 -8 -19 -19t-7 -26zM834 279q-6 0 -12.5 -5.5t-6.5 -18.5q0 -11 5.5 -21t13.5 -16q8 6 14.5 16t6.5 21q0 13 -7 18.5t-14 5.5z" />
    <glyph glyph-name="seveneighths" unicode="&#x215e;" horiz-adv-x="1052" 
d="M533 680h131l-177 -680h-133zM892 98q0 -22 -8.5 -41.5t-23 -33.5t-34 -22.5t-42.5 -8.5t-42.5 8.5t-34 22.5t-22.5 33.5t-8 41.5q0 32 17 53t39 35q-16 13 -28 30.5t-12 43.5q0 37 26 62t65 25q40 0 65.5 -25t25.5 -62q0 -26 -11.5 -43.5t-27.5 -30.5q22 -14 39 -35
t17 -53zM758 98q0 -12 6.5 -22.5t19.5 -10.5t20 10.5t7 22.5q0 28 -27 45q-12 -8 -19 -19t-7 -26zM784 279q-6 0 -12.5 -5.5t-6.5 -18.5q0 -11 5.5 -21t13.5 -16q8 6 14.5 16t6.5 21q0 13 -7 18.5t-14 5.5zM160 599l9 81h201l-113 -339h-88l86 258h-95z" />
    <glyph glyph-name="Aacute" unicode="&#xc1;" horiz-adv-x="689" 
d="M263 784q34 20 57.5 49.5t37.5 56.5q17 32 27 64l105 -104q-44 -44 -95.5 -71.5t-106.5 -36.5zM532 -8l-50 117h-268l-47 -117l-154 16l285 672h102l286 -672zM271 246h151l-76 181z" />
    <glyph glyph-name="Abreve" unicode="&#x102;" horiz-adv-x="689" 
d="M298 680h102l286 -672l-154 -16l-50 117h-268l-47 -117l-154 16zM271 246h151l-76 181zM303 879q0 -28 12.5 -39.5t33.5 -11.5t33.5 11.5t12.5 39.5l56 15q2 -6 2.5 -17t0.5 -17q0 -52 -27 -85t-78 -33t-78 33t-27 85q0 6 0.5 17t2.5 17z" />
    <glyph glyph-name="Acircumflex" unicode="&#xc2;" horiz-adv-x="689" 
d="M298 680h102l286 -672l-154 -16l-50 117h-268l-47 -117l-154 16zM422 246l-76 181l-75 -181h151zM455 742q-6 3 -20.5 12t-31.5 18.5t-32.5 18.5t-21.5 12q-7 -3 -22 -12t-32 -18.5t-31.5 -18.5t-20.5 -12l-30 47l136 131l136 -131z" />
    <glyph glyph-name="Agrave" unicode="&#xc0;" horiz-adv-x="689" 
d="M441 742q-55 9 -106.5 36.5t-95.5 71.5l105 104q10 -32 27 -64q14 -27 37 -56.5t58 -49.5zM532 -8l-50 117h-268l-47 -117l-154 16l285 672h102l286 -672zM271 246h151l-76 181z" />
    <glyph glyph-name="Adieresis" unicode="&#xc4;" horiz-adv-x="689" 
d="M180 830q0 30 21 51t51 21t51 -21t21 -51t-21 -51t-51 -21t-51 21t-21 51zM374 830q0 30 21 51t51 21t51 -21t21 -51t-21 -51t-51 -21t-51 21t-21 51zM532 -8l-50 117h-268l-47 -117l-154 16l285 672h102l286 -672zM271 246h151l-76 181z" />
    <glyph glyph-name="Aogonek" unicode="&#x104;" horiz-adv-x="689" 
d="M686 8q-23 0 -45.5 -10t-40 -26.5t-28 -38t-10.5 -43.5q0 -9 6.5 -23t23.5 -14q13 0 20 5q4 2 5 5l50 -83q-4 -10 -21 -24t-55 -14q-23 0 -44 9t-37 25t-26 38t-10 49q0 22 6 41.5t14.5 36t18.5 29.5t19 22l-50 117h-268l-47 -117l-154 16l285 672h102zM271 246h151
l-76 181z" />
    <glyph glyph-name="Aring" unicode="&#xc5;" horiz-adv-x="689" 
d="M241 849q0 22 8.5 41.5t23 34t34 23t41.5 8.5t41.5 -8.5t34.5 -23t23.5 -34t8.5 -41.5t-8.5 -41.5t-23.5 -34t-34.5 -23t-41.5 -8.5t-41.5 8.5t-34 23t-23 34t-8.5 41.5zM314 849q0 -14 10.5 -24.5t24.5 -10.5t24.5 10.5t10.5 24.5t-10.5 24.5t-24.5 10.5t-24.5 -10.5
t-10.5 -24.5zM532 -8l-50 117h-268l-47 -117l-154 16l285 672h102l286 -672zM271 246h151l-76 181z" />
    <glyph glyph-name="Atilde" unicode="&#xc3;" horiz-adv-x="689" 
d="M556 884q-1 -18 -4.5 -44t-14.5 -50t-31.5 -41t-56.5 -17q-26 0 -53 13t-53.5 28t-49.5 28t-40 13t-28 -6t-17.5 -15t-9.5 -18.5t-4 -16.5h-52q1 18 4.5 44t14.5 50t31.5 41t56.5 17q26 0 53.5 -13t54 -28t49 -28t39.5 -13t28 6t17.5 15t9.5 18.5t4 16.5h52zM532 -8
l-50 117h-268l-47 -117l-154 16l285 672h102l286 -672zM271 246h151l-76 181z" />
    <glyph glyph-name="AEacute" unicode="&#x1fc;" horiz-adv-x="820" 
d="M347 246v182l-76 -182h76zM383 784q34 20 57.5 49.5t37.5 56.5q17 32 27 64l105 -104q-44 -44 -95.5 -71.5t-106.5 -36.5zM214 109l-47 -117l-154 16l284 672h464v-137h-264v-130h217v-137h-217v-139h280l-16 -137h-414v109h-133z" />
    <glyph glyph-name="Cacute" unicode="&#x106;" horiz-adv-x="673" 
d="M297 784q34 20 57.5 49.5t37.5 56.5q17 32 27 64l105 -104q-44 -44 -95.5 -71.5t-106.5 -36.5zM536 486q-26 30 -61.5 47.5t-77.5 17.5q-40 0 -75.5 -16.5t-61.5 -45.5t-41.5 -67.5t-15.5 -81.5q0 -44 15.5 -82t41.5 -67t61.5 -45.5t75.5 -16.5q42 0 78 18.5t63 47.5
l102 -102q-48 -48 -109.5 -74.5t-133.5 -26.5t-134.5 27.5t-109 75t-73.5 111t-27 136.5q0 72 27 135.5t73.5 110t109 73.5t134.5 27q75 0 137.5 -27.5t110.5 -77.5z" />
    <glyph glyph-name="Ccaron" unicode="&#x10c;" horiz-adv-x="673" 
d="M530 873l-136 -131l-136 131l30 47q6 -3 20.5 -12t31.5 -18.5t32 -18.5t22 -12q6 3 21.5 12t32.5 18.5t31.5 18.5t20.5 12zM536 486q-26 30 -61.5 47.5t-77.5 17.5q-40 0 -75.5 -16.5t-61.5 -45.5t-41.5 -67.5t-15.5 -81.5q0 -44 15.5 -82t41.5 -67t61.5 -45.5
t75.5 -16.5q42 0 78 18.5t63 47.5l102 -102q-48 -48 -109.5 -74.5t-133.5 -26.5t-134.5 27.5t-109 75t-73.5 111t-27 136.5q0 72 27 135.5t73.5 110t109 73.5t134.5 27q75 0 137.5 -27.5t110.5 -77.5z" />
    <glyph glyph-name="Ccedilla" unicode="&#xc7;" horiz-adv-x="673" 
d="M393 -118q0 16 -12.5 20t-22.5 6q-11 2 -14 9t-3 15q0 4 2 9.5t4 8.5l25 43q-67 5 -125.5 34t-101.5 75.5t-67.5 108t-24.5 131.5q0 72 27 135.5t73.5 110t109 73.5t134.5 27q75 0 137.5 -27.5t110.5 -77.5l-109 -97q-26 30 -61.5 47.5t-77.5 17.5q-40 0 -75.5 -16.5
t-61.5 -45.5t-41.5 -67.5t-15.5 -81.5q0 -44 15.5 -82t41.5 -67t61.5 -45.5t75.5 -16.5q42 0 78 18.5t63 47.5l102 -102q-40 -41 -91.5 -66.5t-111.5 -32.5l-30 -52q58 -32 58 -96q0 -22 -8 -41t-22.5 -33t-34 -22t-41.5 -8q-27 0 -45 11t-29 20l55 89q9 -6 23 -6
q17 0 23.5 7.5t6.5 18.5z" />
    <glyph glyph-name="Ccircumflex" unicode="&#x108;" horiz-adv-x="673" 
d="M536 486q-26 30 -61.5 47.5t-77.5 17.5q-40 0 -75.5 -16.5t-61.5 -45.5t-41.5 -67.5t-15.5 -81.5q0 -44 15.5 -82t41.5 -67t61.5 -45.5t75.5 -16.5q42 0 78 18.5t63 47.5l102 -102q-48 -48 -109.5 -74.5t-133.5 -26.5t-134.5 27.5t-109 75t-73.5 111t-27 136.5
q0 72 27 135.5t73.5 110t109 73.5t134.5 27q75 0 137.5 -27.5t110.5 -77.5zM500 742q-6 3 -20.5 12t-31.5 18.5t-32.5 18.5t-21.5 12q-7 -3 -22 -12t-32 -18.5t-31.5 -18.5t-20.5 -12l-30 47l136 131l136 -131z" />
    <glyph glyph-name="Cdotaccent" unicode="&#x10a;" horiz-adv-x="673" 
d="M322 830q0 30 21 51t51 21t51 -21t21 -51t-21 -51t-51 -21t-51 21t-21 51zM536 486q-26 30 -61.5 47.5t-77.5 17.5q-40 0 -75.5 -16.5t-61.5 -45.5t-41.5 -67.5t-15.5 -81.5q0 -44 15.5 -82t41.5 -67t61.5 -45.5t75.5 -16.5q42 0 78 18.5t63 47.5l102 -102
q-48 -48 -109.5 -74.5t-133.5 -26.5t-134.5 27.5t-109 75t-73.5 111t-27 136.5q0 72 27 135.5t73.5 110t109 73.5t134.5 27q75 0 137.5 -27.5t110.5 -77.5z" />
    <glyph glyph-name="Dcaron" unicode="&#x10e;" horiz-adv-x="716" 
d="M320 680q79 0 142.5 -24t108 -68.5t68.5 -108t24 -142.5q0 -77 -24 -139t-68.5 -106t-108 -68t-142.5 -24h-227v680h227zM296 137q61 0 102.5 10t67 33t36.5 61.5t11 95.5q0 60 -14.5 99.5t-42 63t-68 33.5t-92.5 10h-53v-406h53zM474 873l-136 -131l-136 131l30 47
q6 -3 20.5 -12t31.5 -18.5t32 -18.5t22 -12q6 3 21.5 12t32.5 18.5t31.5 18.5t20.5 12z" />
    <glyph glyph-name="Eacute" unicode="&#xc9;" horiz-adv-x="566" 
d="M191 784q34 20 57.5 49.5t37.5 56.5q17 32 27 64l105 -104q-44 -44 -95.5 -71.5t-106.5 -36.5zM507 543h-264v-130h217v-137h-217v-139h280l-16 -137h-414v680h414v-137z" />
    <glyph glyph-name="Ebreve" unicode="&#x114;" horiz-adv-x="566" 
d="M256 879q0 -28 12.5 -39.5t33.5 -11.5t33.5 11.5t12.5 39.5l56 15q2 -6 2.5 -17t0.5 -17q0 -52 -27 -85t-78 -33t-78 33t-27 85q0 6 0.5 17t2.5 17zM507 543h-264v-130h217v-137h-217v-139h280l-16 -137h-414v680h414v-137z" />
    <glyph glyph-name="Ecaron" unicode="&#x11a;" horiz-adv-x="566" 
d="M507 543h-264v-130h217v-137h-217v-139h280l-16 -137h-414v680h414v-137zM437 873l-136 -131l-136 131l30 47q6 -3 20.5 -12t31.5 -18.5t32 -18.5t22 -12q6 3 21.5 12t32.5 18.5t31.5 18.5t20.5 12z" />
    <glyph glyph-name="Ecircumflex" unicode="&#xca;" horiz-adv-x="566" 
d="M507 543h-264v-130h217v-137h-217v-139h280l-16 -137h-414v680h414v-137zM401 742q-6 3 -20.5 12t-31.5 18.5t-32.5 18.5t-21.5 12q-7 -3 -22 -12t-32 -18.5t-31.5 -18.5t-20.5 -12l-30 47l136 131l136 -131z" />
    <glyph glyph-name="Edieresis" unicode="&#xcb;" horiz-adv-x="566" 
d="M130 830q0 30 21 51t51 21t51 -21t21 -51t-21 -51t-51 -21t-51 21t-21 51zM324 830q0 30 21 51t51 21t51 -21t21 -51t-21 -51t-51 -21t-51 21t-21 51zM507 543h-264v-130h217v-137h-217v-139h280l-16 -137h-414v680h414v-137z" />
    <glyph glyph-name="Edotaccent" unicode="&#x116;" horiz-adv-x="566" 
d="M227 832q0 30 21.5 52t52.5 22t52.5 -22t21.5 -52q0 -31 -21.5 -52.5t-52.5 -21.5t-52.5 21.5t-21.5 52.5zM507 543h-264v-130h217v-137h-217v-139h280l-16 -137h-414v680h414v-137z" />
    <glyph glyph-name="Egrave" unicode="&#xc8;" horiz-adv-x="566" 
d="M355 742q-55 9 -106.5 36.5t-95.5 71.5l105 104q10 -32 27 -64q14 -27 37 -56.5t58 -49.5zM507 543h-264v-130h217v-137h-217v-139h280l-16 -137h-414v680h414v-137z" />
    <glyph glyph-name="Eogonek" unicode="&#x118;" horiz-adv-x="566" 
d="M93 680h414v-137h-264v-130h217v-137h-217v-139h280l-16 -137h-2q-8 -1 -21.5 -9.5t-27.5 -23.5t-24 -35t-10 -42q0 -9 6.5 -23t23.5 -14q13 0 20 5q4 2 5 5l50 -83q-4 -10 -21 -24t-55 -14q-23 0 -44 9t-37 25t-26 38t-10 49q0 22 6 43t16 39t21.5 32t22.5 23h-307v680z
" />
    <glyph glyph-name="Gbreve" unicode="&#x11e;" horiz-adv-x="718" 
d="M348 879q0 -28 12.5 -39.5t33.5 -11.5t33.5 11.5t12.5 39.5l56 15q2 -6 2.5 -17t0.5 -17q0 -52 -27 -85t-78 -33t-78 33t-27 85q0 6 0.5 17t2.5 17zM423 350h217v-272q-47 -48 -109 -67t-134 -19t-134.5 27.5t-109 75t-73.5 111t-27 136.5q0 72 27 135.5t73.5 110
t109 73.5t134.5 27q75 0 137.5 -27.5t110.5 -77.5l-109 -97q-26 30 -62 47.5t-77 17.5q-40 0 -75.5 -16.5t-61.5 -45.5t-41.5 -67.5t-15.5 -81.5q0 -44 15.5 -82t41.5 -67t61.5 -45.5t75.5 -16.5q29 0 57.5 6t49.5 23v69h-98z" />
    <glyph glyph-name="Gcircumflex" unicode="&#x11c;" horiz-adv-x="718" 
d="M423 350h217v-272q-47 -48 -109 -67t-134 -19t-134.5 27.5t-109 75t-73.5 111t-27 136.5q0 72 27 135.5t73.5 110t109 73.5t134.5 27q75 0 137.5 -27.5t110.5 -77.5l-109 -97q-26 30 -62 47.5t-77 17.5q-40 0 -75.5 -16.5t-61.5 -45.5t-41.5 -67.5t-15.5 -81.5
q0 -44 15.5 -82t41.5 -67t61.5 -45.5t75.5 -16.5q29 0 57.5 6t49.5 23v69h-98zM502 742q-6 3 -20.5 12t-31.5 18.5t-32.5 18.5t-21.5 12q-7 -3 -22 -12t-32 -18.5t-31.5 -18.5t-20.5 -12l-30 47l136 131l136 -131z" />
    <glyph glyph-name="Gdotaccent" unicode="&#x120;" horiz-adv-x="718" 
d="M423 350h217v-272q-47 -48 -109 -67t-134 -19t-134.5 27.5t-109 75t-73.5 111t-27 136.5q0 72 27 135.5t73.5 110t109 73.5t134.5 27q75 0 137.5 -27.5t110.5 -77.5l-109 -97q-26 30 -62 47.5t-77 17.5q-40 0 -75.5 -16.5t-61.5 -45.5t-41.5 -67.5t-15.5 -81.5
q0 -44 15.5 -82t41.5 -67t61.5 -45.5t75.5 -16.5q29 0 57.5 6t49.5 23v69h-98zM319 830q0 30 21 51t51 21t51 -21t21 -51t-21 -51t-51 -21t-51 21t-21 51z" />
    <glyph glyph-name="Hcircumflex" unicode="&#x124;" horiz-adv-x="730" 
d="M637 680v-680h-150v276h-244v-276h-150v680h150v-267h244v268zM471 742q-6 3 -20.5 12t-31.5 18.5t-32.5 18.5t-21.5 12q-7 -3 -22 -12t-32 -18.5t-31.5 -18.5t-20.5 -12l-30 47l136 131l136 -131z" />
    <glyph glyph-name="Iacute" unicode="&#xcd;" horiz-adv-x="376" 
d="M263 680v-680l-150 -8v688h150zM67 784q34 20 57.5 49.5t37.5 56.5q17 32 27 64l105 -104q-44 -44 -95.5 -71.5t-106.5 -36.5z" />
    <glyph glyph-name="Ibreve" unicode="&#x12c;" horiz-adv-x="376" 
d="M263 680v-680l-150 -8v688h150zM142 879q0 -28 12.5 -39.5t33.5 -11.5t33.5 11.5t12.5 39.5l56 15q2 -6 2.5 -17t0.5 -17q0 -52 -27 -85t-78 -33t-78 33t-27 85q0 6 0.5 17t2.5 17z" />
    <glyph glyph-name="Icircumflex" unicode="&#xce;" horiz-adv-x="376" 
d="M263 680v-680l-150 -8v688h150zM294 742q-6 3 -20.5 12t-31.5 18.5t-32.5 18.5t-21.5 12q-7 -3 -22 -12t-32 -18.5t-32 -18.5t-21 -12l-29 47l136 131l135 -131z" />
    <glyph glyph-name="Idieresis" unicode="&#xcf;" horiz-adv-x="376" 
d="M263 680v-680l-150 -8v688h150zM19 830q0 30 21 51t51 21t51 -21t21 -51t-21 -51t-51 -21t-51 21t-21 51zM213 830q0 30 21 51t51 21t51 -21t21 -51t-21 -51t-51 -21t-51 21t-21 51z" />
    <glyph glyph-name="Idotaccent" unicode="&#x130;" horiz-adv-x="376" 
d="M263 680v-680l-150 -8v688h150zM116 830q0 30 21 51t51 21t51 -21t21 -51t-21 -51t-51 -21t-51 21t-21 51z" />
    <glyph glyph-name="Igrave" unicode="&#xcc;" horiz-adv-x="376" 
d="M263 680v-680l-150 -8v688h150zM278 742q-55 9 -106.5 36.5t-95.5 71.5l105 104q10 -32 27 -64q14 -27 37 -56.5t58 -49.5z" />
    <glyph glyph-name="Iogonek" unicode="&#x12e;" horiz-adv-x="376" 
d="M113 680h150v-680q-23 0 -45 -9t-38.5 -24t-26.5 -35t-10 -42q0 -9 6.5 -23t23.5 -14q13 0 20 5q4 2 5 5l50 -83q-4 -10 -21 -24t-55 -14q-23 0 -44 9t-37 25t-26 38t-10 49q0 22 6 41.5t14.5 36t18.5 29.5t19 22v688z" />
    <glyph glyph-name="Itilde" unicode="&#x128;" horiz-adv-x="376" 
d="M263 680v-680l-150 -8v688h150zM395 884q-1 -18 -4.5 -44t-14.5 -50t-31.5 -41t-56.5 -17q-26 0 -53 13t-53.5 28t-49.5 28t-40 13t-28 -6t-17.5 -15t-9.5 -18.5t-4 -16.5h-52q1 18 4.5 44t14 50t31.5 41t57 17q26 0 53.5 -13t54 -28t49 -28t39.5 -13t28 6t17.5 15
t9.5 18.5t4 16.5h52z" />
    <glyph glyph-name="Jcircumflex" unicode="&#x134;" horiz-adv-x="480" 
d="M387 680v-407q0 -56 -6.5 -107t-27 -89.5t-59 -61.5t-103.5 -23q-54 0 -101.5 21t-76.5 56l113 116q11 -29 19.5 -42.5t31.5 -13.5q24 0 36 11t17.5 35t6 62.5t0.5 94.5v211h-102l17 137h235zM379 742q-6 3 -20.5 12t-31.5 18.5t-32.5 18.5t-21.5 12q-7 -3 -22 -12
t-32 -18.5t-32 -18.5t-21 -12l-29 47l136 131l135 -131z" />
    <glyph glyph-name="Lacute" unicode="&#x139;" horiz-adv-x="485" 
d="M91 784q34 20 57.5 49.5t37.5 56.5q17 32 27 64l105 -104q-44 -44 -95.5 -71.5t-106.5 -36.5zM93 0v680l150 8v-538h232l-14 -150h-368z" />
    <glyph glyph-name="Ldot" unicode="&#x13f;" horiz-adv-x="510" 
d="M333 389q0 17 6.5 32.5t18 27t26.5 18t33 6.5q35 0 59 -24.5t24 -59.5t-24 -59.5t-59 -24.5q-18 0 -33 6.5t-26.5 18t-18 27t-6.5 32.5zM93 0v680l150 8v-538h232l-14 -150h-368z" />
    <glyph glyph-name="Nacute" unicode="&#x143;" horiz-adv-x="733" 
d="M281 784q34 20 57.5 49.5t37.5 56.5q17 32 27 64l105 -104q-44 -44 -95.5 -71.5t-106.5 -36.5zM640 8l-127 -16l-283 431v-423h-137v672l137 16l142 -213q27 -40 52 -78t45 -68l32 -48l12 -18v417h127v-672z" />
    <glyph glyph-name="Ncaron" unicode="&#x147;" horiz-adv-x="733" 
d="M640 8l-127 -16l-283 431v-423h-137v672l137 16l142 -213q27 -40 52 -78t45 -68l32 -48l12 -18v417h127v-672zM505 873l-135 -131l-136 131l29 47q6 -3 21 -12t31.5 -18.5t32 -18.5t22.5 -12q6 3 21 12t32 18.5t32 18.5t21 12z" />
    <glyph glyph-name="Ntilde" unicode="&#xd1;" horiz-adv-x="733" 
d="M576 884q-1 -18 -4.5 -44t-14.5 -50t-31.5 -41t-56.5 -17q-26 0 -53 13t-53.5 28t-49.5 28t-40 13t-28 -6t-17.5 -15t-9.5 -18.5t-4 -16.5h-52q1 18 4.5 44t14.5 50t31.5 41t56.5 17q26 0 53.5 -13t54 -28t49 -28t39.5 -13t28 6t17.5 15t9.5 18.5t4 16.5h52zM640 8
l-127 -16l-283 431v-423h-137v672l137 16l142 -213q27 -40 52 -78t45 -68l32 -48l12 -18v417h127v-672z" />
    <glyph glyph-name="Oacute" unicode="&#xd3;" horiz-adv-x="789" 
d="M53 340q0 72 27 135.5t73.5 110.5t109.5 74.5t134 27.5t134 -27.5t109.5 -74.5t73.5 -110.5t27 -135.5t-27 -135.5t-73.5 -110.5t-109.5 -74.5t-134 -27.5t-134 27.5t-109.5 74.5t-73.5 110.5t-27 135.5zM203 340q0 -44 15.5 -82.5t41.5 -67t61.5 -45t75.5 -16.5
t75.5 16.5t61.5 45t41.5 67t15.5 82.5q0 43 -15.5 81.5t-41.5 67.5t-61.5 45.5t-75.5 16.5t-75.5 -16.5t-61.5 -45.5t-41.5 -67.5t-15.5 -81.5zM284 784q34 20 57.5 49.5t37.5 56.5q17 32 27 64l105 -104q-44 -44 -95.5 -71.5t-106.5 -36.5z" />
    <glyph glyph-name="Obreve" unicode="&#x14e;" horiz-adv-x="789" 
d="M53 340q0 72 27 135.5t73.5 110.5t109.5 74.5t134 27.5t134 -27.5t109.5 -74.5t73.5 -110.5t27 -135.5t-27 -135.5t-73.5 -110.5t-109.5 -74.5t-134 -27.5t-134 27.5t-109.5 74.5t-73.5 110.5t-27 135.5zM203 340q0 -44 15.5 -82.5t41.5 -67t61.5 -45t75.5 -16.5
t75.5 16.5t61.5 45t41.5 67t15.5 82.5q0 43 -15.5 81.5t-41.5 67.5t-61.5 45.5t-75.5 16.5t-75.5 -16.5t-61.5 -45.5t-41.5 -67.5t-15.5 -81.5zM351 879q0 -28 12.5 -39.5t33.5 -11.5t33.5 11.5t12.5 39.5l56 15q2 -6 2.5 -17t0.5 -17q0 -52 -27 -85t-78 -33t-78 33t-27 85
q0 6 0.5 17t2.5 17z" />
    <glyph glyph-name="Ocircumflex" unicode="&#xd4;" horiz-adv-x="789" 
d="M53 340q0 72 27 135.5t73.5 110.5t109.5 74.5t134 27.5t134 -27.5t109.5 -74.5t73.5 -110.5t27 -135.5t-27 -135.5t-73.5 -110.5t-109.5 -74.5t-134 -27.5t-134 27.5t-109.5 74.5t-73.5 110.5t-27 135.5zM203 340q0 -44 15.5 -82.5t41.5 -67t61.5 -45t75.5 -16.5
t75.5 16.5t61.5 45t41.5 67t15.5 82.5q0 43 -15.5 81.5t-41.5 67.5t-61.5 45.5t-75.5 16.5t-75.5 -16.5t-61.5 -45.5t-41.5 -67.5t-15.5 -81.5zM503 742q-6 3 -20.5 12t-31.5 18.5t-32.5 18.5t-21.5 12q-7 -3 -22 -12t-32 -18.5t-31.5 -18.5t-20.5 -12l-30 47l136 131
l136 -131z" />
    <glyph glyph-name="Odieresis" unicode="&#xd6;" horiz-adv-x="789" 
d="M53 340q0 72 27 135.5t73.5 110.5t109.5 74.5t134 27.5t134 -27.5t109.5 -74.5t73.5 -110.5t27 -135.5t-27 -135.5t-73.5 -110.5t-109.5 -74.5t-134 -27.5t-134 27.5t-109.5 74.5t-73.5 110.5t-27 135.5zM203 340q0 -44 15.5 -82.5t41.5 -67t61.5 -45t75.5 -16.5
t75.5 16.5t61.5 45t41.5 67t15.5 82.5q0 43 -15.5 81.5t-41.5 67.5t-61.5 45.5t-75.5 16.5t-75.5 -16.5t-61.5 -45.5t-41.5 -67.5t-15.5 -81.5zM228 830q0 30 21 51t51 21t51 -21t21 -51t-21 -51t-51 -21t-51 21t-21 51zM422 830q0 30 21 51t51 21t51 -21t21 -51t-21 -51
t-51 -21t-51 21t-21 51z" />
    <glyph glyph-name="Ograve" unicode="&#xd2;" horiz-adv-x="789" 
d="M53 340q0 72 27 135.5t73.5 110.5t109.5 74.5t134 27.5t134 -27.5t109.5 -74.5t73.5 -110.5t27 -135.5t-27 -135.5t-73.5 -110.5t-109.5 -74.5t-134 -27.5t-134 27.5t-109.5 74.5t-73.5 110.5t-27 135.5zM203 340q0 -44 15.5 -82.5t41.5 -67t61.5 -45t75.5 -16.5
t75.5 16.5t61.5 45t41.5 67t15.5 82.5q0 43 -15.5 81.5t-41.5 67.5t-61.5 45.5t-75.5 16.5t-75.5 -16.5t-61.5 -45.5t-41.5 -67.5t-15.5 -81.5zM489 742q-55 9 -106.5 36.5t-95.5 71.5l105 104q10 -32 27 -64q14 -27 37 -56.5t58 -49.5z" />
    <glyph glyph-name="Ohungarumlaut" unicode="&#x150;" horiz-adv-x="789" 
d="M53 340q0 72 27 135.5t73.5 110.5t109.5 74.5t134 27.5t134 -27.5t109.5 -74.5t73.5 -110.5t27 -135.5t-27 -135.5t-73.5 -110.5t-109.5 -74.5t-134 -27.5t-134 27.5t-109.5 74.5t-73.5 110.5t-27 135.5zM203 340q0 -44 15.5 -82.5t41.5 -67t61.5 -45t75.5 -16.5
t75.5 16.5t61.5 45t41.5 67t15.5 82.5q0 43 -15.5 81.5t-41.5 67.5t-61.5 45.5t-75.5 16.5t-75.5 -16.5t-61.5 -45.5t-41.5 -67.5t-15.5 -81.5zM430 792q10 5 16 18.5t9 30t2.5 34t-1.5 31.5q-1 6 -1 10.5t-1 6.5q-1 3 -2 5l137 -24q-3 -23 -16.5 -50t-32.5 -51t-40 -41
t-40 -20zM270 792q11 5 17 18.5t8.5 30t2.5 34t-1 31.5q-2 13 -3 17q-1 3 -2 5l138 -24q-3 -23 -16.5 -50t-32.5 -51t-40 -41t-40 -20z" />
    <glyph glyph-name="Oslash" unicode="&#xd8;" horiz-adv-x="789" 
d="M212 46q-72 47 -115.5 123.5t-43.5 170.5q0 72 27 135.5t73.5 110.5t109.5 74.5t134 27.5q15 0 30 -1t29 -3l22 54h141l-40 -103q73 -47 117.5 -124t44.5 -171q0 -72 -27 -135.5t-73.5 -110.5t-109.5 -74.5t-134 -27.5q-32 0 -63 6l-20 -56h-141zM591 340q0 47 -17.5 88
t-46.5 70q-34 -94 -70 -185t-72 -184h22q11 0 21.5 2t20.5 4q65 22 103.5 76.5t38.5 128.5zM397 551q-45 0 -80.5 -17.5t-61 -46.5t-39 -67t-13.5 -80q0 -40 13.5 -81.5t48.5 -75.5l141 368q-2 -1 -4.5 -0.5t-4.5 0.5z" />
    <glyph glyph-name="Oslashacute" unicode="&#x1fe;" horiz-adv-x="789" 
d="M212 46q-72 47 -115.5 123.5t-43.5 170.5q0 72 27 135.5t73.5 110.5t109.5 74.5t134 27.5q15 0 30 -1t29 -3l22 54h141l-40 -103q73 -47 117.5 -124t44.5 -171q0 -72 -27 -135.5t-73.5 -110.5t-109.5 -74.5t-134 -27.5q-32 0 -63 6l-20 -56h-141zM591 340q0 47 -17.5 88
t-46.5 70q-34 -94 -70 -185t-72 -184h22q11 0 21.5 2t20.5 4q65 22 103.5 76.5t38.5 128.5zM397 551q-45 0 -80.5 -17.5t-61 -46.5t-39 -67t-13.5 -80q0 -40 13.5 -81.5t48.5 -75.5l141 368q-2 -1 -4.5 -0.5t-4.5 0.5zM280 784q34 20 57.5 49.5t37.5 56.5q17 32 27 64
l105 -104q-44 -44 -95.5 -71.5t-106.5 -36.5z" />
    <glyph glyph-name="Otilde" unicode="&#xd5;" horiz-adv-x="789" 
d="M53 340q0 72 27 135.5t73.5 110.5t109.5 74.5t134 27.5t134 -27.5t109.5 -74.5t73.5 -110.5t27 -135.5t-27 -135.5t-73.5 -110.5t-109.5 -74.5t-134 -27.5t-134 27.5t-109.5 74.5t-73.5 110.5t-27 135.5zM203 340q0 -44 15.5 -82.5t41.5 -67t61.5 -45t75.5 -16.5
t75.5 16.5t61.5 45t41.5 67t15.5 82.5q0 43 -15.5 81.5t-41.5 67.5t-61.5 45.5t-75.5 16.5t-75.5 -16.5t-61.5 -45.5t-41.5 -67.5t-15.5 -81.5zM604 884q-1 -18 -4.5 -44t-14.5 -50t-31.5 -41t-56.5 -17q-26 0 -53 13t-53.5 28t-49.5 28t-40 13t-28 -6t-17.5 -15t-9.5 -18.5
t-4 -16.5h-52q1 18 4.5 44t14.5 50t31.5 41t56.5 17q26 0 53.5 -13t54 -28t49 -28t39.5 -13t28 6t17.5 15t9.5 18.5t4 16.5h52z" />
    <glyph glyph-name="Racute" unicode="&#x154;" horiz-adv-x="629" 
d="M203 784q34 20 57.5 49.5t37.5 56.5q17 32 27 64l105 -104q-44 -44 -95.5 -71.5t-106.5 -36.5zM575 466q0 -69 -38.5 -119.5t-99.5 -73.5l139 -265l-144 -16l-140 265h-49v-257h-150v672l150 8h98q54 0 97.5 -17t73.5 -46t46.5 -68t16.5 -83zM243 386h78q33 0 53.5 8
t31.5 20t15 26t4 26q0 15 -4 28.5t-15 24.5t-31.5 17.5t-53.5 6.5h-78v-157z" />
    <glyph glyph-name="Rcaron" unicode="&#x158;" horiz-adv-x="629" 
d="M437 873l-136 -131l-136 131l30 47q6 -3 20.5 -12t31.5 -18.5t32 -18.5t22 -12q6 3 21.5 12t32.5 18.5t31.5 18.5t20.5 12zM575 466q0 -69 -38.5 -119.5t-99.5 -73.5l139 -265l-144 -16l-140 265h-49v-257h-150v672l150 8h98q54 0 97.5 -17t73.5 -46t46.5 -68t16.5 -83z
M243 386h78q33 0 53.5 8t31.5 20t15 26t4 26q0 15 -4 28.5t-15 24.5t-31.5 17.5t-53.5 6.5h-78v-157z" />
    <glyph glyph-name="Sacute" unicode="&#x15a;" horiz-adv-x="511" 
d="M141 784q34 20 57.5 49.5t37.5 56.5q17 32 27 64l105 -104q-44 -44 -95.5 -71.5t-106.5 -36.5zM262 688q35 0 69 -10t60 -22q31 -14 59 -31l-77 -110q-26 22 -50 29t-48 7q-30 0 -48 -14.5t-18 -34.5q0 -27 21 -50.5t74 -54.5q46 -27 78 -50t52 -48t29.5 -54.5t9.5 -70.5
q0 -44 -18 -78t-48 -57t-68 -35t-77 -12q-48 0 -87.5 14.5t-68.5 32.5q-34 20 -63 47l91 90q15 -13 34 -24q17 -9 39 -16t49 -7q31 0 49 14.5t18 37.5q0 16 -6.5 29t-20 24.5t-33 23t-44.5 25.5q-32 18 -61 40t-51 50.5t-35 63.5t-13 79q0 29 12 59.5t36.5 55.5t63 41
t91.5 16z" />
    <glyph glyph-name="Scaron" unicode="&#x160;" horiz-adv-x="511" 
d="M394 873l-136 -131l-136 131l30 47q6 -3 20.5 -12t31.5 -18.5t32 -18.5t22 -12q6 3 21.5 12t32.5 18.5t31.5 18.5t20.5 12zM262 688q35 0 69 -10t60 -22q31 -14 59 -31l-77 -110q-26 22 -50 29t-48 7q-30 0 -48 -14.5t-18 -34.5q0 -27 21 -50.5t74 -54.5q46 -27 78 -50
t52 -48t29.5 -54.5t9.5 -70.5q0 -44 -18 -78t-48 -57t-68 -35t-77 -12q-48 0 -87.5 14.5t-68.5 32.5q-34 20 -63 47l91 90q15 -13 34 -24q17 -9 39 -16t49 -7q31 0 49 14.5t18 37.5q0 16 -6.5 29t-20 24.5t-33 23t-44.5 25.5q-32 18 -61 40t-51 50.5t-35 63.5t-13 79
q0 29 12 59.5t36.5 55.5t63 41t91.5 16z" />
    <glyph glyph-name="Scedilla" unicode="&#x15e;" horiz-adv-x="511" 
d="M249 -118q0 16 -12.5 20t-22.5 6q-11 2 -14 9t-3 15q0 4 2 9.5t4 8.5l26 44q-41 5 -75 20t-59 31q-29 18 -52 41l91 90q15 -13 34 -24q17 -9 39 -16t49 -7q31 0 49 14.5t18 37.5q0 16 -6.5 29t-20 24.5t-33 23t-44.5 25.5q-32 18 -61 40t-51 50.5t-35 63.5t-13 79
q0 29 12 59.5t36.5 55.5t63 41t91.5 16q35 0 69 -10t60 -22q31 -14 59 -31l-77 -110q-26 22 -50 29t-48 7q-30 0 -48 -14.5t-18 -34.5q0 -27 21 -50.5t74 -54.5q46 -27 78 -50t52 -48t29.5 -54.5t9.5 -70.5q0 -40 -14.5 -71.5t-39.5 -54t-57 -36.5t-67 -18l-31 -52
q57 -32 57 -96q0 -22 -8 -41t-22 -33t-33.5 -22t-41.5 -8q-27 0 -45.5 11t-28.5 20l54 89q5 -3 11.5 -4.5t12.5 -1.5q17 0 23 7.5t6 18.5z" />
    <glyph glyph-name="Scircumflex" unicode="&#x15c;" horiz-adv-x="511" 
d="M364 742q-6 3 -20.5 12t-31.5 18.5t-32.5 18.5t-21.5 12q-7 -3 -22 -12t-32 -18.5t-31.5 -18.5t-20.5 -12l-30 47l136 131l136 -131zM262 688q35 0 69 -10t60 -22q31 -14 59 -31l-77 -110q-26 22 -50 29t-48 7q-30 0 -48 -14.5t-18 -34.5q0 -27 21 -50.5t74 -54.5
q46 -27 78 -50t52 -48t29.5 -54.5t9.5 -70.5q0 -44 -18 -78t-48 -57t-68 -35t-77 -12q-48 0 -87.5 14.5t-68.5 32.5q-34 20 -63 47l91 90q15 -13 34 -24q17 -9 39 -16t49 -7q31 0 49 14.5t18 37.5q0 16 -6.5 29t-20 24.5t-33 23t-44.5 25.5q-32 18 -61 40t-51 50.5t-35 63.5
t-13 79q0 29 12 59.5t36.5 55.5t63 41t91.5 16z" />
    <glyph glyph-name="Tcaron" unicode="&#x164;" horiz-adv-x="512" 
d="M181 543h-148v137h446v-137h-148v-543l-150 -8v551zM392 873l-136 -131l-136 131l30 47q6 -3 20.5 -12t31.5 -18.5t32 -18.5t22 -12q6 3 21.5 12t32.5 18.5t31.5 18.5t20.5 12z" />
    <glyph glyph-name="Uacute" unicode="&#xda;" horiz-adv-x="654" 
d="M581 281q0 -62 -14 -114.5t-44 -91.5t-77.5 -61t-114.5 -22q-71 0 -120 22t-79.5 61t-44.5 91.5t-14 114.5v399l150 8v-399q0 -38 3.5 -68t15 -50.5t33 -31t56.5 -10.5q33 0 55 9.5t35 29.5t18 50t5 71v391h137v-399zM225 784q34 20 57.5 49.5t37.5 56.5q17 32 27 64
l105 -104q-44 -44 -95.5 -71.5t-106.5 -36.5z" />
    <glyph glyph-name="Ubreve" unicode="&#x16c;" horiz-adv-x="654" 
d="M581 281q0 -62 -14 -114.5t-44 -91.5t-77.5 -61t-114.5 -22q-71 0 -120 22t-79.5 61t-44.5 91.5t-14 114.5v399l150 8v-399q0 -38 3.5 -68t15 -50.5t33 -31t56.5 -10.5q33 0 55 9.5t35 29.5t18 50t5 71v391h137v-399zM286 879q0 -28 12.5 -39.5t33.5 -11.5t33.5 11.5
t12.5 39.5l56 15q2 -6 2.5 -17t0.5 -17q0 -52 -27 -85t-78 -33t-78 33t-27 85q0 6 0.5 17t2.5 17z" />
    <glyph glyph-name="Ucircumflex" unicode="&#xdb;" horiz-adv-x="654" 
d="M581 281q0 -62 -14 -114.5t-44 -91.5t-77.5 -61t-114.5 -22q-71 0 -120 22t-79.5 61t-44.5 91.5t-14 114.5v399l150 8v-399q0 -38 3.5 -68t15 -50.5t33 -31t56.5 -10.5q33 0 55 9.5t35 29.5t18 50t5 71v391h137v-399zM441 742q-6 3 -20.5 12t-31.5 18.5t-32.5 18.5
t-21.5 12q-7 -3 -22 -12t-32 -18.5t-31.5 -18.5t-20.5 -12l-30 47l136 131l136 -131z" />
    <glyph glyph-name="Udieresis" unicode="&#xdc;" horiz-adv-x="654" 
d="M581 281q0 -62 -14 -114.5t-44 -91.5t-77.5 -61t-114.5 -22q-71 0 -120 22t-79.5 61t-44.5 91.5t-14 114.5v399l150 8v-399q0 -38 3.5 -68t15 -50.5t33 -31t56.5 -10.5q33 0 55 9.5t35 29.5t18 50t5 71v391h137v-399zM163 830q0 30 21 51t51 21t51 -21t21 -51t-21 -51
t-51 -21t-51 21t-21 51zM357 830q0 30 21 51t51 21t51 -21t21 -51t-21 -51t-51 -21t-51 21t-21 51z" />
    <glyph glyph-name="Ugrave" unicode="&#xd9;" horiz-adv-x="654" 
d="M581 281q0 -62 -14 -114.5t-44 -91.5t-77.5 -61t-114.5 -22q-71 0 -120 22t-79.5 61t-44.5 91.5t-14 114.5v399l150 8v-399q0 -38 3.5 -68t15 -50.5t33 -31t56.5 -10.5q33 0 55 9.5t35 29.5t18 50t5 71v391h137v-399zM414 742q-55 9 -106.5 36.5t-95.5 71.5l105 104
q10 -32 27 -64q14 -27 37 -56.5t58 -49.5z" />
    <glyph glyph-name="Uhungarumlaut" unicode="&#x170;" horiz-adv-x="654" 
d="M581 281q0 -62 -14 -114.5t-44 -91.5t-77.5 -61t-114.5 -22q-71 0 -120 22t-79.5 61t-44.5 91.5t-14 114.5v399l150 8v-399q0 -38 3.5 -68t15 -50.5t33 -31t56.5 -10.5q33 0 55 9.5t35 29.5t18 50t5 71v391h137v-399zM357 792q10 5 16 18.5t9 30t2.5 34t-1.5 31.5
q-1 6 -1 10.5t-1 6.5q-1 3 -2 5l137 -24q-3 -23 -16.5 -50t-32.5 -51t-40 -41t-40 -20zM197 792q11 5 17 18.5t8.5 30t2.5 34t-1 31.5q-2 13 -3 17q-1 3 -2 5l138 -24q-3 -23 -16.5 -50t-32.5 -51t-40 -41t-40 -20z" />
    <glyph glyph-name="Uogonek" unicode="&#x172;" horiz-adv-x="654" 
d="M331 -8q-71 0 -120 22t-79.5 61t-44.5 91.5t-14 114.5v399l150 8v-399q0 -38 3.5 -68t15 -50.5t33 -31t56.5 -10.5q33 0 55 9.5t35 29.5t18 50t5 71v391h137v-399q0 -95 -33 -166.5t-109 -103.5q-29 -23 -50 -56t-21 -65q0 -9 6.5 -23t23.5 -14q13 0 20 5q4 2 5 5l50 -83
q-4 -10 -21 -24t-55 -14q-23 0 -44 9t-37 25t-26 38t-10 49q0 22 6 41.5t14.5 36t18.5 29.5t19 22h-7z" />
    <glyph glyph-name="Uring" unicode="&#x16e;" horiz-adv-x="654" 
d="M581 281q0 -62 -14 -114.5t-44 -91.5t-77.5 -61t-114.5 -22q-71 0 -120 22t-79.5 61t-44.5 91.5t-14 114.5v399l150 8v-399q0 -38 3.5 -68t15 -50.5t33 -31t56.5 -10.5q33 0 55 9.5t35 29.5t18 50t5 71v391h137v-399zM225 849q0 22 8.5 41.5t23 34t34 23t41.5 8.5
t41.5 -8.5t34.5 -23t23.5 -34t8.5 -41.5t-8.5 -41.5t-23.5 -34t-34.5 -23t-41.5 -8.5t-41.5 8.5t-34 23t-23 34t-8.5 41.5zM298 849q0 -14 10.5 -24.5t24.5 -10.5t24.5 10.5t10.5 24.5t-10.5 24.5t-24.5 10.5t-24.5 -10.5t-10.5 -24.5z" />
    <glyph glyph-name="Utilde" unicode="&#x168;" horiz-adv-x="654" 
d="M581 281q0 -62 -14 -114.5t-44 -91.5t-77.5 -61t-114.5 -22q-71 0 -120 22t-79.5 61t-44.5 91.5t-14 114.5v399l150 8v-399q0 -38 3.5 -68t15 -50.5t33 -31t56.5 -10.5q33 0 55 9.5t35 29.5t18 50t5 71v391h137v-399zM539 884q-1 -18 -4.5 -44t-14.5 -50t-31.5 -41
t-56.5 -17q-26 0 -53 13t-53.5 28t-49.5 28t-40 13t-28 -6t-17.5 -15t-9.5 -18.5t-4 -16.5h-52q1 18 4.5 44t14.5 50t31.5 41t56.5 17q26 0 53.5 -13t54 -28t49 -28t39.5 -13t28 6t17.5 15t9.5 18.5t4 16.5h52z" />
    <glyph glyph-name="Wacute" unicode="&#x1e82;" horiz-adv-x="811" 
d="M322 784q34 20 57.5 49.5t37.5 56.5q17 32 27 64l105 -104q-44 -44 -95.5 -71.5t-106.5 -36.5zM3 672l150 16l94 -410l102 402h123l100 -414l89 422l147 -16l-162 -672h-108l-137 430l-113 -430h-123z" />
    <glyph glyph-name="Wcircumflex" unicode="&#x174;" horiz-adv-x="811" 
d="M511 742q-6 3 -21 12t-32 18.5t-32.5 18.5t-21.5 12q-7 -3 -22 -12t-31.5 -18.5t-31.5 -18.5t-21 -12l-29 47l135 131l136 -131zM3 672l150 16l94 -410l102 402h123l100 -414l89 422l147 -16l-162 -672h-108l-137 430l-113 -430h-123z" />
    <glyph glyph-name="Wdieresis" unicode="&#x1e84;" horiz-adv-x="811" 
d="M236 830q0 30 21 51t51 21t51 -21t21 -51t-21 -51t-51 -21t-51 21t-21 51zM430 830q0 30 21 51t51 21t51 -21t21 -51t-21 -51t-51 -21t-51 21t-21 51zM3 672l150 16l94 -410l102 402h123l100 -414l89 422l147 -16l-162 -672h-108l-137 430l-113 -430h-123z" />
    <glyph glyph-name="Wgrave" unicode="&#x1e80;" horiz-adv-x="811" 
d="M483 742q-55 9 -106.5 36.5t-95.5 71.5l105 104q10 -32 27 -64q14 -27 37 -56.5t58 -49.5zM3 672l150 16l94 -410l102 402h123l100 -414l89 422l147 -16l-162 -672h-108l-137 430l-113 -430h-123z" />
    <glyph glyph-name="Yacute" unicode="&#xdd;" horiz-adv-x="569" 
d="M205 784q34 20 57.5 49.5t37.5 56.5q17 32 27 64l105 -104q-44 -44 -95.5 -71.5t-106.5 -36.5zM3 672l166 16l129 -195l110 195l158 -16l-203 -307v-365h-150v364z" />
    <glyph glyph-name="Ycircumflex" unicode="&#x176;" horiz-adv-x="569" 
d="M3 672l166 16l129 -195l110 195l158 -16l-203 -307v-365h-150v364zM396 742q-6 3 -20.5 12t-31.5 18.5t-32.5 18.5t-21.5 12q-7 -3 -22 -12t-32 -18.5t-31.5 -18.5t-20.5 -12l-30 47l136 131l136 -131z" />
    <glyph glyph-name="Ydieresis" unicode="&#x178;" horiz-adv-x="569" 
d="M120 830q0 30 21 51t51 21t51 -21t21 -51t-21 -51t-51 -21t-51 21t-21 51zM314 830q0 30 21 51t51 21t51 -21t21 -51t-21 -51t-51 -21t-51 21t-21 51zM3 672l166 16l129 -195l110 195l158 -16l-203 -307v-365h-150v364z" />
    <glyph glyph-name="Ygrave" unicode="&#x1ef2;" horiz-adv-x="569" 
d="M356 742q-55 9 -106.5 36.5t-95.5 71.5l105 104q10 -32 27 -64q14 -27 37 -56.5t58 -49.5zM3 672l166 16l129 -195l110 195l158 -16l-203 -307v-365h-150v364z" />
    <glyph glyph-name="dcaron" unicode="&#x10f;" horiz-adv-x="873" 
d="M753 758q32 -45 49.5 -101t17.5 -118l-129 12q0 39 -1 62.5t-3 41t-7 35t-12 44.5zM549 0h-137v78q-12 -25 -30 -43q-16 -17 -41.5 -30t-63.5 -13q-50 0 -94.5 21.5t-77.5 57.5t-52.5 84t-19.5 102q0 58 22.5 106t57.5 82t78.5 52.5t85.5 18.5q38 0 63.5 -13.5
t41.5 -29.5q18 -19 30 -43v320l137 8v-758zM424 252q0 29 -9.5 54.5t-26.5 44t-40 29.5t-49 11q-27 0 -51 -11t-41 -29.5t-27 -44t-10 -54.5q0 -27 10 -51.5t27 -43t41 -29.5t51 -11q26 0 49 11t40 29.5t26.5 43t9.5 51.5z" />
    <glyph glyph-name="cacute" unicode="&#x107;" horiz-adv-x="522" 
d="M489 70q-36 -37 -84 -57.5t-104 -20.5q-53 0 -100 20.5t-82 56t-55.5 83.5t-20.5 102t20.5 102t55.5 83.5t82 56t100 20.5q56 0 104 -20.5t84 -57.5l-92 -92q-22 25 -46 35t-50 10t-48 -11t-38 -29.5t-25.5 -44t-9.5 -54.5q0 -28 9.5 -52.5t25.5 -43t38 -29t48 -10.5
t50 10t46 35zM184 622q34 20 57.5 49.5t37.5 56.5q17 32 27 64l105 -104q-44 -44 -95.5 -71.5t-106.5 -36.5z" />
    <glyph glyph-name="ccaron" unicode="&#x10d;" horiz-adv-x="522" 
d="M489 70q-36 -37 -84 -57.5t-104 -20.5q-53 0 -100 20.5t-82 56t-55.5 83.5t-20.5 102t20.5 102t55.5 83.5t82 56t100 20.5q56 0 104 -20.5t84 -57.5l-92 -92q-22 25 -46 35t-50 10t-48 -11t-38 -29.5t-25.5 -44t-9.5 -54.5q0 -28 9.5 -52.5t25.5 -43t38 -29t48 -10.5
t50 10t46 35zM438 710l-136 -131l-136 131l30 47q6 -3 20.5 -12t31.5 -18.5t32 -18.5t22 -12q6 3 21.5 12t32.5 18.5t31.5 18.5t20.5 12z" />
    <glyph glyph-name="ccedilla" unicode="&#xe7;" horiz-adv-x="522" 
d="M296 -118q0 16 -12.5 20t-22.5 6q-11 2 -14 9t-3 15q0 4 2 9.5t4 8.5l25 44q-48 5 -90.5 27t-74 56.5t-49.5 80t-18 96.5q0 54 20.5 102t55.5 83.5t82 56t100 20.5q56 0 104 -20.5t84 -57.5l-92 -92q-22 25 -46 35t-50 10t-48 -11t-38 -29.5t-25.5 -44t-9.5 -54.5
q0 -28 9.5 -52.5t25.5 -43t38 -29t48 -10.5t50 10t46 35l92 -92q-29 -30 -66 -49.5t-81 -25.5l-31 -53q57 -32 57 -96q0 -22 -8 -41t-22 -33t-33.5 -22t-41.5 -8q-27 0 -45.5 11t-28.5 20l54 89q5 -3 11.5 -4.5t12.5 -1.5q17 0 23 7.5t6 18.5z" />
    <glyph glyph-name="ccircumflex" unicode="&#x109;" horiz-adv-x="522" 
d="M489 70q-36 -37 -84 -57.5t-104 -20.5q-53 0 -100 20.5t-82 56t-55.5 83.5t-20.5 102t20.5 102t55.5 83.5t82 56t100 20.5q56 0 104 -20.5t84 -57.5l-92 -92q-22 25 -46 35t-50 10t-48 -11t-38 -29.5t-25.5 -44t-9.5 -54.5q0 -28 9.5 -52.5t25.5 -43t38 -29t48 -10.5
t50 10t46 35zM410 580q-6 3 -20.5 12t-31.5 18.5t-32.5 18.5t-21.5 12q-7 -3 -22 -12t-32 -18.5t-31.5 -18.5t-20.5 -12l-30 47l136 131l136 -131z" />
    <glyph glyph-name="cdotaccent" unicode="&#x10b;" horiz-adv-x="522" 
d="M489 70q-36 -37 -84 -57.5t-104 -20.5q-53 0 -100 20.5t-82 56t-55.5 83.5t-20.5 102t20.5 102t55.5 83.5t82 56t100 20.5q56 0 104 -20.5t84 -57.5l-92 -92q-22 25 -46 35t-50 10t-48 -11t-38 -29.5t-25.5 -44t-9.5 -54.5q0 -28 9.5 -52.5t25.5 -43t38 -29t48 -10.5
t50 10t46 35zM228 668q0 30 21 51t51 21t51 -21t21 -51t-21 -51t-51 -21t-51 21t-21 51z" />
    <glyph glyph-name="gbreve" unicode="&#x11f;" horiz-adv-x="622" 
d="M254 717q0 -28 12.5 -39.5t33.5 -11.5t33.5 11.5t12.5 39.5l56 15q2 -6 2.5 -17t0.5 -17q0 -52 -27 -85t-78 -33t-78 33t-27 85q0 6 0.5 17t2.5 17zM422 78q-12 -25 -30 -43q-16 -17 -41.5 -30t-63.5 -13q-50 0 -94.5 21.5t-77.5 57.5t-52.5 84t-19.5 102q0 58 22.5 106
t57.5 82t78.5 52.5t85.5 18.5q38 0 63.5 -13.5t41.5 -29.5q18 -19 30 -43v78l137 8v-502q0 -81 -23 -133.5t-60.5 -83.5t-87 -43t-101.5 -12q-25 0 -50 3t-48 10.5t-42.5 19.5t-34.5 29l95 95q5 -9 16 -16q9 -6 24.5 -11t39.5 -5q44 0 70.5 9t41 27.5t19 46t4.5 64.5v64z
M434 252q0 29 -9.5 54.5t-26.5 44t-40 29.5t-49 11q-27 0 -51 -11t-41 -29.5t-27 -44t-10 -54.5q0 -27 10 -51.5t27 -43t41 -29.5t51 -11q26 0 49 11t40 29.5t26.5 43t9.5 51.5z" />
    <glyph glyph-name="gcircumflex" unicode="&#x11d;" horiz-adv-x="622" 
d="M409 580q-6 3 -20.5 12t-31.5 18.5t-32.5 18.5t-21.5 12q-7 -3 -22 -12t-32 -18.5t-31.5 -18.5t-20.5 -12l-30 47l136 131l136 -131zM422 78q-12 -25 -30 -43q-16 -17 -41.5 -30t-63.5 -13q-50 0 -94.5 21.5t-77.5 57.5t-52.5 84t-19.5 102q0 58 22.5 106t57.5 82
t78.5 52.5t85.5 18.5q38 0 63.5 -13.5t41.5 -29.5q18 -19 30 -43v78l137 8v-502q0 -81 -23 -133.5t-60.5 -83.5t-87 -43t-101.5 -12q-25 0 -50 3t-48 10.5t-42.5 19.5t-34.5 29l95 95q5 -9 16 -16q9 -6 24.5 -11t39.5 -5q44 0 70.5 9t41 27.5t19 46t4.5 64.5v64zM434 252
q0 29 -9.5 54.5t-26.5 44t-40 29.5t-49 11q-27 0 -51 -11t-41 -29.5t-27 -44t-10 -54.5q0 -27 10 -51.5t27 -43t41 -29.5t51 -11q26 0 49 11t40 29.5t26.5 43t9.5 51.5z" />
    <glyph glyph-name="gdotaccent" unicode="&#x121;" horiz-adv-x="622" 
d="M230 668q0 30 21 51t51 21t51 -21t21 -51t-21 -51t-51 -21t-51 21t-21 51zM422 78q-12 -25 -30 -43q-16 -17 -41.5 -30t-63.5 -13q-50 0 -94.5 21.5t-77.5 57.5t-52.5 84t-19.5 102q0 58 22.5 106t57.5 82t78.5 52.5t85.5 18.5q38 0 63.5 -13.5t41.5 -29.5q18 -19 30 -43
v78l137 8v-502q0 -81 -23 -133.5t-60.5 -83.5t-87 -43t-101.5 -12q-25 0 -50 3t-48 10.5t-42.5 19.5t-34.5 29l95 95q5 -9 16 -16q9 -6 24.5 -11t39.5 -5q44 0 70.5 9t41 27.5t19 46t4.5 64.5v64zM434 252q0 29 -9.5 54.5t-26.5 44t-40 29.5t-49 11q-27 0 -51 -11t-41 -29.5
t-27 -44t-10 -54.5q0 -27 10 -51.5t27 -43t41 -29.5t51 -11q26 0 49 11t40 29.5t26.5 43t9.5 51.5z" />
    <glyph glyph-name="hcircumflex" unicode="&#x125;" horiz-adv-x="576" 
d="M460 742q-6 3 -20.5 12t-31.5 18.5t-32.5 18.5t-21.5 12q-7 -3 -22 -12t-32 -18.5t-31.5 -18.5t-20.5 -12l-30 47l136 131l136 -131zM370 516q55 0 85.5 -21.5t44 -57t16 -80.5t2.5 -92v-265h-138v205q0 51 -1 86.5t-6.5 57.5t-17.5 32t-34 10q-19 0 -37 -5.5t-32 -12.5
q-17 -8 -32 -18v-355h-137v750l137 8v-315q21 20 46 36q21 14 48 25.5t56 11.5z" />
    <glyph glyph-name="iacute" unicode="&#xed;" horiz-adv-x="313" 
d="M42 622q34 20 57.5 49.5t37.5 56.5q17 32 27 64l105 -104q-44 -44 -95.5 -71.5t-106.5 -36.5zM93 508h137v-508h-137v508z" />
    <glyph glyph-name="ibreve" unicode="&#x12d;" horiz-adv-x="313" 
d="M113 717q0 -28 12.5 -39.5t33.5 -11.5t33.5 11.5t12.5 39.5l56 15q2 -6 2.5 -17t0.5 -17q0 -52 -27 -85t-78 -33t-78 33t-27 85q0 6 0.5 17t2.5 17zM93 508h137v-508h-137v508z" />
    <glyph glyph-name="icircumflex" unicode="&#xee;" horiz-adv-x="313" 
d="M93 508h137v-508h-137v508zM265 580q-6 3 -20.5 12t-31.5 18.5t-32.5 18.5t-21.5 12q-7 -3 -22 -12t-32 -18.5t-31.5 -18.5t-20.5 -12l-30 47l136 131l136 -131z" />
    <glyph glyph-name="idieresis" unicode="&#xef;" horiz-adv-x="313" 
d="M-10 668q0 30 21 51t51 21t51 -21t21 -51t-21 -51t-51 -21t-51 21t-21 51zM184 668q0 30 21 51t51 21t51 -21t21 -51t-21 -51t-51 -21t-51 21t-21 51zM93 508h137v-508h-137v508z" />
    <glyph glyph-name="igrave" unicode="&#xec;" horiz-adv-x="313" 
d="M248 580q-55 9 -106.5 36.5t-95.5 71.5l105 104q10 -32 27 -64q14 -27 37 -56.5t58 -49.5zM93 508h137v-508h-137v508z" />
    <glyph glyph-name="iogonek" unicode="&#x12f;" horiz-adv-x="313" 
d="M93 508h137v-508q-23 0 -43 -9t-35 -24t-23.5 -35t-8.5 -42q0 -9 6.5 -23t23.5 -14q13 0 20 5q4 2 5 5l50 -83q-4 -10 -21 -24t-55 -14q-23 0 -44 9t-37 25t-26 38t-10 49q0 22 6.5 43t15.5 39t19.5 32t19.5 23v508zM77 654q0 35 24.5 60t59.5 25q17 0 32.5 -6.5t27 -18
t18 -27t6.5 -33.5t-6.5 -33t-18 -26t-27 -17.5t-32.5 -6.5q-35 0 -59.5 24t-24.5 59z" />
    <glyph glyph-name="itilde" unicode="&#x129;" horiz-adv-x="313" 
d="M366 722q-1 -18 -4.5 -44t-14.5 -50t-31.5 -41t-56.5 -17q-26 0 -53 13t-53.5 28t-49.5 28t-40 13t-28 -6t-17.5 -15t-9.5 -18.5t-4 -16.5h-52q1 18 4.5 44t14.5 50t31.5 41t56.5 17q26 0 53.5 -13t54 -28t49 -28t39.5 -13t28 6t17.5 15t9.5 18.5t4 16.5h52zM93 508h137
v-508h-137v508z" />
    <glyph glyph-name="jcircumflex" unicode="&#x135;" horiz-adv-x="313" 
d="M230 1q0 -47 -9.5 -93t-34.5 -83t-68.5 -60t-110.5 -23q-14 0 -25.5 1t-19.5 3q-10 2 -17 4l47 118q2 -1 5 -1h10q20 0 36 6.5t27 23t17 43t6 67.5v501h137v-507zM268 580q-6 3 -21 12t-32 18.5t-32.5 18.5t-21.5 12q-7 -3 -22 -12t-31.5 -18.5t-31.5 -18.5t-21 -12
l-29 47l135 131l136 -131z" />
    <glyph glyph-name="lcaron" unicode="&#x13e;" horiz-adv-x="541" 
d="M421 758q32 -45 49.5 -101t17.5 -118l-130 12q0 39 -1 62.5t-3 41t-7 35t-12 44.5zM93 750l137 8v-758h-137v750z" />
    <glyph glyph-name="Lcaron" unicode="&#x13d;" horiz-adv-x="485" 
d="M408 758q32 -45 49.5 -101t17.5 -118l-129 12q0 39 -1 62.5t-3.5 41t-7 35t-11.5 44.5zM93 0v680l150 8v-538h232l-14 -150h-368z" />
    <glyph glyph-name="ldot" unicode="&#x140;" horiz-adv-x="538" 
d="M327 389q0 35 24.5 59.5t59.5 24.5q18 0 33 -6.5t26.5 -18t18 -27t6.5 -32.5t-6.5 -32.5t-18 -27t-26.5 -18t-33 -6.5q-35 0 -59.5 24.5t-24.5 59.5zM93 750l137 8v-758h-137v750z" />
    <glyph glyph-name="nacute" unicode="&#x144;" horiz-adv-x="587" 
d="M201 622q34 20 57.5 49.5t37.5 56.5q17 32 27 64l105 -104q-44 -44 -95.5 -71.5t-106.5 -36.5zM388 516q53 0 81.5 -21.5t42 -57t15.5 -80.5t2 -91v-266h-137v205q0 51 -1 86.5t-6.5 57.5t-17.5 32t-34 10q-27 0 -49 -5.5t-39 -12.5q-19 -8 -35 -18v-355h-137v508l132 8
l5 -73q37 30 82 51.5t96 21.5z" />
    <glyph glyph-name="ncaron" unicode="&#x148;" horiz-adv-x="587" 
d="M443 710l-136 -131l-136 131l30 47q6 -3 20.5 -12t31.5 -18.5t32 -18.5t22 -12q6 3 21.5 12t32.5 18.5t31.5 18.5t20.5 12zM388 516q53 0 81.5 -21.5t42 -57t15.5 -80.5t2 -91v-266h-137v205q0 51 -1 86.5t-6.5 57.5t-17.5 32t-34 10q-27 0 -49 -5.5t-39 -12.5
q-19 -8 -35 -18v-355h-137v508l132 8l5 -73q37 30 82 51.5t96 21.5z" />
    <glyph glyph-name="ntilde" unicode="&#xf1;" horiz-adv-x="587" 
d="M500 722q-1 -18 -4.5 -44t-14 -50t-31 -41t-56.5 -17q-26 0 -53 13t-53.5 28t-49.5 28t-40 13t-28 -6t-17.5 -15t-9.5 -18.5t-4 -16.5h-52q1 18 4.5 44t14 50t31.5 41t57 17q26 0 53.5 -13t54 -28t49 -28t39.5 -13t28 6t17.5 15t9.5 18.5t4 16.5h51zM388 516
q53 0 81.5 -21.5t42 -57t15.5 -80.5t2 -91v-266h-137v205q0 51 -1 86.5t-6.5 57.5t-17.5 32t-34 10q-27 0 -49 -5.5t-39 -12.5q-19 -8 -35 -18v-355h-137v508l132 8l5 -73q37 30 82 51.5t96 21.5z" />
    <glyph glyph-name="oacute" unicode="&#xf3;" horiz-adv-x="610" 
d="M188 622q34 20 57.5 49.5t37.5 56.5q17 32 27 64l105 -104q-44 -44 -95.5 -71.5t-106.5 -36.5zM43 254q0 54 20.5 102t56 83.5t83.5 56t102 20.5t102 -20.5t83.5 -56t56 -83.5t20.5 -102t-20.5 -102t-56 -83.5t-83.5 -56t-102 -20.5t-102 20.5t-83.5 56t-56 83.5
t-20.5 102zM186 254q0 -28 9.5 -53t25.5 -43.5t37.5 -29.5t46.5 -11t46.5 11t37.5 29.5t25.5 43.5t9.5 53t-9.5 53t-25.5 43.5t-37.5 29.5t-46.5 11t-46.5 -11t-37.5 -29.5t-25.5 -43.5t-9.5 -53z" />
    <glyph glyph-name="obreve" unicode="&#x14f;" horiz-adv-x="610" 
d="M259 717q0 -28 12.5 -39.5t33.5 -11.5t33.5 11.5t12.5 39.5l56 15q2 -6 2.5 -17t0.5 -17q0 -52 -27 -85t-78 -33t-78 33t-27 85q0 6 0.5 17t2.5 17zM43 254q0 54 20.5 102t56 83.5t83.5 56t102 20.5t102 -20.5t83.5 -56t56 -83.5t20.5 -102t-20.5 -102t-56 -83.5
t-83.5 -56t-102 -20.5t-102 20.5t-83.5 56t-56 83.5t-20.5 102zM186 254q0 -28 9.5 -53t25.5 -43.5t37.5 -29.5t46.5 -11t46.5 11t37.5 29.5t25.5 43.5t9.5 53t-9.5 53t-25.5 43.5t-37.5 29.5t-46.5 11t-46.5 -11t-37.5 -29.5t-25.5 -43.5t-9.5 -53z" />
    <glyph glyph-name="ocircumflex" unicode="&#xf4;" horiz-adv-x="610" 
d="M43 254q0 54 20.5 102t56 83.5t83.5 56t102 20.5t102 -20.5t83.5 -56t56 -83.5t20.5 -102t-20.5 -102t-56 -83.5t-83.5 -56t-102 -20.5t-102 20.5t-83.5 56t-56 83.5t-20.5 102zM186 254q0 -28 9.5 -53t25.5 -43.5t37.5 -29.5t46.5 -11t46.5 11t37.5 29.5t25.5 43.5
t9.5 53t-9.5 53t-25.5 43.5t-37.5 29.5t-46.5 11t-46.5 -11t-37.5 -29.5t-25.5 -43.5t-9.5 -53zM411 580q-6 3 -20.5 12t-31.5 18.5t-32.5 18.5t-21.5 12q-7 -3 -22 -12t-32 -18.5t-31.5 -18.5t-20.5 -12l-30 47l136 131l136 -131z" />
    <glyph glyph-name="odieresis" unicode="&#xf6;" horiz-adv-x="610" 
d="M136 668q0 30 21 51t51 21t51 -21t21 -51t-21 -51t-51 -21t-51 21t-21 51zM330 668q0 30 21 51t51 21t51 -21t21 -51t-21 -51t-51 -21t-51 21t-21 51zM43 254q0 54 20.5 102t56 83.5t83.5 56t102 20.5t102 -20.5t83.5 -56t56 -83.5t20.5 -102t-20.5 -102t-56 -83.5
t-83.5 -56t-102 -20.5t-102 20.5t-83.5 56t-56 83.5t-20.5 102zM186 254q0 -28 9.5 -53t25.5 -43.5t37.5 -29.5t46.5 -11t46.5 11t37.5 29.5t25.5 43.5t9.5 53t-9.5 53t-25.5 43.5t-37.5 29.5t-46.5 11t-46.5 -11t-37.5 -29.5t-25.5 -43.5t-9.5 -53z" />
    <glyph glyph-name="ograve" unicode="&#xf2;" horiz-adv-x="610" 
d="M397 580q-55 9 -106.5 36.5t-95.5 71.5l105 104q10 -32 27 -64q14 -27 37 -56.5t58 -49.5zM43 254q0 54 20.5 102t56 83.5t83.5 56t102 20.5t102 -20.5t83.5 -56t56 -83.5t20.5 -102t-20.5 -102t-56 -83.5t-83.5 -56t-102 -20.5t-102 20.5t-83.5 56t-56 83.5t-20.5 102z
M186 254q0 -28 9.5 -53t25.5 -43.5t37.5 -29.5t46.5 -11t46.5 11t37.5 29.5t25.5 43.5t9.5 53t-9.5 53t-25.5 43.5t-37.5 29.5t-46.5 11t-46.5 -11t-37.5 -29.5t-25.5 -43.5t-9.5 -53z" />
    <glyph glyph-name="ohungarumlaut" unicode="&#x151;" horiz-adv-x="610" 
d="M43 254q0 54 20.5 102t56 83.5t83.5 56t102 20.5t102 -20.5t83.5 -56t56 -83.5t20.5 -102t-20.5 -102t-56 -83.5t-83.5 -56t-102 -20.5t-102 20.5t-83.5 56t-56 83.5t-20.5 102zM186 254q0 -28 9.5 -53t25.5 -43.5t37.5 -29.5t46.5 -11t46.5 11t37.5 29.5t25.5 43.5
t9.5 53t-9.5 53t-25.5 43.5t-37.5 29.5t-46.5 11t-46.5 -11t-37.5 -29.5t-25.5 -43.5t-9.5 -53zM326 630q10 5 16 18.5t9 30t2.5 34t-1.5 31.5q-1 6 -1 10.5t-1 6.5q-1 3 -2 5l137 -24q-3 -23 -16.5 -50t-32.5 -51t-40 -41t-40 -20zM166 630q11 5 17 18.5t8.5 30t2.5 34
t-1 31.5q-2 13 -3 17q-1 3 -2 5l138 -24q-3 -23 -16.5 -50t-32.5 -51t-40 -41t-40 -20z" />
    <glyph glyph-name="oslash" unicode="&#xf8;" horiz-adv-x="610" 
d="M305 516q14 0 27 -2t26 -5l29 57h144l-57 -114q42 -38 67.5 -89t25.5 -109q0 -53 -21 -100.5t-57 -83.5t-83.5 -57t-100.5 -21q-14 0 -28 2t-28 5l-27 -57h-144l57 116q-42 36 -67 87t-25 109q0 53 21 100.5t57 83.5t83.5 57t100.5 21zM424 254q0 38 -13 68l-103 -206
q0 1 -3 1q25 0 46.5 10.5t37.5 29.5t25.5 43.5t9.5 53.5zM186 254q0 -19 2.5 -35.5t9.5 -32.5l102 206q1 -1 5 -1q-25 0 -46.5 -10.5t-37.5 -29.5t-25.5 -44t-9.5 -53z" />
    <glyph glyph-name="otilde" unicode="&#xf5;" horiz-adv-x="610" 
d="M512 722q-1 -18 -4.5 -44t-14.5 -50t-31.5 -41t-56.5 -17q-26 0 -53 13t-53.5 28t-49.5 28t-40 13t-28 -6t-17.5 -15t-9.5 -18.5t-4 -16.5h-52q1 18 4.5 44t14.5 50t31.5 41t56.5 17q26 0 53.5 -13t54 -28t49 -28t39.5 -13t28 6t17.5 15t9.5 18.5t4 16.5h52zM43 254
q0 54 20.5 102t56 83.5t83.5 56t102 20.5t102 -20.5t83.5 -56t56 -83.5t20.5 -102t-20.5 -102t-56 -83.5t-83.5 -56t-102 -20.5t-102 20.5t-83.5 56t-56 83.5t-20.5 102zM186 254q0 -28 9.5 -53t25.5 -43.5t37.5 -29.5t46.5 -11t46.5 11t37.5 29.5t25.5 43.5t9.5 53t-9.5 53
t-25.5 43.5t-37.5 29.5t-46.5 11t-46.5 -11t-37.5 -29.5t-25.5 -43.5t-9.5 -53z" />
    <glyph glyph-name="oslashacute" unicode="&#x1ff;" horiz-adv-x="610" 
d="M305 516q14 0 27 -2t26 -5l29 57h144l-57 -114q42 -38 67.5 -89t25.5 -109q0 -53 -21 -100.5t-57 -83.5t-83.5 -57t-100.5 -21q-14 0 -28 2t-28 5l-27 -57h-144l57 116q-42 36 -67 87t-25 109q0 53 21 100.5t57 83.5t83.5 57t100.5 21zM424 254q0 38 -13 68l-103 -206
q0 1 -3 1q25 0 46.5 10.5t37.5 29.5t25.5 43.5t9.5 53.5zM186 254q0 -19 2.5 -35.5t9.5 -32.5l102 206q1 -1 5 -1q-25 0 -46.5 -10.5t-37.5 -29.5t-25.5 -44t-9.5 -53zM192 622q34 20 57.5 49.5t37.5 56.5q17 32 27 64l105 -104q-44 -44 -95.5 -71.5t-106.5 -36.5z" />
    <glyph glyph-name="racute" unicode="&#x155;" horiz-adv-x="424" 
d="M134 622q34 20 57.5 49.5t37.5 56.5q17 32 27 64l105 -104q-44 -44 -95.5 -71.5t-106.5 -36.5zM339 384q-4 1 -8 3q-10 4 -23 4q-19 0 -36 -5.5t-31 -12.5q-16 -8 -31 -18v-355h-137v508l132 8l5 -73q39 36 73 54.5t76 18.5q16 0 27 -2.5t19 -4.5q9 -4 14 -7z" />
    <glyph glyph-name="rcaron" unicode="&#x159;" horiz-adv-x="424" 
d="M368 710l-136 -131l-136 131l30 47q6 -3 20.5 -12t31.5 -18.5t32 -18.5t22 -12q6 3 21.5 12t32.5 18.5t31.5 18.5t20.5 12zM339 384q-4 1 -8 3q-10 4 -23 4q-19 0 -36 -5.5t-31 -12.5q-16 -8 -31 -18v-355h-137v508l132 8l5 -73q39 36 73 54.5t76 18.5q16 0 27 -2.5
t19 -4.5q9 -4 14 -7z" />
    <glyph glyph-name="sacute" unicode="&#x15b;" horiz-adv-x="424" 
d="M102 622q34 20 57.5 49.5t37.5 56.5q17 32 27 64l105 -104q-44 -44 -95.5 -71.5t-106.5 -36.5zM219 516q37 0 65 -8.5t48 -19.5q23 -12 40 -27l-91 -90q-6 6 -14 10q-7 4 -18 7t-26 3q-14 0 -23.5 -7.5t-9.5 -18.5q0 -16 21.5 -27t50.5 -30q23 -15 45 -30.5t39.5 -35.5
t28.5 -46.5t11 -63.5q0 -32 -13.5 -58t-36.5 -44t-53.5 -28t-63.5 -10q-35 0 -66.5 10.5t-54.5 24.5q-27 16 -50 36l87 85q8 -9 19 -16q10 -6 24 -10.5t33 -4.5t28.5 9t9.5 22q0 17 -16.5 30.5t-42.5 30.5q-19 12 -43 26t-45 34.5t-35 50t-14 72.5q0 25 13 48t35.5 39.5
t52.5 26.5t65 10z" />
    <glyph glyph-name="scaron" unicode="&#x161;" horiz-adv-x="424" 
d="M358 710l-136 -131l-136 131l30 47q6 -3 20.5 -12t31.5 -18.5t32 -18.5t22 -12q6 3 21.5 12t32.5 18.5t31.5 18.5t20.5 12zM219 516q37 0 65 -8.5t48 -19.5q23 -12 40 -27l-91 -90q-6 6 -14 10q-7 4 -18 7t-26 3q-14 0 -23.5 -7.5t-9.5 -18.5q0 -16 21.5 -27t50.5 -30
q23 -15 45 -30.5t39.5 -35.5t28.5 -46.5t11 -63.5q0 -32 -13.5 -58t-36.5 -44t-53.5 -28t-63.5 -10q-35 0 -66.5 10.5t-54.5 24.5q-27 16 -50 36l87 85q8 -9 19 -16q10 -6 24 -10.5t33 -4.5t28.5 9t9.5 22q0 17 -16.5 30.5t-42.5 30.5q-19 12 -43 26t-45 34.5t-35 50
t-14 72.5q0 25 13 48t35.5 39.5t52.5 26.5t65 10z" />
    <glyph glyph-name="scedilla" unicode="&#x15f;" horiz-adv-x="424" 
d="M204 -118q0 16 -12.5 20t-22.5 6q-11 2 -14 9t-3 15q0 4 2 9.5t4 8.5l26 45q-29 5 -54 16.5t-43 22.5q-21 13 -39 29l87 85q8 -9 19 -16q10 -6 24 -10.5t33 -4.5t28.5 9t9.5 22q0 17 -16.5 30.5t-42.5 30.5q-19 12 -43 26t-45 34.5t-35 50t-14 72.5q0 25 13 48t35.5 39.5
t52.5 26.5t65 10q37 0 65 -8.5t48 -19.5q23 -12 40 -27l-91 -90q-6 6 -14 10q-7 4 -18 7t-26 3q-14 0 -23.5 -7.5t-9.5 -18.5q0 -16 21.5 -27t50.5 -30q23 -15 45 -30.5t39.5 -35.5t28.5 -46.5t11 -63.5q0 -29 -10.5 -52.5t-29 -41t-43.5 -29t-53 -15.5l-31 -52
q57 -32 57 -96q0 -22 -8 -41t-22 -33t-33.5 -22t-41.5 -8q-27 0 -45.5 11t-28.5 20l54 89q5 -3 11.5 -4.5t12.5 -1.5q17 0 23 7.5t6 18.5z" />
    <glyph glyph-name="scircumflex" unicode="&#x15d;" horiz-adv-x="424" 
d="M330 580q-6 3 -20.5 12t-31.5 18.5t-32.5 18.5t-21.5 12q-7 -3 -22 -12t-32 -18.5t-31.5 -18.5t-20.5 -12l-30 47l136 131l136 -131zM219 516q37 0 65 -8.5t48 -19.5q23 -12 40 -27l-91 -90q-6 6 -14 10q-7 4 -18 7t-26 3q-14 0 -23.5 -7.5t-9.5 -18.5q0 -16 21.5 -27
t50.5 -30q23 -15 45 -30.5t39.5 -35.5t28.5 -46.5t11 -63.5q0 -32 -13.5 -58t-36.5 -44t-53.5 -28t-63.5 -10q-35 0 -66.5 10.5t-54.5 24.5q-27 16 -50 36l87 85q8 -9 19 -16q10 -6 24 -10.5t33 -4.5t28.5 9t9.5 22q0 17 -16.5 30.5t-42.5 30.5q-19 12 -43 26t-45 34.5
t-35 50t-14 72.5q0 25 13 48t35.5 39.5t52.5 26.5t65 10z" />
    <glyph glyph-name="tcaron" unicode="&#x165;" horiz-adv-x="560" 
d="M250 380v-125q0 -54 1 -85.5t8 -48t21.5 -21t40.5 -4.5v-90q-9 -4 -19 -7q-19 -7 -42 -7q-20 0 -46 7t-48.5 26.5t-38 54t-15.5 89.5v211h-79v128h79v172h138v-172h110l-16 -128h-94zM440 758q32 -45 49.5 -101t17.5 -118l-129 12q0 39 -1 62.5t-3 41t-7 35t-12 44.5z
" />
    <glyph glyph-name="uacute" unicode="&#xfa;" horiz-adv-x="555" 
d="M168 622q34 20 57.5 49.5t37.5 56.5q17 32 27 64l105 -104q-44 -44 -95.5 -71.5t-106.5 -36.5zM201 -8q-56 0 -86 21.5t-43.5 57t-16 80.5t-2.5 92v265h138v-205q0 -51 1 -86.5t6.5 -57.5t17.5 -32t34 -10q18 0 36 5.5t32 12.5q17 8 32 18v355h137v-508l-130 -8l-7 73
q-21 -21 -46 -37q-21 -14 -47.5 -25t-55.5 -11z" />
    <glyph glyph-name="ubreve" unicode="&#x16d;" horiz-adv-x="555" 
d="M231 717q0 -28 12.5 -39.5t33.5 -11.5t33.5 11.5t12.5 39.5l56 15q2 -6 2.5 -17t0.5 -17q0 -52 -27 -85t-78 -33t-78 33t-27 85q0 6 0.5 17t2.5 17zM201 -8q-56 0 -86 21.5t-43.5 57t-16 80.5t-2.5 92v265h138v-205q0 -51 1 -86.5t6.5 -57.5t17.5 -32t34 -10q18 0 36 5.5
t32 12.5q17 8 32 18v355h137v-508l-130 -8l-7 73q-21 -21 -46 -37q-21 -14 -47.5 -25t-55.5 -11z" />
    <glyph glyph-name="ucircumflex" unicode="&#xfb;" horiz-adv-x="555" 
d="M381 580q-6 3 -20.5 12t-31.5 18.5t-32.5 18.5t-21.5 12q-7 -3 -22 -12t-32 -18.5t-31.5 -18.5t-20.5 -12l-30 47l136 131l136 -131zM201 -8q-56 0 -86 21.5t-43.5 57t-16 80.5t-2.5 92v265h138v-205q0 -51 1 -86.5t6.5 -57.5t17.5 -32t34 -10q18 0 36 5.5t32 12.5
q17 8 32 18v355h137v-508l-130 -8l-7 73q-21 -21 -46 -37q-21 -14 -47.5 -25t-55.5 -11z" />
    <glyph glyph-name="udieresis" unicode="&#xfc;" horiz-adv-x="555" 
d="M105 668q0 30 21 51t51 21t51 -21t21 -51t-21 -51t-51 -21t-51 21t-21 51zM299 668q0 30 21 51t51 21t51 -21t21 -51t-21 -51t-51 -21t-51 21t-21 51zM201 -8q-56 0 -86 21.5t-43.5 57t-16 80.5t-2.5 92v265h138v-205q0 -51 1 -86.5t6.5 -57.5t17.5 -32t34 -10
q18 0 36 5.5t32 12.5q17 8 32 18v355h137v-508l-130 -8l-7 73q-21 -21 -46 -37q-21 -14 -47.5 -25t-55.5 -11z" />
    <glyph glyph-name="uhungarumlaut" unicode="&#x171;" horiz-adv-x="555" 
d="M305 630q10 5 16 18.5t9 30t2.5 34t-1.5 31.5q-1 6 -1 10.5t-1 6.5q-1 3 -2 5l137 -24q-3 -23 -16.5 -50t-32.5 -51t-40 -41t-40 -20zM145 630q11 5 17 18.5t8.5 30t2.5 34t-1 31.5q-2 13 -3 17q-1 3 -2 5l138 -24q-3 -23 -16.5 -50t-32.5 -51t-40 -41t-40 -20zM201 -8
q-56 0 -86 21.5t-43.5 57t-16 80.5t-2.5 92v265h138v-205q0 -51 1 -86.5t6.5 -57.5t17.5 -32t34 -10q18 0 36 5.5t32 12.5q17 8 32 18v355h137v-508l-130 -8l-7 73q-21 -21 -46 -37q-21 -14 -47.5 -25t-55.5 -11z" />
    <glyph glyph-name="ugrave" unicode="&#xf9;" horiz-adv-x="555" 
d="M354 580q-55 9 -106.5 36.5t-95.5 71.5l105 104q10 -32 27 -64q14 -27 37 -56.5t58 -49.5zM201 -8q-56 0 -86 21.5t-43.5 57t-16 80.5t-2.5 92v265h138v-205q0 -51 1 -86.5t6.5 -57.5t17.5 -32t34 -10q18 0 36 5.5t32 12.5q17 8 32 18v355h137v-508l-130 -8l-7 73
q-21 -21 -46 -37q-21 -14 -47.5 -25t-55.5 -11z" />
    <glyph glyph-name="uogonek" unicode="&#x173;" horiz-adv-x="555" 
d="M201 -8q-56 0 -86 21.5t-43.5 57t-16 80.5t-2.5 92v265h138v-205q0 -51 1 -86.5t6.5 -57.5t17.5 -32t34 -10q18 0 36 5.5t32 12.5q17 8 32 18v355h137v-508q-16 0 -33.5 -9t-32.5 -24t-24.5 -35t-9.5 -42q0 -9 6.5 -23t23.5 -14q13 0 20 5q4 2 5 5l50 -83q-4 -10 -21 -24
t-55 -14q-23 0 -44 9t-37 25t-26 38t-10 49q0 22 6 41.5t14.5 36t18.5 29.5t19 22l-7 73q-21 -21 -46 -37q-21 -14 -47.5 -25t-55.5 -11z" />
    <glyph glyph-name="uring" unicode="&#x16f;" horiz-adv-x="555" 
d="M172 687q0 22 8.5 41.5t23 34t34 23t41.5 8.5t41.5 -8.5t34.5 -23t23.5 -34t8.5 -41.5t-8.5 -41.5t-23.5 -34t-34.5 -23t-41.5 -8.5t-41.5 8.5t-34 23t-23 34t-8.5 41.5zM245 687q0 -14 10.5 -24.5t24.5 -10.5t24.5 10.5t10.5 24.5t-10.5 24.5t-24.5 10.5t-24.5 -10.5
t-10.5 -24.5zM201 -8q-56 0 -86 21.5t-43.5 57t-16 80.5t-2.5 92v265h138v-205q0 -51 1 -86.5t6.5 -57.5t17.5 -32t34 -10q18 0 36 5.5t32 12.5q17 8 32 18v355h137v-508l-130 -8l-7 73q-21 -21 -46 -37q-21 -14 -47.5 -25t-55.5 -11z" />
    <glyph glyph-name="utilde" unicode="&#x169;" horiz-adv-x="555" 
d="M487 722q-1 -18 -4.5 -44t-14.5 -50t-31.5 -41t-56.5 -17q-26 0 -53 13t-53.5 28t-49.5 28t-40 13t-28 -6t-17.5 -15t-9.5 -18.5t-4 -16.5h-52q1 18 4.5 44t14.5 50t31.5 41t56.5 17q26 0 53.5 -13t54 -28t49 -28t39.5 -13t28 6t17.5 15t9.5 18.5t4 16.5h52zM201 -8
q-56 0 -86 21.5t-43.5 57t-16 80.5t-2.5 92v265h138v-205q0 -51 1 -86.5t6.5 -57.5t17.5 -32t34 -10q18 0 36 5.5t32 12.5q17 8 32 18v355h137v-508l-130 -8l-7 73q-21 -21 -46 -37q-21 -14 -47.5 -25t-55.5 -11z" />
    <glyph glyph-name="yacute" unicode="&#xfd;" horiz-adv-x="564" 
d="M182 622q34 20 57.5 49.5t37.5 56.5q17 32 27 64l105 -104q-44 -44 -95.5 -71.5t-106.5 -36.5zM5 508l147 8l136 -311l131 311l140 -8l-342 -766l-118 16l120 284z" />
    <glyph glyph-name="ydieresis" unicode="&#xff;" horiz-adv-x="564" 
d="M119 668q0 30 21 51t51 21t51 -21t21 -51t-21 -51t-51 -21t-51 21t-21 51zM313 668q0 30 21 51t51 21t51 -21t21 -51t-21 -51t-51 -21t-51 21t-21 51zM5 508l147 8l136 -311l131 311l140 -8l-342 -766l-118 16l120 284z" />
    <glyph glyph-name="ycircumflex" unicode="&#x177;" horiz-adv-x="564" 
d="M5 508l147 8l136 -311l131 311l140 -8l-342 -766l-118 16l120 284zM394 580q-6 3 -20.5 12t-31.5 18.5t-32.5 18.5t-21.5 12q-7 -3 -22 -12t-32 -18.5t-31.5 -18.5t-20.5 -12l-30 47l136 131l136 -131z" />
    <glyph glyph-name="ygrave" unicode="&#x1ef3;" horiz-adv-x="564" 
d="M361 580q-55 9 -106.5 36.5t-95.5 71.5l105 104q10 -32 27 -64q14 -27 37 -56.5t58 -49.5zM5 508l147 8l136 -311l131 311l140 -8l-342 -766l-118 16l120 284z" />
    <glyph glyph-name="zacute" unicode="&#x17a;" horiz-adv-x="477" 
d="M166 622q34 20 57.5 49.5t37.5 56.5q17 32 27 64l105 -104q-44 -44 -95.5 -71.5t-106.5 -36.5zM245 113h196l-14 -113h-394l198 395h-158v113h371z" />
    <glyph glyph-name="zcaron" unicode="&#x17e;" horiz-adv-x="477" 
d="M245 113h196l-14 -113h-394l198 395h-158v113h371zM405 710l-136 -131l-136 131l30 47q6 -3 20.5 -12t31.5 -18.5t32 -18.5t22 -12q6 3 21.5 12t32.5 18.5t31.5 18.5t20.5 12z" />
    <glyph glyph-name="zdotaccent" unicode="&#x17c;" horiz-adv-x="477" 
d="M189 668q0 30 21 51t51 21t51 -21t21 -51t-21 -51t-51 -21t-51 21t-21 51zM245 113h196l-14 -113h-394l198 395h-158v113h371z" />
    <glyph glyph-name="wgrave" unicode="&#x1e81;" horiz-adv-x="667" 
d="M425 580q-55 9 -106.5 36.5t-95.5 71.5l105 104q10 -32 27 -64q14 -27 37 -56.5t58 -49.5zM8 508l143 8l79 -284l75 276h78l84 -276l82 284l110 -8l-148 -508h-96l-77 228l-55 -228h-103z" />
    <glyph glyph-name="wdieresis" unicode="&#x1e85;" horiz-adv-x="667" 
d="M175 668q0 30 21 51t51 21t51 -21t21 -51t-21 -51t-51 -21t-51 21t-21 51zM369 668q0 30 21 51t51 21t51 -21t21 -51t-21 -51t-51 -21t-51 21t-21 51zM8 508l143 8l79 -284l75 276h78l84 -276l82 284l110 -8l-148 -508h-96l-77 228l-55 -228h-103z" />
    <glyph glyph-name="wcircumflex" unicode="&#x175;" horiz-adv-x="667" 
d="M8 508l143 8l79 -284l75 276h78l84 -276l82 284l110 -8l-148 -508h-96l-77 228l-55 -228h-103zM450 580q-6 3 -20.5 12t-31.5 18.5t-32.5 18.5t-21.5 12q-7 -3 -22 -12t-32 -18.5t-31.5 -18.5t-20.5 -12l-30 47l136 131l136 -131z" />
    <glyph glyph-name="wacute" unicode="&#x1e83;" horiz-adv-x="667" 
d="M250 622q34 20 57.5 49.5t37.5 56.5q17 32 27 64l105 -104q-44 -44 -95.5 -71.5t-106.5 -36.5zM8 508l143 8l79 -284l75 276h78l84 -276l82 284l110 -8l-148 -508h-96l-77 228l-55 -228h-103z" />
    <glyph glyph-name="macron" unicode="&#xaf;" horiz-adv-x="674" 
d="M149 653h385l-9 -94h-385z" />
    <glyph glyph-name="Amacron" unicode="&#x100;" horiz-adv-x="689" 
d="M147 841h385l-9 -94h-385zM532 -8l-50 117h-268l-47 -117l-154 16l285 672h102l286 -672zM271 246h151l-76 181z" />
    <glyph glyph-name="Emacron" unicode="&#x112;" horiz-adv-x="566" 
d="M110 841h385l-9 -94h-385zM507 543h-264v-130h217v-137h-217v-139h280l-16 -137h-414v680h414v-137z" />
    <glyph glyph-name="Imacron" unicode="&#x12a;" horiz-adv-x="376" 
d="M263 680v-680l-150 -8v688h150zM0 841h385l-9 -94h-385z" />
    <glyph glyph-name="Omacron" unicode="&#x14c;" horiz-adv-x="789" 
d="M53 340q0 72 27 135.5t73.5 110.5t109.5 74.5t134 27.5t134 -27.5t109.5 -74.5t73.5 -110.5t27 -135.5t-27 -135.5t-73.5 -110.5t-109.5 -74.5t-134 -27.5t-134 27.5t-109.5 74.5t-73.5 110.5t-27 135.5zM203 340q0 -44 15.5 -82.5t41.5 -67t61.5 -45t75.5 -16.5
t75.5 16.5t61.5 45t41.5 67t15.5 82.5q0 43 -15.5 81.5t-41.5 67.5t-61.5 45.5t-75.5 16.5t-75.5 -16.5t-61.5 -45.5t-41.5 -67.5t-15.5 -81.5zM209 841h385l-9 -94h-385z" />
    <glyph glyph-name="Umacron" unicode="&#x16a;" horiz-adv-x="654" 
d="M581 281q0 -62 -14 -114.5t-44 -91.5t-77.5 -61t-114.5 -22q-71 0 -120 22t-79.5 61t-44.5 91.5t-14 114.5v399l150 8v-399q0 -38 3.5 -68t15 -50.5t33 -31t56.5 -10.5q33 0 55 9.5t35 29.5t18 50t5 71v391h137v-399zM152 841h385l-9 -94h-385z" />
    <glyph glyph-name="Zacute" unicode="&#x179;" horiz-adv-x="584" 
d="M270 129h242l-16 -129h-453l265 551h-218v129h446zM206 784q34 20 57.5 49.5t37.5 56.5q17 32 27 64l105 -104q-44 -44 -95.5 -71.5t-106.5 -36.5z" />
    <glyph glyph-name="Zcaron" unicode="&#x17d;" horiz-adv-x="584" 
d="M270 129h242l-16 -129h-453l265 551h-218v129h446zM452 873l-136 -131l-136 131l30 47q6 -3 20.5 -12t31.5 -18.5t32 -18.5t22 -12q6 3 21.5 12t32.5 18.5t31.5 18.5t20.5 12z" />
    <glyph glyph-name="Zdotaccent" unicode="&#x17b;" horiz-adv-x="584" 
d="M270 129h242l-16 -129h-453l265 551h-218v129h446zM244 830q0 30 21 51t51 21t51 -21t21 -51t-21 -51t-51 -21t-51 21t-21 51z" />
    <glyph glyph-name="imacron" unicode="&#x12b;" horiz-adv-x="313" 
d="M-29 682h385l-9 -94h-385zM93 508h137v-508h-137v508z" />
    <glyph glyph-name="omacron" unicode="&#x14d;" horiz-adv-x="610" 
d="M117 682h385l-9 -94h-385zM43 254q0 54 20.5 102t56 83.5t83.5 56t102 20.5t102 -20.5t83.5 -56t56 -83.5t20.5 -102t-20.5 -102t-56 -83.5t-83.5 -56t-102 -20.5t-102 20.5t-83.5 56t-56 83.5t-20.5 102zM186 254q0 -28 9.5 -53t25.5 -43.5t37.5 -29.5t46.5 -11t46.5 11
t37.5 29.5t25.5 43.5t9.5 53t-9.5 53t-25.5 43.5t-37.5 29.5t-46.5 11t-46.5 -11t-37.5 -29.5t-25.5 -43.5t-9.5 -53z" />
    <glyph glyph-name="umacron" unicode="&#x16b;" horiz-adv-x="555" 
d="M82 682h385l-9 -94h-385zM201 -8q-56 0 -86 21.5t-43.5 57t-16 80.5t-2.5 92v265h138v-205q0 -51 1 -86.5t6.5 -57.5t17.5 -32t34 -10q18 0 36 5.5t32 12.5q17 8 32 18v355h137v-508l-130 -8l-7 73q-21 -21 -46 -37q-21 -14 -47.5 -25t-55.5 -11z" />
    <glyph glyph-name="hbar" unicode="&#x127;" horiz-adv-x="576" 
d="M9 663h74v87l137 8v-95h82l-9 -77h-73v-143q21 20 46 36q21 14 48 25.5t56 11.5q55 0 85.5 -21.5t44 -57t16 -80.5t2.5 -92v-265h-138v205q0 51 -1 86.5t-6.5 57.5t-17.5 32t-34 10q-19 0 -37 -5.5t-32 -12.5q-17 -8 -32 -18v-355h-137v586h-83z" />
    <glyph glyph-name="tbar" unicode="&#x167;" horiz-adv-x="403" 
d="M250 380v-67h107l-9 -84h-98q0 -44 1 -70t8 -40t21.5 -18.5t40.5 -4.5v-90q-9 -4 -19 -7q-19 -7 -42 -7q-20 0 -46 7t-48.5 26.5t-38 54t-15.5 89.5v60h-85l9 84h76v67h-79v128h79v172h138v-172h110l-16 -128h-94z" />
    <glyph glyph-name="Hbar" unicode="&#x126;" horiz-adv-x="730" 
d="M-2 581h95v99h150v-99h244v99h150v-99h104l-9 -73h-95v-508h-150v276h-244v-276h-150v508h-104zM487 413v95h-244v-95h244z" />
    <glyph glyph-name="Dcroat" unicode="&#x110;" horiz-adv-x="716" 
d="M7 396h86v284h227q79 0 142.5 -24t108 -68.5t68.5 -108t24 -142.5q0 -77 -24 -139t-68.5 -106t-108 -68t-142.5 -24h-227v302h-95zM296 137q61 0 102.5 10t67 33t36.5 61.5t11 95.5q0 60 -14.5 99.5t-42 63t-68 33.5t-92.5 10h-53v-147h149l-9 -94h-140v-165h53z" />
    <glyph glyph-name="dcroat" unicode="&#x111;" horiz-adv-x="617" 
d="M360 659h52v91l137 8v-99h90l-9 -63h-81v-596h-137v78q-12 -25 -30 -43q-16 -17 -41.5 -30t-63.5 -13q-50 0 -94.5 21.5t-77.5 57.5t-52.5 84t-19.5 102q0 58 22.5 106t57.5 82t78.5 52.5t85.5 18.5q38 0 63.5 -13.5t41.5 -29.5q18 -19 30 -43v166h-61zM424 252
q0 29 -9.5 54.5t-26.5 44t-40 29.5t-49 11q-27 0 -51 -11t-41 -29.5t-27 -44t-10 -54.5q0 -27 10 -51.5t27 -43t41 -29.5t51 -11q26 0 49 11t40 29.5t26.5 43t9.5 51.5z" />
    <glyph glyph-name="Lslash" unicode="&#x141;" horiz-adv-x="505" 
d="M113 0v218l-80 -63v112l80 63v350l150 8v-240l103 82v-112l-103 -82v-186h232l-14 -150h-368z" />
    <glyph glyph-name="lslash" unicode="&#x142;" horiz-adv-x="407" 
d="M135 265l-81 -68v132l81 68v353l137 8v-245l84 69v-132l-84 -69v-381h-137v265z" />
    <glyph glyph-name="Gcommaaccent" unicode="&#x122;" horiz-adv-x="718" 
d="M423 350h217v-272q-47 -48 -109 -67t-134 -19t-134.5 27.5t-109 75t-73.5 111t-27 136.5q0 72 27 135.5t73.5 110t109 73.5t134.5 27q75 0 137.5 -27.5t110.5 -77.5l-109 -97q-26 30 -62 47.5t-77 17.5q-40 0 -75.5 -16.5t-61.5 -45.5t-41.5 -67.5t-15.5 -81.5
q0 -44 15.5 -82t41.5 -67t61.5 -45.5t75.5 -16.5q29 0 57.5 6t49.5 23v69h-98zM304 -242q9 26 14 53.5t7.5 53t2.5 47.5t-2 37l133 8q0 -31 -7 -60t-19 -56t-27.5 -52t-31.5 -47z" />
    <glyph glyph-name="Kcommaaccent" unicode="&#x136;" horiz-adv-x="678" 
d="M93 680l150 8v-211l205 203h207l-257 -227l232 -453h-166l-181 350l-40 -34v-316h-150v680zM234 -242q9 26 14 53.5t7.5 53t2.5 47.5t-1 37l132 8q0 -31 -7 -60t-19 -56t-27.5 -52t-31.5 -47z" />
    <glyph glyph-name="Lcommaaccent" unicode="&#x13b;" horiz-adv-x="485" 
d="M195 -242q7 26 12 44.5t7.5 38t3.5 44.5t1 64l131 8q0 -31 -7 -60t-19 -56t-27.5 -52t-31.5 -47zM93 0v680l150 8v-538h232l-14 -150h-368z" />
    <glyph glyph-name="Ncommaaccent" unicode="&#x145;" horiz-adv-x="733" 
d="M294 -242q7 26 12 44.5t7.5 38t3.5 44.5t1 64l131 8q0 -31 -7 -60t-19 -56t-27.5 -52t-31.5 -47zM640 8l-127 -16l-283 431v-423h-137v672l137 16l142 -213q27 -40 52 -78t45 -68l32 -48l12 -18v417h127v-672z" />
    <glyph glyph-name="Rcommaaccent" unicode="&#x156;" horiz-adv-x="629" 
d="M227 -242q7 26 12 44.5t7.5 38t3.5 44.5t1 64l131 8q0 -31 -7 -60t-19 -56t-27.5 -52t-31.5 -47zM575 466q0 -69 -38.5 -119.5t-99.5 -73.5l139 -265l-144 -16l-140 265h-49v-257h-150v672l150 8h98q54 0 97.5 -17t73.5 -46t46.5 -68t16.5 -83zM243 386h78q33 0 53.5 8
t31.5 20t15 26t4 26q0 15 -4 28.5t-15 24.5t-31.5 17.5t-53.5 6.5h-78v-157z" />
    <glyph glyph-name="Tcommaaccent" unicode="&#x162;" horiz-adv-x="512" 
d="M164 -242q7 26 12 44.5t7.5 38t3.5 44.5t1 64l131 8q0 -31 -7 -60t-19 -56t-27.5 -52t-31.5 -47zM181 543h-148v137h446v-137h-148v-543l-150 -8v551z" />
    <glyph glyph-name="Scommaaccent" unicode="&#x218;" horiz-adv-x="511" 
d="M190 -242q7 26 12 44.5t7.5 38t3.5 44.5t1 64l131 8q0 -31 -7 -60t-19 -56t-27.5 -52t-31.5 -47zM262 688q35 0 69 -10t60 -22q31 -14 59 -31l-77 -110q-26 22 -50 29t-48 7q-30 0 -48 -14.5t-18 -34.5q0 -27 21 -50.5t74 -54.5q46 -27 78 -50t52 -48t29.5 -54.5
t9.5 -70.5q0 -44 -18 -78t-48 -57t-68 -35t-77 -12q-48 0 -87.5 14.5t-68.5 32.5q-34 20 -63 47l91 90q15 -13 34 -24q17 -9 39 -16t49 -7q31 0 49 14.5t18 37.5q0 16 -6.5 29t-20 24.5t-33 23t-44.5 25.5q-32 18 -61 40t-51 50.5t-35 63.5t-13 79q0 29 12 59.5t36.5 55.5
t63 41t91.5 16z" />
    <glyph glyph-name="Tbar" unicode="&#x166;" horiz-adv-x="512" 
d="M68 404h113v139h-148v137h446v-137h-148v-139h122l-9 -94h-113v-310l-150 -8v318h-122z" />
    <glyph glyph-name="gcommaaccent" unicode="&#x123;" horiz-adv-x="622" 
d="M380 779q-8 -26 -12.5 -44.5t-7 -38t-3.5 -44.5t-1 -64l-131 -8q0 31 7 60t19 56t27.5 51.5t31.5 47.5zM422 78q-12 -25 -30 -43q-16 -17 -41.5 -30t-63.5 -13q-50 0 -94.5 21.5t-77.5 57.5t-52.5 84t-19.5 102q0 58 22.5 106t57.5 82t78.5 52.5t85.5 18.5
q38 0 63.5 -13.5t41.5 -29.5q18 -19 30 -43v78l137 8v-502q0 -81 -23 -133.5t-60.5 -83.5t-87 -43t-101.5 -12q-25 0 -50 3t-48 10.5t-42.5 19.5t-34.5 29l95 95q5 -9 16 -16q9 -6 24.5 -11t39.5 -5q44 0 70.5 9t41 27.5t19 46t4.5 64.5v64zM434 252q0 29 -9.5 54.5
t-26.5 44t-40 29.5t-49 11q-27 0 -51 -11t-41 -29.5t-27 -44t-10 -54.5q0 -27 10 -51.5t27 -43t41 -29.5t51 -11q26 0 49 11t40 29.5t26.5 43t9.5 51.5z" />
    <glyph glyph-name="kcommaaccent" unicode="&#x137;" horiz-adv-x="558" 
d="M203 -242q7 26 12 44.5t7.5 38t3.5 44.5t1 64l131 8q0 -31 -7 -60t-19 -56t-27.5 -52t-31.5 -47zM83 680l137 8v-316l148 136h171l-168 -157l179 -351h-152l-137 265l-41 -37v-228h-137v680z" />
    <glyph glyph-name="lcommaaccent" unicode="&#x13c;" horiz-adv-x="303" 
d="M71 -242q7 26 12 44.5t7.5 38t3.5 44.5t1 64l131 8q0 -31 -7 -60t-19 -56t-27.5 -52t-31.5 -47zM93 750l137 8v-758h-137v750z" />
    <glyph glyph-name="ncommaaccent" unicode="&#x146;" horiz-adv-x="587" 
d="M212 -242q7 26 12 44.5t7.5 38t3.5 44.5t1 64l131 8q0 -31 -7 -60t-19 -56t-27.5 -52t-31.5 -47zM388 516q53 0 81.5 -21.5t42 -57t15.5 -80.5t2 -91v-266h-137v205q0 51 -1 86.5t-6.5 57.5t-17.5 32t-34 10q-27 0 -49 -5.5t-39 -12.5q-19 -8 -35 -18v-355h-137v508
l132 8l5 -73q37 30 82 51.5t96 21.5z" />
    <glyph glyph-name="scommaaccent" unicode="&#x219;" horiz-adv-x="424" 
d="M143 -242q7 26 12 44.5t7.5 38t3.5 44.5t1 64l131 8q0 -31 -7 -60t-19 -56t-27.5 -52t-31.5 -47zM219 516q37 0 65 -8.5t48 -19.5q23 -12 40 -27l-91 -90q-6 6 -14 10q-7 4 -18 7t-26 3q-14 0 -23.5 -7.5t-9.5 -18.5q0 -16 21.5 -27t50.5 -30q23 -15 45 -30.5t39.5 -35.5
t28.5 -46.5t11 -63.5q0 -32 -13.5 -58t-36.5 -44t-53.5 -28t-63.5 -10q-35 0 -66.5 10.5t-54.5 24.5q-27 16 -50 36l87 85q8 -9 19 -16q10 -6 24 -10.5t33 -4.5t28.5 9t9.5 22q0 17 -16.5 30.5t-42.5 30.5q-19 12 -43 26t-45 34.5t-35 50t-14 72.5q0 25 13 48t35.5 39.5
t52.5 26.5t65 10z" />
    <glyph glyph-name="rcommaaccent" unicode="&#x157;" horiz-adv-x="424" 
d="M54 -242q7 26 12 44.5t7.5 38t3.5 44.5t1 64l131 8q0 -31 -7 -60t-19 -56t-27.5 -52t-31.5 -47zM339 384q-4 1 -8 3q-10 4 -23 4q-19 0 -36 -5.5t-31 -12.5q-16 -8 -31 -18v-355h-137v508l132 8l5 -73q39 36 73 54.5t76 18.5q16 0 27 -2.5t19 -4.5q9 -4 14 -7z" />
    <glyph glyph-name="tcommaaccent" unicode="&#x163;" horiz-adv-x="403" 
d="M126 -242q7 26 12 44.5t7.5 38t3.5 44.5t1 64l131 8q0 -31 -7 -60t-19 -56t-27.5 -52t-31.5 -47zM250 380v-125q0 -54 1 -85.5t8 -48t21.5 -21t40.5 -4.5v-90q-9 -4 -19 -7q-19 -7 -42 -7q-20 0 -46 7t-48.5 26.5t-38 54t-15.5 89.5v211h-79v128h79v172h138v-172h110
l-16 -128h-94z" />
    <glyph glyph-name="lacute" unicode="&#x13a;" horiz-adv-x="303" 
d="M78 784q34 20 58 49.5t38 56.5q17 32 27 64l104 -104q-44 -44 -95.5 -71.5t-106.5 -36.5zM93 680l137 8v-688h-137v680z" />
    <glyph glyph-name="pi" unicode="&#x3c0;" horiz-adv-x="708" 
d="M170 387q-25 -3 -42 -8t-28 -10q-12 -5 -20 -11v125q18 9 41 16q20 6 46.5 11.5t59.5 5.5q29 0 63 -10.5t68 -22.5t66 -22.5t57 -10.5q32 0 59 5t47 11q23 7 41 17v-125q-13 -7 -28 -12q-14 -5 -31.5 -10t-40.5 -8v-328h-124v338q-25 8 -49 17.5t-48 18.5v-374h-137v387z
" />
    <glyph glyph-name="lozenge" unicode="&#x25ca;" horiz-adv-x="718" 
d="M359 688l279 -348l-279 -348l-279 348zM250 340l109 -136l109 136l-109 135z" />
    <glyph glyph-name="integral" unicode="&#x222b;" horiz-adv-x="494" 
d="M198 509q4 55 19.5 100.5t42 78.5t65 51.5t89.5 18.5v-125q-18 0 -31.5 -5.5t-23.5 -19.5t-15.5 -38t-8.5 -61l-38 -518q-4 -55 -19.5 -100.5t-42.5 -78.5t-65.5 -51.5t-89.5 -18.5v125q18 0 32 5.5t23.5 19.5t15.5 38t9 61z" />
    <glyph glyph-name="radical" unicode="&#x221a;" horiz-adv-x="899" 
d="M80 173q1 33 14.5 70.5t41.5 69t70.5 52.5t101.5 21l133 -276l229 632l149 16l-378 -1016l-226 500q-31 -4 -52 -18t-23 -51h-60z" />
    <glyph glyph-name="infinity" unicode="&#x221e;" horiz-adv-x="907" 
d="M286 45q-41 0 -78 13t-65.5 38t-45.5 60t-17 80t17 80t45.5 60t65.5 38t78 13q49 0 87.5 -25t68.5 -61l-55 -75q-26 29 -47 42t-54 13q-34 0 -51.5 -26t-17.5 -59q0 -17 5.5 -32t15.5 -27t22 -19t26 -7q30 0 55.5 20t50.5 50.5t50.5 66t54.5 66t63.5 50.5t77.5 20
q40 0 74.5 -13t60 -37t40 -59t14.5 -79t-14.5 -79t-40 -59t-60 -37t-74.5 -13t-78 19t-71 59l56 78q19 -25 47 -37.5t46 -12.5q26 0 39 25t13 57t-13.5 57t-38.5 25t-47.5 -20t-45.5 -50.5t-48.5 -66t-56.5 -66t-68.5 -50.5t-85.5 -20z" />
    <glyph glyph-name="Delta" unicode="&#x2206;" horiz-adv-x="773" 
d="M386 688l307 -688h-613zM281 125h192l-94 221z" />
    <glyph glyph-name="product" unicode="&#x220f;" horiz-adv-x="704" 
d="M476 544h-248v-794h-148v930h544v-930h-148v794z" />
    <glyph glyph-name="summation" unicode="&#x2211;" horiz-adv-x="590" 
d="M296 255l-216 495h414v-125h-200l150 -360l-159 -379h225l-16 -136h-414z" />
    <glyph glyph-name="Omega" unicode="&#x2126;" horiz-adv-x="848" 
d="M490 125q21 7 45.5 23.5t46 43t35.5 63t14 83.5q0 46 -16.5 87t-44.5 72t-65.5 48.5t-80.5 17.5t-80.5 -17.5t-65.5 -48.5t-44.5 -72t-16.5 -87q0 -47 14.5 -83.5t35.5 -63t45.5 -43t45.5 -23.5l15 -125h-278l-15 125h87q-41 42 -64 96t-23 120q0 70 27.5 133.5t74 110.5
t109 75t133.5 28q70 0 133 -28t109.5 -75t74 -110.5t27.5 -133.5q0 -66 -23 -120t-63 -96h86l-15 -125h-278z" />
    <glyph glyph-name="napostrophe" unicode="&#x149;" horiz-adv-x="602" 
d="M-17 555q7 26 13.5 45t11 39.5t7 46t2.5 64.5l103 8q0 -62 -21 -118t-53 -101zM403 516q53 0 81.5 -21.5t42 -57t15.5 -80.5t2 -91v-266h-137v205q0 51 -1 86.5t-6.5 57.5t-17.5 32t-34 10q-27 0 -49 -5.5t-39 -12.5q-19 -8 -35 -18v-355h-137v508l132 8l5 -73
q37 30 82 51.5t96 21.5z" />
    <glyph glyph-name="kgreenlandic" unicode="&#x138;" horiz-adv-x="558" 
d="M83 680l137 8v-326q20 9 43.5 22t45.5 30t38 40.5t21 53.5h140q0 -20 -10 -42t-27.5 -44t-42 -41.5t-53.5 -35.5l175 -345h-152l-147 289q-2 -2 -14 -9t-17 -9v-271h-137v680z" />
    <glyph glyph-name="M" unicode="M" horiz-adv-x="811" 
d="M778 8l-145 -16l-57 391l-116 -391h-99l-130 391l-43 -391l-145 16l95 672l121 8l159 -428l144 428l121 -8z" />
    <glyph glyph-name="a" unicode="a" horiz-adv-x="627" 
d="M43 258q0 58 22.5 105.5t57.5 81.5t78.5 52.5t85.5 18.5q38 0 63.5 -13.5t41.5 -29.5q18 -19 30 -43v78l137 8v-516h-137v78q-12 -25 -30 -43q-16 -17 -41.5 -30t-63.5 -13q-50 0 -94.5 21.5t-77.5 58.5t-52.5 85t-19.5 101zM180 252q0 -28 10 -52.5t27.5 -43t41 -29
t49.5 -10.5t49 10.5t40 29t27 43t10 52.5q0 29 -10 54.5t-27 44t-40 29.5t-49 11t-49.5 -11t-41 -29.5t-27.5 -44t-10 -54.5z" />
    <glyph glyph-name="e" unicode="e" horiz-adv-x="572" 
d="M489 70q-36 -37 -84 -57.5t-104 -20.5q-53 0 -100 20.5t-82 56t-55.5 83.5t-20.5 102t20.5 102t55.5 83.5t82 56t100 20.5q14 0 37.5 -2.5t50.5 -12t54.5 -28.5t50 -52.5t36.5 -83t14 -120.5h-360q11 -48 45.5 -74t71.5 -26q23 0 46 8.5t50 36.5zM301 391q-35 0 -64 -20
t-44 -52h210q-8 30 -34 51t-68 21z" />
    <glyph glyph-name="ampersand" unicode="&#x26;" horiz-adv-x="663" 
d="M473 409h110l-16 -125h-72v-29q0 -54 1.5 -85.5t8 -48t21 -21t41.5 -4.5v-90q-9 -4 -19 -7q-19 -7 -42 -7q-20 0 -46 7t-48.5 26.5t-38 54t-15.5 89.5v115h-52q-32 0 -55 -21.5t-23 -61.5q0 -20 6.5 -34t15.5 -22.5t19 -12.5t17 -4q16 0 24 3q4 2 7 4l66 -108
q-18 -17 -41.5 -26t-52.5 -9q-43 0 -81 16t-66.5 43t-45 63.5t-16.5 78.5q0 50 23.5 91t61.5 67q-29 26 -45 61.5t-16 78.5q0 41 15.5 77t42 62.5t62.5 42t77 15.5q82 0 127 -52.5t45 -164.5v-62zM252 491q0 -14 2.5 -28.5t9 -26.5t19 -19.5t32.5 -7.5h43v34q0 57 -11.5 83
t-45.5 26q-20 0 -34.5 -14t-14.5 -47z" />
    <glyph glyph-name="aacute" unicode="&#xe1;" horiz-adv-x="627" 
d="M209 622q34 20 57.5 49.5t37.5 56.5q17 32 27 64l105 -104q-44 -44 -95.5 -71.5t-106.5 -36.5zM43 258q0 58 22.5 105.5t57.5 81.5t78.5 52.5t85.5 18.5q38 0 63.5 -13.5t41.5 -29.5q18 -19 30 -43v78l137 8v-516h-137v78q-12 -25 -30 -43q-16 -17 -41.5 -30t-63.5 -13
q-50 0 -94.5 21.5t-77.5 58.5t-52.5 85t-19.5 101zM180 252q0 -28 10 -52.5t27.5 -43t41 -29t49.5 -10.5t49 10.5t40 29t27 43t10 52.5q0 29 -10 54.5t-27 44t-40 29.5t-49 11t-49.5 -11t-41 -29.5t-27.5 -44t-10 -54.5z" />
    <glyph glyph-name="abreve" unicode="&#x103;" horiz-adv-x="627" 
d="M267 717q0 -28 12.5 -39.5t33.5 -11.5t33.5 11.5t12.5 39.5l56 15q2 -6 2.5 -17t0.5 -17q0 -52 -27 -85t-78 -33t-78 33t-27 85q0 6 0.5 17t2.5 17zM43 258q0 58 22.5 105.5t57.5 81.5t78.5 52.5t85.5 18.5q38 0 63.5 -13.5t41.5 -29.5q18 -19 30 -43v78l137 8v-516h-137
v78q-12 -25 -30 -43q-16 -17 -41.5 -30t-63.5 -13q-50 0 -94.5 21.5t-77.5 58.5t-52.5 85t-19.5 101zM180 252q0 -28 10 -52.5t27.5 -43t41 -29t49.5 -10.5t49 10.5t40 29t27 43t10 52.5q0 29 -10 54.5t-27 44t-40 29.5t-49 11t-49.5 -11t-41 -29.5t-27.5 -44t-10 -54.5z
" />
    <glyph glyph-name="acircumflex" unicode="&#xe2;" horiz-adv-x="627" 
d="M419 580q-6 3 -20.5 12t-31.5 18.5t-32.5 18.5t-21.5 12q-7 -3 -22 -12t-32 -18.5t-31.5 -18.5t-20.5 -12l-30 47l136 131l136 -131zM43 258q0 58 22.5 105.5t57.5 81.5t78.5 52.5t85.5 18.5q38 0 63.5 -13.5t41.5 -29.5q18 -19 30 -43v78l137 8v-516h-137v78
q-12 -25 -30 -43q-16 -17 -41.5 -30t-63.5 -13q-50 0 -94.5 21.5t-77.5 58.5t-52.5 85t-19.5 101zM180 252q0 -28 10 -52.5t27.5 -43t41 -29t49.5 -10.5t49 10.5t40 29t27 43t10 52.5q0 29 -10 54.5t-27 44t-40 29.5t-49 11t-49.5 -11t-41 -29.5t-27.5 -44t-10 -54.5z" />
    <glyph glyph-name="adieresis" unicode="&#xe4;" horiz-adv-x="627" 
d="M144 668q0 30 21 51t51 21t51 -21t21 -51t-21 -51t-51 -21t-51 21t-21 51zM338 668q0 30 21 51t51 21t51 -21t21 -51t-21 -51t-51 -21t-51 21t-21 51zM43 258q0 58 22.5 105.5t57.5 81.5t78.5 52.5t85.5 18.5q38 0 63.5 -13.5t41.5 -29.5q18 -19 30 -43v78l137 8v-516
h-137v78q-12 -25 -30 -43q-16 -17 -41.5 -30t-63.5 -13q-50 0 -94.5 21.5t-77.5 58.5t-52.5 85t-19.5 101zM180 252q0 -28 10 -52.5t27.5 -43t41 -29t49.5 -10.5t49 10.5t40 29t27 43t10 52.5q0 29 -10 54.5t-27 44t-40 29.5t-49 11t-49.5 -11t-41 -29.5t-27.5 -44
t-10 -54.5z" />
    <glyph glyph-name="agrave" unicode="&#xe0;" horiz-adv-x="627" 
d="M395 580q-55 9 -106.5 36.5t-95.5 71.5l105 104q10 -32 27 -64q14 -27 37 -56.5t58 -49.5zM43 258q0 58 22.5 105.5t57.5 81.5t78.5 52.5t85.5 18.5q38 0 63.5 -13.5t41.5 -29.5q18 -19 30 -43v78l137 8v-516h-137v78q-12 -25 -30 -43q-16 -17 -41.5 -30t-63.5 -13
q-50 0 -94.5 21.5t-77.5 58.5t-52.5 85t-19.5 101zM180 252q0 -28 10 -52.5t27.5 -43t41 -29t49.5 -10.5t49 10.5t40 29t27 43t10 52.5q0 29 -10 54.5t-27 44t-40 29.5t-49 11t-49.5 -11t-41 -29.5t-27.5 -44t-10 -54.5z" />
    <glyph glyph-name="amacron" unicode="&#x101;" horiz-adv-x="627" 
d="M125 682h385l-9 -94h-385zM43 258q0 58 22.5 105.5t57.5 81.5t78.5 52.5t85.5 18.5q38 0 63.5 -13.5t41.5 -29.5q18 -19 30 -43v78l137 8v-516h-137v78q-12 -25 -30 -43q-16 -17 -41.5 -30t-63.5 -13q-50 0 -94.5 21.5t-77.5 58.5t-52.5 85t-19.5 101zM180 252
q0 -28 10 -52.5t27.5 -43t41 -29t49.5 -10.5t49 10.5t40 29t27 43t10 52.5q0 29 -10 54.5t-27 44t-40 29.5t-49 11t-49.5 -11t-41 -29.5t-27.5 -44t-10 -54.5z" />
    <glyph glyph-name="aogonek" unicode="&#x105;" horiz-adv-x="627" 
d="M559 0q-23 0 -43.5 -9t-35.5 -24t-23.5 -35t-8.5 -42q0 -9 6.5 -23t23.5 -14q13 0 20 5q4 2 5 5l50 -83q-4 -10 -21 -24t-55 -14q-23 0 -44 9t-37 25t-26 38t-10 49q0 22 6.5 43t16 39t20 32t19.5 23v78q-12 -25 -30 -43q-16 -17 -41.5 -30t-63.5 -13q-50 0 -94.5 21.5
t-77.5 58.5t-52.5 85t-19.5 101q0 58 22.5 105.5t57.5 81.5t78.5 52.5t85.5 18.5q38 0 63.5 -13.5t41.5 -29.5q18 -19 30 -43v78l137 8v-516zM180 252q0 -28 10 -52.5t27.5 -43t41 -29t49.5 -10.5t49 10.5t40 29t27 43t10 52.5q0 29 -10 54.5t-27 44t-40 29.5t-49 11
t-49.5 -11t-41 -29.5t-27.5 -44t-10 -54.5z" />
    <glyph glyph-name="aring" unicode="&#xe5;" horiz-adv-x="627" 
d="M205 687q0 22 8.5 41.5t23 34t34 23t41.5 8.5t41.5 -8.5t34.5 -23t23.5 -34t8.5 -41.5t-8.5 -41.5t-23.5 -34t-34.5 -23t-41.5 -8.5t-41.5 8.5t-34 23t-23 34t-8.5 41.5zM278 687q0 -14 10.5 -24.5t24.5 -10.5t24.5 10.5t10.5 24.5t-10.5 24.5t-24.5 10.5t-24.5 -10.5
t-10.5 -24.5zM43 258q0 58 22.5 105.5t57.5 81.5t78.5 52.5t85.5 18.5q38 0 63.5 -13.5t41.5 -29.5q18 -19 30 -43v78l137 8v-516h-137v78q-12 -25 -30 -43q-16 -17 -41.5 -30t-63.5 -13q-50 0 -94.5 21.5t-77.5 58.5t-52.5 85t-19.5 101zM180 252q0 -28 10 -52.5t27.5 -43
t41 -29t49.5 -10.5t49 10.5t40 29t27 43t10 52.5q0 29 -10 54.5t-27 44t-40 29.5t-49 11t-49.5 -11t-41 -29.5t-27.5 -44t-10 -54.5z" />
    <glyph glyph-name="atilde" unicode="&#xe3;" horiz-adv-x="627" 
d="M520 722q-1 -18 -4.5 -44t-14.5 -50t-31.5 -41t-56.5 -17q-26 0 -53 13t-53.5 28t-49.5 28t-40 13t-28 -6t-17.5 -15t-9.5 -18.5t-4 -16.5h-52q1 18 4.5 44t14.5 50t31.5 41t56.5 17q26 0 53.5 -13t54 -28t49 -28t39.5 -13t28 6t17.5 15t9.5 18.5t4 16.5h52zM43 258
q0 58 22.5 105.5t57.5 81.5t78.5 52.5t85.5 18.5q38 0 63.5 -13.5t41.5 -29.5q18 -19 30 -43v78l137 8v-516h-137v78q-12 -25 -30 -43q-16 -17 -41.5 -30t-63.5 -13q-50 0 -94.5 21.5t-77.5 58.5t-52.5 85t-19.5 101zM180 252q0 -28 10 -52.5t27.5 -43t41 -29t49.5 -10.5
t49 10.5t40 29t27 43t10 52.5q0 29 -10 54.5t-27 44t-40 29.5t-49 11t-49.5 -11t-41 -29.5t-27.5 -44t-10 -54.5z" />
    <glyph glyph-name="eacute" unicode="&#xe9;" horiz-adv-x="572" 
d="M184 622q34 20 57.5 49.5t37.5 56.5q17 32 27 64l105 -104q-44 -44 -95.5 -71.5t-106.5 -36.5zM489 70q-36 -37 -84 -57.5t-104 -20.5q-53 0 -100 20.5t-82 56t-55.5 83.5t-20.5 102t20.5 102t55.5 83.5t82 56t100 20.5q14 0 37.5 -2.5t50.5 -12t54.5 -28.5t50 -52.5
t36.5 -83t14 -120.5h-360q11 -48 45.5 -74t71.5 -26q23 0 46 8.5t50 36.5zM301 391q-35 0 -64 -20t-44 -52h210q-8 30 -34 51t-68 21z" />
    <glyph glyph-name="ebreve" unicode="&#x115;" horiz-adv-x="572" 
d="M255 717q0 -28 12.5 -39.5t33.5 -11.5t33.5 11.5t12.5 39.5l56 15q2 -6 2.5 -17t0.5 -17q0 -52 -27 -85t-78 -33t-78 33t-27 85q0 6 0.5 17t2.5 17zM489 70q-36 -37 -84 -57.5t-104 -20.5q-53 0 -100 20.5t-82 56t-55.5 83.5t-20.5 102t20.5 102t55.5 83.5t82 56
t100 20.5q14 0 37.5 -2.5t50.5 -12t54.5 -28.5t50 -52.5t36.5 -83t14 -120.5h-360q11 -48 45.5 -74t71.5 -26q23 0 46 8.5t50 36.5zM301 391q-35 0 -64 -20t-44 -52h210q-8 30 -34 51t-68 21z" />
    <glyph glyph-name="ecaron" unicode="&#x11b;" horiz-adv-x="572" 
d="M489 70q-36 -37 -84 -57.5t-104 -20.5q-53 0 -100 20.5t-82 56t-55.5 83.5t-20.5 102t20.5 102t55.5 83.5t82 56t100 20.5q14 0 37.5 -2.5t50.5 -12t54.5 -28.5t50 -52.5t36.5 -83t14 -120.5h-360q11 -48 45.5 -74t71.5 -26q23 0 46 8.5t50 36.5zM301 391q-35 0 -64 -20
t-44 -52h210q-8 30 -34 51t-68 21zM437 710l-136 -131l-135 131l29 47q6 -3 21 -12t31.5 -18.5t31.5 -18.5t22 -12q6 3 21.5 12t32.5 18.5t32 18.5t21 12z" />
    <glyph glyph-name="ecircumflex" unicode="&#xea;" horiz-adv-x="572" 
d="M489 70q-36 -37 -84 -57.5t-104 -20.5q-53 0 -100 20.5t-82 56t-55.5 83.5t-20.5 102t20.5 102t55.5 83.5t82 56t100 20.5q14 0 37.5 -2.5t50.5 -12t54.5 -28.5t50 -52.5t36.5 -83t14 -120.5h-360q11 -48 45.5 -74t71.5 -26q23 0 46 8.5t50 36.5zM301 391q-35 0 -64 -20
t-44 -52h210q-8 30 -34 51t-68 21zM407 580q-6 3 -20.5 12t-31.5 18.5t-32.5 18.5t-21.5 12q-7 -3 -22 -12t-32 -18.5t-31.5 -18.5t-20.5 -12l-30 47l136 131l136 -131z" />
    <glyph glyph-name="edieresis" unicode="&#xeb;" horiz-adv-x="572" 
d="M132 668q0 30 21 51t51 21t51 -21t21 -51t-21 -51t-51 -21t-51 21t-21 51zM326 668q0 30 21 51t51 21t51 -21t21 -51t-21 -51t-51 -21t-51 21t-21 51zM489 70q-36 -37 -84 -57.5t-104 -20.5q-53 0 -100 20.5t-82 56t-55.5 83.5t-20.5 102t20.5 102t55.5 83.5t82 56
t100 20.5q14 0 37.5 -2.5t50.5 -12t54.5 -28.5t50 -52.5t36.5 -83t14 -120.5h-360q11 -48 45.5 -74t71.5 -26q23 0 46 8.5t50 36.5zM301 391q-35 0 -64 -20t-44 -52h210q-8 30 -34 51t-68 21z" />
    <glyph glyph-name="edotaccent" unicode="&#x117;" horiz-adv-x="572" 
d="M229 668q0 30 21 51t51 21t51 -21t21 -51t-21 -51t-51 -21t-51 21t-21 51zM489 70q-36 -37 -84 -57.5t-104 -20.5q-53 0 -100 20.5t-82 56t-55.5 83.5t-20.5 102t20.5 102t55.5 83.5t82 56t100 20.5q14 0 37.5 -2.5t50.5 -12t54.5 -28.5t50 -52.5t36.5 -83t14 -120.5
h-360q11 -48 45.5 -74t71.5 -26q23 0 46 8.5t50 36.5zM301 391q-35 0 -64 -20t-44 -52h210q-8 30 -34 51t-68 21z" />
    <glyph glyph-name="egrave" unicode="&#xe8;" horiz-adv-x="572" 
d="M383 580q-55 9 -106.5 36.5t-95.5 71.5l105 104q10 -32 27 -64q14 -27 37 -56.5t58 -49.5zM489 70q-36 -37 -84 -57.5t-104 -20.5q-53 0 -100 20.5t-82 56t-55.5 83.5t-20.5 102t20.5 102t55.5 83.5t82 56t100 20.5q14 0 37.5 -2.5t50.5 -12t54.5 -28.5t50 -52.5
t36.5 -83t14 -120.5h-360q11 -48 45.5 -74t71.5 -26q23 0 46 8.5t50 36.5zM301 391q-35 0 -64 -20t-44 -52h210q-8 30 -34 51t-68 21z" />
    <glyph glyph-name="emacron" unicode="&#x113;" horiz-adv-x="572" 
d="M103 682h385l-9 -94h-385zM489 70q-36 -37 -84 -57.5t-104 -20.5q-53 0 -100 20.5t-82 56t-55.5 83.5t-20.5 102t20.5 102t55.5 83.5t82 56t100 20.5q14 0 37.5 -2.5t50.5 -12t54.5 -28.5t50 -52.5t36.5 -83t14 -120.5h-360q11 -48 45.5 -74t71.5 -26q23 0 46 8.5
t50 36.5zM301 391q-35 0 -64 -20t-44 -52h210q-8 30 -34 51t-68 21z" />
    <glyph glyph-name="eogonek" unicode="&#x119;" horiz-adv-x="572" 
d="M489 70q-48 -48 -111 -67q-30 -17 -51 -49t-21 -64q0 -9 6.5 -23t23.5 -14q13 0 20 5q4 2 5 5l50 -83q-4 -10 -21 -24t-55 -14q-23 0 -44 9t-37 25t-26 38t-10 49q0 21 6 41t14.5 37t18.5 30.5t19 22.5q-49 4 -91.5 26t-74 57t-49.5 80.5t-18 96.5q0 54 20.5 102
t55.5 83.5t82 56t100 20.5q14 0 37.5 -2.5t50.5 -12t54.5 -28.5t50 -52.5t36.5 -83t14 -120.5h-360q11 -48 45.5 -74t71.5 -26q23 0 46 8.5t50 36.5zM301 391q-35 0 -64 -20t-44 -52h210q-8 30 -34 51t-68 21z" />
    <glyph glyph-name="ae" unicode="&#xe6;" horiz-adv-x="965" 
d="M882 70q-36 -37 -84 -57.5t-104 -20.5q-38 0 -63.5 13t-41.5 30q-18 18 -30 43v-78h-137v78q-12 -25 -30 -43q-16 -17 -41.5 -30t-63.5 -13q-50 0 -94.5 21.5t-77.5 58.5t-52.5 85t-19.5 101q0 58 22.5 105.5t57.5 81.5t78.5 52.5t85.5 18.5q38 0 63.5 -13.5t41.5 -29.5
q18 -19 30 -43v78l137 8v-86q12 24 30 43q16 16 41.5 29.5t63.5 13.5q14 0 37.5 -2.5t50.5 -12t54.5 -28.5t50 -52.5t36.5 -83t14 -120.5h-360q11 -48 45.5 -74t71.5 -26q23 0 46 8.5t50 36.5zM180 252q0 -28 10 -52.5t27.5 -43t41 -29t49.5 -10.5t49 10.5t40 29t27 43
t10 52.5q0 29 -10 54.5t-27 44t-40 29.5t-49 11t-49.5 -11t-41 -29.5t-27.5 -44t-10 -54.5zM694 391q-35 0 -64 -20t-44 -52h210q-8 30 -34 51t-68 21z" />
    <glyph glyph-name="aeacute" unicode="&#x1fd;" horiz-adv-x="965" 
d="M399 622q34 20 57.5 49.5t37.5 56.5q17 32 27 64l105 -104q-44 -44 -95.5 -71.5t-106.5 -36.5zM882 70q-36 -37 -84 -57.5t-104 -20.5q-38 0 -63.5 13t-41.5 30q-18 18 -30 43v-78h-137v78q-12 -25 -30 -43q-16 -17 -41.5 -30t-63.5 -13q-50 0 -94.5 21.5t-77.5 58.5
t-52.5 85t-19.5 101q0 58 22.5 105.5t57.5 81.5t78.5 52.5t85.5 18.5q38 0 63.5 -13.5t41.5 -29.5q18 -19 30 -43v78l137 8v-86q12 24 30 43q16 16 41.5 29.5t63.5 13.5q14 0 37.5 -2.5t50.5 -12t54.5 -28.5t50 -52.5t36.5 -83t14 -120.5h-360q11 -48 45.5 -74t71.5 -26
q23 0 46 8.5t50 36.5zM180 252q0 -28 10 -52.5t27.5 -43t41 -29t49.5 -10.5t49 10.5t40 29t27 43t10 52.5q0 29 -10 54.5t-27 44t-40 29.5t-49 11t-49.5 -11t-41 -29.5t-27.5 -44t-10 -54.5zM694 391q-35 0 -64 -20t-44 -52h210q-8 30 -34 51t-68 21z" />
    <glyph glyph-name="B" unicode="B" horiz-adv-x="605" 
d="M457 357q18 -13 35 -29.5t30.5 -36.5t21.5 -44t8 -53q0 -50 -16 -86.5t-45 -60.5t-71 -35.5t-93 -11.5h-234v680h209q48 0 89.5 -12t72 -36t47.5 -59.5t17 -82.5q0 -48 -22.5 -80.5t-48.5 -52.5zM243 411h59q30 0 45.5 7t22 18t7.5 24.5t1 25.5q0 4 -2 13.5t-9.5 19.5
t-23 17t-41.5 7h-59v-132zM319 137q25 0 41.5 5.5t25.5 15t12.5 21.5t3.5 25q0 46 -20 61t-63 15h-76v-143h76z" />
    <glyph glyph-name="C" unicode="C" horiz-adv-x="673" 
d="M536 486q-26 30 -61.5 47.5t-77.5 17.5q-40 0 -75.5 -16.5t-61.5 -45.5t-41.5 -67.5t-15.5 -81.5q0 -44 15.5 -82t41.5 -67t61.5 -45.5t75.5 -16.5q42 0 78 18.5t63 47.5l102 -102q-48 -48 -109.5 -74.5t-133.5 -26.5t-134.5 27.5t-109 75t-73.5 111t-27 136.5
q0 72 27 135.5t73.5 110t109 73.5t134.5 27q75 0 137.5 -27.5t110.5 -77.5z" />
    </font>
</defs>
</svg>
