<?xml version="1.0" standalone="no"?>
<!DOCTYPE svg PUBLIC "-//W3C//DTD SVG 1.1//EN" "http://www.w3.org/Graphics/SVG/1.1/DTD/svg11.dtd" >
<svg xmlns="http://www.w3.org/2000/svg" xmlns:xlink="http://www.w3.org/1999/xlink" version="1.1">
<metadata>
Created by FontForge 20170924 at Sun May  8 16:29:16 2016
 By www-data
</metadata>
<defs>
<font id="ElliotSans-Bold" horiz-adv-x="695" >
  <font-face 
    font-family="Elliot Sans Bold"
    font-weight="700"
    font-stretch="normal"
    units-per-em="1000"
    panose-1="0 0 8 0 0 0 0 0 0 0"
    ascent="800"
    descent="-200"
    x-height="525"
    cap-height="700"
    bbox="-100 -325 1567 785"
    underline-thickness="50"
    underline-position="-100"
    unicode-range="U+0020-2212"
  />
<missing-glyph horiz-adv-x="513" 
d="M420 -325h-325v1025h325v-1025zM172 631v-33h67v-38h-68v-34h170v34h-67v38h67v33h-169zM171 499v-106h170v34h-67v72h-103zM239 427h-34v37h34v-37zM171 365v-34h68v-38h-68v-34h103v72h67v34h-170zM308 303v-67h-137v-35h170v102h-33zM239 178v-57h35v23h34v-48h-103
v82h-34v-116h170v116h-102zM171 1v-116h170v116h-170zM308 -81h-103v48h103v-48zM171 -138v-34h72l-72 -48v-34h170v34h-104l72 48h32v34h-170z" />
    <glyph glyph-name=".notdef" horiz-adv-x="513" 
d="M420 -325h-325v1025h325v-1025zM172 631v-33h67v-38h-68v-34h170v34h-67v38h67v33h-169zM171 499v-106h170v34h-67v72h-103zM239 427h-34v37h34v-37zM171 365v-34h68v-38h-68v-34h103v72h67v34h-170zM308 303v-67h-137v-35h170v102h-33zM239 178v-57h35v23h34v-48h-103
v82h-34v-116h170v116h-102zM171 1v-116h170v116h-170zM308 -81h-103v48h103v-48zM171 -138v-34h72l-72 -48v-34h170v34h-104l72 48h32v34h-170z" />
    <glyph glyph-name="space" unicode=" " horiz-adv-x="260" 
 />
    <glyph glyph-name="A" unicode="A" horiz-adv-x="746" 
d="M25 0l280 700h136l280 -700h-136l-59 148h-306l-59 -148h-136zM270 274h205l-102 256z" />
    <glyph glyph-name="B" unicode="B" horiz-adv-x="671" 
d="M611 298q20 -42 20 -91q0 -58 -27 -105.5t-74 -74.5t-104 -27h-364v413v287h330q57 0 104 -27t74 -74t27 -105q0 -72 -41 -126q35 -28 55 -70zM188 413h204q35 0 57 22.5t22 58.5q0 35 -22 57.5t-57 22.5h-204v-161zM483 148.5q22 22.5 22 58.5q0 35 -22 57.5t-57 22.5
h-238v-161h238q35 0 57 22.5z" />
    <glyph glyph-name="C" unicode="C" horiz-adv-x="706" 
d="M551.5 17q70.5 34 119.5 96l-98 79q-32 -40 -76.5 -61.5t-95.5 -21.5q-63 0 -114.5 31.5t-81 87t-29.5 123.5t29.5 123t81 86.5t114.5 31.5q51 0 95.5 -21.5t76.5 -61.5l98 79q-49 62 -119.5 96t-150.5 34q-97 0 -177.5 -48.5t-127 -133t-46.5 -185.5q0 -102 46.5 -186.5
t127 -133t177.5 -48.5q80 0 150.5 34z" />
    <glyph glyph-name="D" unicode="D" horiz-adv-x="713" 
d="M493 46q79 46 124.5 126t45.5 178q0 99 -45.5 179t-124.5 125.5t-176 45.5h-255v-700h255q97 0 176 46zM188 574h129q63 0 113 -29t78.5 -80t28.5 -115t-28.5 -115t-78.5 -80t-113 -29h-129v448z" />
    <glyph glyph-name="E" unicode="E" horiz-adv-x="616" 
d="M188 574v-161h366v-126h-366v-161h366v-126h-492v700h492v-126h-366z" />
    <glyph glyph-name="F" unicode="F" horiz-adv-x="581" 
d="M188 574v-161h331v-126h-331v-287h-126v700h457v-126h-331z" />
    <glyph glyph-name="G" unicode="G" horiz-adv-x="771" 
d="M709 378v-378h-126v44q-83 -63 -186 -63q-96 0 -175.5 49t-125.5 133.5t-46 185.5q0 102 46 186.5t125.5 133t175.5 48.5q79 0 149 -34t119 -96l-100 -78q-31 40 -74.5 61t-93.5 21q-62 0 -112.5 -31.5t-79.5 -87t-29 -123.5t29 -123.5t79.5 -87t112.5 -31.5
q55 0 93.5 26t60.5 55q21 29 28 64h-186v126h316z" />
    <glyph glyph-name="H" unicode="H" horiz-adv-x="736" 
d="M664 700v-700h-126v287h-350v-287h-126v700h126v-287h350v287h126z" />
    <glyph glyph-name="I" unicode="I" horiz-adv-x="270" 
d="M198 700h-126v-700h126v700z" />
    <glyph glyph-name="J" unicode="J" horiz-adv-x="610" 
d="M429.5 10.5q55.5 28.5 87 78.5t31.5 112v499h-126v-499q0 -41 -32.5 -67t-84.5 -26t-84.5 26t-32.5 67v73h-126v-73q0 -62 32 -112t87.5 -78.5t123.5 -28.5q69 0 124.5 28.5z" />
    <glyph glyph-name="K" unicode="K" horiz-adv-x="734" 
d="M516 0l-259 304l-69 -64v-240h-126v700h126v-288l311 288h185l-334 -310l332 -390h-166z" />
    <glyph glyph-name="L" unicode="L" horiz-adv-x="636" 
d="M564 126h-366v574h-126v-700h492v126z" />
    <glyph glyph-name="M" unicode="M" horiz-adv-x="880" 
d="M818 700v-700h-126v406l-183 -406h-138l-183 406v-406h-126v700h132l246 -546l246 546h132z" />
    <glyph glyph-name="N" unicode="N" horiz-adv-x="740" 
d="M188 0h-126v700h140l350 -500v500h126v-700h-140l-350 500v-500z" />
    <glyph glyph-name="O" unicode="O" horiz-adv-x="798" 
d="M575.5 31.5q79.5 48.5 126 133t46.5 186.5q0 101 -46.5 185.5t-126 133t-176.5 48.5t-176.5 -48.5t-126 -133t-46.5 -185.5q0 -102 46.5 -186.5t126 -133t176.5 -48.5t176.5 48.5zM513 560.5q51 -31.5 80 -86.5t29 -123t-29 -123.5t-80 -87t-114 -31.5t-114 31.5t-80 87
t-29 123.5t29 123t80 86.5t114 31.5t114 -31.5z" />
    <glyph glyph-name="P" unicode="P" horiz-adv-x="645" 
d="M502.5 673q47.5 -27 75 -74.5t27.5 -105.5t-27.5 -105.5t-75 -74.5t-105.5 -27h-209v-286h-126v349v351h335q58 0 105.5 -27zM456.5 434q22.5 22 22.5 59q0 36 -22.5 58.5t-59.5 22.5h-209v-162h209q37 0 59.5 22z" />
    <glyph glyph-name="Q" unicode="Q" horiz-adv-x="804" 
d="M728 225q-20 -60 -57 -108l83 -67l-80 -98l-98 80q-82 -49 -177 -49q-96 0 -176 49t-126.5 133.5t-46.5 185.5t46.5 185.5t126 133t176.5 48.5t176.5 -48.5t126 -133t46.5 -185.5q0 -66 -20 -126zM468 120l-63 52l80 97l88 -72q49 65 49 154q0 68 -29 123t-80 86.5
t-114 31.5t-114 -31.5t-80 -86.5t-29 -123t29 -123.5t80 -87t114 -31.5q34 0 69 11z" />
    <glyph glyph-name="R" unicode="R" horiz-adv-x="688" 
d="M507 0l-208 287h-111v-287h-126v350v350h331q58 0 105 -27t74 -74.5t27 -105.5q0 -72 -41.5 -126.5t-108.5 -72.5l214 -294h-156zM393 413q35 0 57.5 22t22.5 58q0 37 -22 59t-58 22h-205v-161h205z" />
    <glyph glyph-name="S" unicode="S" horiz-adv-x="637" 
d="M457 12.5q65 29.5 102.5 79.5t37.5 111q0 51 -28 96t-77.5 76t-113.5 42q-45 9 -51 9l-51 10l-6 2h-1q-39 8 -65 29.5t-26 44.5q0 34 42.5 57t93.5 23t87.5 -20t46.5 -45l118 43q-24 67 -93.5 107.5t-158.5 40.5q-72 0 -132 -27.5t-95 -74.5t-35 -104q0 -47 25.5 -88.5
t70.5 -70.5t102 -40q9 -3 57 -11q4 -1 17.5 -3t31.5 -6q49 -8 82 -34t33 -56q0 -22 -20.5 -44t-56.5 -36t-80 -14q-62 0 -106 27q-39 22 -47 52l-121 -36q15 -49 55 -87.5t97 -60t122 -21.5q78 0 143 29.5z" />
    <glyph glyph-name="T" unicode="T" horiz-adv-x="749" 
d="M687 574h-249v-574h-126v574h-250v126h625v-126z" />
    <glyph glyph-name="U" unicode="U" horiz-adv-x="742" 
d="M528.5 18q70.5 36 111 98.5t40.5 139.5v444h-126v-444q0 -42 -23.5 -76t-65.5 -53t-94 -19t-94 19t-65.5 53t-23.5 76v444h-126v-444q0 -77 40.5 -139.5t111 -98.5t157.5 -36t157.5 36z" />
    <glyph glyph-name="V" unicode="V" horiz-adv-x="678" 
d="M272 0l-252 700h134l185 -514l185 514h134l-252 -700h-134z" />
    <glyph glyph-name="W" unicode="W" horiz-adv-x="945" 
d="M214 0l-194 700h131l128 -464l128 464h131l128 -464l129 464h130l-193 -700h-131l-128 464l-129 -464h-130z" />
    <glyph glyph-name="X" unicode="X" horiz-adv-x="724" 
d="M439 350l245 -350h-114h-40l-168 240l-168 -240h-114h-40l245 350l-245 350h154l168 -240l168 240h154z" />
    <glyph glyph-name="Y" unicode="Y" 
d="M685 700l-275 -371v-329h-126v329l-274 371h157l180 -244l181 244h157z" />
    <glyph glyph-name="Z" unicode="Z" horiz-adv-x="668" 
d="M606 545l-398 -419h398v-126h-544v155l397 419h-397v126h544v-155z" />
    <glyph glyph-name="a" unicode="a" horiz-adv-x="543" 
d="M376.5 505.5q53.5 -27.5 84 -76t30.5 -108.5v-321h-126v8q-45 -17 -99 -17q-64 0 -115.5 23t-81 63.5t-29.5 90.5t29.5 90.5t81 63.5t115.5 23q53 0 99 -17q-3 35 -33 57t-75 22q-29 0 -53 -9.5t-38 -26.5l-97 81q33 39 82 60t106 21q66 0 119.5 -27.5zM336 133
q29 16 29 35t-29 35t-70 16t-70.5 -16t-29.5 -35t29.5 -35t70.5 -16t70 16z" />
    <glyph glyph-name="b" unicode="b" horiz-adv-x="606" 
d="M437.5 498q58.5 -36 92.5 -98.5t34 -137.5t-34 -137t-92.5 -98t-129.5 -36t-130 37v-28h-126v700h126v-203q61 37 130 37q71 0 129.5 -36zM401 158.5q37 41.5 37 103.5t-37.5 104t-92.5 42t-92.5 -42t-37.5 -104t37 -103.5t93 -41.5t93 41.5z" />
    <glyph glyph-name="c" unicode="c" horiz-adv-x="521" 
d="M402.5 13.5q50.5 22.5 88.5 63.5l-94 84q-20 -21 -46 -32.5t-56 -11.5q-59 0 -99 41.5t-40 103.5q0 41 18 74.5t50 52.5t71 19q30 0 56 -11.5t46 -33.5l94 84q-37 42 -88 64.5t-108 22.5q-73 0 -133.5 -36t-96 -98.5t-35.5 -137.5t35.5 -137t96 -98t133.5 -36
q57 0 107.5 22.5z" />
    <glyph glyph-name="d" unicode="d" horiz-adv-x="620" 
d="M77 399.5q35 62.5 95.5 98.5t132.5 36q74 0 137 -39v205h126v-700h-126v30q-61 -39 -137 -39q-72 0 -132.5 36t-95.5 98t-35 137t35 137.5zM207 158.5q39 -41.5 98 -41.5t98 41.5t39 103.5q0 41 -18 74.5t-49.5 52.5t-69.5 19t-69.5 -19t-49.5 -52.5t-18 -74.5
q0 -62 39 -103.5z" />
    <glyph glyph-name="e" unicode="e" horiz-adv-x="592" 
d="M410.5 13.5q50.5 22.5 87.5 63.5l-94 84q-19 -21 -45 -32.5t-55 -11.5q-42 0 -75.5 22.5t-49.5 59.5h373v63q0 76 -33.5 138.5t-92 98t-130.5 35.5t-130.5 -35.5t-92 -98t-33.5 -138.5q0 -75 35 -137t95.5 -98t133.5 -36q56 0 106.5 22.5zM222 385q30 23 74 23t73.5 -23
t44.5 -60h-237q15 37 45 60z" />
    <glyph glyph-name="f" unicode="f" horiz-adv-x="429" 
d="M252 573.5q-20 -18.5 -23 -46.5h124v-126h-125v-401h-126v401h-77v126h77q3 53 30 97t71 69t97 25q59 0 109 -33l-70 -105q-17 12 -39 12q-28 0 -48 -18.5z" />
    <glyph glyph-name="g" unicode="g" horiz-adv-x="619" 
d="M567 525v-511q0 -68 -35.5 -123t-97 -86.5t-137.5 -31.5q-72 0 -132.5 29.5t-96.5 81.5l103 71q19 -26 52.5 -41t73.5 -15q62 0 103 32.5t41 82.5v16q-62 -39 -137 -39q-73 0 -133.5 36t-95.5 98t-35 137t35 137.5t95.5 98.5t133.5 36q75 0 137 -39v30h126zM373.5 136
q31.5 19 49.5 52.5t18 73.5q0 41 -18 74.5t-49.5 52.5t-69.5 19q-59 0 -98.5 -42t-39.5 -104t39.5 -103.5t98.5 -41.5q38 0 69.5 19z" />
    <glyph glyph-name="h" unicode="h" horiz-adv-x="566" 
d="M400 501.5q53 -32.5 83.5 -88t30.5 -122.5v-291h-126v291q0 50 -30 83.5t-75 33.5t-75 -33.5t-30 -83.5v-291h-126v700h126v-192q50 26 105 26q64 0 117 -32.5z" />
    <glyph glyph-name="i" unicode="i" horiz-adv-x="264" 
d="M82.5 589.5q-20.5 20.5 -20.5 49.5t20.5 49.5t49.5 20.5t49.5 -20.5t20.5 -49.5t-20.5 -49.5t-49.5 -20.5t-49.5 20.5zM69 525h126v-525h-126v525z" />
    <glyph glyph-name="j" unicode="j" horiz-adv-x="266" 
d="M104.5 589.5q-20.5 20.5 -20.5 49.5t21 49.5t49 20.5q29 0 49.5 -20.5t20.5 -49.5t-20.5 -49.5t-49.5 -20.5t-49.5 20.5zM91 525h126v-516q0 -56 -27 -102t-74 -73t-104 -27q-62 0 -112 32l67 107q21 -13 45 -13q34 0 56.5 22t22.5 54v516z" />
    <glyph glyph-name="k" unicode="k" horiz-adv-x="608" 
d="M223 205l-35 -32v-173h-126v700h126v-355l194 180h186l-253 -234l248 -291h-165z" />
    <glyph glyph-name="l" unicode="l" horiz-adv-x="250" 
d="M188 700h-126v-700h126v700z" />
    <glyph glyph-name="m" unicode="m" horiz-adv-x="849" 
d="M689 503.5q50 -29.5 79 -79.5t29 -111v-313h-126v313q0 40 -26.5 67t-65.5 27t-65.5 -27t-26.5 -67v-313h-126v313q0 40 -26 67t-65 27q-40 0 -66 -26.5t-26 -67.5v-313h-126v525h126v-12q43 20 92 20q45 0 84.5 -17t69.5 -47q31 31 70.5 47.5t84.5 16.5q60 0 110 -29.5z
" />
    <glyph glyph-name="n" unicode="n" horiz-adv-x="571" 
d="M403 502.5q54 -31.5 85 -86.5t31 -120v-296h-126v296q0 48 -31 80t-77 32t-76.5 -32t-30.5 -80v-296h-126v525h126v-17q52 26 107 26q64 0 118 -31.5z" />
    <glyph glyph-name="o" unicode="o" horiz-adv-x="606" 
d="M435.5 27q60.5 36 95.5 98t35 137t-35 137.5t-95.5 98.5t-132.5 36q-73 0 -133 -36t-95 -98.5t-35 -137.5t35 -137t95 -98t133 -36q72 0 132.5 36zM372.5 389q31.5 -19 49.5 -52.5t18 -74.5q0 -62 -39 -103.5t-98 -41.5t-98 41.5t-39 103.5q0 41 18 74.5t49.5 52.5
t69.5 19t69.5 -19z" />
    <glyph glyph-name="p" unicode="p" horiz-adv-x="620" 
d="M448 498q60 -36 95 -98.5t35 -137.5t-35 -137t-95 -98t-133 -36q-75 0 -137 39v-205h-126v700h126v-30q62 39 137 39q73 0 133 -36zM384.5 136q31.5 19 49.5 52.5t18 73.5q0 41 -18 74.5t-49.5 52.5t-69.5 19t-69.5 -19t-49.5 -52.5t-18 -74.5q0 -40 18 -73.5t49.5 -52.5
t69.5 -19t69.5 19z" />
    <glyph glyph-name="q" unicode="q" horiz-adv-x="621" 
d="M569 525v-700h-126v205q-65 -39 -137 -39q-73 0 -133.5 36t-95.5 98.5t-35 137.5t35 137t95.5 98t133.5 36q75 0 137 -39v30h126zM375.5 136q31.5 19 49.5 52.5t18 74.5q0 62 -39 103.5t-98 41.5t-98.5 -41.5t-39.5 -103.5t39.5 -104t98.5 -42q38 0 69.5 19z" />
    <glyph glyph-name="r" unicode="r" horiz-adv-x="486" 
d="M398.5 510.5q48.5 -23.5 82.5 -66.5l-98 -79q-34 43 -88 43q-50 0 -83.5 -37t-33.5 -93v-278h-126v525h126v-22q54 31 117 31q55 0 103.5 -23.5z" />
    <glyph glyph-name="s" unicode="s" horiz-adv-x="508" 
d="M360.5 13.5q49.5 22.5 78.5 61.5t29 86q0 61 -47 107t-122 60l-37 6v0q-12 2 -21.5 3.5t-12.5 2.5l-7 2q-21 5 -34 14.5t-13 16.5q0 6 10 14t27.5 14.5t39.5 6.5q29 0 50.5 -10.5t25.5 -21.5l118 44q-19 51 -72.5 82.5t-121.5 31.5q-56 0 -102.5 -21.5t-73.5 -58.5
t-27 -81q0 -56 43 -99.5t111 -56.5l41 -8l34 -6q29 -5 47 -18t18 -24q0 -8 -11.5 -18.5t-32.5 -18t-47 -7.5q-35 0 -60.5 12.5t-30.5 27.5l-120 -37q17 -57 76 -93t135 -36q60 0 109.5 22.5z" />
    <glyph glyph-name="t" unicode="t" horiz-adv-x="408" 
d="M398 23q-49 -32 -108 -32q-55 0 -100 27t-71.5 73t-26.5 102v209h-77v126h77v172h126v-172h125v-126h-125v-209q0 -32 20.5 -54t51.5 -22q20 0 39 11z" />
    <glyph glyph-name="u" unicode="u" horiz-adv-x="578" 
d="M526 525v-525h-126v18q-52 -27 -111 -27q-66 0 -120 31.5t-85.5 86t-31.5 120.5v296h126v-296q0 -48 32 -80t79 -32t79 32t32 80v296h126z" />
    <glyph glyph-name="v" unicode="v" horiz-adv-x="550" 
d="M208 0l-198 525h135l130 -346l131 346h134l-198 -525h-134z" />
    <glyph glyph-name="w" unicode="w" horiz-adv-x="781" 
d="M167 0l-157 525h132l91 -305l92 305h132l91 -305l92 305h131l-157 -525h-132l-91 306l-92 -306h-132z" />
    <glyph glyph-name="x" unicode="x" horiz-adv-x="601" 
d="M223 262l-193 263h156l115 -156l114 156h156l-192 -263l192 -262h-156l-114 156l-115 -156h-156z" />
    <glyph glyph-name="y" unicode="y" horiz-adv-x="568" 
d="M550 506l-214 -532l-17 -42q-46 -122 -140 -152q-27 -8 -56 -8q-46 0 -88 20l56 113q14 -7 32 -7q19 0 39 14t39 66l1 1l14 35l-206 511h136l138 -342l138 342h136z" />
    <glyph glyph-name="z" unicode="z" horiz-adv-x="565" 
d="M513 379l-292 -253h292v-126h-461v146l292 253h-292v126h461v-146z" />
    <glyph glyph-name="zero" unicode="0" horiz-adv-x="651" 
d="M424.5 4.5q46.5 21.5 83.5 63.5q30 33 51 75.5t29 88.5q11 57 13 117v3q-2 60 -13 117q-8 46 -29 88.5t-51 75.5q-37 41 -84 63t-99 22t-98.5 -22t-84.5 -63q-30 -33 -50.5 -75t-29.5 -89q-10 -60 -12 -117v-3q2 -57 12 -117q9 -47 29.5 -89t50.5 -75q76 -85 183 -85
q53 0 99.5 21.5zM186 446q6 32 24 66t47.5 57t67.5 23t67.5 -23t47.5 -57t24 -66q9 -44 11 -96q-2 -53 -11 -95q-6 -32 -24 -66t-47.5 -57t-67.5 -23t-67.5 23t-47.5 57t-24 66q-8 44 -10 95q2 50 10 96z" />
    <glyph glyph-name="one" unicode="1" horiz-adv-x="443" 
d="M348 700v-700h-126v573l-76 -57l-76 101l110 83h168z" />
    <glyph glyph-name="two" unicode="2" horiz-adv-x="600" 
d="M531 126h-324q17 37 43 63.5t52 40.5l118 61q61 29 95.5 82t34.5 117q0 63 -34 115t-92 82t-128 30q-80 0 -144.5 -39t-92.5 -105l116 -49q13 30 46 48.5t75 18.5q54 0 91 -29t37 -72q0 -27 -16 -50t-44 -36l-119 -61q-66 -34 -114.5 -100t-65.5 -145l-4 -26l-11 -72h481
v126z" />
    <glyph glyph-name="three" unicode="3" horiz-adv-x="628" 
d="M551 700h-472v-126h262l-186 -162l68 -104q33 15 75 15q39 0 71.5 -14t51.5 -38.5t19 -54.5q0 -46 -41.5 -77t-100.5 -31q-46 0 -82.5 19t-51.5 51l-114 -54q31 -65 98.5 -103.5t149.5 -38.5q74 0 135.5 31t97 85t35.5 118q0 79 -52.5 140t-135.5 83l173 150v111z" />
    <glyph glyph-name="four" unicode="4" horiz-adv-x="623" 
d="M583 264v-126h-105v-138h-126v138h-300v170l285 392h141v-436h105zM352 506l-176 -242h176v242z" />
    <glyph glyph-name="five" unicode="5" horiz-adv-x="608" 
d="M78 377l106 -57q20 20 47.5 30.5t58.5 10.5q61 0 101.5 -36t40.5 -90t-40.5 -90.5t-101.5 -36.5q-42 0 -77 19.5t-51 52.5l-112 -57q33 -65 97.5 -103t142.5 -38q74 0 135.5 33.5t97 91.5t35.5 128q0 69 -35.5 127t-97 91.5t-135.5 33.5q-35 0 -64 -7l18 94h296v126h-401
z" />
    <glyph glyph-name="six" unicode="6" horiz-adv-x="631" 
d="M453.5 455.5q59.5 -33.5 93.5 -91.5t34 -128t-34 -128t-93.5 -91.5t-130.5 -33.5q-75 0 -137 38t-94 101q-22 37 -32 93t-10 120q0 82 13 142q14 68 48 120t83 81q31 19 67.5 29.5t74.5 10.5q73 0 133.5 -35.5t88.5 -94.5l-114 -54q-12 26 -41.5 42t-66.5 16
q-40 0 -76 -21l-1 -1q-26 -15 -44.5 -45.5t-27.5 -72.5q60 37 136 37q71 0 130.5 -33.5zM417.5 145.5q37.5 36.5 37.5 90.5q0 55 -37.5 91t-94.5 36q-56 0 -94 -36t-38 -91q0 -54 38 -90.5t94 -36.5q57 0 94.5 36.5z" />
    <glyph glyph-name="seven" unicode="7" horiz-adv-x="613" 
d="M573 609l-299 -609h-141l282 574h-365v126h523v-91z" />
    <glyph glyph-name="eight" unicode="8" horiz-adv-x="623" 
d="M550 306.5q23 -44.5 23 -95.5q0 -63 -35 -115.5t-95 -82.5t-132 -30t-132 30.5t-94.5 82.5t-34.5 115q0 51 23 95.5t64 75.5q-27 27 -41.5 61.5t-14.5 72.5q0 56 30.5 102t83.5 73t116 27q64 0 117 -27t83.5 -73t30.5 -102q0 -38 -14.5 -72.5t-41.5 -61.5
q41 -31 64 -75.5zM237 461.5q30 -22.5 74 -22.5t74.5 22.5t30.5 54.5t-30.5 54t-74.5 22q-43 0 -73.5 -22t-30.5 -54t30 -54.5zM407.5 138.5q39.5 29.5 39.5 72.5t-39.5 72.5t-96.5 29.5t-96 -29.5t-39 -72.5t39 -72.5t96 -29.5t96.5 29.5z" />
    <glyph glyph-name="nine" unicode="9" horiz-adv-x="631" 
d="M571 485.5q10 -56.5 10 -120.5q0 -81 -13 -141q-14 -68 -47.5 -120t-82.5 -81q-65 -40 -142 -40q-74 0 -134.5 35.5t-88.5 94.5l114 54q13 -26 42.5 -42t66.5 -16q41 0 75 21l2 1q26 15 44.5 45.5t27.5 72.5q-62 -37 -137 -37q-71 0 -130.5 33.5t-93.5 91.5t-34 128
t34 128t93.5 91.5t130.5 33.5q76 0 138 -38t93 -101q22 -37 32 -93.5zM402.5 374q37.5 36 37.5 91q0 54 -37.5 90.5t-94.5 36.5q-56 0 -94 -36.5t-38 -90.5q0 -55 38 -91t94 -36q57 0 94.5 36z" />
    <glyph glyph-name="fraction" unicode="&#x2044;" 
d="M148 -26l527 752h-128l-527 -752h128z" />
    <glyph glyph-name="asterisk" unicode="*" horiz-adv-x="369" 
d="M246 350l84 61l-60 84l99 33l-34 100l-98 -32v104h-105v-104l-99 32l-33 -101l99 -32l-61 -85l86 -60l60 83z" />
    <glyph glyph-name="backslash" unicode="\" horiz-adv-x="469" 
d="M332 -17l-312 753h117l312 -753h-117z" />
    <glyph glyph-name="periodcentered" unicode="&#xb7;" horiz-adv-x="241" 
d="M177 337q-24 24 -58 24q-32 0 -55.5 -24t-23.5 -58q0 -32 23 -55.5t56 -23.5q34 0 58 23t24 57q0 33 -24 57z" />
    <glyph glyph-name="bullet" unicode="&#x2022;" horiz-adv-x="361" 
d="M251.5 420.5q-29.5 29.5 -70.5 29.5q-42 0 -71.5 -29.5t-29.5 -70.5q0 -42 29.5 -71.5t71.5 -29.5q41 0 70.5 29.5t29.5 71.5q0 41 -29.5 70.5z" />
    <glyph glyph-name="colon" unicode=":" horiz-adv-x="261" 
d="M187 510.5q-24 23.5 -58 23.5q-32 0 -55.5 -23.5t-23.5 -57.5q0 -33 23 -56.5t57 -23.5q33 0 57 24t24 58q0 32 -24 55.5zM187 137.5q-24 23.5 -58 23.5q-32 0 -55.5 -24t-23.5 -58q0 -32 23.5 -55.5t57.5 -23.5q33 0 56.5 24t23.5 58q0 32 -24 55.5z" />
    <glyph glyph-name="comma" unicode="," horiz-adv-x="259" 
d="M84 -207l20 20q51 53 74.5 112t28 102t2.5 56l-2 26h-133l4 -31q0 -1 0.5 -7t0.5 -15q0 -101 -43 -189l-9 -19z" />
    <glyph glyph-name="exclam" unicode="!" horiz-adv-x="261" 
d="M78 197l-21 364v139h147v-139l-21 -364h-105zM187 128.5q-24 23.5 -58 23.5q-32 0 -55.5 -24t-23.5 -58q0 -32 23.5 -55.5t57.5 -23.5q33 0 56.5 24t23.5 58q0 32 -24 55.5z" />
    <glyph glyph-name="numbersign" unicode="#" 
d="M525 446l-52 -192h97v-88h-120l-44 -166h-91l45 166h-120l-45 -166h-90l44 166h-99v88h123l51 192h-97v88h121l44 166h91l-45 -166h120l44 166h90l-44 -166h97v-88h-120zM434 446h-119l-52 -192h120z" />
    <glyph glyph-name="period" unicode="." horiz-adv-x="261" 
d="M187 128.5q-24 23.5 -58 23.5q-32 0 -55.5 -24t-23.5 -58q0 -32 23.5 -55.5t57.5 -23.5q33 0 56.5 24t23.5 58q0 32 -24 55.5z" />
    <glyph glyph-name="question" unicode="?" horiz-adv-x="571" 
d="M346 209q0 26 13 45.5t48 46.5q52 39 83 84t31 107q0 63 -32 114.5t-88 81.5t-123 30q-77 0 -139.5 -39.5t-88.5 -105.5l117 -47q12 30 42 48t69 18q50 0 83.5 -28.5t33.5 -71.5q0 -23 -14 -43t-51 -48q-52 -40 -81 -84t-29 -108v-11h126v11zM340 129q-24 24 -58 24
q-32 0 -55.5 -24t-23.5 -58q0 -32 24 -55.5t58 -23.5q33 0 56 23.5t23 56.5t-24 57z" />
    <glyph glyph-name="quotedbl" unicode="&#x22;" horiz-adv-x="524" 
d="M216 700h-126v-315h126v315zM434 700h-126v-315h126v315z" />
    <glyph glyph-name="quotesingle" unicode="'" horiz-adv-x="289" 
d="M84 384l20 20q51 53 74.5 112t28 102t2.5 56l-2 26h-133l4 -31q0 -1 0.5 -7t0.5 -15q0 -101 -43 -189l-9 -19z" />
    <glyph glyph-name="semicolon" unicode=";" horiz-adv-x="273" 
d="M199.5 511q-23.5 23 -57.5 23q-33 0 -56.5 -23t-23.5 -56q0 -34 23.5 -58t56.5 -24q34 0 57.5 24t23.5 58q0 33 -23.5 56zM84 -185l20 20q71 74 88 146.5t17 123.5l-2 26h-133l3 -31q0 -1 0.5 -7t0.5 -15q0 -101 -43 -189l-8 -19z" />
    <glyph glyph-name="slash" unicode="/" horiz-adv-x="469" 
d="M20 -17l312 753h117l-312 -753h-117z" />
    <glyph glyph-name="underscore" unicode="_" horiz-adv-x="590" 
d="M550 -60h-510v-50h510v50z" />
    <glyph glyph-name="braceleft" unicode="{" horiz-adv-x="440" 
d="M360 -198v109h-57q-11 0 -18.5 8.5t-7.5 21.5v189q0 39 -14 73t-39 57q25 23 39 57t14 73v190q0 13 7.5 21.5t18.5 8.5h57v108h-66q-39 0 -72 -20t-52 -55t-19 -77v-186q0 -24 -12 -40.5t-31 -16.5h-28v-126h28q19 0 31 -16t12 -40v-187q0 -42 19 -77t52 -55t72 -20h66z
" />
    <glyph glyph-name="braceright" unicode="}" horiz-adv-x="440" 
d="M146 -198q39 0 71.5 20t51.5 55t19 77v186q0 24 12.5 40.5t31.5 16.5h28v126h-28q-19 0 -31.5 16t-12.5 40v186q0 42 -19 77t-51.5 55.5t-71.5 20.5h-66v-109h57q11 0 18 -8.5t7 -21.5v-189q0 -39 14.5 -73t39.5 -57q-25 -24 -39.5 -57.5t-14.5 -73.5v-189
q0 -13 -7 -21.5t-18 -8.5h-57v-108h66z" />
    <glyph glyph-name="bracketleft" unicode="[" horiz-adv-x="377" 
d="M297 -198v126h-91v664h91v126h-217v-916h217z" />
    <glyph glyph-name="bracketright" unicode="]" horiz-adv-x="377" 
d="M297 718v-916h-217v126h91v664h-91v126h217z" />
    <glyph glyph-name="parenleft" unicode="(" horiz-adv-x="414" 
d="M114.5 500.5q34.5 116.5 101.5 217.5h118q-56 -98 -85.5 -217.5t-29.5 -240.5t29.5 -241t85.5 -218h-118q-67 101 -101.5 217.5t-34.5 241.5q0 124 34.5 240.5z" />
    <glyph glyph-name="parenright" unicode=")" horiz-adv-x="414" 
d="M299.5 500.5q-34.5 116.5 -101.5 217.5h-118q56 -98 85.5 -217.5t29.5 -240.5t-29.5 -241t-85.5 -217h118q67 101 101.5 217.5t34.5 240.5t-34.5 240.5z" />
    <glyph glyph-name="emdash" unicode="&#x2014;" horiz-adv-x="865" 
d="M765 335h-665v-119h665v119z" />
    <glyph glyph-name="endash" unicode="&#x2013;" horiz-adv-x="610" 
d="M550 335h-490v-119h490v119z" />
    <glyph glyph-name="hyphen" unicode="-" horiz-adv-x="435" 
d="M375 335h-315v-119h315v119z" />
    <glyph glyph-name="quotedblleft" unicode="&#x201c;" horiz-adv-x="568" 
d="M205 718l-20 -20q-71 -73 -88 -145.5t-17 -123.5l2 -26h133l-4 31q0 1 -0.5 7t-0.5 15q0 101 43 189l9 18zM430 718l-19 -20q-51 -52 -74.5 -111t-28 -102t-2.5 -56l1 -26h133l-3 31q0 1 -0.5 7t-0.5 15q0 101 43 189l9 18z" />
    <glyph glyph-name="quotedblright" unicode="&#x201d;" horiz-adv-x="569" 
d="M138 385l19 20q71 73 88.5 146.5t17.5 122.5l-2 26h-133l3 -31q0 -1 0.5 -7t0.5 -15q0 -101 -43 -189l-9 -18zM364 385l19 20q71 73 88.5 146.5t17.5 122.5l-2 26h-133l3 -31q0 -1 0.5 -7t0.5 -15q0 -101 -43 -189l-9 -18z" />
    <glyph glyph-name="quoteleft" unicode="&#x2018;" horiz-adv-x="342" 
d="M205 718l-20 -20q-71 -73 -88 -145.5t-17 -123.5l2 -26h133l-3 31q0 2 -0.5 7.5t-0.5 15.5q0 38 9.5 87.5t33.5 100.5l8 18z" />
    <glyph glyph-name="quoteright" unicode="&#x2019;" horiz-adv-x="342" 
d="M138 384l19 20q51 53 74.5 111.5t28 101.5t2.5 57l-1 26h-133l3 -31q0 -1 0.5 -7t0.5 -15q0 -101 -43 -189l-9 -19z" />
    <glyph glyph-name="dollar" unicode="$" horiz-adv-x="680" 
d="M569.5 93q-30.5 -49 -83.5 -80t-117 -38v-65h-60v65q-84 7 -147 54.5t-82 118.5l128 34q7 -27 35 -47t66 -26v190q-14 3 -22 5l-12 3q-81 18 -132.5 75t-51.5 129q0 53 29 99t79 75.5t110 34.5v65h60v-65q73 -8 129 -49.5t75 -102.5l-127 -41q-6 20 -26.5 36t-50.5 22
v-162l28 -5q59 -12 105 -44t72 -78t26 -98q0 -56 -30.5 -105zM309 436v150q-37 -7 -61 -27.5t-24 -47.5q0 -23 21 -43.5t53 -29.5l8 -2h3zM439 142q28 25 28 56t-27 56t-69 33q-2 0 -2 1v-179q42 8 70 33z" />
    <glyph glyph-name="asciitilde" unicode="~" horiz-adv-x="658" 
d="M530.5 290.5q44.5 31.5 67.5 87.5l-111 44q-18 -44 -59 -44q-14 0 -26 6.5t-30 24.5q-29 30 -62.5 48.5t-79.5 18.5q-58 0 -102.5 -31t-67.5 -87l111 -44q17 43 59 43q14 0 26 -6t30 -24q28 -30 62 -49t80 -19q58 0 102.5 31.5z" />
    <glyph glyph-name="equal" unicode="=" horiz-adv-x="645" 
d="M585 439v-119h-525v119h525zM60 230h525v-119h-525v119z" />
    <glyph glyph-name="greater" unicode="&#x3e;" horiz-adv-x="627" 
d="M80 0l467 222v118l-467 222v-133l312 -148l-312 -148v-133z" />
    <glyph glyph-name="less" unicode="&#x3c;" horiz-adv-x="627" 
d="M547 0l-467 222v118l467 222v-133l-312 -148l312 -148v-133z" />
    <glyph glyph-name="minus" unicode="&#x2212;" horiz-adv-x="435" 
d="M375 335h-315v-119h315v119z" />
    <glyph glyph-name="percent" unicode="%" horiz-adv-x="1098" 
d="M360 -26l526 753h-128l-526 -753h128zM385.5 344.5q48.5 35.5 62.5 101.5q5 28 7 62v1q-2 35 -7 61q-14 66 -62.5 101.5t-103.5 35.5q-54 0 -102.5 -35.5t-62.5 -101.5q-7 -35 -7 -61v-2q0 -24 7 -61q14 -66 62.5 -101.5t103.5 -35.5q54 0 102.5 35.5zM321 590
q15 -18 20 -39q5 -23 5 -42t-5 -44q-5 -21 -20 -39t-38 -18q-24 0 -39 18t-20 39q-5 23 -6 43q2 22 6 43q5 21 20 39t38 18q24 0 39 -18zM938.5 28.5q48.5 35.5 62.5 101.5q5 28 7 62v1q-2 35 -7 61q-14 66 -62.5 101.5t-103.5 35.5q-54 0 -102.5 -35.5t-62.5 -101.5
q-7 -35 -7 -61v-2q0 -24 7 -61q14 -66 62.5 -101.5t103.5 -35.5q54 0 102.5 35.5zM874 274q15 -18 20 -39q5 -23 5 -42t-5 -44q-5 -21 -20 -39t-38 -18q-24 0 -39 18t-20 39q-5 23 -6 43q2 22 6 43q5 21 20 39t38 18q24 0 39 -18z" />
    <glyph glyph-name="plus" unicode="+" horiz-adv-x="610" 
d="M550 216h-185v-185h-119v185h-186v119h186v186h119v-186h185v-119z" />
    <glyph glyph-name="at" unicode="@" horiz-adv-x="837" 
d="M610 24q79 41 129 118l7 10h-97l-2 -2q-36 -36 -90 -57q-54 -20 -113 -20q-58 0 -112 20q-50 19 -87 56q-36 35 -58 86q-21 51 -21 113q0 57 19 111q20 52 54 89q36 38 84 58q49 21 110 21q53 0 101 -15q48 -16 80 -45q34 -28 54 -72q20 -43 20 -99q0 -34 -10 -69
q-12 -35 -25 -55q-14 -21 -35 -34q-19 -12 -37 -12q-5 0 -7 3q-3 5 -3 12q0 5 2 19l6 21l62 257h-93l-12 -40q-17 28 -44 40q-33 16 -67 16q-48 0 -90 -22q-41 -23 -68 -58q-29 -37 -44 -81q-15 -45 -15 -92q0 -35 12 -67q15 -34 34 -54q22 -23 51 -37q27 -14 61 -14
q32 0 62 14q23 12 40 33q6 -17 21 -29q20 -17 54 -17q25 0 64 16q40 17 77 51q38 35 65 89q28 56 28 131q0 68 -29 124q-28 55 -76 95q-48 39 -109 60q-62 22 -129 22q-76 0 -145 -29q-65 -26 -119 -77q-52 -50 -80 -117q-30 -67 -30 -145t30 -146q29 -67 81 -117
q52 -49 120 -76q68 -28 148 -28q91 0 171 41zM480 427q20 -20 20 -54q0 -22 -8 -49q-9 -24 -24 -45q-15 -20 -35 -32q-20 -13 -45 -13q-30 0 -49 22q-19 20 -19 57q0 21 8 47q9 25 24 44q16 20 36 32q21 12 45 12q29 0 47 -21z" />
    <glyph glyph-name="ampersand" unicode="&#x26;" horiz-adv-x="799" 
d="M573 0l-59 60q-42 -42 -95 -62t-110 -20q-70 0 -129.5 29.5t-94.5 80.5t-35 111q0 47 22.5 89.5t62.5 73.5l1 1l48 36l-11 11q-22 24 -38.5 52.5t-16.5 71.5q0 46 23.5 84t63.5 60t89 22t89 -22t63.5 -60t23.5 -84q0 -38 -16.5 -71.5t-47.5 -57.5l-2 -1l-28 -21l108 -111
q6 33 7 58l126 -8q-6 -89 -32 -153l164 -169h-176zM259 563q-15 -11 -15 -29q0 -10 4 -17.5t15 -18.5l24 -24l42 30q15 14 15 30q0 18 -15 29t-35 11t-35 -11zM427 150l-154 158l-62 -46q-13 -10 -24 -26t-11 -37q0 -26 18 -47.5t49 -34.5t66 -13q72 0 118 46z" />
    <glyph glyph-name="trademark" unicode="&#x2122;" horiz-adv-x="1629" 
d="M687 574h-249v-574h-126v574h-250v126h625v-126zM1567 700v-700h-126v406l-183 -406h-138l-183 406v-406h-126v700h132l246 -546l246 546h132z" />
    <glyph glyph-name="asciicircum" unicode="^" horiz-adv-x="597" 
d="M60 299l188 401h102l187 -401h-116l-122 262l-123 -262h-116z" />
    </font>
</defs>
</svg>
