<?xml version="1.0" standalone="no"?>
<!DOCTYPE svg PUBLIC "-//W3C//DTD SVG 1.1//EN" "http://www.w3.org/Graphics/SVG/1.1/DTD/svg11.dtd" >
<svg xmlns="http://www.w3.org/2000/svg" xmlns:xlink="http://www.w3.org/1999/xlink" version="1.1">
<metadata>
Created by FontForge 20170924 at Mon Feb  6 08:51:29 2017
 By www-data
Copyright (c) 2017 by Monocromo s.n.c. All rights reserved.
</metadata>
<defs>
<font id="AronGrotesque-Regular" horiz-adv-x="708" >
  <font-face 
    font-family="Aron Grotesque"
    font-weight="400"
    font-stretch="normal"
    units-per-em="1000"
    panose-1="2 0 5 4 3 0 0 2 0 4"
    ascent="750"
    descent="-250"
    x-height="508"
    cap-height="680"
    bbox="-52 -258 1244 928"
    underline-thickness="50"
    underline-position="-100"
    unicode-range="U+000D-FB06"
  />
<missing-glyph horiz-adv-x="667" 
d="M60 750h547v-750h-547v750zM162 93h344v563h-344v-563z" />
    <glyph glyph-name="fi" unicode="fi" horiz-adv-x="647" 
d="M557 508v-508h-94v430h-261v-430h-94v430h-78v78h78q0 41 9.5 85t35.5 81t73 60.5t122 23.5q58 0 105.5 -14t72.5 -28q23 -13 34 -26.5t11 -35.5q0 -26 -17.5 -43.5t-43.5 -17.5q-24 0 -42 18q-5 5 -12 15t-20 20.5t-34 18t-54 7.5q-24 0 -49.5 -5.5t-47 -20t-35.5 -40
t-14 -66.5v-32h355z" />
    <glyph glyph-name="ff" unicode="ff" horiz-adv-x="726" 
d="M674 508l-15 -78h-94v-430h-94v430h-269v-430h-94v430h-78v78h78q0 49 9 94.5t31.5 80t60.5 55t96 20.5q17 0 35.5 -2.5t33.5 -5.5q18 -4 34 -7l-47 -78q-7 1 -16 3q-8 2 -18 3t-22 1q-20 0 -38.5 -6t-33 -23.5t-23 -49.5t-8.5 -85h269q0 49 5.5 94.5t22 80t48 55
t83.5 20.5q17 0 33.5 -2.5t29.5 -5.5q15 -4 28 -7l-47 -78q-6 1 -14 3q-7 2 -16 3t-20 1q-36 0 -47.5 -42t-11.5 -122h109z" />
    <glyph glyph-name="ffi" unicode="ffi" horiz-adv-x="1010" 
d="M471 508q0 41 9.5 85t35.5 81t73 60.5t122 23.5q58 0 105.5 -14t72.5 -28q23 -13 34 -26.5t11 -35.5q0 -26 -17.5 -43.5t-43.5 -17.5q-24 0 -42 18q-5 5 -12 15t-20 20.5t-34 18t-54 7.5q-24 0 -49.5 -5.5t-47 -20t-35.5 -40t-14 -66.5v-32h355v-508h-94v430h-261v-430
h-94v430h-269v-430h-94v430h-78v78h78q0 49 9 94.5t31.5 80t60.5 55t96 20.5q17 0 35.5 -2.5t33.5 -5.5q18 -4 34 -7l-47 -78q-7 1 -16 3q-8 2 -18 3t-22 1q-20 0 -38.5 -6t-33 -23.5t-23 -49.5t-8.5 -85h269z" />
    <glyph glyph-name="fl" unicode="fl" horiz-adv-x="637" 
d="M557 758v-758h-94v543q0 7 -3.5 28t-17 43.5t-39.5 40t-71 17.5q-22 0 -45 -4.5t-42 -18.5t-31 -40t-12 -69v-32h109l-15 -78h-94v-430h-94v430h-78v78h78q0 43 9.5 87.5t35 80.5t68.5 59t111 23q27 0 48.5 -7.5t38 -19.5t27.5 -27.5t17 -31.5v78z" />
    <glyph glyph-name="s_t" unicode="st" horiz-adv-x="809" 
d="M316 399q-10 8 -24 15q-12 6 -29 11t-37 5q-35 0 -53.5 -12t-18.5 -35q0 -15 10.5 -28t27.5 -24.5t37.5 -22.5t40.5 -24q21 -14 43 -29t39.5 -33t29 -40.5t11.5 -49.5q0 -32 -13.5 -58t-36.5 -44t-53.5 -28t-63.5 -10q-35 0 -66.5 10.5t-54.5 24.5q-27 16 -50 36l63 62
q16 -13 34 -24q15 -9 34.5 -16t39.5 -7q12 0 25 3t23.5 9.5t17.5 17t7 24.5q0 17 -8 30t-21 23t-29 19t-32 19q-24 14 -50 29.5t-48 35t-36.5 44.5t-14.5 59q0 20 10.5 42t31.5 40.5t52 30.5t72 12q11 0 22 -1t22 -3q-8 10 -13 23q-5 11 -9 27.5t-4 37.5q0 27 12.5 55.5
t37.5 51t61.5 37t84.5 14.5q41 0 79 -14t67 -44t46.5 -77.5t17.5 -114.5h109l-15 -78h-94v-259q0 -35 5 -55.5t16 -31t29 -13.5t44 -3v-62q-5 -4 -12 -7q-14 -7 -35 -7q-15 0 -39 5.5t-46.5 22t-39 47t-16.5 80.5v283h-78v78h78q0 46 -10 77.5t-27.5 51t-42 27.5t-53.5 8
q-26 0 -47 -8.5t-35 -23t-21.5 -33t-7.5 -39.5q0 -23 10 -42.5t23 -33.5q15 -17 34 -31z" />
    <glyph glyph-name="ffl" unicode="ffl" horiz-adv-x="1000" 
d="M471 508q0 43 9.5 87.5t35 80.5t68.5 59t111 23q27 0 48.5 -7.5t38 -19.5t27.5 -27.5t17 -31.5v78l94 8v-758h-94v543q0 7 -3.5 28t-17 43.5t-39.5 40t-71 17.5q-22 0 -45 -4.5t-42 -18.5t-31 -40t-12 -69v-32h109l-15 -78h-94v-430h-94v430h-269v-430h-94v430h-78v78h78
q0 49 9 94.5t31.5 80t60.5 55t96 20.5q17 0 35.5 -2.5t33.5 -5.5q18 -4 34 -7l-47 -78q-7 1 -16 3q-8 2 -18 3t-22 1q-20 0 -38.5 -6t-33 -23.5t-23 -49.5t-8.5 -85h269z" />
    <glyph glyph-name="IJ" unicode="IJ" horiz-adv-x="728" 
d="M411 680h217v-399q0 -62 -14 -114.5t-44 -91.5t-77.5 -61t-114.5 -22q-69 0 -117 21t-78 57l68 68q17 -23 46 -37.5t81 -14.5q53 0 82.5 16.5t44 44t18 64.5t3.5 78v297h-132zM222 680v-494l-102 -16v510h102z" />
    <glyph glyph-name="ij" unicode="ij" horiz-adv-x="548" 
d="M194 508v-508h-94v508h94zM458 1q0 -47 -3 -93t-19.5 -83t-53 -60t-103.5 -23v86q21 0 37 4.5t26.5 18t16 38t5.5 65.5v554h94v-507zM194 -133q15 -20 32.5 -29.5t52.5 -9.5v-86q-52 0 -88.5 14.5t-59.5 47.5zM89 654q0 24 17 41t41 17t41 -17t17 -41t-17 -41t-41 -17
t-41 17t-17 41zM353 654q0 24 17 41t41 17t41 -17t17 -41t-17 -41t-41 -17t-41 17t-17 41z" />
    <glyph glyph-name="c_t" unicode="ct" horiz-adv-x="907" 
d="M433 375q-23 24 -53 39.5t-72 15.5q-32 0 -62 -13.5t-52.5 -37t-36 -55t-13.5 -66.5q0 -38 13.5 -71t36 -57t52.5 -38t62 -14q42 0 72 15.5t53 39.5l63 -63q-35 -35 -82 -56.5t-106 -21.5q-53 0 -100 21.5t-82 58.5t-55.5 85t-20.5 101t20.5 100t55.5 82t82 55.5
t100 20.5q17 0 30 -1.5t28 -4.5q-7 10 -12 23q-5 11 -8.5 27t-3.5 37q0 27 12.5 56t37.5 52t61.5 38t84.5 15q41 0 79 -14t67 -44t46.5 -77.5t17.5 -114.5h109l-15 -78h-94v-259q0 -35 5 -55.5t16 -31t29 -13.5t44 -3v-62q-5 -4 -12 -7q-14 -7 -35 -7q-15 0 -39 5.5
t-46.5 22t-39 47t-16.5 80.5v283h-78v78h78q0 46 -10 77.5t-27.5 51t-42 27.5t-53.5 8q-26 0 -47 -8.5t-35 -22.5t-21.5 -32.5t-7.5 -39.5q0 -26 13 -49.5t30 -41.5q19 -21 44 -40z" />
    <glyph glyph-name=".notdef" horiz-adv-x="667" 
d="M60 750h547v-750h-547v750zM162 93h344v563h-344v-563z" />
    <glyph glyph-name="NULL" horiz-adv-x="0" 
 />
    <glyph glyph-name="NULL" horiz-adv-x="0" 
 />
    <glyph glyph-name="nonmarkingreturn" unicode="&#xd;" horiz-adv-x="250" 
 />
    <glyph glyph-name="space" unicode=" " horiz-adv-x="250" 
 />
    <glyph glyph-name="E" unicode="E" horiz-adv-x="580" 
d="M202 586v-195h265v-94h-265v-203h328l-16 -94h-414v680h414v-94h-312z" />
    <glyph glyph-name="F" unicode="F" horiz-adv-x="572" 
d="M202 586v-226h289l-16 -94h-273v-266h-102v680h422v-94h-320z" />
    <glyph glyph-name="G" unicode="G" horiz-adv-x="728" 
d="M404 594q-50 0 -94 -20t-77 -54.5t-52 -81t-19 -98.5q0 -53 19 -99t52 -80.5t77 -54.5t94 -20q42 0 73.5 5.5t67.5 17.5v133h-131l16 94h217v-258q-21 -24 -49.5 -40t-60.5 -26.5t-66.5 -15t-66.5 -4.5q-70 0 -132.5 27.5t-109.5 74.5t-74.5 109.5t-27.5 132.5t27.5 134
t74.5 112.5t109.5 77t132.5 28.5q72 0 134 -29.5t110 -78.5l-71 -63q-33 35 -76 56t-97 21z" />
    <glyph glyph-name="H" unicode="H" horiz-adv-x="744" 
d="M644 680v-680h-102v297h-340v-297h-102v680h102v-289h340v289h102z" />
    <glyph glyph-name="I" unicode="I" horiz-adv-x="342" 
d="M222 680v-680l-102 -8v688h102z" />
    <glyph glyph-name="J" unicode="J" horiz-adv-x="480" 
d="M380 680v-407q0 -56 -6.5 -107t-27 -89.5t-59 -61.5t-103.5 -23q-54 0 -94.5 21t-69.5 56l70 70q11 -23 35 -38t59 -15q33 0 51.5 12.5t28 36t12 56.5t2.5 74v321h-132l17 94h217z" />
    <glyph glyph-name="K" unicode="K" horiz-adv-x="623" 
d="M350 454l235 -454h-114l-198 384l-71 -72v-312h-102v680l102 8v-257l253 249h138z" />
    <glyph glyph-name="L" unicode="L" horiz-adv-x="492" 
d="M482 102l-14 -102h-368v680l102 8v-586h280z" />
    <glyph glyph-name="N" unicode="N" horiz-adv-x="747" 
d="M647 680v-672l-86 -16l-367 523v-515h-94v672l94 16l367 -523v515h86z" />
    <glyph glyph-name="O" unicode="O" horiz-adv-x="803" 
d="M162 340q0 -53 19 -99t52 -80.5t77 -54.5t94 -20t94 20t77 54.5t52 80.5t19 99q0 52 -19 98.5t-52 81t-77 54.5t-94 20t-94 -20t-77 -54.5t-52 -81t-19 -98.5zM60 340q0 72 27 135.5t73.5 110.5t109.5 74.5t134 27.5t134 -27.5t109.5 -74.5t73.5 -110.5t27 -135.5
t-27 -135.5t-73.5 -110.5t-109.5 -74.5t-134 -27.5t-134 27.5t-109.5 74.5t-73.5 110.5t-27 135.5z" />
    <glyph glyph-name="P" unicode="P" horiz-adv-x="585" 
d="M286 680q64 0 113 -17.5t81 -47.5t48.5 -70.5t16.5 -86.5t-16 -85.5t-47.5 -68.5t-78 -45.5t-107.5 -16.5h-95v-242h-101v680h186zM286 330q71 0 114 29.5t43 98.5q0 68 -43.5 98t-113.5 30h-85v-256h85z" />
    <glyph glyph-name="Q" unicode="Q" horiz-adv-x="808" 
d="M467 -2q-30 -6 -63 -6q-71 0 -133.5 28t-109 76t-74 111t-27.5 134q0 72 27 135t73.5 110t109.5 74.5t134 27.5t134 -27.5t109.5 -74.5t73.5 -110t27 -135q0 -49 -13 -95t-37 -85.5t-57.5 -72t-73.5 -54.5l87 -206l-101 -16zM162 340q0 -53 19 -99t52 -80.5t77 -54.5
t94 -20t94 20t77 54.5t52 80.5t19 99q0 52 -19 98.5t-52 81t-77 54.5t-94 20t-94 -20t-77 -54.5t-52 -81t-19 -98.5z" />
    <glyph glyph-name="R" unicode="R" horiz-adv-x="643" 
d="M582 466q0 -69 -38.5 -119.5t-99.5 -73.5l139 -265l-105 -16l-140 265h-136v-257h-102v680h248q54 0 97.5 -17t73.5 -46t46.5 -68t16.5 -83zM202 345h126q33 0 61 6.5t48 21t31.5 37.5t11.5 56t-11.5 55.5t-31.5 37t-48 21t-61 6.5h-126v-241z" />
    <glyph glyph-name="S" unicode="S" horiz-adv-x="525" 
d="M269 688q35 0 69 -10t60 -22q31 -14 59 -31l-55 -78q-15 12 -35 23q-18 9 -44.5 16.5t-61.5 7.5q-21 0 -38 -6.5t-29 -17.5t-19 -25t-7 -29q0 -23 11 -41.5t29.5 -35t42.5 -32t50 -30.5q32 -19 64 -39.5t57.5 -45.5t41.5 -56.5t16 -71.5q0 -44 -18.5 -76.5t-48.5 -53.5
t-68 -31.5t-76 -10.5q-48 0 -87.5 14.5t-68.5 32.5q-34 20 -63 47l63 62q26 -18 52 -31q23 -12 50.5 -21.5t53.5 -9.5q48 0 78.5 18t30.5 60q0 22 -11 40t-29 34t-41.5 30t-48.5 28q-32 18 -64.5 38t-58.5 46t-42.5 59t-16.5 77q0 29 12 59.5t36.5 55.5t63 41t91.5 16z" />
    <glyph glyph-name="T" unicode="T" horiz-adv-x="526" 
d="M486 586h-172v-586l-102 -8v594h-172v94h446v-94z" />
    <glyph glyph-name="U" unicode="U" horiz-adv-x="668" 
d="M588 281q0 -62 -14 -114.5t-44 -91.5t-77.5 -61t-114.5 -22q-71 0 -120 22t-79.5 61t-44.5 91.5t-14 114.5v399l102 8v-399q0 -38 3.5 -74.5t18.5 -65t46.5 -46t87.5 -17.5q53 0 84 16.5t47 44t20.5 64.5t4.5 78v391h94v-399z" />
    <glyph glyph-name="V" unicode="V" horiz-adv-x="692" 
d="M682 672l-305 -672h-62l-305 672l108 8l230 -524l228 524z" />
    <glyph glyph-name="W" unicode="W" horiz-adv-x="825" 
d="M10 672l101 16l118 -500l147 492h82l146 -492l109 500l102 -16l-162 -672h-88l-156 524l-157 -524h-80z" />
    <glyph glyph-name="X" unicode="X" horiz-adv-x="550" 
d="M271 255l-148 -263l-103 16l203 329l-193 335l106 16l145 -251l140 251l102 -16l-194 -318l201 -346l-107 -16z" />
    <glyph glyph-name="Y" unicode="Y" horiz-adv-x="583" 
d="M346 329v-329h-102v329l-234 343l110 16l185 -271l163 271l105 -16z" />
    <glyph glyph-name="Z" unicode="Z" horiz-adv-x="598" 
d="M215 88h304l-16 -88h-453l329 592h-282v88h446z" />
    <glyph glyph-name="b" unicode="b" horiz-adv-x="655" 
d="M347 516q52 0 99 -20.5t82.5 -56t56 -82.5t20.5 -99t-20.5 -100t-56 -85t-82.5 -59t-99 -22q-26 0 -51.5 7t-47 18.5t-38.5 27t-26 33.5v-78h-94v750l94 8v-329q9 16 26 32t38.5 28t47 19.5t51.5 7.5zM347 78q32 0 62 13.5t52.5 37.5t36 57t13.5 72q0 35 -13.5 66
t-36 54.5t-52.5 37.5t-62 14q-35 0 -66.5 -14t-54.5 -37.5t-36.5 -54.5t-13.5 -66q0 -39 13.5 -72t36.5 -57t54.5 -37.5t66.5 -13.5z" />
    <glyph glyph-name="c" unicode="c" horiz-adv-x="536" 
d="M308 78q42 0 72 15.5t53 39.5l63 -63q-35 -35 -82 -56.5t-106 -21.5q-53 0 -100 21.5t-82 58.5t-55.5 85t-20.5 101t20.5 100t55.5 82t82 55.5t100 20.5q59 0 106 -21.5t82 -56.5l-63 -63q-23 24 -53 39.5t-72 15.5q-32 0 -62 -13.5t-52.5 -37t-36 -55t-13.5 -66.5
q0 -38 13.5 -71t36 -57t52.5 -38t62 -14z" />
    <glyph glyph-name="d" unicode="d" horiz-adv-x="631" 
d="M40 258q0 52 20.5 99t55.5 82.5t82 56t100 20.5q23 0 47.5 -7t46.5 -18.5t40 -27t30 -33.5v320l94 8v-758h-94v78q-12 -18 -30 -33.5t-40 -27t-46.5 -18.5t-47.5 -7q-53 0 -100 21.5t-82 58.5t-55.5 85t-20.5 101zM134 258q0 -38 12.5 -71t34.5 -57t52 -38t65 -14
t66.5 14t55 38t37 57t13.5 71q0 35 -13.5 66.5t-37 55t-55 37t-66.5 13.5t-65 -13.5t-52 -37t-34.5 -55t-12.5 -66.5z" />
    <glyph glyph-name="f" unicode="f" horiz-adv-x="363" 
d="M311 508l-15 -78h-94v-430h-94v430h-78v78h78q0 49 5.5 94.5t22 80t48 55t83.5 20.5q17 0 33.5 -2.5t29.5 -5.5q15 -4 28 -7l-47 -78q-6 1 -14 3q-7 2 -16 3t-20 1q-36 0 -47.5 -42t-11.5 -122h109z" />
    <glyph glyph-name="g" unicode="g" horiz-adv-x="637" 
d="M567 0q0 -68 -20.5 -116.5t-56 -80t-82.5 -46.5t-100 -15q-59 0 -109 13.5t-79 48.5l63 63q18 -23 50.5 -31t74.5 -8q32 0 62 7t53 26.5t36.5 52.5t13.5 86v77q-12 -17 -30.5 -32.5t-40.5 -27t-46 -18.5t-48 -7q-53 0 -99.5 21.5t-82 58.5t-56 84.5t-20.5 100.5t20.5 100
t56 82.5t82 56t99.5 20.5q24 0 48 -6t46 -17t40.5 -27t30.5 -36v78l94 8v-516zM308 77q35 0 66.5 14t55 38t37 57t13.5 71q0 36 -13.5 67.5t-37 55t-55 37t-66.5 13.5t-65 -13.5t-52 -37t-34.5 -55t-12.5 -67.5q0 -38 12.5 -71t34.5 -57t52 -38t65 -14z" />
    <glyph glyph-name="h" unicode="h" horiz-adv-x="590" 
d="M374 516q57 0 87.5 -21.5t44.5 -57t16.5 -80.5t2.5 -92v-265h-95v265q0 37 -1.5 67t-9.5 52t-25.5 34t-50.5 12q-26 0 -52 -10t-48 -22.5t-37.5 -25t-21.5 -17.5v-355h-94v750l94 8v-332q14 16 35 32t46.5 29t53.5 21t55 8z" />
    <glyph glyph-name="i" unicode="i" horiz-adv-x="284" 
d="M194 508v-508h-94v508h94zM86 654q0 26 17.5 43.5t43.5 17.5t43.5 -17.5t17.5 -43.5t-17.5 -43.5t-43.5 -17.5t-43.5 17.5t-17.5 43.5z" />
    <glyph glyph-name="j" unicode="j" horiz-adv-x="284" 
d="M194 1q0 -47 -3 -93t-19.5 -83t-53.5 -60t-104 -23q-14 0 -25.5 1t-19.5 3q-10 2 -17 4l47 79q2 -1 5 -1h10q21 0 37.5 4.5t27 18t16 38t5.5 65.5v554h94v-507zM89 654q0 24 17 41t41 17t41 -17t17 -41t-17 -41t-41 -17t-41 17t-17 41z" />
    <glyph glyph-name="k" unicode="k" horiz-adv-x="524" 
d="M329 352l180 -352h-104l-151 296l-70 -62v-234h-94v680l94 8v-357l191 177h118z" />
    <glyph glyph-name="l" unicode="l" horiz-adv-x="274" 
d="M194 758v-758h-94v750z" />
    <glyph glyph-name="m" unicode="m" horiz-adv-x="862" 
d="M653 516q52 0 80.5 -21.5t41.5 -57t15 -80.5t2 -92v-265h-94v265q0 37 -1 67t-7.5 52t-20 34t-38.5 12q-26 0 -51.5 -10t-46.5 -22.5t-34.5 -25t-15.5 -17.5v-355h-90v265q0 37 -1 67t-7 52t-19.5 34t-37.5 12q-23 0 -47.5 -10t-46.5 -22.5t-38.5 -25t-21.5 -17.5v-355
h-94v508l87 8l7 -90q10 13 29 28.5t42.5 29t50.5 23t54 9.5q24 0 43 -7.5t33 -20.5t24 -29t16 -32q10 11 29.5 26.5t45 29.5t54.5 23.5t58 9.5z" />
    <glyph glyph-name="n" unicode="n" horiz-adv-x="601" 
d="M367 516q63 0 97.5 -21.5t50.5 -57t18.5 -80.5t2.5 -92v-265h-94v265q0 37 -1.5 67t-9.5 52t-25.5 34t-50.5 12q-36 0 -66.5 -10t-54 -22.5t-39 -25t-21.5 -17.5v-355h-94v508l87 8l7 -90q12 15 33 30.5t47 29t55 22t58 8.5z" />
    <glyph glyph-name="o" unicode="o" horiz-adv-x="624" 
d="M312 516q53 0 100.5 -21t83.5 -57t57 -83.5t21 -100.5t-21 -100.5t-57 -83.5t-83.5 -57t-100.5 -21t-100.5 21t-83.5 57t-57 83.5t-21 100.5t21 100.5t57 83.5t83.5 57t100.5 21zM148 254q0 -36 13 -68t35 -56t52 -38t64 -14t64 14t52 38t35 56t13 68t-13 68t-35 56
t-52 38t-64 14t-64 -14t-52 -38t-35 -56t-13 -68z" />
    <glyph glyph-name="p" unicode="p" horiz-adv-x="641" 
d="M591 258q0 -53 -21.5 -101t-58.5 -85t-85 -58.5t-101 -21.5q-23 0 -47 7t-45.5 18.5t-38 27t-25.5 33.5v-328h-94v758l94 8v-86q9 21 26.5 37t39.5 27t45.5 16.5t44.5 5.5q53 0 101 -20.5t85 -56t58.5 -82.5t21.5 -99zM497 258q0 35 -13.5 66t-37 54.5t-55 37.5t-66.5 14
q-32 0 -62 -14t-52.5 -37.5t-36 -54.5t-13.5 -66q0 -38 13.5 -71t36 -57t52.5 -38t62 -14q35 0 66.5 14t55 38t37 57t13.5 71z" />
    <glyph glyph-name="q" unicode="q" horiz-adv-x="636" 
d="M50 258q0 52 21.5 99t58.5 82.5t85 56t101 20.5q21 0 44.5 -5.5t45.5 -16.5t39.5 -27t26.5 -37v78l94 8v-766h-94v328q-9 -18 -25.5 -33.5t-38 -27t-45.5 -18.5t-47 -7q-53 0 -101 21.5t-85 58.5t-58.5 85t-21.5 101zM144 258q0 -38 13.5 -71t37 -57t55 -38t66.5 -14
q32 0 62 14t52.5 38t36 57t13.5 71q0 35 -13.5 66t-36 54.5t-52.5 37.5t-62 14q-35 0 -66.5 -14t-55 -37.5t-37 -54.5t-13.5 -66z" />
    <glyph glyph-name="r" unicode="r" horiz-adv-x="422" 
d="M358 423q-8 4 -18.5 5.5t-21.5 1.5q-23 0 -46 -10t-42.5 -22.5t-34.5 -25l-21 -17.5v-355h-94v508l87 8l7 -90q12 15 30 30.5t41.5 29t51 22t58.5 8.5q13 0 23 -2.5l18 -4.5q9 -4 16 -7z" />
    <glyph glyph-name="s" unicode="s" horiz-adv-x="438" 
d="M226 516q37 0 65 -8.5t48 -19.5q23 -12 40 -27l-63 -62q-10 8 -24 15q-12 6 -29 11t-37 5q-35 0 -53.5 -12t-18.5 -35q0 -15 10.5 -28t27.5 -24.5t37.5 -22.5t40.5 -24q21 -14 43 -29t39.5 -33t29 -40.5t11.5 -49.5q0 -32 -13.5 -58t-36.5 -44t-53.5 -28t-63.5 -10
q-35 0 -66.5 10.5t-54.5 24.5q-27 16 -50 36l63 62q16 -13 34 -24q15 -9 34.5 -16t39.5 -7q12 0 25 3t23.5 9.5t17.5 17t7 24.5q0 17 -8 30t-21 23t-29 19t-32 19q-24 14 -50 29.5t-48 35t-36.5 44.5t-14.5 59q0 20 10.5 42t31.5 40.5t52 30.5t72 12z" />
    <glyph glyph-name="t" unicode="t" horiz-adv-x="371" 
d="M212 430v-259q0 -35 5 -55.5t16 -31t29 -13.5t44 -3v-62q-5 -4 -12 -7q-14 -7 -35 -7q-15 0 -39 5.5t-46.5 22t-39 47t-16.5 80.5v283h-78v78h78v172h94v-172h109l-15 -78h-94z" />
    <glyph glyph-name="u" unicode="u" horiz-adv-x="569" 
d="M211 -8q-57 0 -87.5 21.5t-44.5 57t-16.5 80.5t-2.5 92v265h95v-265q0 -37 1.5 -67.5t9.5 -52t25.5 -33.5t50.5 -12q26 0 52 9.5t47.5 22.5t37 25.5t21.5 17.5v355h94v-508l-87 -8l-7 90q-14 -16 -35 -32t-46.5 -29t-53 -21t-54.5 -8z" />
    <glyph glyph-name="v" unicode="v" horiz-adv-x="538" 
d="M116 516l157 -360l156 360l94 -8l-227 -508h-47l-234 508z" />
    <glyph glyph-name="w" unicode="w" horiz-adv-x="681" 
d="M15 508l97 8l103 -344l97 336h78l101 -336l99 344l76 -8l-148 -508h-55l-119 350l-102 -350h-55z" />
    <glyph glyph-name="x" unicode="x" horiz-adv-x="444" 
d="M424 508l-149 -242l154 -266l-102 -8l-112 187l-113 -187l-87 8l152 260l-152 248l102 8l111 -181l112 181z" />
    <glyph glyph-name="y" unicode="y" horiz-adv-x="528" 
d="M111 516l157 -360l156 360l94 -8l-342 -766l-80 16l125 290l-211 460z" />
    <glyph glyph-name="z" unicode="z" horiz-adv-x="477" 
d="M188 78h246l-14 -78h-380l250 430h-210v78h357z" />
    <glyph glyph-name="D" unicode="D" horiz-adv-x="730" 
d="M327 680q79 0 142.5 -24t108 -68.5t68.5 -108t24 -142.5q0 -77 -24 -139t-68.5 -106t-108 -68t-142.5 -24h-227v680h227zM318 94q58 0 104.5 13.5t79 43t49.5 75.5t17 111q0 67 -20.5 114.5t-55 77.5t-80 43.5t-94.5 13.5h-116v-492h116z" />
    <glyph glyph-name="A" unicode="A" horiz-adv-x="703" 
d="M693 8l-104 -16l-71 160h-325l-71 -160l-102 16l303 672h67zM475 246l-121 266l-119 -266h240z" />
    <glyph glyph-name="period" unicode="." horiz-adv-x="283" 
d="M70 48q0 23 16.5 40t39.5 17t40 -17t17 -40t-17 -39.5t-40 -16.5t-39.5 16.5t-16.5 39.5z" />
    <glyph glyph-name="comma" unicode="," horiz-adv-x="283" 
d="M70 -114q7 26 12 47.5t7.5 45t3.5 51.5t1 67l89 8q0 -31 -3 -63t-9.5 -63t-17.5 -59t-27 -50z" />
    <glyph glyph-name="colon" unicode=":" horiz-adv-x="283" 
d="M70 48q0 23 16.5 40t39.5 17t40 -17t17 -40t-17 -39.5t-40 -16.5t-39.5 16.5t-16.5 39.5zM70 451q0 23 16.5 40t39.5 17t40 -17t17 -40t-17 -39.5t-40 -16.5t-39.5 16.5t-16.5 39.5z" />
    <glyph glyph-name="semicolon" unicode=";" horiz-adv-x="283" 
d="M70 451q0 23 16.5 40t39.5 17t40 -17t17 -40t-17 -39.5t-40 -16.5t-39.5 16.5t-16.5 39.5zM70 -114q7 26 12 47.5t7.5 45t3.5 51.5t1 67l89 8q0 -31 -3 -63t-9.5 -63t-17.5 -59t-27 -50z" />
    <glyph glyph-name="quoteleft" unicode="&#x2018;" horiz-adv-x="258" 
d="M208 742q-8 -26 -14 -45t-10.5 -39.5t-7 -46t-2.5 -64.5l-89 -8q0 62 17.5 118t49.5 101z" />
    <glyph glyph-name="quoteright" unicode="&#x2019;" horiz-adv-x="278" 
d="M126 758q32 -45 49.5 -101t17.5 -118l-89 8q0 39 -2.5 64.5t-7 46t-11 39.5t-13.5 45z" />
    <glyph glyph-name="quotedblleft" unicode="&#x201c;" horiz-adv-x="423" 
d="M208 742q-8 -26 -14 -45t-10.5 -39.5t-7 -46t-2.5 -64.5l-89 -8q0 62 17.5 118t49.5 101zM373 742q-8 -26 -14 -45t-10.5 -39.5t-7 -46t-2.5 -64.5l-89 -8q0 62 17.5 118t49.5 101z" />
    <glyph glyph-name="quotedblright" unicode="&#x201d;" horiz-adv-x="443" 
d="M291 758q32 -45 49.5 -101t17.5 -118l-89 8q0 39 -2.5 64.5t-7 46t-11 39.5t-13.5 45zM126 758q32 -45 49.5 -101t17.5 -118l-89 8q0 39 -2.5 64.5t-7 46t-11 39.5t-13.5 45z" />
    <glyph glyph-name="exclam" unicode="!" horiz-adv-x="273" 
d="M70 48q0 23 16.5 40t39.5 17t40 -17t17 -40t-17 -39.5t-40 -16.5t-39.5 16.5t-16.5 39.5zM75 434v246h102v-246l-14 -245h-74z" />
    <glyph glyph-name="question" unicode="?" horiz-adv-x="458" 
d="M134 369h7q72 2 103.5 33t31.5 80q0 33 -11 55t-26.5 34.5t-34 17.5t-33.5 5v94q46 0 84 -15.5t65.5 -43t42.5 -65.5t15 -83q0 -38 -13.5 -72.5t-37 -61.5t-54.5 -44.5t-65 -20.5v-93h-74v180zM171 594q-26 0 -44 -10t-29 -21q-13 -14 -22 -31l-66 62q12 26 34 47
q19 17 49 32t78 15v-94zM115 48q0 23 16.5 40t39.5 17t40 -17t17 -40t-17 -39.5t-40 -16.5t-39.5 16.5t-16.5 39.5z" />
    <glyph glyph-name="less" unicode="&#x3c;" 
d="M100 305l508 203v-95l-383 -153l383 -165v-95l-508 219v86z" />
    <glyph glyph-name="lessequal" unicode="&#x2264;" 
d="M100 86h508l-508 167v86l508 169v-92l-361 -120l361 -118v-178h-508v86z" />
    <glyph glyph-name="equal" unicode="=" 
d="M100 399h508v-86h-508v86zM100 211h508v-86h-508v86z" />
    <glyph glyph-name="approxequal" unicode="&#x2248;" 
d="M100 399q18 9 38 16q17 6 40 11.5t49 5.5q29 0 63 -10.5t68 -22.5t66 -22.5t57 -10.5t48.5 5t40.5 11q20 7 38 17v-86q-18 -10 -38 -17q-17 -6 -40.5 -11t-48.5 -5q-29 0 -63 10.5t-68 22.5t-66 22.5t-57 10.5q-26 0 -49 -5.5t-40 -11.5q-20 -7 -38 -16v86zM100 211
q18 9 38 16q17 6 40 11.5t49 5.5q29 0 63 -10.5t68 -22.5t66 -22.5t57 -10.5t48.5 5t40.5 11q20 7 38 17v-86q-18 -10 -38 -17q-17 -6 -40.5 -11t-48.5 -5q-29 0 -63 10.5t-68 22.5t-66 22.5t-57 10.5q-26 0 -49 -5.5t-40 -11.5q-20 -7 -38 -16v86z" />
    <glyph glyph-name="logicalnot" unicode="&#xac;" 
d="M100 305h508v-215h-94v129h-414v86z" />
    <glyph glyph-name="greater" unicode="&#x3e;" 
d="M608 219l-508 -219v95l383 165l-383 153v95l508 -203v-86z" />
    <glyph glyph-name="greaterequal" unicode="&#x2265;" 
d="M608 253l-508 -167v92l361 118l-361 120v92l508 -169v-86zM100 86h508v-86h-508v86z" />
    <glyph glyph-name="hyphen" unicode="-" horiz-adv-x="609" 
d="M100 304h409v-86h-409v86z" />
    <glyph glyph-name="endash" unicode="&#x2013;" horiz-adv-x="747" 
d="M100 304h547v-86h-547v86z" />
    <glyph glyph-name="emdash" unicode="&#x2014;" horiz-adv-x="936" 
d="M100 304h736v-86h-736v86z" />
    <glyph glyph-name="periodcentered" unicode="&#xb7;" horiz-adv-x="313" 
d="M100 261q0 23 16.5 40t39.5 17t40 -17t17 -40t-17 -39.5t-40 -16.5t-39.5 16.5t-16.5 39.5z" />
    <glyph glyph-name="asterisk" unicode="*" horiz-adv-x="570" 
d="M312 635v-28.5t2 -28.5q35 25 78 44.5t85 30.5l23 -91q-15 -1 -33 -4q-16 -2 -36.5 -6.5t-43.5 -11.5q-11 -3 -22.5 -6t-23.5 -8q32 -28 61 -64t50 -71l-82 -46q-6 14 -13 31q-6 14 -15.5 33t-20.5 40q-7 11 -14.5 23t-15.5 24q-18 -42 -47 -83t-61 -73l-66 67
q13 9 27 20q12 10 27.5 24t32.5 31l17 17t17 19q-43 8 -87.5 25t-80.5 38l48 81q11 -10 26 -21q13 -9 30 -21t39 -23q10 -6 21 -12l22 -12q-14 42 -21.5 88.5t-7.5 88.5h94q-3 -16 -5 -34q-2 -16 -3 -36.5t-1 -44.5z" />
    <glyph glyph-name="plus" unicode="+" 
d="M100 305h207v203h94v-203h207v-86h-207v-219h-94v219h-207v86z" />
    <glyph glyph-name="plusminus" unicode="&#xb1;" 
d="M100 365h207v143h94v-143h207v-86h-207v-159h-94v159h-207v86zM100 86h508v-86h-508v86z" />
    <glyph glyph-name="slash" unicode="/" horiz-adv-x="471" 
d="M302 680h99l-232 -680h-99z" />
    <glyph glyph-name="backslash" unicode="\" horiz-adv-x="471" 
d="M401 0h-99l-232 680h99z" />
    <glyph glyph-name="fraction" unicode="&#x2044;" horiz-adv-x="471" 
d="M302 680h99l-232 -680h-99z" />
    <glyph glyph-name="at" unicode="@" horiz-adv-x="912" 
d="M504 267q2 5 2.5 14.5t1.5 17.5q1 10 1 21q-60 0 -83 -13t-23 -40q0 -6 2 -14.5t6.5 -16t13 -12.5t22.5 -5q21 0 36.5 15.5t20.5 32.5zM472 521q45 0 70 -17.5t36 -44t13 -57t2 -56.5q0 -55 3 -89t10 -53.5t19 -26.5t30 -7q19 0 31.5 14.5t19.5 38t9.5 54t2.5 63.5
q0 53 -21 100.5t-57 83.5t-83.5 57t-100.5 21t-100.5 -21t-83.5 -57t-57 -83.5t-21 -100.5t21 -100.5t57 -83.5t83.5 -57t100.5 -21h15l-15 -86q-74 0 -139 27.5t-113 74.5t-76 110.5t-28 135.5t28 135.5t76 110.5t113 74.5t139 27.5t139 -27.5t113 -74.5t76 -110.5
t28 -135.5q0 -55 -10.5 -101t-30.5 -79t-49.5 -51t-68.5 -18q-34 0 -59.5 12.5t-43 31t-28 39.5t-13.5 39q-4 -10 -13 -18.5t-21 -15t-24 -10t-22 -3.5q-31 0 -51.5 8.5t-32.5 22.5t-17 31t-5 34q0 35 16.5 56t43 32.5t60 17t66.5 9.5q0 38 -12.5 53t-44.5 15
q-16 0 -29 -2.5t-23 -4.5q-11 -3 -20 -6l-36 62q20 7 42 13q19 5 41 9.5t45 4.5z" />
    <glyph glyph-name="parenleft" unicode="(" horiz-adv-x="368" 
d="M318 -94q-40 0 -79 20t-70 69.5t-50 133.5t-19 211t19 211t50 133.5t70 69.5t79 20l-15 -86q-30 -3 -51 -36t-34 -83t-18.5 -110.5t-5.5 -118.5t5.5 -118.5t18.5 -110.5t34 -83t51 -36z" />
    <glyph glyph-name="parenright" unicode=")" horiz-adv-x="388" 
d="M85 -8q30 3 51 36t34 83t18.5 110.5t5.5 118.5t-5.5 118.5t-18.5 110.5t-34 83t-51 36l-15 86q40 0 79 -20t70 -69.5t50 -133.5t19 -211t-19 -211t-50 -133.5t-70 -69.5t-79 -20z" />
    <glyph glyph-name="bracketright" unicode="]" horiz-adv-x="373" 
d="M273 -94h-203l15 86h94v696h-94l-15 86h203v-868z" />
    <glyph glyph-name="bracketleft" unicode="[" horiz-adv-x="353" 
d="M100 774h203l-15 -86h-94v-696h94l15 -86h-203v868z" />
    <glyph glyph-name="braceleft" unicode="{" horiz-adv-x="462" 
d="M100 363l96 58q7 93 28 160t50.5 110t65.5 63t72 20l-15 -86q-18 0 -33 -14.5t-27 -38.5t-21 -54.5t-15 -63t-9 -64t-3 -56.5q0 -13 -8 -23.5t-17.5 -17.5t-18.5 -11t-11 -5q1 0 10 -4t19 -11.5t18 -18t8 -23.5q0 -25 3 -56.5t9 -64t15 -63t21 -54.5t27 -38.5t33 -14.5
l15 -86q-36 0 -72 20t-65.5 63t-50.5 110t-28 160l-96 57v47z" />
    <glyph glyph-name="braceright" unicode="}" horiz-adv-x="482" 
d="M382 316l-96 -57q-7 -93 -28 -160t-50.5 -110t-65.5 -63t-72 -20l15 86q18 0 33 14.5t27 38.5t21 54.5t15 63t9 64t3 56.5q0 13 8 23.5t18 18t19 11.5t10 4q-2 1 -11 5t-18.5 11t-17.5 17.5t-8 23.5q0 25 -3 56.5t-9 64t-15 63t-21 54.5t-27 38.5t-33 14.5l-15 86
q36 0 72 -20t65.5 -63t50.5 -110t28 -160l96 -58v-47z" />
    <glyph glyph-name="guillemotleft" unicode="&#xab;" horiz-adv-x="918" 
d="M100 305l359 203v-101l-257 -146l257 -157v-104l-359 219v86zM459 305l359 203v-101l-257 -146l257 -157v-104l-359 219v86z" />
    <glyph glyph-name="quotedblbase" unicode="&#x201e;" horiz-adv-x="458" 
d="M235 -98q7 26 13.5 45t11 39.5t7 46t2.5 64.5l89 8q0 -62 -17.5 -118t-49.5 -101zM70 -98q7 26 13.5 45t11 39.5t7 46t2.5 64.5l89 8q0 -62 -17.5 -118t-49.5 -101z" />
    <glyph glyph-name="quotesinglbase" unicode="&#x201a;" horiz-adv-x="293" 
d="M70 -98q7 26 13.5 45t11 39.5t7 46t2.5 64.5l89 8q0 -62 -17.5 -118t-49.5 -101z" />
    <glyph glyph-name="quotesingle" unicode="'" horiz-adv-x="209" 
d="M60 750h89l-14 -211h-61z" />
    <glyph glyph-name="quotedbl" unicode="&#x22;" horiz-adv-x="374" 
d="M60 750h89l-14 -211h-61zM225 750h89l-14 -211h-61z" />
    <glyph glyph-name="exclamdbl" unicode="&#x203c;" horiz-adv-x="495" 
d="M70 48q0 23 16.5 40t39.5 17t40 -17t17 -40t-17 -39.5t-40 -16.5t-39.5 16.5t-16.5 39.5zM75 434v246h102v-246l-14 -245h-74zM292 48q0 23 16.5 40t39.5 17t40 -17t17 -40t-17 -39.5t-40 -16.5t-39.5 16.5t-16.5 39.5zM297 434v246h102v-246l-14 -245h-74z" />
    <glyph glyph-name="exclamdown" unicode="&#xa1;" horiz-adv-x="333" 
d="M150 632q0 23 16.5 39.5t39.5 16.5t40 -16.5t17 -39.5t-17 -40t-40 -17t-39.5 17t-16.5 40zM169 491h74l14 -245v-246h-102v246z" />
    <glyph glyph-name="questiondown" unicode="&#xbf;" horiz-adv-x="478" 
d="M324 311q-76 0 -109 -31.5t-33 -81.5q0 -33 11 -55t26.5 -34.5t34 -17.5t33.5 -5q26 0 44 9.5t29 21.5q13 13 22 31l66 -62q-12 -27 -34 -47q-19 -18 -49.5 -32.5t-77.5 -14.5q-46 0 -84 15.5t-65.5 43t-42.5 65.5t-15 83q0 38 13.5 72.5t36.5 61t54 44t66 20.5v94h74
v-180zM343 632q0 -23 -16.5 -40t-39.5 -17t-40 17t-17 40t17 39.5t40 16.5t39.5 -16.5t16.5 -39.5z" />
    <glyph glyph-name="underscore" unicode="_" horiz-adv-x="747" 
d="M100 -8h547v-86h-547v86z" />
    <glyph glyph-name="brokenbar" unicode="&#xa6;" horiz-adv-x="294" 
d="M100 305v437l94 16v-437zM194 219v-461l-94 -16v461z" />
    <glyph glyph-name="bar" unicode="|" horiz-adv-x="294" 
d="M100 742l94 16v-1000l-94 -16v1000z" />
    <glyph glyph-name="percent" unicode="%" horiz-adv-x="989" 
d="M561 680h99l-232 -680h-99zM184 510q0 -42 19 -71.5t53 -29.5q33 0 53 29.5t20 71.5q0 43 -20 72.5t-53 29.5q-34 0 -53 -29.5t-19 -72.5zM100 510q0 37 12 69.5t33 56.5t49.5 38t61.5 14t61.5 -14t49.5 -38t33.5 -56.5t12.5 -69.5t-12.5 -69t-33.5 -56t-49.5 -38
t-61.5 -14t-61.5 14t-49.5 38t-33 56t-12 69zM660 169q0 -42 19 -71.5t53 -29.5q33 0 53 29.5t20 71.5q0 43 -20 72.5t-53 29.5q-34 0 -53 -29.5t-19 -72.5zM576 169q0 37 12 69.5t33 56.5t49.5 38t61.5 14t61.5 -14t49.5 -38t33.5 -56.5t12.5 -69.5t-12.5 -69t-33.5 -56
t-49.5 -38t-61.5 -14t-61.5 14t-49.5 38t-33 56t-12 69z" />
    <glyph glyph-name="asciicircum" unicode="^" horiz-adv-x="668" 
d="M588 296h-105l-149 275l-149 -275h-105l207 384h94z" />
    <glyph glyph-name="ellipsis" unicode="&#x2026;" horiz-adv-x="599" 
d="M80 48q0 23 16.5 40t39.5 17t40 -17t17 -40t-17 -39.5t-40 -16.5t-39.5 16.5t-16.5 39.5zM243 48q0 23 16.5 40t39.5 17t40 -17t17 -40t-17 -39.5t-40 -16.5t-39.5 16.5t-16.5 39.5zM406 48q0 23 16.5 40t39.5 17t40 -17t17 -40t-17 -39.5t-40 -16.5t-39.5 16.5
t-16.5 39.5z" />
    <glyph glyph-name="asciitilde" unicode="~" horiz-adv-x="781" 
d="M284 357q36 0 66 -16.5t56.5 -36.5t50 -36.5t45.5 -16.5q30 0 48.5 16.5t29.5 36.5q12 23 19 53h82q-9 -54 -32 -96q-10 -18 -23.5 -35.5t-32 -31t-42 -21.5t-53.5 -8q-36 0 -66 16.5t-56.5 36.5t-50.5 36.5t-46 16.5q-30 0 -49 -16.5t-30 -36.5q-12 -24 -18 -53h-82
q10 54 33 96q10 18 23.5 35t32 30.5t42 22t53.5 8.5z" />
    <glyph glyph-name="dagger" unicode="&#x2020;" horiz-adv-x="670" 
d="M100 516h188v234h94v-234h188l-15 -86h-173v-422l-94 -16v438h-173z" />
    <glyph glyph-name="daggerdbl" unicode="&#x2021;" horiz-adv-x="670" 
d="M100 555h188v195h94v-195h188l-15 -86h-173v-117h188l-15 -86h-173v-258l-94 -16v274h-173l-15 86h188v117h-173z" />
    <glyph glyph-name="minus" unicode="&#x2212;" 
d="M100 305h508v-86h-508v86z" />
    <glyph glyph-name="bullet" unicode="&#x2022;" horiz-adv-x="373" 
d="M100 261q0 36 25 61.5t61 25.5t61.5 -25.5t25.5 -61.5t-25.5 -61t-61.5 -25t-61 25t-25 61z" />
    <glyph glyph-name="trademark" unicode="&#x2122;" horiz-adv-x="810" 
d="M329 604h-103v-260l-84 -8v268h-102v76h289v-76zM407 680h70l63 -206l66 206h72l62 -336l-83 -8l-32 181l-51 -181h-79l-47 180l-28 -180l-86 8z" />
    <glyph glyph-name="section" unicode="&#xa7;" horiz-adv-x="630" 
d="M530 195q0 -50 -23.5 -84.5t-59.5 -55.5q36 -27 59.5 -60t23.5 -81q0 -44 -18.5 -76.5t-48.5 -53.5t-68 -31.5t-76 -10.5q-48 0 -87.5 14.5t-68.5 32.5q-34 20 -63 47l63 62q26 -18 52 -31q23 -12 50.5 -21.5t53.5 -9.5q48 0 78.5 18t30.5 60q0 22 -11.5 39t-30.5 31.5
t-43.5 27.5t-49.5 27q-32 18 -63.5 35.5t-57 39t-41 51t-15.5 71.5q0 37 19.5 75.5t61.5 64.5q-35 24 -58 56.5t-23 84.5q0 29 12 59.5t36.5 55t63 40.5t91.5 16q35 0 69 -10t60 -21q31 -14 59 -31l-55 -78q-15 12 -35 23q-18 8 -44.5 15.5t-61.5 7.5q-21 0 -38 -6.5
t-29 -17.5t-19 -24.5t-7 -28.5q0 -20 12 -36t31.5 -31t45 -29t51.5 -29q32 -18 63 -37.5t55 -42.5t39 -51.5t15 -65.5zM428 195q0 21 -9.5 36.5t-26 28.5t-39 25.5t-47.5 27.5q-20 -1 -36 -8t-27.5 -17.5t-18 -24t-6.5 -27.5q0 -19 10.5 -34.5t28.5 -29t41 -27t47 -27.5
q37 5 60 23.5t23 53.5z" />
    <glyph glyph-name="copyright" unicode="&#xa9;" horiz-adv-x="852" 
d="M551 289q-24 -26 -56 -40.5t-69 -14.5q-34 0 -64 14t-52 38t-35 56t-13 68t13 68t35 56t52 38t64 14q73 0 125 -55l-62 -59q-24 38 -63 38q-17 0 -31.5 -8t-25 -21.5t-17 -31.5t-6.5 -39t6.5 -39t17 -31.5t25 -21.5t31.5 -8q19 0 35.5 10.5t27.5 27.5zM426 672
q-53 0 -100.5 -21t-83.5 -57t-57 -83.5t-21 -100.5t21 -100.5t57 -83.5t83.5 -57t100.5 -21t100.5 21t83.5 57t57 83.5t21 100.5t-21 100.5t-57 83.5t-83.5 57t-100.5 21zM70 410q0 72 28 135.5t76 110.5t113 74.5t139 27.5t139 -27.5t113 -74.5t76 -110.5t28 -135.5
t-28 -135.5t-76 -110.5t-113 -74.5t-139 -27.5t-139 27.5t-113 74.5t-76 110.5t-28 135.5z" />
    <glyph glyph-name="ordfeminine" unicode="&#xaa;" horiz-adv-x="470" 
d="M249 758q45 0 70 -17.5t36 -44t13 -57t2 -56.5v-175l-78 -5l-6 47q-4 -10 -13 -18.5t-21 -15t-24 -10t-22 -3.5q-31 0 -51.5 8.5t-32.5 22.5t-17 31t-5 34q0 35 16.5 56t43 32.5t60 17t66.5 9.5q0 38 -12.5 53t-44.5 15q-16 0 -29 -2.5t-23 -4.5q-11 -3 -20 -6l-36 62
q20 7 42 13q19 5 41 9.5t45 4.5zM281 504q2 5 2.5 14.5t1.5 17.5q1 10 1 21q-60 0 -83 -13t-23 -40q0 -6 2 -14.5t6.5 -16t13 -12.5t22.5 -5q21 0 36.5 15.5t20.5 32.5z" />
    <glyph glyph-name="degree" unicode="&#xb0;" horiz-adv-x="481" 
d="M154 595q0 -36 25 -61t61 -25t61.5 25t25.5 61t-25.5 61.5t-61.5 25.5t-61 -25.5t-25 -61.5zM70 595q0 34 13.5 63.5t36.5 51.5t54 35t66 13t66 -13t54.5 -35t37 -51.5t13.5 -63.5t-13.5 -63.5t-37 -51.5t-54.5 -34.5t-66 -12.5t-66 12.5t-54 34.5t-36.5 51.5t-13.5 63.5
z" />
    <glyph glyph-name="mu" unicode="&#xb5;" horiz-adv-x="600" 
d="M384 -8q-27 0 -55 8t-53.5 21t-46.5 29t-35 32v-332l-94 -8v766h94v-355q6 -5 21.5 -17.5t37.5 -25.5t48 -22.5t52 -9.5q33 0 50.5 12t25.5 33.5t9.5 52t1.5 67.5v265h95v-265q0 -47 -2.5 -92t-16.5 -80.5t-44.5 -57t-87.5 -21.5z" />
    <glyph glyph-name="paragraph" unicode="&#xb6;" horiz-adv-x="795" 
d="M507 594h-94v-844h-94v492q-46 0 -86 16.5t-69.5 45.5t-46.5 68.5t-17 85.5t17 86.5t46.5 70.5t69.5 47.5t86 17.5h376v-86h-94v-844h-94v844z" />
    <glyph glyph-name="multiply" unicode="&#xd7;" horiz-adv-x="626" 
d="M307 196l-146 -146l-61 60l149 144l-146 146l64 64l143 -144l150 150l60 -61l-152 -147l158 -157l-64 -64z" />
    <glyph glyph-name="divide" unicode="&#xf7;" 
d="M298 48q0 23 16.5 40t39.5 17t40 -17t17 -40t-17 -39.5t-40 -16.5t-39.5 16.5t-16.5 39.5zM298 451q0 23 16.5 40t39.5 17t40 -17t17 -40t-17 -39.5t-40 -16.5t-39.5 16.5t-16.5 39.5zM100 305h508v-86h-508v86z" />
    <glyph glyph-name="currency" unicode="&#xa4;" horiz-adv-x="812" 
d="M164 254q0 38 11.5 73.5t31.5 64.5l-107 108l112 16l59 -61q29 20 63 30.5t72 10.5t71.5 -10.5t62.5 -30.5l60 61l112 -16l-107 -108q20 -29 31.5 -64.5t11.5 -73.5q0 -39 -11.5 -74t-31.5 -64l107 -108l-112 -16l-60 60q-29 -19 -62.5 -29.5t-71.5 -10.5t-72 10.5
t-63 29.5l-59 -60l-112 16l107 108q-20 29 -31.5 64t-11.5 74zM258 254q0 -32 11.5 -60.5t31.5 -49.5t47 -33.5t58 -12.5t58 12.5t47 33.5t31.5 49.5t11.5 60.5t-11.5 60.5t-31.5 49.5t-47 33.5t-58 12.5t-58 -12.5t-47 -33.5t-31.5 -49.5t-11.5 -60.5z" />
    <glyph glyph-name="cent" unicode="&#xa2;" horiz-adv-x="646" 
d="M358 78q42 0 72 15.5t53 39.5l63 -63q-28 -28 -63.5 -47.5t-77.5 -26.5v-90l-94 -16v107q-45 9 -83.5 33t-67 59t-44.5 78.5t-16 90.5t16 89t44.5 76t67 57t83.5 31v91l94 16v-106q42 -8 77.5 -27t63.5 -47l-63 -63q-23 24 -53 39.5t-72 15.5q-32 0 -62 -13.5t-52.5 -37
t-36 -55t-13.5 -66.5q0 -38 13.5 -71t36 -57t52.5 -38t62 -14z" />
    <glyph glyph-name="dollar" unicode="$" horiz-adv-x="630" 
d="M452 517q-15 12 -35 23q-18 8 -44.5 15.5t-61.5 7.5q-21 0 -38 -6.5t-29 -17.5t-19 -24.5t-7 -28.5q0 -20 12 -36t31.5 -31t45 -29t51.5 -29q32 -18 63 -37.5t55 -42.5t39 -51.5t15 -65.5t-13.5 -66t-36 -50t-52.5 -34t-62 -18v-90l-94 -16v107q-38 7 -69.5 21.5
t-54.5 29.5q-26 18 -48 38l63 62q26 -18 52 -31q23 -12 50.5 -21.5t53.5 -9.5q48 0 78.5 18t30.5 60q0 22 -11.5 39t-30.5 31.5t-43.5 27.5t-49.5 27q-32 18 -63.5 35.5t-57 39t-41 51t-15.5 71.5q0 25 9 52t28.5 50t48.5 40.5t70 24.5v90l94 16v-107q28 -5 53.5 -15
t45.5 -19q23 -11 42 -23z" />
    <glyph glyph-name="Euro" unicode="&#x20ac;" horiz-adv-x="839" 
d="M115 467h62q19 48 51.5 88.5t73.5 70t90 46t103 16.5q72 0 134 -29.5t110 -78.5l-71 -63q-33 35 -77.5 56t-95.5 21q-68 0 -123 -35t-87 -92h338l-15 -86h-352q-3 -21 -3 -41v-16.5t2 -16.5h353l-15 -86h-312q31 -60 87.5 -97.5t126.5 -37.5q51 0 95.5 20.5t77.5 56.5
l69 -69q-48 -48 -109.5 -75t-132.5 -27q-56 0 -106.5 17t-93 47.5t-74.5 72.5t-50 92h-71l15 86h37q-1 7 -1 14v15q0 22 3 45h-54z" />
    <glyph glyph-name="franc" unicode="&#x20a3;" horiz-adv-x="680" 
d="M115 180h51v500h414v-94h-312v-195h289l-16 -94h-273v-117h117l-15 -86h-102v-94h-102v94h-66z" />
    <glyph glyph-name="sterling" unicode="&#xa3;" horiz-adv-x="648" 
d="M373 594q-15 0 -33.5 -5t-34 -17.5t-26.5 -34.5t-11 -55v-175h117l-15 -86h-102v-119h280l-14 -102h-368v221h-66l15 86h51v174q0 45 15 83t42.5 65.5t65.5 43t84 15.5q47 0 77.5 -15t49.5 -32q22 -21 34 -47l-66 -62q-9 17 -22 31q-11 11 -29 21t-44 10z" />
    <glyph glyph-name="yen" unicode="&#xa5;" horiz-adv-x="763" 
d="M127 399h159l-186 273l110 16l185 -271l163 271l105 -16l-181 -273h153v-86h-199v-94h199v-86h-199v-133h-102v133h-207v86h207v94h-207v86z" />
    <glyph glyph-name="lira" unicode="&#x20a4;" horiz-adv-x="648" 
d="M373 594q-15 0 -33.5 -5t-34 -17.5t-26.5 -34.5t-11 -55v-40h117l-15 -86h-102v-74h117l-15 -86h-102v-94h280l-14 -102h-368v196h-66l15 86h51v74h-66l15 86h51v39q0 45 15 83t42.5 65.5t65.5 43t84 15.5q47 0 77.5 -15t49.5 -32q22 -21 34 -47l-66 -62q-9 17 -22 31
q-11 11 -29 21t-44 10z" />
    <glyph glyph-name="peseta" unicode="&#x20a7;" horiz-adv-x="757" 
d="M115 501h51v179h226q40 0 76 -14t64.5 -38t47.5 -56.5t27 -70.5h70l-15 -86h-55q-8 -38 -27 -69.5t-47.5 -54.5t-64.5 -36t-76 -13h-125v-242h-101v415h-66zM372 330q44 0 80.5 19.5t50.5 65.5h-236v-85h105zM267 501h236q-14 45 -51 65t-80 20h-105v-85z" />
    <glyph glyph-name="colonmonetary" unicode="&#x20a1;" horiz-adv-x="731" 
d="M448 78q42 0 72 15.5t53 39.5l63 -63q-35 -35 -82 -56.5t-106 -21.5q-47 0 -90 17l-56 -98l-88 33l66 114q-11 11 -21.5 22t-19.5 24l-101 -176l-88 33l144 251q-2 11 -3 22.5t-1 23.5q0 41 13 79t35.5 69.5t54 55.5t68.5 38l69 120l88 -33l-42 -73q30 -3 59 -12l58 100
l88 -33l-65 -113l20 -18l-63 -63q-23 24 -53 39.5t-72 15.5q-32 0 -62 -13.5t-52.5 -37t-36 -55t-13.5 -66.5q0 -38 13.5 -71t36 -57t52.5 -38t62 -14z" />
    <glyph glyph-name="florin" unicode="&#x192;" horiz-adv-x="606" 
d="M256 422h-66l15 86h51q0 49 5.5 94.5t22 80t48 55t83.5 20.5q17 0 33.5 -2.5t29.5 -5.5q15 -4 28 -7l-47 -78q-6 1 -14 3q-7 2 -16 3t-20 1q-36 0 -47.5 -42t-11.5 -122h117l-15 -86h-102v-430q0 -49 -5.5 -94.5t-22 -80t-48 -55t-83.5 -20.5q-18 0 -34 2t-29 5
q-15 4 -28 8l47 78q6 -2 14 -4q13 -3 36 -3q36 0 47.5 42t11.5 122v430z" />
    <glyph glyph-name="numbersign" unicode="#" horiz-adv-x="968" 
d="M518 162h-191l-55 -162h-99l55 162h-128l15 86h143l62 184h-128l15 86h143l55 162h99l-55 -162h191l55 162h99l-55 -162h129l-15 -86h-144l-62 -184h129l-15 -86h-144l-55 -162h-99zM357 248h191l62 184h-191z" />
    <glyph glyph-name="Eth" unicode="&#xd0;" horiz-adv-x="730" 
d="M48 391h52v289h227q79 0 142.5 -24t108 -68.5t68.5 -108t24 -142.5q0 -77 -24 -139t-68.5 -106t-108 -68t-142.5 -24h-227v297h-66zM318 94q58 0 104.5 13.5t79 43t49.5 75.5t17 111q0 67 -20.5 114.5t-55 77.5t-80 43.5t-94.5 13.5h-116v-195h116l-14 -94h-102v-203h116
z" />
    <glyph glyph-name="eth" unicode="&#xf0;" horiz-adv-x="634" 
d="M142 606l124 42q-32 28 -68 53.5t-77 48.5h164q20 -17 39.5 -34t39.5 -36l133 45l21 -49l-113 -38q37 -40 68.5 -84t55 -92.5t37 -100.5t13.5 -107q0 -53 -21.5 -100.5t-57.5 -83.5t-83.5 -57t-99.5 -21q-53 0 -100.5 21t-83.5 57t-57 83.5t-21 100.5t21 100.5t57 83.5
t83.5 57t100.5 21q20 0 39.5 -3.5t38.5 -9.5q-36 51 -85 103l-147 -49zM153 254q0 -36 13 -68t35 -56t52 -38t64 -14t64 14t52 38t35 56t13 68t-13 68t-35 56t-52 38t-64 14t-64 -14t-52 -38t-35 -56t-13 -68z" />
    <glyph glyph-name="germandbls" unicode="&#xdf;" horiz-adv-x="608" 
d="M265 391q0 27 13.5 52t29.5 50t29.5 51t13.5 55q0 24 -8.5 38t-21.5 22t-28 10.5t-28 2.5q-24 0 -40 -5.5t-26.5 -20t-15 -40t-4.5 -66.5v-540h-94v508q0 27 1 56t6 57t15.5 53t30.5 43.5t51 29.5t76 11q35 0 67.5 -9.5t57.5 -29t40 -49.5t15 -71q0 -38 -13.5 -70
t-29.5 -59t-29.5 -50t-13.5 -42q0 -11 9 -22.5t24 -23t34 -23.5t39 -25q21 -14 41.5 -29t36 -33t25.5 -40.5t10 -49.5q0 -32 -13.5 -58t-35.5 -44t-50 -28t-58 -10q-35 0 -66.5 10.5t-54.5 24.5q-27 16 -50 36l63 62q16 -13 34 -24q15 -9 34.5 -16t39.5 -7q24 0 43.5 12.5
t19.5 41.5q0 13 -6.5 24.5t-17.5 21.5t-25.5 19.5t-30.5 19.5q-24 14 -48.5 30t-44.5 36.5t-33 46.5t-13 61z" />
    <glyph glyph-name="breve" unicode="&#x2d8;" horiz-adv-x="610" 
d="M242 731q0 -26 6 -42t15 -25t20 -12.5t22 -3.5q10 0 21.5 3.5t20.5 12.5t15 25t6 42l39 11q2 -6 2.5 -17t0.5 -17q0 -52 -27 -85t-78 -33t-78 33t-27 85q0 6 0.5 17t2.5 17z" />
    <glyph glyph-name="caron" unicode="&#x2c7;" horiz-adv-x="646" 
d="M446 721l-123 -149l-123 149l18 29q31 -17 57.5 -34t47.5 -31q21 14 47 31t58 34z" />
    <glyph glyph-name="cedilla" unicode="&#xb8;" horiz-adv-x="564" 
d="M306 -135q0 21 -14 30.5t-31 12.5q-21 3 -21 20q0 6 3 12l39 64l51 4l-39 -65q32 -11 51 -38t19 -60q0 -20 -7.5 -39t-21.5 -33t-33 -22.5t-41 -8.5q-17 0 -33 5.5t-28 14.5l39 64q9 -6 22 -6q17 0 31 12.5t14 32.5z" />
    <glyph glyph-name="dotaccent" unicode="&#x2d9;" horiz-adv-x="510" 
d="M200 643q0 23 16 39t39 16t39 -16t16 -39t-16 -39t-39 -16t-39 16t-16 39z" />
    <glyph glyph-name="hungarumlaut" unicode="&#x2dd;" horiz-adv-x="694" 
d="M200 609q16 8 26.5 32t17.5 50q8 31 13 67l90 -16q-3 -23 -16.5 -50t-32.5 -51t-40 -41t-40 -20zM347 609q16 8 26.5 32t17.5 50q8 31 13 67l90 -16q-3 -23 -16.5 -50t-32.5 -51t-40 -41t-40 -20z" />
    <glyph glyph-name="grave" unicode="`" horiz-adv-x="620" 
d="M402 580q-55 9 -106.5 36.5t-95.5 71.5l67 66q17 -25 40 -51q20 -22 48 -47.5t65 -46.5z" />
    <glyph glyph-name="ogonek" unicode="&#x2db;" horiz-adv-x="565" 
d="M349 0q-22 -17 -40 -37q-15 -17 -27.5 -40.5t-12.5 -50.5q0 -21 9.5 -32.5t22.5 -11.5q8 0 14 4q3 2 5 4l45 -74q-12 -9 -28 -14.5t-33 -5.5q-23 0 -42 8.5t-32.5 22.5t-21.5 33t-8 39q0 32 14.5 60.5t32 50t32 33.5t13.5 11h57z" />
    <glyph glyph-name="ring" unicode="&#x2da;" horiz-adv-x="588" 
d="M200 665q0 19 7.5 36t20 29.5t29.5 20t37 7.5q19 0 36.5 -7.5t30 -20t20 -29.5t7.5 -36t-7.5 -36t-20 -29.5t-30 -20t-36.5 -7.5q-20 0 -37 7.5t-29.5 20t-20 29.5t-7.5 36zM259 665q0 -14 10.5 -24.5t24.5 -10.5t24.5 10.5t10.5 24.5t-10.5 24.5t-24.5 10.5t-24.5 -10.5
t-10.5 -24.5z" />
    <glyph glyph-name="tilde" unicode="&#x2dc;" horiz-adv-x="794" 
d="M594 724q-1 -18 -7.5 -41t-19.5 -44t-33.5 -35t-50.5 -14q-20 0 -45 10t-49.5 22t-47.5 22t-40 10t-28 -6t-17.5 -15t-9.5 -18.5t-4 -16.5h-42q1 18 7.5 41t19.5 44t33.5 35t50.5 14q21 0 45.5 -10t49.5 -22t47.5 -22t39.5 -10t28 6t17.5 15t9.5 18.5t4 16.5h42z" />
    <glyph glyph-name="zerosuperior" unicode="&#x2070;" horiz-adv-x="503" 
d="M179 510q0 -42 19 -71.5t53 -29.5q33 0 53 29.5t20 71.5q0 43 -20 72.5t-53 29.5q-34 0 -53 -29.5t-19 -72.5zM100 510q0 37 12 69.5t32 56.5t47.5 38t59.5 14q31 0 59 -14t48.5 -38t32.5 -56.5t12 -69.5t-12 -69t-32.5 -56t-48.5 -38t-59 -14q-32 0 -59.5 14t-47.5 38
t-32 56t-12 69z" />
    <glyph glyph-name="onesuperior" unicode="&#xb9;" horiz-adv-x="347" 
d="M114 680h133v-339h-79v263h-68z" />
    <glyph glyph-name="twosuperior" unicode="&#xb2;" horiz-adv-x="408" 
d="M198 506q14 26 23 44t9 30q0 14 -9.5 23t-26.5 9q-13 0 -22.5 -2.5t-16.5 -4.5q-8 -4 -13 -7l-42 58q18 15 47.5 23.5t57.5 8.5q46 0 74.5 -27.5t28.5 -69.5q0 -20 -10.5 -41.5t-18.5 -38.5q-11 -20 -19 -37t-15 -30q-8 -15 -14 -27h77l-8 -76h-190z" />
    <glyph glyph-name="threesuperior" unicode="&#xb3;" horiz-adv-x="417" 
d="M205 688q21 0 39.5 -8t32 -21.5t21.5 -32t8 -39.5q0 -22 -9 -39.5t-23 -31.5q20 -14 31.5 -34.5t11.5 -46.5q0 -21 -8.5 -39.5t-22.5 -32.5t-33.5 -22t-41.5 -8q-24 0 -44 7.5t-35 16.5q-18 11 -32 25l46 45q8 -6 17 -10q8 -4 17 -6.5t18 -2.5q19 0 30 11.5t11 28.5
t-11 29t-31 12h-37l7 55h24q15 0 26 9.5t11 24.5q0 14 -9 24.5t-26 10.5q-8 0 -16 -2.5t-15 -5.5q-8 -4 -15 -7l-37 57q13 9 28 16q13 6 30 11.5t37 5.5z" />
    <glyph glyph-name="foursuperior" unicode="&#x2074;" horiz-adv-x="458" 
d="M244 680h74v-219h40l-8 -55h-32v-65h-74v65h-144v55zM244 461v118l-78 -118h78z" />
    <glyph glyph-name="fivesuperior" unicode="&#x2075;" horiz-adv-x="417" 
d="M238 453q0 21 -20.5 32.5t-74.5 11.5l23 183h139l-8 -71h-62l-7 -62q47 -8 68 -37.5t21 -64.5q0 -23 -8.5 -43.5t-23.5 -35.5t-35.5 -24t-44.5 -9q-23 0 -42.5 7.5t-33.5 16.5q-17 11 -29 24l46 45q5 -5 12 -9q6 -3 15 -5.5t21 -2.5q17 0 30.5 12t13.5 32z" />
    <glyph glyph-name="sixsuperior" unicode="&#x2076;" horiz-adv-x="408" 
d="M100 440q0 19 5 35.5t13 30.5l90 174h78l-87 -161q6 8 12 14q5 5 10 9.5t7 4.5q15 0 29 -8.5t25.5 -22.5t18.5 -34t7 -42t-8 -41.5t-22 -34t-33 -23t-41 -8.5t-41 8.5t-33 23t-22 34t-8 41.5zM174 446q0 -17 8.5 -28.5t21.5 -11.5t21.5 11.5t8.5 28.5t-8.5 29t-21.5 12
t-21.5 -12t-8.5 -29z" />
    <glyph glyph-name="sevensuperior" unicode="&#x2077;" horiz-adv-x="410" 
d="M119 341l88 263h-107l9 76h201l-113 -339h-78z" />
    <glyph glyph-name="eightsuperior" unicode="&#x2078;" horiz-adv-x="415" 
d="M315 439q0 -22 -8.5 -41.5t-23 -33.5t-34 -22.5t-42.5 -8.5t-42.5 8.5t-34 22.5t-22.5 33.5t-8 41.5q0 32 17 53t39 35q-16 13 -28 30.5t-12 43.5q0 37 26 62t65 25q40 0 65.5 -25t25.5 -62q0 -26 -11.5 -43.5t-27.5 -30.5q22 -14 39 -35t17 -53zM173 439q0 -37 34 -37
q16 0 25.5 10t9.5 27q0 15 -9.5 27.5t-25.5 17.5q-15 -5 -24.5 -17.5t-9.5 -27.5zM207 624q-25 0 -25 -28q0 -11 7 -21.5t18 -16.5q11 6 18.5 16.5t7.5 21.5q0 28 -26 28z" />
    <glyph glyph-name="ninesuperior" unicode="&#x2079;" horiz-adv-x="408" 
d="M308 581q0 -19 -5 -35.5t-13 -30.5l-90 -174h-78l87 161l-12 -14q-5 -5 -10 -9.5t-7 -4.5q-15 0 -29 8.5t-25.5 22.5t-18.5 33.5t-7 42.5q0 22 8 41.5t22 34t33 23t41 8.5t41 -8.5t33 -23t22 -34t8 -41.5zM234 575q0 17 -8.5 28.5t-21.5 11.5t-21.5 -11.5t-8.5 -28.5
t8.5 -29t21.5 -12t21.5 12t8.5 29z" />
    <glyph glyph-name="parenleftsuperior" unicode="&#x207d;" horiz-adv-x="358" 
d="M258 297q-22 0 -49.5 8.5t-51.5 31.5t-40.5 65t-16.5 108t16.5 108t40.5 65t51.5 31.5t49.5 8.5l-12 -70q-34 -3 -50.5 -40.5t-16.5 -102.5t16.5 -102.5t50.5 -40.5z" />
    <glyph glyph-name="parenrightsuperior" unicode="&#x207e;" horiz-adv-x="358" 
d="M112 367q34 3 50.5 40.5t16.5 102.5t-16.5 102.5t-50.5 40.5l-12 70q22 0 49.5 -8.5t51.5 -31.5t40.5 -65t16.5 -108t-16.5 -108t-40.5 -65t-51.5 -31.5t-49.5 -8.5z" />
    <glyph glyph-name="zeroinferior" unicode="&#x2080;" horiz-adv-x="503" 
d="M179 169q0 -42 19 -71.5t53 -29.5q33 0 53 29.5t20 71.5q0 43 -20 72.5t-53 29.5q-34 0 -53 -29.5t-19 -72.5zM100 169q0 37 12 69.5t32 56.5t47.5 38t59.5 14q31 0 59 -14t48.5 -38t32.5 -56.5t12 -69.5t-12 -69t-32.5 -56t-48.5 -38t-59 -14q-32 0 -59.5 14t-47.5 38
t-32 56t-12 69z" />
    <glyph glyph-name="oneinferior" unicode="&#x2081;" horiz-adv-x="347" 
d="M114 339h133v-339h-79v263h-68z" />
    <glyph glyph-name="twoinferior" unicode="&#x2082;" horiz-adv-x="408" 
d="M198 165q14 26 23 44t9 30q0 14 -9.5 23t-26.5 9q-13 0 -22.5 -2.5t-16.5 -4.5q-8 -4 -13 -7l-42 58q18 15 47.5 23.5t57.5 8.5q46 0 74.5 -27.5t28.5 -69.5q0 -20 -10.5 -41.5t-18.5 -38.5q-11 -20 -19 -37t-15 -30q-8 -15 -14 -27h77l-8 -76h-190z" />
    <glyph glyph-name="threeinferior" unicode="&#x2083;" horiz-adv-x="417" 
d="M205 347q21 0 39.5 -8t32 -21.5t21.5 -32t8 -39.5q0 -22 -9 -39.5t-23 -31.5q20 -14 31.5 -34.5t11.5 -46.5q0 -21 -8.5 -39.5t-22.5 -32.5t-33.5 -22t-41.5 -8q-24 0 -44 7.5t-35 16.5q-18 11 -32 25l46 45q8 -6 17 -10q8 -4 17 -6.5t18 -2.5q19 0 30 11.5t11 28.5
t-11 29t-31 12h-37l7 55h24q15 0 26 9.5t11 24.5q0 14 -9 24.5t-26 10.5q-8 0 -16 -2.5t-15 -5.5q-8 -4 -15 -7l-37 57q13 9 28 16q13 6 30 11.5t37 5.5z" />
    <glyph glyph-name="fourinferior" unicode="&#x2084;" horiz-adv-x="458" 
d="M244 339h74v-219h40l-8 -55h-32v-65h-74v65h-144v55zM244 120v118l-78 -118h78z" />
    <glyph glyph-name="fiveinferior" unicode="&#x2085;" horiz-adv-x="417" 
d="M238 112q0 21 -20.5 32.5t-74.5 11.5l23 183h139l-8 -71h-62l-7 -62q47 -8 68 -37.5t21 -64.5q0 -23 -8.5 -43.5t-23.5 -35.5t-35.5 -24t-44.5 -9q-23 0 -42.5 7.5t-33.5 16.5q-17 11 -29 24l46 45q5 -5 12 -9q6 -3 15 -5.5t21 -2.5q17 0 30.5 12t13.5 32z" />
    <glyph glyph-name="sixinferior" unicode="&#x2086;" horiz-adv-x="408" 
d="M100 99q0 19 5 35.5t13 30.5l90 174h78l-87 -161q6 8 12 14q5 5 10 9.5t7 4.5q15 0 29 -8.5t25.5 -22.5t18.5 -34t7 -42t-8 -41.5t-22 -34t-33 -23t-41 -8.5t-41 8.5t-33 23t-22 34t-8 41.5zM174 105q0 -17 8.5 -28.5t21.5 -11.5t21.5 11.5t8.5 28.5t-8.5 29t-21.5 12
t-21.5 -12t-8.5 -29z" />
    <glyph glyph-name="seveninferior" unicode="&#x2087;" horiz-adv-x="410" 
d="M119 0l88 263h-107l9 76h201l-113 -339h-78z" />
    <glyph glyph-name="eightinferior" unicode="&#x2088;" horiz-adv-x="415" 
d="M315 98q0 -22 -8.5 -41.5t-23 -33.5t-34 -22.5t-42.5 -8.5t-42.5 8.5t-34 22.5t-22.5 33.5t-8 41.5q0 32 17 53t39 35q-16 13 -28 30.5t-12 43.5q0 37 26 62t65 25q40 0 65.5 -25t25.5 -62q0 -26 -11.5 -43.5t-27.5 -30.5q22 -14 39 -35t17 -53zM173 98q0 -37 34 -37
q16 0 25.5 10t9.5 27q0 15 -9.5 27.5t-25.5 17.5q-15 -5 -24.5 -17.5t-9.5 -27.5zM207 283q-25 0 -25 -28q0 -11 7 -21.5t18 -16.5q11 6 18.5 16.5t7.5 21.5q0 28 -26 28z" />
    <glyph glyph-name="nineinferior" unicode="&#x2089;" horiz-adv-x="408" 
d="M308 240q0 -19 -5 -35.5t-13 -30.5l-90 -174h-78l87 161l-12 -14q-5 -5 -10 -9.5t-7 -4.5q-15 0 -29 8.5t-25.5 22.5t-18.5 33.5t-7 42.5q0 22 8 41.5t22 34t33 23t41 8.5t41 -8.5t33 -23t22 -34t8 -41.5zM234 234q0 17 -8.5 28.5t-21.5 11.5t-21.5 -11.5t-8.5 -28.5
t8.5 -29t21.5 -12t21.5 12t8.5 29z" />
    <glyph glyph-name="parenleftinferior" unicode="&#x208d;" horiz-adv-x="358" 
d="M258 -44q-22 0 -49.5 8.5t-51.5 31.5t-40.5 65t-16.5 108t16.5 108t40.5 65t51.5 31.5t49.5 8.5l-12 -70q-34 -3 -50.5 -40.5t-16.5 -102.5t16.5 -102.5t50.5 -40.5z" />
    <glyph glyph-name="parenrightinferior" unicode="&#x208e;" horiz-adv-x="358" 
d="M112 26q34 3 50.5 40.5t16.5 102.5t-16.5 102.5t-50.5 40.5l-12 70q22 0 49.5 -8.5t51.5 -31.5t40.5 -65t16.5 -108t-16.5 -108t-40.5 -65t-51.5 -31.5t-49.5 -8.5z" />
    <glyph glyph-name="notequal" unicode="&#x2260;" 
d="M100 399h254l37 109h99l-37 -109h155v-86h-185l-34 -102h219v-86h-249l-42 -125h-99l42 125h-160v86h190l34 102h-224v86z" />
    <glyph glyph-name="guillemotright" unicode="&#xbb;" horiz-adv-x="918" 
d="M818 219l-359 -219v104l257 157l-257 146v101l359 -203v-86zM459 219l-359 -219v104l257 157l-257 146v101l359 -203v-86z" />
    <glyph glyph-name="guilsinglleft" unicode="&#x2039;" horiz-adv-x="609" 
d="M100 305l409 203v-98l-301 -149l301 -154v-107l-409 219v86z" />
    <glyph glyph-name="guilsinglright" unicode="&#x203a;" horiz-adv-x="609" 
d="M509 219l-409 -219v107l301 154l-301 149v98l409 -203v-86z" />
    <glyph glyph-name="ordmasculine" unicode="&#xba;" horiz-adv-x="599" 
d="M100 580q0 37 14 69.5t38 56.5t56.5 38t69.5 14q45 0 86 -22l31 22l104 -16l-74 -61q15 -22 23.5 -47.5t8.5 -53.5q0 -37 -14 -69t-38.5 -56t-57 -38t-69.5 -14t-69.5 14t-56.5 38t-38 56t-14 69zM184 580q0 -21 7.5 -39t20 -32t30 -22t37.5 -8q19 0 36.5 8t30 22t20 32
t7.5 39t-7.5 39.5t-20 32.5t-30 22t-36.5 8q-20 0 -37.5 -8t-30 -22t-20 -32.5t-7.5 -39.5z" />
    <glyph glyph-name="registered" unicode="&#xae;" horiz-adv-x="852" 
d="M70 410q0 72 28 135.5t76 110.5t113 74.5t139 27.5t139 -27.5t113 -74.5t76 -110.5t28 -135.5t-28 -135.5t-76 -110.5t-113 -74.5t-139 -27.5t-139 27.5t-113 74.5t-76 110.5t-28 135.5zM426 672q-53 0 -100.5 -21t-83.5 -57t-57 -83.5t-21 -100.5t21 -100.5t57 -83.5
t83.5 -57t100.5 -21t100.5 21t83.5 57t57 83.5t21 100.5t-21 100.5t-57 83.5t-83.5 57t-100.5 21zM376 242h-84v336h144q21 0 46.5 -3t47.5 -14.5t36.5 -33.5t14.5 -60q0 -45 -19.5 -67.5t-46.5 -32.5l62 -117l-85 -16l-63 122h-53v-114zM376 428h60q25 0 43 6.5t18 32.5
q0 25 -16 30t-45 5h-60v-74z" />
    <glyph glyph-name="perthousand" unicode="&#x2030;" horiz-adv-x="1344" 
d="M561 680h99l-232 -680h-99zM184 510q0 -42 19 -71.5t53 -29.5q33 0 53 29.5t20 71.5q0 43 -20 72.5t-53 29.5q-34 0 -53 -29.5t-19 -72.5zM100 510q0 37 12 69.5t33 56.5t49.5 38t61.5 14t61.5 -14t49.5 -38t33.5 -56.5t12.5 -69.5t-12.5 -69t-33.5 -56t-49.5 -38
t-61.5 -14t-61.5 14t-49.5 38t-33 56t-12 69zM660 169q0 -42 19 -71.5t53 -29.5q33 0 53 29.5t20 71.5q0 43 -20 72.5t-53 29.5q-34 0 -53 -29.5t-19 -72.5zM576 169q0 37 12 69.5t33 56.5t49.5 38t61.5 14t61.5 -14t49.5 -38t33.5 -56.5t12.5 -69.5t-12.5 -69t-33.5 -56
t-49.5 -38t-61.5 -14t-61.5 14t-49.5 38t-33 56t-12 69zM1015 169q0 -42 19 -71.5t53 -29.5q33 0 53 29.5t20 71.5q0 43 -20 72.5t-53 29.5q-34 0 -53 -29.5t-19 -72.5zM931 169q0 37 12 69.5t33 56.5t49.5 38t61.5 14t61.5 -14t49.5 -38t33.5 -56.5t12.5 -69.5t-12.5 -69
t-33.5 -56t-49.5 -38t-61.5 -14t-61.5 14t-49.5 38t-33 56t-12 69z" />
    <glyph glyph-name="Thorn" unicode="&#xde;" horiz-adv-x="585" 
d="M326 586q46 0 86 -17.5t69.5 -47.5t46.5 -70.5t17 -86.5t-17 -85.5t-46.5 -68.5t-69.5 -45.5t-86 -16.5h-125v-148l-101 -8v688h101v-94h125zM306 236q26 0 51 7t44 22.5t30.5 39.5t11.5 59q0 34 -11.5 58.5t-30.5 40t-44 22.5t-51 7h-105v-256h105z" />
    <glyph glyph-name="thorn" unicode="&#xfe;" horiz-adv-x="716" 
d="M616 258q0 -53 -21.5 -101t-58.5 -85t-85 -58.5t-101 -21.5q-23 0 -47 7t-45.5 18.5t-38 27t-25.5 33.5v-336l-94 8v1000l94 8v-328q9 21 26.5 37t39.5 27t45.5 16.5t44.5 5.5q53 0 101 -20.5t85 -56t58.5 -82.5t21.5 -99zM522 258q0 35 -13.5 66t-37 54.5t-55 37.5
t-66.5 14q-32 0 -62 -14t-52.5 -37.5t-36 -54.5t-13.5 -66q0 -38 13.5 -71t36 -57t52.5 -38t62 -14q35 0 66.5 14t55 38t37 57t13.5 71z" />
    <glyph glyph-name="dotlessi" unicode="&#x131;" horiz-adv-x="284" 
d="M194 508v-508h-94v508h94z" />
    <glyph glyph-name="acute" unicode="&#xb4;" horiz-adv-x="620" 
d="M200 609q37 21 65 46.5t48 47.5q23 26 40 51l67 -66q-44 -44 -95.5 -71.5t-106.5 -36.5z" />
    <glyph glyph-name="circumflex" unicode="&#x2c6;" horiz-adv-x="646" 
d="M428 580q-32 17 -58 33.5t-47 31.5q-21 -15 -47.5 -31.5t-57.5 -33.5l-18 29l123 149l123 -149z" />
    <glyph glyph-name="dieresis" unicode="&#xa8;" horiz-adv-x="704" 
d="M200 643q0 23 16 39t39 16t39 -16t16 -39t-16 -39t-39 -16t-39 16t-16 39zM394 643q0 23 16 39t39 16t39 -16t16 -39t-16 -39t-39 -16t-39 16t-16 39z" />
    <glyph glyph-name="AE" unicode="&#xc6;" horiz-adv-x="834" 
d="M456 586v-195h265v-94h-265v-203h328l-16 -94h-414v152h-161l-71 -160l-102 16l303 672h445v-94h-312zM354 246v266l-119 -266h119z" />
    <glyph glyph-name="OE" unicode="&#x152;" horiz-adv-x="956" 
d="M578 586v-195h265v-94h-265v-203h328l-16 -94h-414q-37 -8 -72 -8q-71 0 -133.5 28t-109 75.5t-74 110.5t-27.5 134q0 72 27.5 135.5t74 110.5t109 74.5t133.5 27.5q34 0 72 -8h414v-94h-312zM404 86q36 0 72 11v485q-35 12 -72 12q-50 0 -94 -20t-77 -54.5t-52 -81
t-19 -98.5q0 -53 19 -99t52 -80.5t77 -54.5t94 -20z" />
    <glyph glyph-name="oe" unicode="&#x153;" horiz-adv-x="1012" 
d="M312 516q63 0 118.5 -30t92.5 -79q34 49 87.5 79t118.5 30q58 0 104 -22t78 -60.5t49 -91.5t17 -115h-405q5 -33 20.5 -60t37 -47t48.5 -31t56 -11q42 0 72 15.5t53 39.5l63 -63q-35 -35 -82 -56.5t-106 -21.5q-64 0 -118.5 31t-90.5 82q-36 -51 -92 -82t-121 -31
q-53 0 -100.5 21t-83.5 57t-57 83.5t-21 100.5t21 100.5t57 83.5t83.5 57t100.5 21zM148 254q0 -36 13 -68t35 -56t52 -38t64 -14t64 14t52 38t35 56t13 68t-13 68t-35 56t-52 38t-64 14t-64 -14t-52 -38t-35 -56t-13 -68zM734 430q-27 0 -52 -9.5t-46 -26.5t-36.5 -39.5
t-22.5 -49.5h300q-13 54 -51 89.5t-92 35.5z" />
    <glyph glyph-name="nsuperior" unicode="&#x207f;" horiz-adv-x="468" 
d="M253 758q43 0 66.5 -14.5t34 -38.5t12.5 -54.5t2 -62.5v-180h-84v162q0 25 -1 45.5t-5.5 35.5t-14 23t-27.5 8q-14 0 -27 -4.5t-24 -10.5t-19 -12.5t-12 -10.5v-236h-84v345l80 5l4 -47q17 20 46 33.5t53 13.5z" />
    <glyph glyph-name="Eng" unicode="&#x14a;" horiz-adv-x="767" 
d="M657 680v-672q0 -53 -7 -101.5t-28 -85t-59.5 -58t-101.5 -21.5q-54 0 -94.5 21t-69.5 56l70 70q11 -23 35 -38t59 -15q33 0 51.5 12.5t28 36t12 56.5t2.5 74l-351 500v-515h-94v672l94 16l351 -500v492h102z" />
    <glyph glyph-name="eng" unicode="&#x14b;" horiz-adv-x="601" 
d="M367 516q63 0 97.5 -21.5t50.5 -57t18.5 -80.5t2.5 -92v-265q0 -46 -3 -92t-20 -83t-53.5 -60t-103.5 -23q-14 0 -25.5 1t-19.5 3q-10 2 -17 4l47 79q2 -1 5 -1h10q21 0 37.5 4.5t27 18t16 38t5.5 65.5v311q0 37 -1.5 67t-9.5 52t-25.5 34t-50.5 12q-36 0 -66.5 -10
t-54 -22.5t-39 -25t-21.5 -17.5v-355h-94v508l87 8l7 -90q12 15 33 30.5t47 29t55 22t58 8.5z" />
    <glyph glyph-name="estimated" unicode="&#x212e;" horiz-adv-x="724" 
d="M362 55q30 0 54.5 7.5t44 20t33.5 27.5t22 30h80q-11 -23 -31.5 -49t-50 -48t-68 -36.5t-84.5 -14.5q-53 0 -100.5 21t-83.5 57t-57 83.5t-21 100.5t21 100.5t57 83.5t83.5 57t100.5 21t100.5 -21t83.5 -57t57 -83.5t21 -100.5v-13.5t-1 -13.5h-395v-115q14 -17 33 -29
q17 -11 42 -19.5t59 -8.5zM362 453q-35 0 -59.5 -9t-41.5 -20q-19 -13 -33 -29v-110h268v110q-14 16 -33 29q-17 11 -42 20t-59 9z" />
    <glyph glyph-name="partialdiff" unicode="&#x2202;" horiz-adv-x="684" 
d="M209 742q23 8 47 12t50 4q57 0 108 -30t88.5 -82t59.5 -122t22 -149t-19 -149t-52 -122t-77 -82t-94 -30q-53 0 -97.5 21t-76.5 57t-50 83.5t-18 100.5t18 100.5t50 83.5t76.5 57t97.5 21q49 0 86.5 -24.5t58.5 -61.5q-6 52 -22.5 96t-40.5 76.5t-54 51t-64 18.5
q-27 0 -51 -6zM342 430q-34 0 -61.5 -14t-46.5 -38t-29.5 -56t-10.5 -68t10.5 -68t29.5 -56t46.5 -38t61.5 -14q26 0 49.5 16.5t42 46.5t32 71t19.5 89q-11 56 -48.5 92.5t-94.5 36.5z" />
    <glyph glyph-name="uni00AD" unicode="&#xad;" horiz-adv-x="609" 
d="M100 304h409v-86h-409v86z" />
    <glyph glyph-name="periodcentered" horiz-adv-x="313" 
d="M100 261q0 23 16.5 40t39.5 17t40 -17t17 -40t-17 -39.5t-40 -16.5t-39.5 16.5t-16.5 39.5z" />
    <glyph glyph-name="onehalf" unicode="&#xbd;" horiz-adv-x="876" 
d="M479 680h99l-232 -680h-99zM666 165q14 26 23 44t9 30q0 14 -9.5 23t-26.5 9q-13 0 -22.5 -2.5t-16.5 -4.5q-8 -4 -13 -7l-42 58q18 15 47.5 23.5t57.5 8.5q46 0 74.5 -27.5t28.5 -69.5q0 -20 -10.5 -41.5t-18.5 -38.5q-11 -20 -19 -37t-15 -30q-8 -15 -14 -27h77l-8 -76
h-190zM114 680h133v-339h-79v263h-68z" />
    <glyph glyph-name="onethird" unicode="&#x2153;" horiz-adv-x="894" 
d="M479 680h99l-232 -680h-99zM682 347q21 0 39.5 -8t32 -21.5t21.5 -32t8 -39.5q0 -22 -9 -39.5t-23 -31.5q20 -14 31.5 -34.5t11.5 -46.5q0 -21 -8.5 -39.5t-22.5 -32.5t-33.5 -22t-41.5 -8q-24 0 -44 7.5t-35 16.5q-18 11 -32 25l46 45q8 -6 17 -10q8 -4 17 -6.5t18 -2.5
q19 0 30 11.5t11 28.5t-11 29t-31 12h-37l7 55h24q15 0 26 9.5t11 24.5q0 14 -9 24.5t-26 10.5q-8 0 -16 -2.5t-15 -5.5q-8 -4 -15 -7l-37 57q13 9 28 16q13 6 30 11.5t37 5.5zM114 680h133v-339h-79v263h-68z" />
    <glyph glyph-name="onequarter" unicode="&#xbc;" horiz-adv-x="906" 
d="M479 680h99l-232 -680h-99zM692 339h74v-219h40l-8 -55h-32v-65h-74v65h-144v55zM114 680h133v-339h-79v263h-68zM692 120v118l-78 -118h78z" />
    <glyph glyph-name="oneeighth" unicode="&#x215b;" horiz-adv-x="880" 
d="M479 680h99l-232 -680h-99zM780 98q0 -22 -8.5 -41.5t-23 -33.5t-34 -22.5t-42.5 -8.5t-42.5 8.5t-34 22.5t-22.5 33.5t-8 41.5q0 32 17 53t39 35q-16 13 -28 30.5t-12 43.5q0 37 26 62t65 25q40 0 65.5 -25t25.5 -62q0 -26 -11.5 -43.5t-27.5 -30.5q22 -14 39 -35
t17 -53zM114 680h133v-339h-79v263h-68zM638 98q0 -37 34 -37q16 0 25.5 10t9.5 27q0 15 -9.5 27.5t-25.5 17.5q-15 -5 -24.5 -17.5t-9.5 -27.5zM672 283q-25 0 -25 -28q0 -11 7 -21.5t18 -16.5q11 6 18.5 16.5t7.5 21.5q0 28 -26 28z" />
    <glyph glyph-name="twothirds" unicode="&#x2154;" horiz-adv-x="934" 
d="M532 680h99l-232 -680h-99zM722 347q21 0 39.5 -8t32 -21.5t21.5 -32t8 -39.5q0 -22 -9 -39.5t-23 -31.5q20 -14 31.5 -34.5t11.5 -46.5q0 -21 -8.5 -39.5t-22.5 -32.5t-33.5 -22t-41.5 -8q-24 0 -44 7.5t-35 16.5q-18 11 -32 25l46 45q8 -6 17 -10q8 -4 17 -6.5t18 -2.5
q19 0 30 11.5t11 28.5t-11 29t-31 12h-37l7 55h24q15 0 26 9.5t11 24.5q0 14 -9 24.5t-26 10.5q-8 0 -16 -2.5t-15 -5.5q-8 -4 -15 -7l-37 57q13 9 28 16q13 6 30 11.5t37 5.5zM198 506q14 26 23 44t9 30q0 14 -9.5 23t-26.5 9q-13 0 -22.5 -2.5t-16.5 -4.5q-8 -4 -13 -7
l-42 58q18 15 47.5 23.5t57.5 8.5q46 0 74.5 -27.5t28.5 -69.5q0 -20 -10.5 -41.5t-18.5 -38.5q-11 -20 -19 -37t-15 -30q-8 -15 -14 -27h77l-8 -76h-190z" />
    <glyph glyph-name="threequarters" unicode="&#xbe;" horiz-adv-x="989" 
d="M562 680h99l-232 -680h-99zM775 339h74v-219h40l-8 -55h-32v-65h-74v65h-144v55zM775 120v118l-78 -118h78zM205 688q21 0 39.5 -8t32 -21.5t21.5 -32t8 -39.5q0 -22 -9 -39.5t-23 -31.5q20 -14 31.5 -34.5t11.5 -46.5q0 -21 -8.5 -39.5t-22.5 -32.5t-33.5 -22t-41.5 -8
q-24 0 -44 7.5t-35 16.5q-18 11 -32 25l46 45q8 -6 17 -10q8 -4 17 -6.5t18 -2.5q19 0 30 11.5t11 28.5t-11 29t-31 12h-37l7 55h24q15 0 26 9.5t11 24.5q0 14 -9 24.5t-26 10.5q-8 0 -16 -2.5t-15 -5.5q-8 -4 -15 -7l-37 57q13 9 28 16q13 6 30 11.5t37 5.5z" />
    <glyph glyph-name="threeeighths" unicode="&#x215c;" horiz-adv-x="982" 
d="M562 680h99l-232 -680h-99zM205 688q21 0 39.5 -8t32 -21.5t21.5 -32t8 -39.5q0 -22 -9 -39.5t-23 -31.5q20 -14 31.5 -34.5t11.5 -46.5q0 -21 -8.5 -39.5t-22.5 -32.5t-33.5 -22t-41.5 -8q-24 0 -44 7.5t-35 16.5q-18 11 -32 25l46 45q8 -6 17 -10q8 -4 17 -6.5t18 -2.5
q19 0 30 11.5t11 28.5t-11 29t-31 12h-37l7 55h24q15 0 26 9.5t11 24.5q0 14 -9 24.5t-26 10.5q-8 0 -16 -2.5t-15 -5.5q-8 -4 -15 -7l-37 57q13 9 28 16q13 6 30 11.5t37 5.5zM882 98q0 -22 -8.5 -41.5t-23 -33.5t-34 -22.5t-42.5 -8.5t-42.5 8.5t-34 22.5t-22.5 33.5
t-8 41.5q0 32 17 53t39 35q-16 13 -28 30.5t-12 43.5q0 37 26 62t65 25q40 0 65.5 -25t25.5 -62q0 -26 -11.5 -43.5t-27.5 -30.5q22 -14 39 -35t17 -53zM740 98q0 -37 34 -37q16 0 25.5 10t9.5 27q0 15 -9.5 27.5t-25.5 17.5q-15 -5 -24.5 -17.5t-9.5 -27.5zM774 283
q-25 0 -25 -28q0 -11 7 -21.5t18 -16.5q11 6 18.5 16.5t7.5 21.5q0 28 -26 28z" />
    <glyph glyph-name="fiveeighths" unicode="&#x215d;" horiz-adv-x="982" 
d="M562 680h99l-232 -680h-99zM238 453q0 21 -20.5 32.5t-74.5 11.5l23 183h139l-8 -71h-62l-7 -62q47 -8 68 -37.5t21 -64.5q0 -23 -8.5 -43.5t-23.5 -35.5t-35.5 -24t-44.5 -9q-23 0 -42.5 7.5t-33.5 16.5q-17 11 -29 24l46 45q5 -5 12 -9q6 -3 15 -5.5t21 -2.5
q17 0 30.5 12t13.5 32zM882 98q0 -22 -8.5 -41.5t-23 -33.5t-34 -22.5t-42.5 -8.5t-42.5 8.5t-34 22.5t-22.5 33.5t-8 41.5q0 32 17 53t39 35q-16 13 -28 30.5t-12 43.5q0 37 26 62t65 25q40 0 65.5 -25t25.5 -62q0 -26 -11.5 -43.5t-27.5 -30.5q22 -14 39 -35t17 -53z
M740 98q0 -37 34 -37q16 0 25.5 10t9.5 27q0 15 -9.5 27.5t-25.5 17.5q-15 -5 -24.5 -17.5t-9.5 -27.5zM774 283q-25 0 -25 -28q0 -11 7 -21.5t18 -16.5q11 6 18.5 16.5t7.5 21.5q0 28 -26 28z" />
    <glyph glyph-name="seveneighths" unicode="&#x215e;" horiz-adv-x="932" 
d="M512 680h99l-232 -680h-99zM832 98q0 -22 -8.5 -41.5t-23 -33.5t-34 -22.5t-42.5 -8.5t-42.5 8.5t-34 22.5t-22.5 33.5t-8 41.5q0 32 17 53t39 35q-16 13 -28 30.5t-12 43.5q0 37 26 62t65 25q40 0 65.5 -25t25.5 -62q0 -26 -11.5 -43.5t-27.5 -30.5q22 -14 39 -35
t17 -53zM690 98q0 -37 34 -37q16 0 25.5 10t9.5 27q0 15 -9.5 27.5t-25.5 17.5q-15 -5 -24.5 -17.5t-9.5 -27.5zM724 283q-25 0 -25 -28q0 -11 7 -21.5t18 -16.5q11 6 18.5 16.5t7.5 21.5q0 28 -26 28zM119 341l88 263h-107l9 76h201l-113 -339h-78z" />
    <glyph glyph-name="Aacute" unicode="&#xc1;" horiz-adv-x="703" 
d="M693 8l-104 -16l-71 160h-325l-71 -160l-102 16l303 672h67zM475 246l-121 266l-119 -266h240zM277 771q37 21 65 46.5t48 47.5q23 26 40 51l67 -66q-44 -44 -95.5 -71.5t-106.5 -36.5z" />
    <glyph glyph-name="Abreve" unicode="&#x102;" horiz-adv-x="703" 
d="M693 8l-104 -16l-71 160h-325l-71 -160l-102 16l303 672h67zM475 246l-121 266l-119 -266h240zM293 883q0 -26 6 -42t15 -25t20 -12.5t22 -3.5q10 0 21.5 3.5t20.5 12.5t15 25t6 42l39 11q2 -6 2.5 -17t0.5 -17q0 -52 -27 -85t-78 -33t-78 33t-27 85q0 6 0.5 17t2.5 17z
" />
    <glyph glyph-name="Acircumflex" unicode="&#xc2;" horiz-adv-x="703" 
d="M693 8l-104 -16l-71 160h-325l-71 -160l-102 16l303 672h67zM475 246l-121 266l-119 -266h240zM461 742q-32 17 -58 33.5t-47 31.5q-21 -15 -47.5 -31.5t-57.5 -33.5l-18 29l123 149l123 -149z" />
    <glyph glyph-name="Agrave" unicode="&#xc0;" horiz-adv-x="703" 
d="M693 8l-104 -16l-71 160h-325l-71 -160l-102 16l303 672h67zM475 246l-121 266l-119 -266h240zM448 742q-55 9 -106.5 36.5t-95.5 71.5l67 66q17 -25 40 -51q20 -22 48 -47.5t65 -46.5z" />
    <glyph glyph-name="Adieresis" unicode="&#xc4;" horiz-adv-x="703" 
d="M693 8l-104 -16l-71 160h-325l-71 -160l-102 16l303 672h67zM475 246l-121 266l-119 -266h240zM204 813q0 23 16 39t39 16t39 -16t16 -39t-16 -39t-39 -16t-39 16t-16 39zM398 813q0 23 16 39t39 16t39 -16t16 -39t-16 -39t-39 -16t-39 16t-16 39z" />
    <glyph glyph-name="Aogonek" unicode="&#x104;" horiz-adv-x="703" 
d="M693 8q-16 -11 -36 -27t-38 -34t-30 -37.5t-12 -37.5q0 -21 9.5 -32.5t22.5 -11.5q8 0 14 4q3 2 5 4l45 -74q-12 -9 -28 -14.5t-33 -5.5q-23 0 -42 8.5t-32.5 22.5t-21.5 33t-8 39q0 23 8.5 45t21.5 41.5t26.5 35t24.5 25.5l-71 160h-325l-71 -160l-102 16l303 672h67z
M475 246l-121 266l-119 -266h240z" />
    <glyph glyph-name="Aring" unicode="&#xc5;" horiz-adv-x="703" 
d="M693 8l-104 -16l-71 160h-325l-71 -160l-102 16l303 672h67zM475 246l-121 266l-119 -266h240zM262 835q0 19 7.5 36t20 29.5t29.5 20t37 7.5q19 0 36.5 -7.5t30 -20t20 -29.5t7.5 -36t-7.5 -36t-20 -29.5t-30 -20t-36.5 -7.5q-20 0 -37 7.5t-29.5 20t-20 29.5t-7.5 36z
M321 835q0 -14 10.5 -24.5t24.5 -10.5t24.5 10.5t10.5 24.5t-10.5 24.5t-24.5 10.5t-24.5 -10.5t-10.5 -24.5z" />
    <glyph glyph-name="Atilde" unicode="&#xc3;" horiz-adv-x="703" 
d="M693 8l-104 -16l-71 160h-325l-71 -160l-102 16l303 672h67zM475 246l-121 266l-119 -266h240zM553 884q-1 -18 -7.5 -41t-19.5 -44t-33.5 -35t-50.5 -14q-20 0 -45 10t-49.5 22t-47.5 22t-40 10t-28 -6t-17.5 -15t-9.5 -18.5t-4 -16.5h-42q1 18 7.5 41t19.5 44t33.5 35
t50.5 14q21 0 45.5 -10t49.5 -22t47.5 -22t39.5 -10t28 6t17.5 15t9.5 18.5t4 16.5h42z" />
    <glyph glyph-name="AEacute" unicode="&#x1fc;" horiz-adv-x="834" 
d="M456 586v-195h265v-94h-265v-203h328l-16 -94h-414v152h-161l-71 -160l-102 16l303 672h445v-94h-312zM354 246v266l-119 -266h119zM397 771q37 21 65 46.5t48 47.5q23 26 40 51l67 -66q-44 -44 -95.5 -71.5t-106.5 -36.5z" />
    <glyph glyph-name="Cacute" unicode="&#x106;" horiz-adv-x="683" 
d="M577 517q-33 35 -77.5 56t-95.5 21q-50 0 -94 -20t-77 -54.5t-52 -81t-19 -98.5q0 -53 19 -99t52 -80.5t77 -54.5t94 -20q51 0 95.5 20.5t77.5 56.5l69 -69q-48 -48 -109.5 -75t-132.5 -27t-133.5 27.5t-109 74t-74 109t-27.5 133.5q0 70 27.5 134t74 112.5t109 77
t133.5 28.5q72 0 134 -29.5t110 -78.5zM311 771q37 21 65 46.5t48 47.5q23 26 40 51l67 -66q-44 -44 -95.5 -71.5t-106.5 -36.5z" />
    <glyph glyph-name="Ccaron" unicode="&#x10c;" horiz-adv-x="683" 
d="M577 517q-33 35 -77.5 56t-95.5 21q-50 0 -94 -20t-77 -54.5t-52 -81t-19 -98.5q0 -53 19 -99t52 -80.5t77 -54.5t94 -20q51 0 95.5 20.5t77.5 56.5l69 -69q-48 -48 -109.5 -75t-132.5 -27t-133.5 27.5t-109 74t-74 109t-27.5 133.5q0 70 27.5 134t74 112.5t109 77
t133.5 28.5q72 0 134 -29.5t110 -78.5zM524 891l-123 -149l-123 149l18 29q31 -17 57.5 -34t47.5 -31q21 14 47 31t58 34z" />
    <glyph glyph-name="Ccedilla" unicode="&#xc7;" horiz-adv-x="683" 
d="M411 -135q0 21 -14 30.5t-31 12.5q-21 3 -21 20q0 6 3 12l32 53q-66 4 -124.5 33t-102 75.5t-68.5 106.5t-25 128q0 70 27.5 134t74 112.5t109 77t133.5 28.5q72 0 134 -29.5t110 -78.5l-71 -63q-33 35 -77.5 56t-95.5 21q-50 0 -94 -20t-77 -54.5t-52 -81t-19 -98.5
q0 -53 19 -99t52 -80.5t77 -54.5t94 -20q51 0 95.5 20.5t77.5 56.5l69 -69q-44 -44 -99 -70t-118 -31l-30 -50q32 -11 51 -38t19 -60q0 -20 -7.5 -39t-21.5 -33t-33 -22.5t-41 -8.5q-17 0 -33 5.5t-28 14.5l39 64q9 -6 22 -6q17 0 31 12.5t14 32.5z" />
    <glyph glyph-name="Ccircumflex" unicode="&#x108;" horiz-adv-x="683" 
d="M577 517q-33 35 -77.5 56t-95.5 21q-50 0 -94 -20t-77 -54.5t-52 -81t-19 -98.5q0 -53 19 -99t52 -80.5t77 -54.5t94 -20q51 0 95.5 20.5t77.5 56.5l69 -69q-48 -48 -109.5 -75t-132.5 -27t-133.5 27.5t-109 74t-74 109t-27.5 133.5q0 70 27.5 134t74 112.5t109 77
t133.5 28.5q72 0 134 -29.5t110 -78.5zM506 742q-32 17 -58 33.5t-47 31.5q-21 -15 -47.5 -31.5t-57.5 -33.5l-18 29l123 149l123 -149z" />
    <glyph glyph-name="Cdotaccent" unicode="&#x10a;" horiz-adv-x="683" 
d="M577 517q-33 35 -77.5 56t-95.5 21q-50 0 -94 -20t-77 -54.5t-52 -81t-19 -98.5q0 -53 19 -99t52 -80.5t77 -54.5t94 -20q51 0 95.5 20.5t77.5 56.5l69 -69q-48 -48 -109.5 -75t-132.5 -27t-133.5 27.5t-109 74t-74 109t-27.5 133.5q0 70 27.5 134t74 112.5t109 77
t133.5 28.5q72 0 134 -29.5t110 -78.5zM346 813q0 23 16 39t39 16t39 -16t16 -39t-16 -39t-39 -16t-39 16t-16 39z" />
    <glyph glyph-name="Dcaron" unicode="&#x10e;" horiz-adv-x="730" 
d="M327 680q79 0 142.5 -24t108 -68.5t68.5 -108t24 -142.5q0 -77 -24 -139t-68.5 -106t-108 -68t-142.5 -24h-227v680h227zM318 94q58 0 104.5 13.5t79 43t49.5 75.5t17 111q0 67 -20.5 114.5t-55 77.5t-80 43.5t-94.5 13.5h-116v-492h116zM468 891l-123 -149l-123 149
l18 29q31 -17 57.5 -34t47.5 -31q21 14 47 31t58 34z" />
    <glyph glyph-name="Eacute" unicode="&#xc9;" horiz-adv-x="580" 
d="M202 586v-195h265v-94h-265v-203h328l-16 -94h-414v680h414v-94h-312zM205 771q37 21 65 46.5t48 47.5q23 26 40 51l67 -66q-44 -44 -95.5 -71.5t-106.5 -36.5z" />
    <glyph glyph-name="Ebreve" unicode="&#x114;" horiz-adv-x="580" 
d="M202 586v-195h265v-94h-265v-203h328l-16 -94h-414v680h414v-94h-312zM246 883q0 -26 6 -42t15 -25t20 -12.5t22 -3.5q10 0 21.5 3.5t20.5 12.5t15 25t6 42l39 11q2 -6 2.5 -17t0.5 -17q0 -52 -27 -85t-78 -33t-78 33t-27 85q0 6 0.5 17t2.5 17z" />
    <glyph glyph-name="Ecaron" unicode="&#x11a;" horiz-adv-x="580" 
d="M202 586v-195h265v-94h-265v-203h328l-16 -94h-414v680h414v-94h-312zM431 891l-123 -149l-123 149l18 29q31 -17 57.5 -34t47.5 -31q21 14 47 31t58 34z" />
    <glyph glyph-name="Ecircumflex" unicode="&#xca;" horiz-adv-x="580" 
d="M202 586v-195h265v-94h-265v-203h328l-16 -94h-414v680h414v-94h-312zM407 742q-32 17 -58 33.5t-47 31.5q-21 -15 -47.5 -31.5t-57.5 -33.5l-18 29l123 149l123 -149z" />
    <glyph glyph-name="Edieresis" unicode="&#xcb;" horiz-adv-x="580" 
d="M202 586v-195h265v-94h-265v-203h328l-16 -94h-414v680h414v-94h-312zM154 813q0 23 16 39t39 16t39 -16t16 -39t-16 -39t-39 -16t-39 16t-16 39zM348 813q0 23 16 39t39 16t39 -16t16 -39t-16 -39t-39 -16t-39 16t-16 39z" />
    <glyph glyph-name="Edotaccent" unicode="&#x116;" horiz-adv-x="580" 
d="M202 586v-195h265v-94h-265v-203h328l-16 -94h-414v680h414v-94h-312zM258 808q0 21 14.5 35.5t35.5 14.5t35.5 -14.5t14.5 -35.5t-14.5 -35.5t-35.5 -14.5t-35.5 14.5t-14.5 35.5z" />
    <glyph glyph-name="Egrave" unicode="&#xc8;" horiz-adv-x="580" 
d="M202 586v-195h265v-94h-265v-203h328l-16 -94h-414v680h414v-94h-312zM362 742q-55 9 -106.5 36.5t-95.5 71.5l67 66q17 -25 40 -51q20 -22 48 -47.5t65 -46.5z" />
    <glyph glyph-name="Eogonek" unicode="&#x118;" horiz-adv-x="580" 
d="M514 0q-16 -12 -33 -26.5t-31 -30.5t-23 -32.5t-9 -32.5q0 -21 9.5 -32.5t22.5 -11.5q8 0 14 4q3 2 5 4l45 -74q-12 -9 -28 -14.5t-33 -5.5q-23 0 -42 8.5t-32.5 22.5t-21.5 33t-8 39q0 24 9 46.5t22 42t27.5 35t25.5 25.5h-333v680h414v-94h-312v-195h265v-94h-265v-203
h328l-16 -94v0z" />
    <glyph glyph-name="Gbreve" unicode="&#x11e;" horiz-adv-x="728" 
d="M338 883q0 -26 6 -42t15 -25t20 -12.5t22 -3.5q10 0 21.5 3.5t20.5 12.5t15 25t6 42l39 11q2 -6 2.5 -17t0.5 -17q0 -52 -27 -85t-78 -33t-78 33t-27 85q0 6 0.5 17t2.5 17zM404 594q-50 0 -94 -20t-77 -54.5t-52 -81t-19 -98.5q0 -53 19 -99t52 -80.5t77 -54.5t94 -20
q42 0 73.5 5.5t67.5 17.5v133h-131l16 94h217v-258q-21 -24 -49.5 -40t-60.5 -26.5t-66.5 -15t-66.5 -4.5q-70 0 -132.5 27.5t-109.5 74.5t-74.5 109.5t-27.5 132.5t27.5 134t74.5 112.5t109.5 77t132.5 28.5q72 0 134 -29.5t110 -78.5l-71 -63q-33 35 -76 56t-97 21z" />
    <glyph glyph-name="Gcircumflex" unicode="&#x11c;" horiz-adv-x="728" 
d="M508 742q-32 17 -58 33.5t-47 31.5q-21 -15 -47.5 -31.5t-57.5 -33.5l-18 29l123 149l123 -149zM404 594q-50 0 -94 -20t-77 -54.5t-52 -81t-19 -98.5q0 -53 19 -99t52 -80.5t77 -54.5t94 -20q42 0 73.5 5.5t67.5 17.5v133h-131l16 94h217v-258q-21 -24 -49.5 -40
t-60.5 -26.5t-66.5 -15t-66.5 -4.5q-70 0 -132.5 27.5t-109.5 74.5t-74.5 109.5t-27.5 132.5t27.5 134t74.5 112.5t109.5 77t132.5 28.5q72 0 134 -29.5t110 -78.5l-71 -63q-33 35 -76 56t-97 21z" />
    <glyph glyph-name="Gdotaccent" unicode="&#x120;" horiz-adv-x="728" 
d="M348 813q0 23 16 39t39 16t39 -16t16 -39t-16 -39t-39 -16t-39 16t-16 39zM404 594q-50 0 -94 -20t-77 -54.5t-52 -81t-19 -98.5q0 -53 19 -99t52 -80.5t77 -54.5t94 -20q42 0 73.5 5.5t67.5 17.5v133h-131l16 94h217v-258q-21 -24 -49.5 -40t-60.5 -26.5t-66.5 -15
t-66.5 -4.5q-70 0 -132.5 27.5t-109.5 74.5t-74.5 109.5t-27.5 132.5t27.5 134t74.5 112.5t109.5 77t132.5 28.5q72 0 134 -29.5t110 -78.5l-71 -63q-33 35 -76 56t-97 21z" />
    <glyph glyph-name="Hcircumflex" unicode="&#x124;" horiz-adv-x="744" 
d="M644 680v-680h-102v297h-340v-297h-102v680h102v-289h340v289h102zM477 742q-32 17 -58 33.5t-47 31.5q-21 -15 -47.5 -31.5t-57.5 -33.5l-18 29l123 149l123 -149z" />
    <glyph glyph-name="Iacute" unicode="&#xcd;" horiz-adv-x="342" 
d="M222 680v-680l-102 -8v688h102zM81 771q37 21 65 46.5t48 47.5q23 26 40 51l67 -66q-44 -44 -95.5 -71.5t-106.5 -36.5z" />
    <glyph glyph-name="Ibreve" unicode="&#x12c;" horiz-adv-x="342" 
d="M222 680v-680l-102 -8v688h102zM108 883q0 -26 6 -42t15 -25t20 -12.5t22 -3.5q10 0 21.5 3.5t20.5 12.5t15 25t6 42l39 11q2 -6 2.5 -17t0.5 -17q0 -52 -27 -85t-78 -33t-78 33t-27 85q0 6 0.5 17t2.5 17z" />
    <glyph glyph-name="Icircumflex" unicode="&#xce;" horiz-adv-x="342" 
d="M222 680v-680l-102 -8v688h102zM276 742q-32 17 -58 33.5t-47 31.5q-21 -15 -47.5 -31.5t-57.5 -33.5l-18 29l123 149l123 -149z" />
    <glyph glyph-name="Idieresis" unicode="&#xcf;" horiz-adv-x="342" 
d="M222 680v-680l-102 -8v688h102zM19 813q0 23 16 39t39 16t39 -16t16 -39t-16 -39t-39 -16t-39 16t-16 39zM213 813q0 23 16 39t39 16t39 -16t16 -39t-16 -39t-39 -16t-39 16t-16 39z" />
    <glyph glyph-name="Idotaccent" unicode="&#x130;" horiz-adv-x="342" 
d="M222 680v-680l-102 -8v688h102zM116 813q0 23 16 39t39 16t39 -16t16 -39t-16 -39t-39 -16t-39 16t-16 39z" />
    <glyph glyph-name="Igrave" unicode="&#xcc;" horiz-adv-x="342" 
d="M222 680v-680l-102 -8v688h102zM261 742q-55 9 -106.5 36.5t-95.5 71.5l67 66q17 -25 40 -51q20 -22 48 -47.5t65 -46.5z" />
    <glyph glyph-name="Iogonek" unicode="&#x12e;" horiz-adv-x="342" 
d="M222 0q-46 -24 -75 -59.5t-29 -68.5q0 -21 9.5 -32.5t22.5 -11.5q8 0 14 4q3 2 5 4l45 -74q-12 -9 -28 -14.5t-33 -5.5q-23 0 -42 8.5t-32.5 22.5t-21.5 33t-8 39q0 23 7.5 46t18 42.5t23 34.5t22.5 24v688h102v-680v0z" />
    <glyph glyph-name="Itilde" unicode="&#x128;" horiz-adv-x="342" 
d="M222 680v-680l-102 -8v688h102zM368 884q-1 -18 -7.5 -41t-19.5 -44t-33.5 -35t-50.5 -14q-20 0 -45 10t-49.5 22t-47.5 22t-40 10t-28 -6t-17.5 -15t-9.5 -18.5t-4 -16.5h-42q1 18 7.5 41t19.5 44t33.5 35t50.5 14q21 0 45.5 -10t49.5 -22t47.5 -22t39.5 -10t28 6
t17.5 15t9.5 18.5t4 16.5h42z" />
    <glyph glyph-name="Jcircumflex" unicode="&#x134;" horiz-adv-x="480" 
d="M380 680v-407q0 -56 -6.5 -107t-27 -89.5t-59 -61.5t-103.5 -23q-54 0 -94.5 21t-69.5 56l70 70q11 -23 35 -38t59 -15q33 0 51.5 12.5t28 36t12 56.5t2.5 74v321h-132l17 94h217zM382 742q-32 17 -58 33.5t-47 31.5q-21 -15 -47.5 -31.5t-57.5 -33.5l-18 29l123 149
l123 -149z" />
    <glyph glyph-name="Lacute" unicode="&#x139;" horiz-adv-x="492" 
d="M482 102l-14 -102h-368v680l102 8v-586h280zM106 771q37 21 65 46.5t48 47.5q23 26 40 51l67 -66q-44 -44 -95.5 -71.5t-106.5 -36.5z" />
    <glyph glyph-name="Ldot" unicode="&#x13f;" horiz-adv-x="492" 
d="M482 102l-14 -102h-368v680l102 8v-586h280zM369 389q0 23 16.5 40t39.5 17t40 -17t17 -40t-17 -39.5t-40 -16.5t-39.5 16.5t-16.5 39.5z" />
    <glyph glyph-name="Nacute" unicode="&#x143;" horiz-adv-x="747" 
d="M647 680v-672l-86 -16l-367 523v-515h-94v672l94 16l367 -523v515h86zM295 771q37 21 65 46.5t48 47.5q23 26 40 51l67 -66q-44 -44 -95.5 -71.5t-106.5 -36.5z" />
    <glyph glyph-name="Ncaron" unicode="&#x147;" horiz-adv-x="747" 
d="M647 680v-672l-86 -16l-367 523v-515h-94v672l94 16l367 -523v515h86zM501 891l-123 -149l-123 149l18 29q31 -17 57.5 -34t47.5 -31q21 14 47 31t58 34z" />
    <glyph glyph-name="Ntilde" unicode="&#xd1;" horiz-adv-x="747" 
d="M647 680v-672l-86 -16l-367 523v-515h-94v672l94 16l367 -523v515h86zM573 884q-1 -18 -7.5 -41t-19.5 -44t-33.5 -35t-50.5 -14q-20 0 -45 10t-49.5 22t-47.5 22t-40 10t-28 -6t-17.5 -15t-9.5 -18.5t-4 -16.5h-42q1 18 7.5 41t19.5 44t33.5 35t50.5 14q21 0 45.5 -10
t49.5 -22t47.5 -22t39.5 -10t28 6t17.5 15t9.5 18.5t4 16.5h42z" />
    <glyph glyph-name="Oacute" unicode="&#xd3;" horiz-adv-x="803" 
d="M162 340q0 -53 19 -99t52 -80.5t77 -54.5t94 -20t94 20t77 54.5t52 80.5t19 99q0 52 -19 98.5t-52 81t-77 54.5t-94 20t-94 -20t-77 -54.5t-52 -81t-19 -98.5zM298 771q37 21 65 46.5t48 47.5q23 26 40 51l67 -66q-44 -44 -95.5 -71.5t-106.5 -36.5zM60 340
q0 72 27 135.5t73.5 110.5t109.5 74.5t134 27.5t134 -27.5t109.5 -74.5t73.5 -110.5t27 -135.5t-27 -135.5t-73.5 -110.5t-109.5 -74.5t-134 -27.5t-134 27.5t-109.5 74.5t-73.5 110.5t-27 135.5z" />
    <glyph glyph-name="Obreve" unicode="&#x14e;" horiz-adv-x="803" 
d="M162 340q0 -53 19 -99t52 -80.5t77 -54.5t94 -20t94 20t77 54.5t52 80.5t19 99q0 52 -19 98.5t-52 81t-77 54.5t-94 20t-94 -20t-77 -54.5t-52 -81t-19 -98.5zM341 883q0 -26 6 -42t15 -25t20 -12.5t22 -3.5q10 0 21.5 3.5t20.5 12.5t15 25t6 42l39 11q2 -6 2.5 -17
t0.5 -17q0 -52 -27 -85t-78 -33t-78 33t-27 85q0 6 0.5 17t2.5 17zM60 340q0 72 27 135.5t73.5 110.5t109.5 74.5t134 27.5t134 -27.5t109.5 -74.5t73.5 -110.5t27 -135.5t-27 -135.5t-73.5 -110.5t-109.5 -74.5t-134 -27.5t-134 27.5t-109.5 74.5t-73.5 110.5t-27 135.5z
" />
    <glyph glyph-name="Ocircumflex" unicode="&#xd4;" horiz-adv-x="803" 
d="M162 340q0 -53 19 -99t52 -80.5t77 -54.5t94 -20t94 20t77 54.5t52 80.5t19 99q0 52 -19 98.5t-52 81t-77 54.5t-94 20t-94 -20t-77 -54.5t-52 -81t-19 -98.5zM509 742q-32 17 -58 33.5t-47 31.5q-21 -15 -47.5 -31.5t-57.5 -33.5l-18 29l123 149l123 -149zM60 340
q0 72 27 135.5t73.5 110.5t109.5 74.5t134 27.5t134 -27.5t109.5 -74.5t73.5 -110.5t27 -135.5t-27 -135.5t-73.5 -110.5t-109.5 -74.5t-134 -27.5t-134 27.5t-109.5 74.5t-73.5 110.5t-27 135.5z" />
    <glyph glyph-name="Odieresis" unicode="&#xd6;" horiz-adv-x="803" 
d="M162 340q0 -53 19 -99t52 -80.5t77 -54.5t94 -20t94 20t77 54.5t52 80.5t19 99q0 52 -19 98.5t-52 81t-77 54.5t-94 20t-94 -20t-77 -54.5t-52 -81t-19 -98.5zM252 813q0 23 16 39t39 16t39 -16t16 -39t-16 -39t-39 -16t-39 16t-16 39zM446 813q0 23 16 39t39 16t39 -16
t16 -39t-16 -39t-39 -16t-39 16t-16 39zM60 340q0 72 27 135.5t73.5 110.5t109.5 74.5t134 27.5t134 -27.5t109.5 -74.5t73.5 -110.5t27 -135.5t-27 -135.5t-73.5 -110.5t-109.5 -74.5t-134 -27.5t-134 27.5t-109.5 74.5t-73.5 110.5t-27 135.5z" />
    <glyph glyph-name="Ograve" unicode="&#xd2;" horiz-adv-x="803" 
d="M162 340q0 -53 19 -99t52 -80.5t77 -54.5t94 -20t94 20t77 54.5t52 80.5t19 99q0 52 -19 98.5t-52 81t-77 54.5t-94 20t-94 -20t-77 -54.5t-52 -81t-19 -98.5zM496 742q-55 9 -106.5 36.5t-95.5 71.5l67 66q17 -25 40 -51q20 -22 48 -47.5t65 -46.5zM60 340
q0 72 27 135.5t73.5 110.5t109.5 74.5t134 27.5t134 -27.5t109.5 -74.5t73.5 -110.5t27 -135.5t-27 -135.5t-73.5 -110.5t-109.5 -74.5t-134 -27.5t-134 27.5t-109.5 74.5t-73.5 110.5t-27 135.5z" />
    <glyph glyph-name="Ohungarumlaut" unicode="&#x150;" horiz-adv-x="803" 
d="M162 340q0 -53 19 -99t52 -80.5t77 -54.5t94 -20t94 20t77 54.5t52 80.5t19 99q0 52 -19 98.5t-52 81t-77 54.5t-94 20t-94 -20t-77 -54.5t-52 -81t-19 -98.5zM287 771q16 8 26.5 32t17.5 50q8 31 13 67l90 -16q-3 -23 -16.5 -50t-32.5 -51t-40 -41t-40 -20zM434 771
q16 8 26.5 32t17.5 50q8 31 13 67l90 -16q-3 -23 -16.5 -50t-32.5 -51t-40 -41t-40 -20zM60 340q0 72 27 135.5t73.5 110.5t109.5 74.5t134 27.5t134 -27.5t109.5 -74.5t73.5 -110.5t27 -135.5t-27 -135.5t-73.5 -110.5t-109.5 -74.5t-134 -27.5t-134 27.5t-109.5 74.5
t-73.5 110.5t-27 135.5z" />
    <glyph glyph-name="Oslash" unicode="&#xd8;" horiz-adv-x="803" 
d="M404 688q20 0 39.5 -2.5t39.5 -7.5l23 60h99l-35 -92q40 -23 73 -55.5t56 -72.5t36 -85t13 -93q0 -72 -27 -135.5t-73.5 -110.5t-109.5 -74.5t-134 -27.5q-21 0 -41 2.5t-40 7.5l-23 -60h-99l36 94q-39 22 -72 54.5t-56 72t-36 84.5t-13 93q0 72 27 135.5t73.5 110.5
t109.5 74.5t134 27.5zM646 340q0 67 -30.5 123.5t-81.5 90.5l-177 -464q11 -2 23 -3t24 -1q50 0 94 20t77 54.5t52 80.5t19 99zM162 340q0 -67 29.5 -123t80.5 -90l177 462q-25 5 -45 5q-50 0 -94 -20t-77 -54.5t-52 -81t-19 -98.5z" />
    <glyph glyph-name="Oslashacute" unicode="&#x1fe;" horiz-adv-x="803" 
d="M646 340q0 67 -30.5 123.5t-81.5 90.5l-177 -464q11 -2 23 -3t24 -1q50 0 94 20t77 54.5t52 80.5t19 99zM162 340q0 -67 29.5 -123t80.5 -90l177 462q-25 5 -45 5q-50 0 -94 -20t-77 -54.5t-52 -81t-19 -98.5zM294 771q37 21 65 46.5t48 47.5q23 26 40 51l67 -66
q-44 -44 -95.5 -71.5t-106.5 -36.5zM404 688q20 0 39.5 -2.5t39.5 -7.5l23 60h99l-35 -92q40 -23 73 -55.5t56 -72.5t36 -85t13 -93q0 -72 -27 -135.5t-73.5 -110.5t-109.5 -74.5t-134 -27.5q-21 0 -41 2.5t-40 7.5l-23 -60h-99l36 94q-39 22 -72 54.5t-56 72t-36 84.5
t-13 93q0 72 27 135.5t73.5 110.5t109.5 74.5t134 27.5z" />
    <glyph glyph-name="Otilde" unicode="&#xd5;" horiz-adv-x="803" 
d="M162 340q0 -53 19 -99t52 -80.5t77 -54.5t94 -20t94 20t77 54.5t52 80.5t19 99q0 52 -19 98.5t-52 81t-77 54.5t-94 20t-94 -20t-77 -54.5t-52 -81t-19 -98.5zM601 884q-1 -18 -7.5 -41t-19.5 -44t-33.5 -35t-50.5 -14q-20 0 -45 10t-49.5 22t-47.5 22t-40 10t-28 -6
t-17.5 -15t-9.5 -18.5t-4 -16.5h-42q1 18 7.5 41t19.5 44t33.5 35t50.5 14q21 0 45.5 -10t49.5 -22t47.5 -22t39.5 -10t28 6t17.5 15t9.5 18.5t4 16.5h42zM60 340q0 72 27 135.5t73.5 110.5t109.5 74.5t134 27.5t134 -27.5t109.5 -74.5t73.5 -110.5t27 -135.5t-27 -135.5
t-73.5 -110.5t-109.5 -74.5t-134 -27.5t-134 27.5t-109.5 74.5t-73.5 110.5t-27 135.5z" />
    <glyph glyph-name="Racute" unicode="&#x154;" horiz-adv-x="643" 
d="M582 466q0 -69 -38.5 -119.5t-99.5 -73.5l139 -265l-105 -16l-140 265h-136v-257h-102v680h248q54 0 97.5 -17t73.5 -46t46.5 -68t16.5 -83zM202 345h126q33 0 61 6.5t48 21t31.5 37.5t11.5 56t-11.5 55.5t-31.5 37t-48 21t-61 6.5h-126v-241zM217 771q37 21 65 46.5
t48 47.5q23 26 40 51l67 -66q-44 -44 -95.5 -71.5t-106.5 -36.5z" />
    <glyph glyph-name="Rcaron" unicode="&#x158;" horiz-adv-x="643" 
d="M582 466q0 -69 -38.5 -119.5t-99.5 -73.5l139 -265l-105 -16l-140 265h-136v-257h-102v680h248q54 0 97.5 -17t73.5 -46t46.5 -68t16.5 -83zM202 345h126q33 0 61 6.5t48 21t31.5 37.5t11.5 56t-11.5 55.5t-31.5 37t-48 21t-61 6.5h-126v-241zM431 891l-123 -149
l-123 149l18 29q31 -17 57.5 -34t47.5 -31q21 14 47 31t58 34z" />
    <glyph glyph-name="Sacute" unicode="&#x15a;" horiz-adv-x="525" 
d="M269 688q35 0 69 -10t60 -22q31 -14 59 -31l-55 -78q-15 12 -35 23q-18 9 -44.5 16.5t-61.5 7.5q-21 0 -38 -6.5t-29 -17.5t-19 -25t-7 -29q0 -23 11 -41.5t29.5 -35t42.5 -32t50 -30.5q32 -19 64 -39.5t57.5 -45.5t41.5 -56.5t16 -71.5q0 -44 -18.5 -76.5t-48.5 -53.5
t-68 -31.5t-76 -10.5q-48 0 -87.5 14.5t-68.5 32.5q-34 20 -63 47l63 62q26 -18 52 -31q23 -12 50.5 -21.5t53.5 -9.5q48 0 78.5 18t30.5 60q0 22 -11 40t-29 34t-41.5 30t-48.5 28q-32 18 -64.5 38t-58.5 46t-42.5 59t-16.5 77q0 29 12 59.5t36.5 55.5t63 41t91.5 16z
M155 771q37 21 65 46.5t48 47.5q23 26 40 51l67 -66q-44 -44 -95.5 -71.5t-106.5 -36.5z" />
    <glyph glyph-name="Scaron" unicode="&#x160;" horiz-adv-x="525" 
d="M269 688q35 0 69 -10t60 -22q31 -14 59 -31l-55 -78q-15 12 -35 23q-18 9 -44.5 16.5t-61.5 7.5q-21 0 -38 -6.5t-29 -17.5t-19 -25t-7 -29q0 -23 11 -41.5t29.5 -35t42.5 -32t50 -30.5q32 -19 64 -39.5t57.5 -45.5t41.5 -56.5t16 -71.5q0 -44 -18.5 -76.5t-48.5 -53.5
t-68 -31.5t-76 -10.5q-48 0 -87.5 14.5t-68.5 32.5q-34 20 -63 47l63 62q26 -18 52 -31q23 -12 50.5 -21.5t53.5 -9.5q48 0 78.5 18t30.5 60q0 22 -11 40t-29 34t-41.5 30t-48.5 28q-32 18 -64.5 38t-58.5 46t-42.5 59t-16.5 77q0 29 12 59.5t36.5 55.5t63 41t91.5 16z
M388 891l-123 -149l-123 149l18 29q31 -17 57.5 -34t47.5 -31q21 14 47 31t58 34z" />
    <glyph glyph-name="Scedilla" unicode="&#x15e;" horiz-adv-x="525" 
d="M269 -135q0 21 -14 30.5t-31 12.5q-21 3 -21 20q0 6 3 12l33 54q-42 5 -76.5 20t-59.5 31q-30 18 -53 41l63 62q26 -18 52 -31q23 -12 50.5 -21.5t53.5 -9.5q48 0 78.5 18t30.5 60q0 22 -11 40t-29 34t-41.5 30t-48.5 28q-32 18 -64.5 38t-58.5 46t-42.5 59t-16.5 77
q0 29 12 59.5t36.5 55.5t63 41t91.5 16q35 0 69 -10t60 -22q31 -14 59 -31l-55 -78q-15 12 -35 23q-18 9 -44.5 16.5t-61.5 7.5q-21 0 -38 -6.5t-29 -17.5t-19 -25t-7 -29q0 -23 11 -41.5t29.5 -35t42.5 -32t50 -30.5q32 -19 64 -39.5t57.5 -45.5t41.5 -56.5t16 -71.5
q0 -41 -16.5 -72t-44 -52.5t-62 -33t-70.5 -13.5l-30 -50q32 -11 51 -38t19 -60q0 -20 -7.5 -39t-21.5 -33t-33 -22.5t-41 -8.5q-17 0 -33 5.5t-28 14.5l39 64q9 -6 22 -6q17 0 31 12.5t14 32.5z" />
    <glyph glyph-name="Scircumflex" unicode="&#x15c;" horiz-adv-x="525" 
d="M269 688q35 0 69 -10t60 -22q31 -14 59 -31l-55 -78q-15 12 -35 23q-18 9 -44.5 16.5t-61.5 7.5q-21 0 -38 -6.5t-29 -17.5t-19 -25t-7 -29q0 -23 11 -41.5t29.5 -35t42.5 -32t50 -30.5q32 -19 64 -39.5t57.5 -45.5t41.5 -56.5t16 -71.5q0 -44 -18.5 -76.5t-48.5 -53.5
t-68 -31.5t-76 -10.5q-48 0 -87.5 14.5t-68.5 32.5q-34 20 -63 47l63 62q26 -18 52 -31q23 -12 50.5 -21.5t53.5 -9.5q48 0 78.5 18t30.5 60q0 22 -11 40t-29 34t-41.5 30t-48.5 28q-32 18 -64.5 38t-58.5 46t-42.5 59t-16.5 77q0 29 12 59.5t36.5 55.5t63 41t91.5 16z
M370 742q-32 17 -58 33.5t-47 31.5q-21 -15 -47.5 -31.5t-57.5 -33.5l-18 29l123 149l123 -149z" />
    <glyph glyph-name="Tcaron" unicode="&#x164;" horiz-adv-x="526" 
d="M486 586h-172v-586l-102 -8v594h-172v94h446v-94zM386 891l-123 -149l-123 149l18 29q31 -17 57.5 -34t47.5 -31q21 14 47 31t58 34z" />
    <glyph glyph-name="Uacute" unicode="&#xda;" horiz-adv-x="668" 
d="M588 281q0 -62 -14 -114.5t-44 -91.5t-77.5 -61t-114.5 -22q-71 0 -120 22t-79.5 61t-44.5 91.5t-14 114.5v399l102 8v-399q0 -38 3.5 -74.5t18.5 -65t46.5 -46t87.5 -17.5q53 0 84 16.5t47 44t20.5 64.5t4.5 78v391h94v-399zM239 771q37 21 65 46.5t48 47.5q23 26 40 51
l67 -66q-44 -44 -95.5 -71.5t-106.5 -36.5z" />
    <glyph glyph-name="Ubreve" unicode="&#x16c;" horiz-adv-x="668" 
d="M588 281q0 -62 -14 -114.5t-44 -91.5t-77.5 -61t-114.5 -22q-71 0 -120 22t-79.5 61t-44.5 91.5t-14 114.5v399l102 8v-399q0 -38 3.5 -74.5t18.5 -65t46.5 -46t87.5 -17.5q53 0 84 16.5t47 44t20.5 64.5t4.5 78v391h94v-399zM276 883q0 -26 6 -42t15 -25t20 -12.5
t22 -3.5q10 0 21.5 3.5t20.5 12.5t15 25t6 42l39 11q2 -6 2.5 -17t0.5 -17q0 -52 -27 -85t-78 -33t-78 33t-27 85q0 6 0.5 17t2.5 17z" />
    <glyph glyph-name="Ucircumflex" unicode="&#xdb;" horiz-adv-x="668" 
d="M588 281q0 -62 -14 -114.5t-44 -91.5t-77.5 -61t-114.5 -22q-71 0 -120 22t-79.5 61t-44.5 91.5t-14 114.5v399l102 8v-399q0 -38 3.5 -74.5t18.5 -65t46.5 -46t87.5 -17.5q53 0 84 16.5t47 44t20.5 64.5t4.5 78v391h94v-399zM447 742q-32 17 -58 33.5t-47 31.5
q-21 -15 -47.5 -31.5t-57.5 -33.5l-18 29l123 149l123 -149z" />
    <glyph glyph-name="Udieresis" unicode="&#xdc;" horiz-adv-x="668" 
d="M588 281q0 -62 -14 -114.5t-44 -91.5t-77.5 -61t-114.5 -22q-71 0 -120 22t-79.5 61t-44.5 91.5t-14 114.5v399l102 8v-399q0 -38 3.5 -74.5t18.5 -65t46.5 -46t87.5 -17.5q53 0 84 16.5t47 44t20.5 64.5t4.5 78v391h94v-399zM187 813q0 23 16 39t39 16t39 -16t16 -39
t-16 -39t-39 -16t-39 16t-16 39zM381 813q0 23 16 39t39 16t39 -16t16 -39t-16 -39t-39 -16t-39 16t-16 39z" />
    <glyph glyph-name="Ugrave" unicode="&#xd9;" horiz-adv-x="668" 
d="M588 281q0 -62 -14 -114.5t-44 -91.5t-77.5 -61t-114.5 -22q-71 0 -120 22t-79.5 61t-44.5 91.5t-14 114.5v399l102 8v-399q0 -38 3.5 -74.5t18.5 -65t46.5 -46t87.5 -17.5q53 0 84 16.5t47 44t20.5 64.5t4.5 78v391h94v-399zM421 742q-55 9 -106.5 36.5t-95.5 71.5
l67 66q17 -25 40 -51q20 -22 48 -47.5t65 -46.5z" />
    <glyph glyph-name="Uhungarumlaut" unicode="&#x170;" horiz-adv-x="668" 
d="M588 281q0 -62 -14 -114.5t-44 -91.5t-77.5 -61t-114.5 -22q-71 0 -120 22t-79.5 61t-44.5 91.5t-14 114.5v399l102 8v-399q0 -38 3.5 -74.5t18.5 -65t46.5 -46t87.5 -17.5q53 0 84 16.5t47 44t20.5 64.5t4.5 78v391h94v-399zM213 771q16 8 26.5 32t17.5 50q8 31 13 67
l90 -16q-3 -23 -16.5 -50t-32.5 -51t-40 -41t-40 -20zM360 771q16 8 26.5 32t17.5 50q8 31 13 67l90 -16q-3 -23 -16.5 -50t-32.5 -51t-40 -41t-40 -20z" />
    <glyph glyph-name="Uogonek" unicode="&#x172;" horiz-adv-x="668" 
d="M588 281q0 -49 -8.5 -92.5t-27 -79t-47.5 -62t-69 -40.5q-16 -11 -36 -26.5t-37.5 -33.5t-29.5 -37.5t-12 -37.5q0 -21 9.5 -32.5t22.5 -11.5q8 0 14 4q3 2 5 4l45 -74q-12 -9 -28 -14.5t-33 -5.5q-23 0 -42 8.5t-32.5 22.5t-21.5 33t-8 39q0 23 8.5 45t21.5 41.5t27 35
t25 25.5q-69 1 -117.5 23t-79 61t-44 91.5t-13.5 113.5v399l102 8v-399q0 -38 3.5 -74.5t18.5 -65t46.5 -46t87.5 -17.5q53 0 84 16.5t47 44t20.5 64.5t4.5 78v391h94v-399v0z" />
    <glyph glyph-name="Uring" unicode="&#x16e;" horiz-adv-x="668" 
d="M588 281q0 -62 -14 -114.5t-44 -91.5t-77.5 -61t-114.5 -22q-71 0 -120 22t-79.5 61t-44.5 91.5t-14 114.5v399l102 8v-399q0 -38 3.5 -74.5t18.5 -65t46.5 -46t87.5 -17.5q53 0 84 16.5t47 44t20.5 64.5t4.5 78v391h94v-399zM245 835q0 19 7.5 36t20 29.5t29.5 20
t37 7.5q19 0 36.5 -7.5t30 -20t20 -29.5t7.5 -36t-7.5 -36t-20 -29.5t-30 -20t-36.5 -7.5q-20 0 -37 7.5t-29.5 20t-20 29.5t-7.5 36zM304 835q0 -14 10.5 -24.5t24.5 -10.5t24.5 10.5t10.5 24.5t-10.5 24.5t-24.5 10.5t-24.5 -10.5t-10.5 -24.5z" />
    <glyph glyph-name="Utilde" unicode="&#x168;" horiz-adv-x="668" 
d="M588 281q0 -62 -14 -114.5t-44 -91.5t-77.5 -61t-114.5 -22q-71 0 -120 22t-79.5 61t-44.5 91.5t-14 114.5v399l102 8v-399q0 -38 3.5 -74.5t18.5 -65t46.5 -46t87.5 -17.5q53 0 84 16.5t47 44t20.5 64.5t4.5 78v391h94v-399zM536 884q-1 -18 -7.5 -41t-19.5 -44
t-33.5 -35t-50.5 -14q-20 0 -45 10t-49.5 22t-47.5 22t-40 10t-28 -6t-17.5 -15t-9.5 -18.5t-4 -16.5h-42q1 18 7.5 41t19.5 44t33.5 35t50.5 14q21 0 45.5 -10t49.5 -22t47.5 -22t39.5 -10t28 6t17.5 15t9.5 18.5t4 16.5h42z" />
    <glyph glyph-name="Wacute" unicode="&#x1e82;" horiz-adv-x="825" 
d="M336 771q37 21 65 46.5t48 47.5q23 26 40 51l67 -66q-44 -44 -95.5 -71.5t-106.5 -36.5zM10 672l101 16l118 -500l147 492h82l146 -492l109 500l102 -16l-162 -672h-88l-156 524l-157 -524h-80z" />
    <glyph glyph-name="Wcircumflex" unicode="&#x174;" horiz-adv-x="825" 
d="M517 742q-32 17 -58 33.5t-47 31.5q-21 -15 -47.5 -31.5t-57.5 -33.5l-18 29l123 149l123 -149zM10 672l101 16l118 -500l147 492h82l146 -492l109 500l102 -16l-162 -672h-88l-156 524l-157 -524h-80z" />
    <glyph glyph-name="Wdieresis" unicode="&#x1e84;" horiz-adv-x="825" 
d="M260 813q0 23 16 39t39 16t39 -16t16 -39t-16 -39t-39 -16t-39 16t-16 39zM454 813q0 23 16 39t39 16t39 -16t16 -39t-16 -39t-39 -16t-39 16t-16 39zM10 672l101 16l118 -500l147 492h82l146 -492l109 500l102 -16l-162 -672h-88l-156 524l-157 -524h-80z" />
    <glyph glyph-name="Wgrave" unicode="&#x1e80;" horiz-adv-x="825" 
d="M490 742q-55 9 -106.5 36.5t-95.5 71.5l67 66q17 -25 40 -51q20 -22 48 -47.5t65 -46.5zM10 672l101 16l118 -500l147 492h82l146 -492l109 500l102 -16l-162 -672h-88l-156 524l-157 -524h-80z" />
    <glyph glyph-name="Yacute" unicode="&#xdd;" horiz-adv-x="583" 
d="M346 329v-329h-102v329l-234 343l110 16l185 -271l163 271l105 -16zM219 771q37 21 65 46.5t48 47.5q23 26 40 51l67 -66q-44 -44 -95.5 -71.5t-106.5 -36.5z" />
    <glyph glyph-name="Ycircumflex" unicode="&#x176;" horiz-adv-x="583" 
d="M346 329v-329h-102v329l-234 343l110 16l185 -271l163 271l105 -16zM402 742q-32 17 -58 33.5t-47 31.5q-21 -15 -47.5 -31.5t-57.5 -33.5l-18 29l123 149l123 -149z" />
    <glyph glyph-name="Ydieresis" unicode="&#x178;" horiz-adv-x="583" 
d="M346 329v-329h-102v329l-234 343l110 16l185 -271l163 271l105 -16zM144 813q0 23 16 39t39 16t39 -16t16 -39t-16 -39t-39 -16t-39 16t-16 39zM338 813q0 23 16 39t39 16t39 -16t16 -39t-16 -39t-39 -16t-39 16t-16 39z" />
    <glyph glyph-name="Ygrave" unicode="&#x1ef2;" horiz-adv-x="583" 
d="M346 329v-329h-102v329l-234 343l110 16l185 -271l163 271l105 -16zM363 742q-55 9 -106.5 36.5t-95.5 71.5l67 66q17 -25 40 -51q20 -22 48 -47.5t65 -46.5z" />
    <glyph glyph-name="dcaron" unicode="&#x10f;" horiz-adv-x="844" 
d="M40 258q0 52 20.5 99t55.5 82.5t82 56t100 20.5q23 0 47.5 -7t46.5 -18.5t40 -27t30 -33.5v320l94 8v-758h-94v78q-12 -18 -30 -33.5t-40 -27t-46.5 -18.5t-47.5 -7q-53 0 -100 21.5t-82 58.5t-55.5 85t-20.5 101zM134 258q0 -38 12.5 -71t34.5 -57t52 -38t65 -14
t66.5 14t55 38t37 57t13.5 71q0 35 -13.5 66.5t-37 55t-55 37t-66.5 13.5t-65 -13.5t-52 -37t-34.5 -55t-12.5 -66.5zM717 758q32 -45 49.5 -101t17.5 -118l-89 8q0 39 -2.5 64.5t-7 46t-11 39.5t-13.5 45z" />
    <glyph glyph-name="cacute" unicode="&#x107;" horiz-adv-x="536" 
d="M308 78q42 0 72 15.5t53 39.5l63 -63q-35 -35 -82 -56.5t-106 -21.5q-53 0 -100 21.5t-82 58.5t-55.5 85t-20.5 101t20.5 100t55.5 82t82 55.5t100 20.5q59 0 106 -21.5t82 -56.5l-63 -63q-23 24 -53 39.5t-72 15.5q-32 0 -62 -13.5t-52.5 -37t-36 -55t-13.5 -66.5
q0 -38 13.5 -71t36 -57t52.5 -38t62 -14zM198 609q37 21 65 46.5t48 47.5q23 26 40 51l67 -66q-44 -44 -95.5 -71.5t-106.5 -36.5z" />
    <glyph glyph-name="ccaron" unicode="&#x10d;" horiz-adv-x="536" 
d="M308 78q42 0 72 15.5t53 39.5l63 -63q-35 -35 -82 -56.5t-106 -21.5q-53 0 -100 21.5t-82 58.5t-55.5 85t-20.5 101t20.5 100t55.5 82t82 55.5t100 20.5q59 0 106 -21.5t82 -56.5l-63 -63q-23 24 -53 39.5t-72 15.5q-32 0 -62 -13.5t-52.5 -37t-36 -55t-13.5 -66.5
q0 -38 13.5 -71t36 -57t52.5 -38t62 -14zM432 729l-123 -149l-123 149l18 29q31 -17 57.5 -34t47.5 -31q21 14 47 31t58 34z" />
    <glyph glyph-name="ccedilla" unicode="&#xe7;" horiz-adv-x="536" 
d="M316 -135q0 21 -14 30.5t-31 12.5q-21 3 -21 20q0 6 3 12l32 53q-49 4 -92 27.5t-74.5 59.5t-50 82t-18.5 96q0 53 20.5 100t55.5 82t82 55.5t100 20.5q59 0 106 -21.5t82 -56.5l-63 -63q-23 24 -53 39.5t-72 15.5q-32 0 -62 -13.5t-52.5 -37t-36 -55t-13.5 -66.5
q0 -38 13.5 -71t36 -57t52.5 -38t62 -14q42 0 72 15.5t53 39.5l63 -63q-32 -32 -72 -51.5t-90 -24.5l-30 -51q32 -11 51 -38t19 -60q0 -20 -7.5 -39t-21.5 -33t-33 -22.5t-41 -8.5q-17 0 -33 5.5t-28 14.5l39 64q9 -6 22 -6q17 0 31 12.5t14 32.5z" />
    <glyph glyph-name="ccircumflex" unicode="&#x109;" horiz-adv-x="536" 
d="M308 78q42 0 72 15.5t53 39.5l63 -63q-35 -35 -82 -56.5t-106 -21.5q-53 0 -100 21.5t-82 58.5t-55.5 85t-20.5 101t20.5 100t55.5 82t82 55.5t100 20.5q59 0 106 -21.5t82 -56.5l-63 -63q-23 24 -53 39.5t-72 15.5q-32 0 -62 -13.5t-52.5 -37t-36 -55t-13.5 -66.5
q0 -38 13.5 -71t36 -57t52.5 -38t62 -14zM416 580q-32 17 -58 33.5t-47 31.5q-21 -15 -47.5 -31.5t-57.5 -33.5l-18 29l123 149l123 -149z" />
    <glyph glyph-name="cdotaccent" unicode="&#x10b;" horiz-adv-x="536" 
d="M308 78q42 0 72 15.5t53 39.5l63 -63q-35 -35 -82 -56.5t-106 -21.5q-53 0 -100 21.5t-82 58.5t-55.5 85t-20.5 101t20.5 100t55.5 82t82 55.5t100 20.5q59 0 106 -21.5t82 -56.5l-63 -63q-23 24 -53 39.5t-72 15.5q-32 0 -62 -13.5t-52.5 -37t-36 -55t-13.5 -66.5
q0 -38 13.5 -71t36 -57t52.5 -38t62 -14zM253 651q0 23 16 39t39 16t39 -16t16 -39t-16 -39t-39 -16t-39 16t-16 39z" />
    <glyph glyph-name="gbreve" unicode="&#x11f;" horiz-adv-x="637" 
d="M567 0q0 -68 -20.5 -116.5t-56 -80t-82.5 -46.5t-100 -15q-59 0 -109 13.5t-79 48.5l63 63q18 -23 50.5 -31t74.5 -8q32 0 62 7t53 26.5t36.5 52.5t13.5 86v77q-12 -17 -30.5 -32.5t-40.5 -27t-46 -18.5t-48 -7q-53 0 -99.5 21.5t-82 58.5t-56 84.5t-20.5 100.5t20.5 100
t56 82.5t82 56t99.5 20.5q24 0 48 -6t46 -17t40.5 -27t30.5 -36v78l94 8v-516zM308 77q35 0 66.5 14t55 38t37 57t13.5 71q0 36 -13.5 67.5t-37 55t-55 37t-66.5 13.5t-65 -13.5t-52 -37t-34.5 -55t-12.5 -67.5q0 -38 12.5 -71t34.5 -57t52 -38t65 -14zM244 721q0 -26 6 -42
t15 -25t20 -12.5t22 -3.5q10 0 21.5 3.5t20.5 12.5t15 25t6 42l39 11q2 -6 2.5 -17t0.5 -17q0 -52 -27 -85t-78 -33t-78 33t-27 85q0 6 0.5 17t2.5 17z" />
    <glyph glyph-name="gcircumflex" unicode="&#x11d;" horiz-adv-x="637" 
d="M567 0q0 -68 -20.5 -116.5t-56 -80t-82.5 -46.5t-100 -15q-59 0 -109 13.5t-79 48.5l63 63q18 -23 50.5 -31t74.5 -8q32 0 62 7t53 26.5t36.5 52.5t13.5 86v77q-12 -17 -30.5 -32.5t-40.5 -27t-46 -18.5t-48 -7q-53 0 -99.5 21.5t-82 58.5t-56 84.5t-20.5 100.5t20.5 100
t56 82.5t82 56t99.5 20.5q24 0 48 -6t46 -17t40.5 -27t30.5 -36v78l94 8v-516zM308 77q35 0 66.5 14t55 38t37 57t13.5 71q0 36 -13.5 67.5t-37 55t-55 37t-66.5 13.5t-65 -13.5t-52 -37t-34.5 -55t-12.5 -67.5q0 -38 12.5 -71t34.5 -57t52 -38t65 -14zM415 580
q-32 17 -58 33.5t-47 31.5q-21 -15 -47.5 -31.5t-57.5 -33.5l-18 29l123 149l123 -149z" />
    <glyph glyph-name="gdotaccent" unicode="&#x121;" horiz-adv-x="637" 
d="M567 0q0 -68 -20.5 -116.5t-56 -80t-82.5 -46.5t-100 -15q-59 0 -109 13.5t-79 48.5l63 63q18 -23 50.5 -31t74.5 -8q32 0 62 7t53 26.5t36.5 52.5t13.5 86v77q-12 -17 -30.5 -32.5t-40.5 -27t-46 -18.5t-48 -7q-53 0 -99.5 21.5t-82 58.5t-56 84.5t-20.5 100.5t20.5 100
t56 82.5t82 56t99.5 20.5q24 0 48 -6t46 -17t40.5 -27t30.5 -36v78l94 8v-516zM308 77q35 0 66.5 14t55 38t37 57t13.5 71q0 36 -13.5 67.5t-37 55t-55 37t-66.5 13.5t-65 -13.5t-52 -37t-34.5 -55t-12.5 -67.5q0 -38 12.5 -71t34.5 -57t52 -38t65 -14zM254 651q0 23 16 39
t39 16t39 -16t16 -39t-16 -39t-39 -16t-39 16t-16 39z" />
    <glyph glyph-name="hcircumflex" unicode="&#x125;" horiz-adv-x="590" 
d="M452 742q-32 17 -58 33.5t-47 31.5q-21 -15 -47.5 -31.5t-57.5 -33.5l-18 29l123 149l123 -149zM350 516q63 0 98.5 -21.5t52.5 -57t20.5 -80.5t3.5 -92v-265h-95v265q0 37 -2 67t-11 52t-27.5 34t-51.5 12q-26 0 -51 -10t-46 -22.5t-36 -25l-21 -17.5v-355h-94v750l94 8
v-332q12 15 29.5 30.5t38.5 29t46 22t52 8.5z" />
    <glyph glyph-name="iacute" unicode="&#xed;" horiz-adv-x="284" 
d="M194 508v-508h-94v508h94zM45 609q37 21 65 46.5t48 47.5q23 26 40 51l67 -66q-44 -44 -95.5 -71.5t-106.5 -36.5z" />
    <glyph glyph-name="ibreve" unicode="&#x12d;" horiz-adv-x="284" 
d="M194 508v-508h-94v508h94zM82 721q0 -26 6 -42t15 -25t20 -12.5t22 -3.5q10 0 21.5 3.5t20.5 12.5t15 25t6 42l39 11q2 -6 2.5 -17t0.5 -17q0 -52 -27 -85t-78 -33t-78 33t-27 85q0 6 0.5 17t2.5 17z" />
    <glyph glyph-name="icircumflex" unicode="&#xee;" horiz-adv-x="284" 
d="M194 508v-508h-94v508h94zM250 580q-32 17 -58 33.5t-47 31.5q-21 -15 -47.5 -31.5t-57.5 -33.5l-18 29l123 149l123 -149z" />
    <glyph glyph-name="idieresis" unicode="&#xef;" horiz-adv-x="284" 
d="M194 508v-508h-94v508h94zM-7 651q0 23 16 39t39 16t39 -16t16 -39t-16 -39t-39 -16t-39 16t-16 39zM187 651q0 23 16 39t39 16t39 -16t16 -39t-16 -39t-39 -16t-39 16t-16 39z" />
    <glyph glyph-name="igrave" unicode="&#xec;" horiz-adv-x="284" 
d="M194 508v-508h-94v508h94zM237 580q-55 9 -106.5 36.5t-95.5 71.5l67 66q17 -25 40 -51q20 -22 48 -47.5t65 -46.5z" />
    <glyph glyph-name="iogonek" unicode="&#x12f;" horiz-adv-x="284" 
d="M100 508h94v-508q-46 -23 -75 -57.5t-29 -70.5q0 -21 9.5 -32.5t22.5 -11.5q8 0 14 4q3 2 5 4l45 -74q-12 -9 -28 -14.5t-33 -5.5q-23 0 -42 8.5t-32.5 22.5t-21.5 33t-8 39q0 23 8.5 46.5t20.5 44t25.5 37.5t24.5 27v508zM89 654q0 24 17 41t41 17t41 -17t17 -41
t-17 -41t-41 -17t-41 17t-17 41z" />
    <glyph glyph-name="itilde" unicode="&#x129;" horiz-adv-x="284" 
d="M194 508v-508h-94v508h94zM342 722q-1 -18 -7.5 -41t-19.5 -44t-33.5 -35t-50.5 -14q-20 0 -45 10t-49.5 22t-47.5 22t-40 10t-28 -6t-17.5 -15t-9.5 -18.5t-4 -16.5h-42q1 18 7.5 41t19.5 44t33.5 35t50.5 14q21 0 45.5 -10t49.5 -22t47.5 -22t39.5 -10t28 6t17.5 15
t9.5 18.5t4 16.5h42z" />
    <glyph glyph-name="jcircumflex" unicode="&#x135;" horiz-adv-x="284" 
d="M194 1q0 -47 -3 -93t-19.5 -83t-53.5 -60t-104 -23q-14 0 -25.5 1t-19.5 3q-10 2 -17 4l47 79q2 -1 5 -1h10q21 0 37.5 4.5t27 18t16 38t5.5 65.5v554h94v-507zM251 580q-32 17 -58 33.5t-47 31.5q-21 -15 -47.5 -31.5t-57.5 -33.5l-18 29l123 149l123 -149z" />
    <glyph glyph-name="lcaron" unicode="&#x13e;" horiz-adv-x="482" 
d="M194 758v-758h-94v750zM355 758q32 -45 49.5 -101t17.5 -118l-89 8q0 39 -2.5 64.5t-7 46t-11 39.5t-13.5 45z" />
    <glyph glyph-name="Lcaron" unicode="&#x13d;" horiz-adv-x="492" 
d="M482 102l-14 -102h-368v680l102 8v-586h280zM386 758q32 -45 49.5 -101t17.5 -118l-89 8q0 39 -2.5 64.5t-7 46t-11 39.5t-13.5 45z" />
    <glyph glyph-name="ldot" unicode="&#x140;" horiz-adv-x="482" 
d="M194 758v-758h-94v750zM319 389q0 23 16.5 40t39.5 17t40 -17t17 -40t-17 -39.5t-40 -16.5t-39.5 16.5t-16.5 39.5z" />
    <glyph glyph-name="nacute" unicode="&#x144;" horiz-adv-x="601" 
d="M215 609q37 21 65 46.5t48 47.5q23 26 40 51l67 -66q-44 -44 -95.5 -71.5t-106.5 -36.5zM367 516q63 0 97.5 -21.5t50.5 -57t18.5 -80.5t2.5 -92v-265h-94v265q0 37 -1.5 67t-9.5 52t-25.5 34t-50.5 12q-36 0 -66.5 -10t-54 -22.5t-39 -25t-21.5 -17.5v-355h-94v508l87 8
l7 -90q12 15 33 30.5t47 29t55 22t58 8.5z" />
    <glyph glyph-name="ncaron" unicode="&#x148;" horiz-adv-x="601" 
d="M437 729l-123 -149l-123 149l18 29q31 -17 57.5 -34t47.5 -31q21 14 47 31t58 34zM367 516q63 0 97.5 -21.5t50.5 -57t18.5 -80.5t2.5 -92v-265h-94v265q0 37 -1.5 67t-9.5 52t-25.5 34t-50.5 12q-36 0 -66.5 -10t-54 -22.5t-39 -25t-21.5 -17.5v-355h-94v508l87 8l7 -90
q12 15 33 30.5t47 29t55 22t58 8.5z" />
    <glyph glyph-name="ntilde" unicode="&#xf1;" horiz-adv-x="601" 
d="M499 722q-1 -18 -7.5 -41t-19.5 -44t-33.5 -35t-50.5 -14q-20 0 -45 10t-49.5 22t-47.5 22t-40 10t-28 -6t-17.5 -15t-9.5 -18.5t-4 -16.5h-42q1 18 7.5 41t19.5 44t33.5 35t50.5 14q21 0 45.5 -10t49.5 -22t47.5 -22t39.5 -10t28 6t17.5 15t9.5 18.5t4 16.5h42zM367 516
q63 0 97.5 -21.5t50.5 -57t18.5 -80.5t2.5 -92v-265h-94v265q0 37 -1.5 67t-9.5 52t-25.5 34t-50.5 12q-36 0 -66.5 -10t-54 -22.5t-39 -25t-21.5 -17.5v-355h-94v508l87 8l7 -90q12 15 33 30.5t47 29t55 22t58 8.5z" />
    <glyph glyph-name="oacute" unicode="&#xf3;" horiz-adv-x="624" 
d="M312 516q53 0 100.5 -21t83.5 -57t57 -83.5t21 -100.5t-21 -100.5t-57 -83.5t-83.5 -57t-100.5 -21t-100.5 21t-83.5 57t-57 83.5t-21 100.5t21 100.5t57 83.5t83.5 57t100.5 21zM148 254q0 -36 13 -68t35 -56t52 -38t64 -14t64 14t52 38t35 56t13 68t-13 68t-35 56
t-52 38t-64 14t-64 -14t-52 -38t-35 -56t-13 -68zM202 609q37 21 65 46.5t48 47.5q23 26 40 51l67 -66q-44 -44 -95.5 -71.5t-106.5 -36.5z" />
    <glyph glyph-name="obreve" unicode="&#x14f;" horiz-adv-x="624" 
d="M312 516q53 0 100.5 -21t83.5 -57t57 -83.5t21 -100.5t-21 -100.5t-57 -83.5t-83.5 -57t-100.5 -21t-100.5 21t-83.5 57t-57 83.5t-21 100.5t21 100.5t57 83.5t83.5 57t100.5 21zM148 254q0 -36 13 -68t35 -56t52 -38t64 -14t64 14t52 38t35 56t13 68t-13 68t-35 56
t-52 38t-64 14t-64 -14t-52 -38t-35 -56t-13 -68zM249 721q0 -26 6 -42t15 -25t20 -12.5t22 -3.5q10 0 21.5 3.5t20.5 12.5t15 25t6 42l39 11q2 -6 2.5 -17t0.5 -17q0 -52 -27 -85t-78 -33t-78 33t-27 85q0 6 0.5 17t2.5 17z" />
    <glyph glyph-name="ocircumflex" unicode="&#xf4;" horiz-adv-x="624" 
d="M312 516q53 0 100.5 -21t83.5 -57t57 -83.5t21 -100.5t-21 -100.5t-57 -83.5t-83.5 -57t-100.5 -21t-100.5 21t-83.5 57t-57 83.5t-21 100.5t21 100.5t57 83.5t83.5 57t100.5 21zM148 254q0 -36 13 -68t35 -56t52 -38t64 -14t64 14t52 38t35 56t13 68t-13 68t-35 56
t-52 38t-64 14t-64 -14t-52 -38t-35 -56t-13 -68zM417 580q-32 17 -58 33.5t-47 31.5q-21 -15 -47.5 -31.5t-57.5 -33.5l-18 29l123 149l123 -149z" />
    <glyph glyph-name="odieresis" unicode="&#xf6;" horiz-adv-x="624" 
d="M312 516q53 0 100.5 -21t83.5 -57t57 -83.5t21 -100.5t-21 -100.5t-57 -83.5t-83.5 -57t-100.5 -21t-100.5 21t-83.5 57t-57 83.5t-21 100.5t21 100.5t57 83.5t83.5 57t100.5 21zM148 254q0 -36 13 -68t35 -56t52 -38t64 -14t64 14t52 38t35 56t13 68t-13 68t-35 56
t-52 38t-64 14t-64 -14t-52 -38t-35 -56t-13 -68zM160 651q0 23 16 39t39 16t39 -16t16 -39t-16 -39t-39 -16t-39 16t-16 39zM354 651q0 23 16 39t39 16t39 -16t16 -39t-16 -39t-39 -16t-39 16t-16 39z" />
    <glyph glyph-name="ograve" unicode="&#xf2;" horiz-adv-x="624" 
d="M312 516q53 0 100.5 -21t83.5 -57t57 -83.5t21 -100.5t-21 -100.5t-57 -83.5t-83.5 -57t-100.5 -21t-100.5 21t-83.5 57t-57 83.5t-21 100.5t21 100.5t57 83.5t83.5 57t100.5 21zM148 254q0 -36 13 -68t35 -56t52 -38t64 -14t64 14t52 38t35 56t13 68t-13 68t-35 56
t-52 38t-64 14t-64 -14t-52 -38t-35 -56t-13 -68zM404 580q-55 9 -106.5 36.5t-95.5 71.5l67 66q17 -25 40 -51q20 -22 48 -47.5t65 -46.5z" />
    <glyph glyph-name="ohungarumlaut" unicode="&#x151;" horiz-adv-x="624" 
d="M312 516q53 0 100.5 -21t83.5 -57t57 -83.5t21 -100.5t-21 -100.5t-57 -83.5t-83.5 -57t-100.5 -21t-100.5 21t-83.5 57t-57 83.5t-21 100.5t21 100.5t57 83.5t83.5 57t100.5 21zM148 254q0 -36 13 -68t35 -56t52 -38t64 -14t64 14t52 38t35 56t13 68t-13 68t-35 56
t-52 38t-64 14t-64 -14t-52 -38t-35 -56t-13 -68zM182 609q16 8 26.5 32t17.5 50q8 31 13 67l90 -16q-3 -23 -16.5 -50t-32.5 -51t-40 -41t-40 -20zM329 609q16 8 26.5 32t17.5 50q8 31 13 67l90 -16q-3 -23 -16.5 -50t-32.5 -51t-40 -41t-40 -20z" />
    <glyph glyph-name="oslash" unicode="&#xf8;" horiz-adv-x="624" 
d="M312 516q35 0 73 -11l30 61h102l-51 -103q49 -36 78.5 -91t29.5 -118q0 -53 -21 -100.5t-57 -83.5t-83.5 -57t-100.5 -21q-20 0 -38 3t-36 8l-30 -61h-102l51 103q-48 36 -77.5 91t-29.5 118q0 53 21 100.5t57 83.5t83.5 57t100.5 21zM476 254q0 38 -14 70.5t-37 56.5
l-148 -299q15 -4 35 -4q34 0 64 14t52 38t35 56t13 68zM148 254q0 -38 13.5 -70.5t36.5 -56.5l148 299q-15 4 -34 4q-34 0 -64 -14t-52 -38t-35 -56t-13 -68z" />
    <glyph glyph-name="otilde" unicode="&#xf5;" horiz-adv-x="624" 
d="M312 516q53 0 100.5 -21t83.5 -57t57 -83.5t21 -100.5t-21 -100.5t-57 -83.5t-83.5 -57t-100.5 -21t-100.5 21t-83.5 57t-57 83.5t-21 100.5t21 100.5t57 83.5t83.5 57t100.5 21zM148 254q0 -36 13 -68t35 -56t52 -38t64 -14t64 14t52 38t35 56t13 68t-13 68t-35 56
t-52 38t-64 14t-64 -14t-52 -38t-35 -56t-13 -68zM509 722q-1 -18 -7.5 -41t-19.5 -44t-33.5 -35t-50.5 -14q-20 0 -45 10t-49.5 22t-47.5 22t-40 10t-28 -6t-17.5 -15t-9.5 -18.5t-4 -16.5h-42q1 18 7.5 41t19.5 44t33.5 35t50.5 14q21 0 45.5 -10t49.5 -22t47.5 -22
t39.5 -10t28 6t17.5 15t9.5 18.5t4 16.5h42z" />
    <glyph glyph-name="oslashacute" unicode="&#x1ff;" horiz-adv-x="624" 
d="M312 516q35 0 73 -11l30 61h102l-51 -103q49 -36 78.5 -91t29.5 -118q0 -53 -21 -100.5t-57 -83.5t-83.5 -57t-100.5 -21q-20 0 -38 3t-36 8l-30 -61h-102l51 103q-48 36 -77.5 91t-29.5 118q0 53 21 100.5t57 83.5t83.5 57t100.5 21zM476 254q0 38 -14 70.5t-37 56.5
l-148 -299q15 -4 35 -4q34 0 64 14t52 38t35 56t13 68zM148 254q0 -38 13.5 -70.5t36.5 -56.5l148 299q-15 4 -34 4q-34 0 -64 -14t-52 -38t-35 -56t-13 -68zM205 609q37 21 65 46.5t48 47.5q23 26 40 51l67 -66q-44 -44 -95.5 -71.5t-106.5 -36.5z" />
    <glyph glyph-name="racute" unicode="&#x155;" horiz-adv-x="422" 
d="M148 609q37 21 65 46.5t48 47.5q23 26 40 51l67 -66q-44 -44 -95.5 -71.5t-106.5 -36.5zM358 423q-8 4 -18.5 5.5t-21.5 1.5q-23 0 -46 -10t-42.5 -22.5t-34.5 -25l-21 -17.5v-355h-94v508l87 8l7 -90q12 15 30 30.5t41.5 29t51 22t58.5 8.5q13 0 23 -2.5l18 -4.5
q9 -4 16 -7z" />
    <glyph glyph-name="rcaron" unicode="&#x159;" horiz-adv-x="422" 
d="M362 729l-123 -149l-123 149l18 29q31 -17 57.5 -34t47.5 -31q21 14 47 31t58 34zM358 423q-8 4 -18.5 5.5t-21.5 1.5q-23 0 -46 -10t-42.5 -22.5t-34.5 -25l-21 -17.5v-355h-94v508l87 8l7 -90q12 15 30 30.5t41.5 29t51 22t58.5 8.5q13 0 23 -2.5l18 -4.5q9 -4 16 -7z
" />
    <glyph glyph-name="sacute" unicode="&#x15b;" horiz-adv-x="438" 
d="M226 516q37 0 65 -8.5t48 -19.5q23 -12 40 -27l-63 -62q-10 8 -24 15q-12 6 -29 11t-37 5q-35 0 -53.5 -12t-18.5 -35q0 -15 10.5 -28t27.5 -24.5t37.5 -22.5t40.5 -24q21 -14 43 -29t39.5 -33t29 -40.5t11.5 -49.5q0 -32 -13.5 -58t-36.5 -44t-53.5 -28t-63.5 -10
q-35 0 -66.5 10.5t-54.5 24.5q-27 16 -50 36l63 62q16 -13 34 -24q15 -9 34.5 -16t39.5 -7q12 0 25 3t23.5 9.5t17.5 17t7 24.5q0 17 -8 30t-21 23t-29 19t-32 19q-24 14 -50 29.5t-48 35t-36.5 44.5t-14.5 59q0 20 10.5 42t31.5 40.5t52 30.5t72 12zM116 609q37 21 65 46.5
t48 47.5q23 26 40 51l67 -66q-44 -44 -95.5 -71.5t-106.5 -36.5z" />
    <glyph glyph-name="scaron" unicode="&#x161;" horiz-adv-x="438" 
d="M226 516q37 0 65 -8.5t48 -19.5q23 -12 40 -27l-63 -62q-10 8 -24 15q-12 6 -29 11t-37 5q-35 0 -53.5 -12t-18.5 -35q0 -15 10.5 -28t27.5 -24.5t37.5 -22.5t40.5 -24q21 -14 43 -29t39.5 -33t29 -40.5t11.5 -49.5q0 -32 -13.5 -58t-36.5 -44t-53.5 -28t-63.5 -10
q-35 0 -66.5 10.5t-54.5 24.5q-27 16 -50 36l63 62q16 -13 34 -24q15 -9 34.5 -16t39.5 -7q12 0 25 3t23.5 9.5t17.5 17t7 24.5q0 17 -8 30t-21 23t-29 19t-32 19q-24 14 -50 29.5t-48 35t-36.5 44.5t-14.5 59q0 20 10.5 42t31.5 40.5t52 30.5t72 12zM352 729l-123 -149
l-123 149l18 29q31 -17 57.5 -34t47.5 -31q21 14 47 31t58 34z" />
    <glyph glyph-name="scedilla" unicode="&#x15f;" horiz-adv-x="438" 
d="M222 -135q0 21 -14 30.5t-31 12.5q-21 3 -21 20q0 6 3 12l33 55q-29 5 -54.5 16.5t-43.5 22.5q-22 13 -39 29l63 62q16 -13 34 -24q15 -9 34.5 -16t39.5 -7q12 0 25 3t23.5 9.5t17.5 17t7 24.5q0 17 -8 30t-21 23t-29 19t-32 19q-24 14 -50 29.5t-48 35t-36.5 44.5
t-14.5 59q0 20 10.5 42t31.5 40.5t52 30.5t72 12q37 0 65 -8.5t48 -19.5q23 -12 40 -27l-63 -62q-10 8 -24 15q-12 6 -29 11t-37 5q-35 0 -53.5 -12t-18.5 -35q0 -15 10.5 -28t27.5 -24.5t37.5 -22.5t40.5 -24q21 -14 43 -29t39.5 -33t29 -40.5t11.5 -49.5
q0 -31 -12.5 -55.5t-33.5 -42.5t-49 -28.5t-59 -12.5l-29 -50q32 -11 51 -38t19 -60q0 -20 -7.5 -39t-21.5 -33t-33 -22.5t-41 -8.5q-17 0 -33 5.5t-28 14.5l39 64q9 -6 22 -6q17 0 31 12.5t14 32.5z" />
    <glyph glyph-name="scircumflex" unicode="&#x15d;" horiz-adv-x="438" 
d="M226 516q37 0 65 -8.5t48 -19.5q23 -12 40 -27l-63 -62q-10 8 -24 15q-12 6 -29 11t-37 5q-35 0 -53.5 -12t-18.5 -35q0 -15 10.5 -28t27.5 -24.5t37.5 -22.5t40.5 -24q21 -14 43 -29t39.5 -33t29 -40.5t11.5 -49.5q0 -32 -13.5 -58t-36.5 -44t-53.5 -28t-63.5 -10
q-35 0 -66.5 10.5t-54.5 24.5q-27 16 -50 36l63 62q16 -13 34 -24q15 -9 34.5 -16t39.5 -7q12 0 25 3t23.5 9.5t17.5 17t7 24.5q0 17 -8 30t-21 23t-29 19t-32 19q-24 14 -50 29.5t-48 35t-36.5 44.5t-14.5 59q0 20 10.5 42t31.5 40.5t52 30.5t72 12zM336 580
q-32 17 -58 33.5t-47 31.5q-21 -15 -47.5 -31.5t-57.5 -33.5l-18 29l123 149l123 -149z" />
    <glyph glyph-name="tcaron" unicode="&#x165;" horiz-adv-x="500" 
d="M212 430v-259q0 -35 5 -55.5t16 -31t29 -13.5t44 -3v-62q-5 -4 -12 -7q-14 -7 -35 -7q-15 0 -39 5.5t-46.5 22t-39 47t-16.5 80.5v283h-78v78h78v172h94v-172h109l-15 -78h-94zM373 758q32 -45 49.5 -101t17.5 -118l-89 8q0 39 -2.5 64.5t-7 46t-11 39.5t-13.5 45z" />
    <glyph glyph-name="uacute" unicode="&#xfa;" horiz-adv-x="569" 
d="M182 609q37 21 65 46.5t48 47.5q23 26 40 51l67 -66q-44 -44 -95.5 -71.5t-106.5 -36.5zM211 -8q-57 0 -87.5 21.5t-44.5 57t-16.5 80.5t-2.5 92v265h95v-265q0 -37 1.5 -67.5t9.5 -52t25.5 -33.5t50.5 -12q26 0 52 9.5t47.5 22.5t37 25.5t21.5 17.5v355h94v-508l-87 -8
l-7 90q-14 -16 -35 -32t-46.5 -29t-53 -21t-54.5 -8z" />
    <glyph glyph-name="ubreve" unicode="&#x16d;" horiz-adv-x="569" 
d="M221 721q0 -26 6 -42t15 -25t20 -12.5t22 -3.5q10 0 21.5 3.5t20.5 12.5t15 25t6 42l39 11q2 -6 2.5 -17t0.5 -17q0 -52 -27 -85t-78 -33t-78 33t-27 85q0 6 0.5 17t2.5 17zM211 -8q-57 0 -87.5 21.5t-44.5 57t-16.5 80.5t-2.5 92v265h95v-265q0 -37 1.5 -67.5t9.5 -52
t25.5 -33.5t50.5 -12q26 0 52 9.5t47.5 22.5t37 25.5t21.5 17.5v355h94v-508l-87 -8l-7 90q-14 -16 -35 -32t-46.5 -29t-53 -21t-54.5 -8z" />
    <glyph glyph-name="ucircumflex" unicode="&#xfb;" horiz-adv-x="569" 
d="M387 580q-32 17 -58 33.5t-47 31.5q-21 -15 -47.5 -31.5t-57.5 -33.5l-18 29l123 149l123 -149zM211 -8q-57 0 -87.5 21.5t-44.5 57t-16.5 80.5t-2.5 92v265h95v-265q0 -37 1.5 -67.5t9.5 -52t25.5 -33.5t50.5 -12q26 0 52 9.5t47.5 22.5t37 25.5t21.5 17.5v355h94v-508
l-87 -8l-7 90q-14 -16 -35 -32t-46.5 -29t-53 -21t-54.5 -8z" />
    <glyph glyph-name="udieresis" unicode="&#xfc;" horiz-adv-x="569" 
d="M129 651q0 23 16 39t39 16t39 -16t16 -39t-16 -39t-39 -16t-39 16t-16 39zM323 651q0 23 16 39t39 16t39 -16t16 -39t-16 -39t-39 -16t-39 16t-16 39zM211 -8q-57 0 -87.5 21.5t-44.5 57t-16.5 80.5t-2.5 92v265h95v-265q0 -37 1.5 -67.5t9.5 -52t25.5 -33.5t50.5 -12
q26 0 52 9.5t47.5 22.5t37 25.5t21.5 17.5v355h94v-508l-87 -8l-7 90q-14 -16 -35 -32t-46.5 -29t-53 -21t-54.5 -8z" />
    <glyph glyph-name="uhungarumlaut" unicode="&#x171;" horiz-adv-x="569" 
d="M161 609q16 8 26.5 32t17.5 50q8 31 13 67l90 -16q-3 -23 -16.5 -50t-32.5 -51t-40 -41t-40 -20zM308 609q16 8 26.5 32t17.5 50q8 31 13 67l90 -16q-3 -23 -16.5 -50t-32.5 -51t-40 -41t-40 -20zM211 -8q-57 0 -87.5 21.5t-44.5 57t-16.5 80.5t-2.5 92v265h95v-265
q0 -37 1.5 -67.5t9.5 -52t25.5 -33.5t50.5 -12q26 0 52 9.5t47.5 22.5t37 25.5t21.5 17.5v355h94v-508l-87 -8l-7 90q-14 -16 -35 -32t-46.5 -29t-53 -21t-54.5 -8z" />
    <glyph glyph-name="ugrave" unicode="&#xf9;" horiz-adv-x="569" 
d="M361 580q-55 9 -106.5 36.5t-95.5 71.5l67 66q17 -25 40 -51q20 -22 48 -47.5t65 -46.5zM211 -8q-57 0 -87.5 21.5t-44.5 57t-16.5 80.5t-2.5 92v265h95v-265q0 -37 1.5 -67.5t9.5 -52t25.5 -33.5t50.5 -12q26 0 52 9.5t47.5 22.5t37 25.5t21.5 17.5v355h94v-508l-87 -8
l-7 90q-14 -16 -35 -32t-46.5 -29t-53 -21t-54.5 -8z" />
    <glyph glyph-name="uogonek" unicode="&#x173;" horiz-adv-x="569" 
d="M211 -8q-57 0 -87.5 21.5t-44.5 57t-16.5 80.5t-2.5 92v265h95v-265q0 -37 1.5 -67.5t9.5 -52t25.5 -33.5t50.5 -12q26 0 52 9.5t47.5 22.5t37 25.5t21.5 17.5v355h94v-508q-28 -15 -50 -34q-19 -17 -34.5 -41t-15.5 -53q0 -21 9.5 -32.5t22.5 -11.5q8 0 14 4q3 2 5 4
l45 -74q-12 -9 -28 -14.5t-33 -5.5q-23 0 -42 8.5t-32.5 22.5t-21.5 33t-8 39q0 25 9.5 48.5t22.5 43t27 33.5t23 22l-7 90q-14 -16 -35 -32t-46.5 -29t-53 -21t-54.5 -8z" />
    <glyph glyph-name="uring" unicode="&#x16f;" horiz-adv-x="569" 
d="M193 673q0 19 7.5 36t20 29.5t29.5 20t37 7.5q19 0 36.5 -7.5t30 -20t20 -29.5t7.5 -36t-7.5 -36t-20 -29.5t-30 -20t-36.5 -7.5q-20 0 -37 7.5t-29.5 20t-20 29.5t-7.5 36zM252 673q0 -14 10.5 -24.5t24.5 -10.5t24.5 10.5t10.5 24.5t-10.5 24.5t-24.5 10.5t-24.5 -10.5
t-10.5 -24.5zM211 -8q-57 0 -87.5 21.5t-44.5 57t-16.5 80.5t-2.5 92v265h95v-265q0 -37 1.5 -67.5t9.5 -52t25.5 -33.5t50.5 -12q26 0 52 9.5t47.5 22.5t37 25.5t21.5 17.5v355h94v-508l-87 -8l-7 90q-14 -16 -35 -32t-46.5 -29t-53 -21t-54.5 -8z" />
    <glyph glyph-name="utilde" unicode="&#x169;" horiz-adv-x="569" 
d="M484 722q-1 -18 -7.5 -41t-19.5 -44t-33.5 -35t-50.5 -14q-20 0 -45 10t-49.5 22t-47.5 22t-40 10t-28 -6t-17.5 -15t-9.5 -18.5t-4 -16.5h-42q1 18 7.5 41t19.5 44t33.5 35t50.5 14q21 0 45.5 -10t49.5 -22t47.5 -22t39.5 -10t28 6t17.5 15t9.5 18.5t4 16.5h42zM211 -8
q-57 0 -87.5 21.5t-44.5 57t-16.5 80.5t-2.5 92v265h95v-265q0 -37 1.5 -67.5t9.5 -52t25.5 -33.5t50.5 -12q26 0 52 9.5t47.5 22.5t37 25.5t21.5 17.5v355h94v-508l-87 -8l-7 90q-14 -16 -35 -32t-46.5 -29t-53 -21t-54.5 -8z" />
    <glyph glyph-name="yacute" unicode="&#xfd;" horiz-adv-x="528" 
d="M111 516l157 -360l156 360l94 -8l-342 -766l-80 16l125 290l-211 460zM166 609q37 21 65 46.5t48 47.5q23 26 40 51l67 -66q-44 -44 -95.5 -71.5t-106.5 -36.5z" />
    <glyph glyph-name="ydieresis" unicode="&#xff;" horiz-adv-x="528" 
d="M111 516l157 -360l156 360l94 -8l-342 -766l-80 16l125 290l-211 460zM120 651q0 23 16 39t39 16t39 -16t16 -39t-16 -39t-39 -16t-39 16t-16 39zM314 651q0 23 16 39t39 16t39 -16t16 -39t-16 -39t-39 -16t-39 16t-16 39z" />
    <glyph glyph-name="ycircumflex" unicode="&#x177;" horiz-adv-x="528" 
d="M111 516l157 -360l156 360l94 -8l-342 -766l-80 16l125 290l-211 460zM377 580q-32 17 -58 33.5t-47 31.5q-21 -15 -47.5 -31.5t-57.5 -33.5l-18 29l123 149l123 -149z" />
    <glyph glyph-name="ygrave" unicode="&#x1ef3;" horiz-adv-x="528" 
d="M111 516l157 -360l156 360l94 -8l-342 -766l-80 16l125 290l-211 460zM359 580q-55 9 -106.5 36.5t-95.5 71.5l67 66q17 -25 40 -51q20 -22 48 -47.5t65 -46.5z" />
    <glyph glyph-name="zacute" unicode="&#x17a;" horiz-adv-x="477" 
d="M166 609q37 21 65 46.5t48 47.5q23 26 40 51l67 -66q-44 -44 -95.5 -71.5t-106.5 -36.5zM188 78h246l-14 -78h-380l250 430h-210v78h357z" />
    <glyph glyph-name="zcaron" unicode="&#x17e;" horiz-adv-x="477" 
d="M385 729l-123 -149l-123 149l18 29q31 -17 57.5 -34t47.5 -31q21 14 47 31t58 34zM188 78h246l-14 -78h-380l250 430h-210v78h357z" />
    <glyph glyph-name="zdotaccent" unicode="&#x17c;" horiz-adv-x="477" 
d="M188 78h246l-14 -78h-380l250 430h-210v78h357zM203 651q0 23 16 39t39 16t39 -16t16 -39t-16 -39t-39 -16t-39 16t-16 39z" />
    <glyph glyph-name="wgrave" unicode="&#x1e81;" horiz-adv-x="681" 
d="M15 508l97 8l103 -344l97 336h78l101 -336l99 344l76 -8l-148 -508h-55l-119 350l-102 -350h-55zM432 580q-55 9 -106.5 36.5t-95.5 71.5l67 66q17 -25 40 -51q20 -22 48 -47.5t65 -46.5z" />
    <glyph glyph-name="wdieresis" unicode="&#x1e85;" horiz-adv-x="681" 
d="M15 508l97 8l103 -344l97 336h78l101 -336l99 344l76 -8l-148 -508h-55l-119 350l-102 -350h-55zM199 651q0 23 16 39t39 16t39 -16t16 -39t-16 -39t-39 -16t-39 16t-16 39zM393 651q0 23 16 39t39 16t39 -16t16 -39t-16 -39t-39 -16t-39 16t-16 39z" />
    <glyph glyph-name="wcircumflex" unicode="&#x175;" horiz-adv-x="681" 
d="M15 508l97 8l103 -344l97 336h78l101 -336l99 344l76 -8l-148 -508h-55l-119 350l-102 -350h-55zM456 580q-32 17 -58 33.5t-47 31.5q-21 -15 -47.5 -31.5t-57.5 -33.5l-18 29l123 149l123 -149z" />
    <glyph glyph-name="wacute" unicode="&#x1e83;" horiz-adv-x="681" 
d="M15 508l97 8l103 -344l97 336h78l101 -336l99 344l76 -8l-148 -508h-55l-119 350l-102 -350h-55zM264 609q37 21 65 46.5t48 47.5q23 26 40 51l67 -66q-44 -44 -95.5 -71.5t-106.5 -36.5z" />
    <glyph glyph-name="macron" unicode="&#xaf;" horiz-adv-x="794" 
d="M209 653h385l-9 -63h-385z" />
    <glyph glyph-name="Amacron" unicode="&#x100;" horiz-adv-x="703" 
d="M693 8l-104 -16l-71 160h-325l-71 -160l-102 16l303 672h67zM475 246l-121 266l-119 -266h240zM168 821h385l-9 -63h-385z" />
    <glyph glyph-name="Emacron" unicode="&#x112;" horiz-adv-x="580" 
d="M202 586v-195h265v-94h-265v-203h328l-16 -94h-414v680h414v-94h-312zM117 821h385l-9 -63h-385z" />
    <glyph glyph-name="Imacron" unicode="&#x12a;" horiz-adv-x="342" 
d="M222 680v-680l-102 -8v688h102zM-17 821h385l-9 -63h-385z" />
    <glyph glyph-name="Omacron" unicode="&#x14c;" horiz-adv-x="803" 
d="M162 340q0 -53 19 -99t52 -80.5t77 -54.5t94 -20t94 20t77 54.5t52 80.5t19 99q0 52 -19 98.5t-52 81t-77 54.5t-94 20t-94 -20t-77 -54.5t-52 -81t-19 -98.5zM216 821h385l-9 -63h-385zM60 340q0 72 27 135.5t73.5 110.5t109.5 74.5t134 27.5t134 -27.5t109.5 -74.5
t73.5 -110.5t27 -135.5t-27 -135.5t-73.5 -110.5t-109.5 -74.5t-134 -27.5t-134 27.5t-109.5 74.5t-73.5 110.5t-27 135.5z" />
    <glyph glyph-name="Umacron" unicode="&#x16a;" horiz-adv-x="668" 
d="M588 281q0 -62 -14 -114.5t-44 -91.5t-77.5 -61t-114.5 -22q-71 0 -120 22t-79.5 61t-44.5 91.5t-14 114.5v399l102 8v-399q0 -38 3.5 -74.5t18.5 -65t46.5 -46t87.5 -17.5q53 0 84 16.5t47 44t20.5 64.5t4.5 78v391h94v-399zM149 821h385l-9 -63h-385z" />
    <glyph glyph-name="Zacute" unicode="&#x179;" horiz-adv-x="598" 
d="M215 88h304l-16 -88h-453l329 592h-282v88h446zM220 771q37 21 65 46.5t48 47.5q23 26 40 51l67 -66q-44 -44 -95.5 -71.5t-106.5 -36.5z" />
    <glyph glyph-name="Zcaron" unicode="&#x17d;" horiz-adv-x="598" 
d="M215 88h304l-16 -88h-453l329 592h-282v88h446zM446 891l-123 -149l-123 149l18 29q31 -17 57.5 -34t47.5 -31q21 14 47 31t58 34z" />
    <glyph glyph-name="Zdotaccent" unicode="&#x17b;" horiz-adv-x="598" 
d="M215 88h304l-16 -88h-453l329 592h-282v88h446zM268 813q0 23 16 39t39 16t39 -16t16 -39t-16 -39t-39 -16t-39 16t-16 39z" />
    <glyph glyph-name="imacron" unicode="&#x12b;" horiz-adv-x="284" 
d="M194 508v-508h-94v508h94zM-43 651h385l-9 -63h-385z" />
    <glyph glyph-name="omacron" unicode="&#x14d;" horiz-adv-x="624" 
d="M312 516q53 0 100.5 -21t83.5 -57t57 -83.5t21 -100.5t-21 -100.5t-57 -83.5t-83.5 -57t-100.5 -21t-100.5 21t-83.5 57t-57 83.5t-21 100.5t21 100.5t57 83.5t83.5 57t100.5 21zM148 254q0 -36 13 -68t35 -56t52 -38t64 -14t64 14t52 38t35 56t13 68t-13 68t-35 56
t-52 38t-64 14t-64 -14t-52 -38t-35 -56t-13 -68zM124 651h385l-9 -63h-385z" />
    <glyph glyph-name="umacron" unicode="&#x16b;" horiz-adv-x="569" 
d="M89 651h385l-9 -63h-385zM211 -8q-57 0 -87.5 21.5t-44.5 57t-16.5 80.5t-2.5 92v265h95v-265q0 -37 1.5 -67.5t9.5 -52t25.5 -33.5t50.5 -12q26 0 52 9.5t47.5 22.5t37 25.5t21.5 17.5v355h94v-508l-87 -8l-7 90q-14 -16 -35 -32t-46.5 -29t-53 -21t-54.5 -8z" />
    <glyph glyph-name="hbar" unicode="&#x127;" horiz-adv-x="590" 
d="M9 659h81v91l94 8v-99h104l-9 -63h-95v-170q12 15 29.5 30.5t38.5 29t46 22t52 8.5q63 0 98.5 -21.5t52.5 -57t20.5 -80.5t3.5 -92v-265h-95v265q0 37 -2 67t-11 52t-27.5 34t-51.5 12q-26 0 -51 -10t-46 -22.5t-36 -25l-21 -17.5v-355h-94v596h-90z" />
    <glyph glyph-name="tbar" unicode="&#x167;" horiz-adv-x="371" 
d="M212 430v-97h109l-9 -63h-100v-99q0 -35 5 -55.5t16 -31t29 -13.5t44 -3v-62q-5 -4 -12 -7q-14 -7 -35 -7q-15 0 -39 5.5t-46.5 22t-39 47t-16.5 80.5v123h-85l9 63h76v97h-78v78h78v172h94v-172h109l-15 -78h-94z" />
    <glyph glyph-name="Hbar" unicode="&#x126;" horiz-adv-x="744" 
d="M644 680v-109h104l-9 -63h-95v-508h-102v297h-340v-297h-102v508h-104l9 63h95v109h102v-109h340v109h102zM542 391v117h-340v-117h340z" />
    <glyph glyph-name="Dcroat" unicode="&#x110;" horiz-adv-x="730" 
d="M14 396h86v284h227q79 0 142.5 -24t108 -68.5t68.5 -108t24 -142.5q0 -77 -24 -139t-68.5 -106t-108 -68t-142.5 -24h-227v333h-95zM318 94q58 0 104.5 13.5t79 43t49.5 75.5t17 111q0 67 -20.5 114.5t-55 77.5t-80 43.5t-94.5 13.5h-116v-190h197l-9 -63h-188v-239h116z
" />
    <glyph glyph-name="dcroat" unicode="&#x111;" horiz-adv-x="631" 
d="M367 659h95v91l94 8v-99h90l-9 -63h-81v-596h-94v78q-12 -18 -30 -33.5t-40 -27t-46.5 -18.5t-47.5 -7q-53 0 -100 21.5t-82 58.5t-55.5 85t-20.5 101q0 52 20.5 99t55.5 82.5t82 56t100 20.5q23 0 47.5 -7t46.5 -18.5t40 -27t30 -33.5v166h-104zM134 258q0 -38 12.5 -71
t34.5 -57t52 -38t65 -14t66.5 14t55 38t37 57t13.5 71q0 35 -13.5 66.5t-37 55t-55 37t-66.5 13.5t-65 -13.5t-52 -37t-34.5 -55t-12.5 -66.5z" />
    <glyph glyph-name="Lslash" unicode="&#x141;" horiz-adv-x="512" 
d="M502 102l-14 -102h-368v232l-80 -63v84l80 63v364l102 8v-292l151 120v-84l-151 -120v-210h280z" />
    <glyph glyph-name="lslash" unicode="&#x142;" horiz-adv-x="314" 
d="M204 758v-306l80 67v-87l-80 -67v-365h-94v286l-80 -67v87l80 67v377z" />
    <glyph glyph-name="Gcommaaccent" unicode="&#x122;" horiz-adv-x="728" 
d="M336 -242q7 26 12 44.5t7.5 38t3.5 44.5t1 64l89 8q0 -62 -12.5 -116t-44.5 -99zM404 594q-50 0 -94 -20t-77 -54.5t-52 -81t-19 -98.5q0 -53 19 -99t52 -80.5t77 -54.5t94 -20q42 0 73.5 5.5t67.5 17.5v133h-131l16 94h217v-258q-21 -24 -49.5 -40t-60.5 -26.5
t-66.5 -15t-66.5 -4.5q-70 0 -132.5 27.5t-109.5 74.5t-74.5 109.5t-27.5 132.5t27.5 134t74.5 112.5t109.5 77t132.5 28.5q72 0 134 -29.5t110 -78.5l-71 -63q-33 35 -76 56t-97 21z" />
    <glyph glyph-name="Kcommaaccent" unicode="&#x136;" horiz-adv-x="623" 
d="M254 -242q7 26 12 44.5t7.5 38t3.5 44.5t1 64l89 8q0 -62 -12.5 -116t-44.5 -99zM350 454l235 -454h-114l-198 384l-71 -72v-312h-102v680l102 8v-257l253 249h138z" />
    <glyph glyph-name="Lcommaaccent" unicode="&#x13b;" horiz-adv-x="492" 
d="M226 -242q7 26 12 44.5t7.5 38t3.5 44.5t1 64l89 8q0 -62 -12.5 -116t-44.5 -99zM482 102l-14 -102h-368v680l102 8v-586h280z" />
    <glyph glyph-name="Ncommaaccent" unicode="&#x145;" horiz-adv-x="747" 
d="M315 -242q7 26 12 44.5t7.5 38t3.5 44.5t1 64l89 8q0 -62 -12.5 -116t-44.5 -99zM647 680v-672l-86 -16l-367 523v-515h-94v672l94 16l367 -523v515h86z" />
    <glyph glyph-name="Rcommaaccent" unicode="&#x156;" horiz-adv-x="643" 
d="M261 -242q7 26 12 44.5t7.5 38t3.5 44.5t1 64l89 8q0 -62 -12.5 -116t-44.5 -99zM582 466q0 -69 -38.5 -119.5t-99.5 -73.5l139 -265l-105 -16l-140 265h-136v-257h-102v680h248q54 0 97.5 -17t73.5 -46t46.5 -68t16.5 -83zM202 345h126q33 0 61 6.5t48 21t31.5 37.5
t11.5 56t-11.5 55.5t-31.5 37t-48 21t-61 6.5h-126v-241z" />
    <glyph glyph-name="Tcommaaccent" unicode="&#x162;" horiz-adv-x="526" 
d="M195 -242q7 26 12 44.5t7.5 38t3.5 44.5t1 64l89 8q0 -62 -12.5 -116t-44.5 -99zM486 586h-172v-586l-102 -8v594h-172v94h446v-94z" />
    <glyph glyph-name="Scommaaccent" unicode="&#x218;" horiz-adv-x="525" 
d="M211 -242q7 26 12 44.5t7.5 38t3.5 44.5t1 64l89 8q0 -62 -12.5 -116t-44.5 -99zM269 688q35 0 69 -10t60 -22q31 -14 59 -31l-55 -78q-15 12 -35 23q-18 9 -44.5 16.5t-61.5 7.5q-21 0 -38 -6.5t-29 -17.5t-19 -25t-7 -29q0 -23 11 -41.5t29.5 -35t42.5 -32t50 -30.5
q32 -19 64 -39.5t57.5 -45.5t41.5 -56.5t16 -71.5q0 -44 -18.5 -76.5t-48.5 -53.5t-68 -31.5t-76 -10.5q-48 0 -87.5 14.5t-68.5 32.5q-34 20 -63 47l63 62q26 -18 52 -31q23 -12 50.5 -21.5t53.5 -9.5q48 0 78.5 18t30.5 60q0 22 -11 40t-29 34t-41.5 30t-48.5 28
q-32 18 -64.5 38t-58.5 46t-42.5 59t-16.5 77q0 29 12 59.5t36.5 55.5t63 41t91.5 16z" />
    <glyph glyph-name="Tbar" unicode="&#x166;" horiz-adv-x="526" 
d="M75 404h137v182h-172v94h446v-94h-172v-182h146l-9 -63h-137v-341l-102 -8v349h-146z" />
    <glyph glyph-name="gcommaaccent" unicode="&#x123;" horiz-adv-x="637" 
d="M372 779q-8 -26 -12.5 -44.5t-7 -38t-3.5 -44.5t-1 -64l-89 -8q0 62 12.5 116t44.5 99zM567 0q0 -68 -20.5 -116.5t-56 -80t-82.5 -46.5t-100 -15q-59 0 -109 13.5t-79 48.5l63 63q18 -23 50.5 -31t74.5 -8q32 0 62 7t53 26.5t36.5 52.5t13.5 86v77q-12 -17 -30.5 -32.5
t-40.5 -27t-46 -18.5t-48 -7q-53 0 -99.5 21.5t-82 58.5t-56 84.5t-20.5 100.5t20.5 100t56 82.5t82 56t99.5 20.5q24 0 48 -6t46 -17t40.5 -27t30.5 -36v78l94 8v-516zM308 77q35 0 66.5 14t55 38t37 57t13.5 71q0 36 -13.5 67.5t-37 55t-55 37t-66.5 13.5t-65 -13.5
t-52 -37t-34.5 -55t-12.5 -67.5q0 -38 12.5 -71t34.5 -57t52 -38t65 -14z" />
    <glyph glyph-name="kcommaaccent" unicode="&#x137;" horiz-adv-x="524" 
d="M211 -242q7 26 12 44.5t7.5 38t3.5 44.5t1 64l89 8q0 -62 -12.5 -116t-44.5 -99zM329 352l180 -352h-104l-151 296l-70 -62v-234h-94v680l94 8v-357l191 177h118z" />
    <glyph glyph-name="lcommaaccent" unicode="&#x13c;" horiz-adv-x="274" 
d="M81 -242q7 26 12 44.5t7.5 38t3.5 44.5t1 64l89 8q0 -62 -12.5 -116t-44.5 -99zM194 758v-758h-94v750z" />
    <glyph glyph-name="ncommaaccent" unicode="&#x146;" horiz-adv-x="601" 
d="M239 -242q7 26 12 44.5t7.5 38t3.5 44.5t1 64l89 8q0 -62 -12.5 -116t-44.5 -99zM367 516q63 0 97.5 -21.5t50.5 -57t18.5 -80.5t2.5 -92v-265h-94v265q0 37 -1.5 67t-9.5 52t-25.5 34t-50.5 12q-36 0 -66.5 -10t-54 -22.5t-39 -25t-21.5 -17.5v-355h-94v508l87 8l7 -90
q12 15 33 30.5t47 29t55 22t58 8.5z" />
    <glyph glyph-name="scommaaccent" unicode="&#x219;" horiz-adv-x="438" 
d="M170 -242q7 26 12 44.5t7.5 38t3.5 44.5t1 64l89 8q0 -62 -12.5 -116t-44.5 -99zM226 516q37 0 65 -8.5t48 -19.5q23 -12 40 -27l-63 -62q-10 8 -24 15q-12 6 -29 11t-37 5q-35 0 -53.5 -12t-18.5 -35q0 -15 10.5 -28t27.5 -24.5t37.5 -22.5t40.5 -24q21 -14 43 -29
t39.5 -33t29 -40.5t11.5 -49.5q0 -32 -13.5 -58t-36.5 -44t-53.5 -28t-63.5 -10q-35 0 -66.5 10.5t-54.5 24.5q-27 16 -50 36l63 62q16 -13 34 -24q15 -9 34.5 -16t39.5 -7q12 0 25 3t23.5 9.5t17.5 17t7 24.5q0 17 -8 30t-21 23t-29 19t-32 19q-24 14 -50 29.5t-48 35
t-36.5 44.5t-14.5 59q0 20 10.5 42t31.5 40.5t52 30.5t72 12z" />
    <glyph glyph-name="rcommaaccent" unicode="&#x157;" horiz-adv-x="422" 
d="M61 -242q7 26 12 44.5t7.5 38t3.5 44.5t1 64l89 8q0 -62 -12.5 -116t-44.5 -99zM358 423q-8 4 -18.5 5.5t-21.5 1.5q-23 0 -46 -10t-42.5 -22.5t-34.5 -25l-21 -17.5v-355h-94v508l87 8l7 -90q12 15 30 30.5t41.5 29t51 22t58.5 8.5q13 0 23 -2.5l18 -4.5q9 -4 16 -7z
" />
    <glyph glyph-name="tcommaaccent" unicode="&#x163;" horiz-adv-x="371" 
d="M119 -242q7 26 12 44.5t7.5 38t3.5 44.5t1 64l89 8q0 -62 -12.5 -116t-44.5 -99zM212 430v-259q0 -35 5 -55.5t16 -31t29 -13.5t44 -3v-62q-5 -4 -12 -7q-14 -7 -35 -7q-15 0 -39 5.5t-46.5 22t-39 47t-16.5 80.5v283h-78v78h78v172h94v-172h109l-15 -78h-94z" />
    <glyph glyph-name="lacute" unicode="&#x13a;" horiz-adv-x="274" 
d="M194 688v-688h-94v680zM49 771q37 21 65 46.5t48 47.5q23 26 40 51l67 -66q-44 -44 -95.5 -71.5t-106.5 -36.5z" />
    <glyph glyph-name="pi" unicode="&#x3c0;" horiz-adv-x="748" 
d="M197 426q-23 -3 -40.5 -8t-30.5 -10q-15 -5 -26 -11v86q18 9 41 16q20 6 46.5 11.5t59.5 5.5q29 0 63 -10.5t68 -22.5t66 -22.5t57 -10.5q32 0 59 5t47 11q23 7 41 17v-86q-13 -7 -30 -13q-14 -5 -34 -10.5t-44 -7.5v-366h-84v370q-41 9 -84 26t-81 27v-423h-94v426z" />
    <glyph glyph-name="lozenge" unicode="&#x25ca;" horiz-adv-x="658" 
d="M608 340l-279 -348l-279 348l279 348zM491 340l-162 202l-162 -202l162 -202z" />
    <glyph glyph-name="integral" unicode="&#x222b;" horiz-adv-x="507" 
d="M217 508q3 68 17 115.5t38.5 77.5t58.5 43.5t76 13.5v-86q-44 0 -68 -35.5t-28 -128.5l-21 -516q-5 -135 -54.5 -192.5t-135.5 -57.5v86q44 0 68 35.5t28 128.5z" />
    <glyph glyph-name="radical" unicode="&#x221a;" horiz-adv-x="931" 
d="M831 758l-378 -1016l-226 500q-31 -3 -57 -14.5t-28 -40.5h-42q1 33 20 61t47.5 49t62 32.5t63.5 11.5l161 -350l272 751z" />
    <glyph glyph-name="infinity" unicode="&#x221e;" horiz-adv-x="904" 
d="M285 45q-38 0 -72 15t-59 41t-39.5 61t-14.5 74t14.5 74t39.5 61t59 41t72 15q49 0 87.5 -25t68.5 -61l-49 -68q-22 29 -49 48.5t-58 19.5q-38 0 -64.5 -30.5t-26.5 -74.5t26.5 -74.5t64.5 -30.5q30 0 56 21.5t51.5 54.5t51 70.5t55 70.5t63 54.5t75.5 21.5
q34 0 64.5 -15t53.5 -40.5t36 -59.5t13 -73t-13 -73.5t-36 -60t-53.5 -40t-64.5 -14.5q-40 0 -74.5 23t-67.5 63l48 67q19 -25 42 -46t52 -21q33 0 53 29.5t20 72.5t-20 72.5t-53 29.5q-25 0 -47.5 -21.5t-46.5 -54.5t-50 -70.5t-56.5 -70.5t-68 -54.5t-83.5 -21.5z" />
    <glyph glyph-name="Delta" unicode="&#x2206;" horiz-adv-x="713" 
d="M356 688l307 -688h-613zM187 86h325l-162 366z" />
    <glyph glyph-name="product" unicode="&#x220f;" horiz-adv-x="744" 
d="M542 586h-340v-836h-102v930h544v-930h-102v836z" />
    <glyph glyph-name="summation" unicode="&#x2211;" horiz-adv-x="630" 
d="M315 255l-215 495h414v-86h-269l174 -399l-180 -421h291l-16 -94h-414z" />
    <glyph glyph-name="Omega" unicode="&#x2126;" horiz-adv-x="888" 
d="M510 86q37 14 69.5 39t56 58.5t37 73.5t13.5 84q0 52 -19 98.5t-52 80.5t-77 54t-94 20t-94 -20t-77 -54t-52 -80.5t-19 -98.5q0 -44 13.5 -84t37 -73.5t55.5 -58.5t70 -39l15 -86h-278l-15 86h137q-62 42 -99.5 106.5t-37.5 148.5q0 70 27.5 133.5t74 110.5t109 75
t133.5 28q70 0 133 -28t109.5 -75t74 -110.5t27.5 -133.5q0 -84 -37.5 -148.5t-100.5 -106.5h138l-15 -86h-278z" />
    <glyph glyph-name="napostrophe" unicode="&#x149;" horiz-adv-x="616" 
d="M-24 555q7 26 13.5 45t11 39.5t7 46t2.5 64.5l89 8q0 -62 -17.5 -118t-49.5 -101zM382 516q63 0 97.5 -21.5t50.5 -57t18.5 -80.5t2.5 -92v-265h-94v265q0 37 -1.5 67t-9.5 52t-25.5 34t-50.5 12q-36 0 -66.5 -10t-54 -22.5t-39 -25t-21.5 -17.5v-355h-94v508l87 8l7 -90
q12 15 33 30.5t47 29t55 22t58 8.5z" />
    <glyph glyph-name="kgreenlandic" unicode="&#x138;" horiz-adv-x="524" 
d="M184 0h-94v680l94 8v-347q7 1 36.5 14.5t62.5 36t60.5 52t31.5 64.5h118q0 -24 -14 -47t-37 -44t-52 -39t-58 -33l177 -345h-104l-157 309q-15 -5 -36 -7.5t-28 -2.5v-299z" />
    <glyph glyph-name="M" unicode="M" horiz-adv-x="825" 
d="M785 8l-102 -16l-63 473l-163 -473h-79l-171 473l-55 -473l-102 16l95 680h86l194 -540l179 540h86z" />
    <glyph glyph-name="a" unicode="a" horiz-adv-x="641" 
d="M50 258q0 52 20.5 99t55.5 82.5t82 56t100 20.5q23 0 47.5 -7t46.5 -18.5t40 -27t30 -33.5v78l94 8v-516h-94v78q-12 -18 -30 -33.5t-40 -27t-46.5 -18.5t-47.5 -7q-53 0 -100 21.5t-82 58.5t-55.5 85t-20.5 101zM144 258q0 -38 12.5 -71t34.5 -57t52 -38t65 -14t66.5 14
t55 38t37 57t13.5 71q0 35 -13.5 66.5t-37 55t-55 37t-66.5 13.5t-65 -13.5t-52 -37t-34.5 -55t-12.5 -66.5z" />
    <glyph glyph-name="e" unicode="e" horiz-adv-x="586" 
d="M146 227q5 -33 20.5 -60t37 -47t48.5 -31t56 -11q42 0 72 15.5t53 39.5l63 -63q-35 -35 -82 -56.5t-106 -21.5q-53 0 -100 21.5t-82 58.5t-55.5 85t-20.5 101t19.5 100t54 82t80.5 55.5t99 20.5q58 0 104 -22t78 -60.5t49 -91.5t17 -115h-405zM308 430q-27 0 -52 -9.5
t-46 -26.5t-36.5 -39.5t-22.5 -49.5h300q-13 54 -51 89.5t-92 35.5z" />
    <glyph glyph-name="ampersand" unicode="&#x26;" horiz-adv-x="703" 
d="M493 301v-130q0 -35 5 -55.5t16 -31t29 -13.5t44 -3v-62q-5 -4 -12 -7q-14 -7 -35 -7q-15 0 -39 5.5t-46.5 22t-39 47t-16.5 80.5v154h-90q-22 0 -41.5 -8.5t-34 -23t-23 -34.5t-8.5 -42q0 -23 8.5 -42.5t23 -33.5t34 -22.5t41.5 -8.5q17 0 27 3.5t21 11.5l46 -74
q-18 -17 -41.5 -26t-52.5 -9q-43 0 -81 16t-66.5 43t-45 63.5t-16.5 78.5q0 50 23.5 91t61.5 67q-29 26 -45 61.5t-16 78.5q0 41 15.5 77t42 62.5t62.5 42t77 15.5q82 0 127 -52.5t45 -164.5v-82h110l-16 -88h-94zM399 389v82q0 36 -5 60t-14.5 38t-24.5 19.5t-34 5.5
q-20 0 -37 -8t-30 -22t-20.5 -33t-7.5 -40t7.5 -40t20.5 -32.5t30 -21.5t37 -8h78z" />
    <glyph glyph-name="aacute" unicode="&#xe1;" horiz-adv-x="641" 
d="M50 258q0 52 20.5 99t55.5 82.5t82 56t100 20.5q23 0 47.5 -7t46.5 -18.5t40 -27t30 -33.5v78l94 8v-516h-94v78q-12 -18 -30 -33.5t-40 -27t-46.5 -18.5t-47.5 -7q-53 0 -100 21.5t-82 58.5t-55.5 85t-20.5 101zM144 258q0 -38 12.5 -71t34.5 -57t52 -38t65 -14t66.5 14
t55 38t37 57t13.5 71q0 35 -13.5 66.5t-37 55t-55 37t-66.5 13.5t-65 -13.5t-52 -37t-34.5 -55t-12.5 -66.5zM223 609q37 21 65 46.5t48 47.5q23 26 40 51l67 -66q-44 -44 -95.5 -71.5t-106.5 -36.5z" />
    <glyph glyph-name="abreve" unicode="&#x103;" horiz-adv-x="641" 
d="M50 258q0 52 20.5 99t55.5 82.5t82 56t100 20.5q23 0 47.5 -7t46.5 -18.5t40 -27t30 -33.5v78l94 8v-516h-94v78q-12 -18 -30 -33.5t-40 -27t-46.5 -18.5t-47.5 -7q-53 0 -100 21.5t-82 58.5t-55.5 85t-20.5 101zM144 258q0 -38 12.5 -71t34.5 -57t52 -38t65 -14t66.5 14
t55 38t37 57t13.5 71q0 35 -13.5 66.5t-37 55t-55 37t-66.5 13.5t-65 -13.5t-52 -37t-34.5 -55t-12.5 -66.5zM257 721q0 -26 6 -42t15 -25t20 -12.5t22 -3.5q10 0 21.5 3.5t20.5 12.5t15 25t6 42l39 11q2 -6 2.5 -17t0.5 -17q0 -52 -27 -85t-78 -33t-78 33t-27 85
q0 6 0.5 17t2.5 17z" />
    <glyph glyph-name="acircumflex" unicode="&#xe2;" horiz-adv-x="641" 
d="M50 258q0 52 20.5 99t55.5 82.5t82 56t100 20.5q23 0 47.5 -7t46.5 -18.5t40 -27t30 -33.5v78l94 8v-516h-94v78q-12 -18 -30 -33.5t-40 -27t-46.5 -18.5t-47.5 -7q-53 0 -100 21.5t-82 58.5t-55.5 85t-20.5 101zM144 258q0 -38 12.5 -71t34.5 -57t52 -38t65 -14t66.5 14
t55 38t37 57t13.5 71q0 35 -13.5 66.5t-37 55t-55 37t-66.5 13.5t-65 -13.5t-52 -37t-34.5 -55t-12.5 -66.5zM425 580q-32 17 -58 33.5t-47 31.5q-21 -15 -47.5 -31.5t-57.5 -33.5l-18 29l123 149l123 -149z" />
    <glyph glyph-name="adieresis" unicode="&#xe4;" horiz-adv-x="641" 
d="M50 258q0 52 20.5 99t55.5 82.5t82 56t100 20.5q23 0 47.5 -7t46.5 -18.5t40 -27t30 -33.5v78l94 8v-516h-94v78q-12 -18 -30 -33.5t-40 -27t-46.5 -18.5t-47.5 -7q-53 0 -100 21.5t-82 58.5t-55.5 85t-20.5 101zM144 258q0 -38 12.5 -71t34.5 -57t52 -38t65 -14t66.5 14
t55 38t37 57t13.5 71q0 35 -13.5 66.5t-37 55t-55 37t-66.5 13.5t-65 -13.5t-52 -37t-34.5 -55t-12.5 -66.5zM168 651q0 23 16 39t39 16t39 -16t16 -39t-16 -39t-39 -16t-39 16t-16 39zM362 651q0 23 16 39t39 16t39 -16t16 -39t-16 -39t-39 -16t-39 16t-16 39z" />
    <glyph glyph-name="agrave" unicode="&#xe0;" horiz-adv-x="641" 
d="M50 258q0 52 20.5 99t55.5 82.5t82 56t100 20.5q23 0 47.5 -7t46.5 -18.5t40 -27t30 -33.5v78l94 8v-516h-94v78q-12 -18 -30 -33.5t-40 -27t-46.5 -18.5t-47.5 -7q-53 0 -100 21.5t-82 58.5t-55.5 85t-20.5 101zM144 258q0 -38 12.5 -71t34.5 -57t52 -38t65 -14t66.5 14
t55 38t37 57t13.5 71q0 35 -13.5 66.5t-37 55t-55 37t-66.5 13.5t-65 -13.5t-52 -37t-34.5 -55t-12.5 -66.5zM402 580q-55 9 -106.5 36.5t-95.5 71.5l67 66q17 -25 40 -51q20 -22 48 -47.5t65 -46.5z" />
    <glyph glyph-name="amacron" unicode="&#x101;" horiz-adv-x="641" 
d="M50 258q0 52 20.5 99t55.5 82.5t82 56t100 20.5q23 0 47.5 -7t46.5 -18.5t40 -27t30 -33.5v78l94 8v-516h-94v78q-12 -18 -30 -33.5t-40 -27t-46.5 -18.5t-47.5 -7q-53 0 -100 21.5t-82 58.5t-55.5 85t-20.5 101zM144 258q0 -38 12.5 -71t34.5 -57t52 -38t65 -14t66.5 14
t55 38t37 57t13.5 71q0 35 -13.5 66.5t-37 55t-55 37t-66.5 13.5t-65 -13.5t-52 -37t-34.5 -55t-12.5 -66.5zM132 651h385l-9 -63h-385z" />
    <glyph glyph-name="aogonek" unicode="&#x105;" horiz-adv-x="641" 
d="M472 78q-12 -18 -30 -33.5t-40 -27t-46.5 -18.5t-47.5 -7q-53 0 -100 21.5t-82 58.5t-55.5 85t-20.5 101q0 52 20.5 99t55.5 82.5t82 56t100 20.5q23 0 47.5 -7t46.5 -18.5t40 -27t30 -33.5v78l94 8v-516q-16 -11 -36 -26t-37 -31.5t-29 -34.5t-12 -36q0 -21 9.5 -32.5
t22.5 -11.5q8 0 14 4q3 2 5 4l45 -74q-12 -9 -28 -14.5t-33 -5.5q-23 0 -42 8.5t-32.5 22.5t-21.5 33t-8 39q0 23 10 46.5t24 44t29 37.5t26 27v78zM144 258q0 -38 12.5 -71t34.5 -57t52 -38t65 -14t66.5 14t55 38t37 57t13.5 71q0 35 -13.5 66.5t-37 55t-55 37t-66.5 13.5
t-65 -13.5t-52 -37t-34.5 -55t-12.5 -66.5z" />
    <glyph glyph-name="aring" unicode="&#xe5;" horiz-adv-x="641" 
d="M50 258q0 52 20.5 99t55.5 82.5t82 56t100 20.5q23 0 47.5 -7t46.5 -18.5t40 -27t30 -33.5v78l94 8v-516h-94v78q-12 -18 -30 -33.5t-40 -27t-46.5 -18.5t-47.5 -7q-53 0 -100 21.5t-82 58.5t-55.5 85t-20.5 101zM144 258q0 -38 12.5 -71t34.5 -57t52 -38t65 -14t66.5 14
t55 38t37 57t13.5 71q0 35 -13.5 66.5t-37 55t-55 37t-66.5 13.5t-65 -13.5t-52 -37t-34.5 -55t-12.5 -66.5zM226 673q0 19 7.5 36t20 29.5t29.5 20t37 7.5q19 0 36.5 -7.5t30 -20t20 -29.5t7.5 -36t-7.5 -36t-20 -29.5t-30 -20t-36.5 -7.5q-20 0 -37 7.5t-29.5 20t-20 29.5
t-7.5 36zM285 673q0 -14 10.5 -24.5t24.5 -10.5t24.5 10.5t10.5 24.5t-10.5 24.5t-24.5 10.5t-24.5 -10.5t-10.5 -24.5z" />
    <glyph glyph-name="atilde" unicode="&#xe3;" horiz-adv-x="641" 
d="M50 258q0 52 20.5 99t55.5 82.5t82 56t100 20.5q23 0 47.5 -7t46.5 -18.5t40 -27t30 -33.5v78l94 8v-516h-94v78q-12 -18 -30 -33.5t-40 -27t-46.5 -18.5t-47.5 -7q-53 0 -100 21.5t-82 58.5t-55.5 85t-20.5 101zM144 258q0 -38 12.5 -71t34.5 -57t52 -38t65 -14t66.5 14
t55 38t37 57t13.5 71q0 35 -13.5 66.5t-37 55t-55 37t-66.5 13.5t-65 -13.5t-52 -37t-34.5 -55t-12.5 -66.5zM517 722q-1 -18 -7.5 -41t-19.5 -44t-33.5 -35t-50.5 -14q-20 0 -45 10t-49.5 22t-47.5 22t-40 10t-28 -6t-17.5 -15t-9.5 -18.5t-4 -16.5h-42q1 18 7.5 41
t19.5 44t33.5 35t50.5 14q21 0 45.5 -10t49.5 -22t47.5 -22t39.5 -10t28 6t17.5 15t9.5 18.5t4 16.5h42z" />
    <glyph glyph-name="eacute" unicode="&#xe9;" horiz-adv-x="586" 
d="M146 227q5 -33 20.5 -60t37 -47t48.5 -31t56 -11q42 0 72 15.5t53 39.5l63 -63q-35 -35 -82 -56.5t-106 -21.5q-53 0 -100 21.5t-82 58.5t-55.5 85t-20.5 101t19.5 100t54 82t80.5 55.5t99 20.5q58 0 104 -22t78 -60.5t49 -91.5t17 -115h-405zM308 430q-27 0 -52 -9.5
t-46 -26.5t-36.5 -39.5t-22.5 -49.5h300q-13 54 -51 89.5t-92 35.5zM198 609q37 21 65 46.5t48 47.5q23 26 40 51l67 -66q-44 -44 -95.5 -71.5t-106.5 -36.5z" />
    <glyph glyph-name="ebreve" unicode="&#x115;" horiz-adv-x="586" 
d="M146 227q5 -33 20.5 -60t37 -47t48.5 -31t56 -11q42 0 72 15.5t53 39.5l63 -63q-35 -35 -82 -56.5t-106 -21.5q-53 0 -100 21.5t-82 58.5t-55.5 85t-20.5 101t19.5 100t54 82t80.5 55.5t99 20.5q58 0 104 -22t78 -60.5t49 -91.5t17 -115h-405zM308 430q-27 0 -52 -9.5
t-46 -26.5t-36.5 -39.5t-22.5 -49.5h300q-13 54 -51 89.5t-92 35.5zM245 721q0 -26 6 -42t15 -25t20 -12.5t22 -3.5q10 0 21.5 3.5t20.5 12.5t15 25t6 42l39 11q2 -6 2.5 -17t0.5 -17q0 -52 -27 -85t-78 -33t-78 33t-27 85q0 6 0.5 17t2.5 17z" />
    <glyph glyph-name="ecaron" unicode="&#x11b;" horiz-adv-x="586" 
d="M146 227q5 -33 20.5 -60t37 -47t48.5 -31t56 -11q42 0 72 15.5t53 39.5l63 -63q-35 -35 -82 -56.5t-106 -21.5q-53 0 -100 21.5t-82 58.5t-55.5 85t-20.5 101t19.5 100t54 82t80.5 55.5t99 20.5q58 0 104 -22t78 -60.5t49 -91.5t17 -115h-405zM308 430q-27 0 -52 -9.5
t-46 -26.5t-36.5 -39.5t-22.5 -49.5h300q-13 54 -51 89.5t-92 35.5zM431 729l-123 -149l-123 149l18 29q31 -17 57.5 -34t47.5 -31q21 14 47 31t58 34z" />
    <glyph glyph-name="ecircumflex" unicode="&#xea;" horiz-adv-x="586" 
d="M146 227q5 -33 20.5 -60t37 -47t48.5 -31t56 -11q42 0 72 15.5t53 39.5l63 -63q-35 -35 -82 -56.5t-106 -21.5q-53 0 -100 21.5t-82 58.5t-55.5 85t-20.5 101t19.5 100t54 82t80.5 55.5t99 20.5q58 0 104 -22t78 -60.5t49 -91.5t17 -115h-405zM308 430q-27 0 -52 -9.5
t-46 -26.5t-36.5 -39.5t-22.5 -49.5h300q-13 54 -51 89.5t-92 35.5zM413 580q-32 17 -58 33.5t-47 31.5q-21 -15 -47.5 -31.5t-57.5 -33.5l-18 29l123 149l123 -149z" />
    <glyph glyph-name="edieresis" unicode="&#xeb;" horiz-adv-x="586" 
d="M146 227q5 -33 20.5 -60t37 -47t48.5 -31t56 -11q42 0 72 15.5t53 39.5l63 -63q-35 -35 -82 -56.5t-106 -21.5q-53 0 -100 21.5t-82 58.5t-55.5 85t-20.5 101t19.5 100t54 82t80.5 55.5t99 20.5q58 0 104 -22t78 -60.5t49 -91.5t17 -115h-405zM308 430q-27 0 -52 -9.5
t-46 -26.5t-36.5 -39.5t-22.5 -49.5h300q-13 54 -51 89.5t-92 35.5zM156 651q0 23 16 39t39 16t39 -16t16 -39t-16 -39t-39 -16t-39 16t-16 39zM350 651q0 23 16 39t39 16t39 -16t16 -39t-16 -39t-39 -16t-39 16t-16 39z" />
    <glyph glyph-name="edotaccent" unicode="&#x117;" horiz-adv-x="586" 
d="M146 227q5 -33 20.5 -60t37 -47t48.5 -31t56 -11q42 0 72 15.5t53 39.5l63 -63q-35 -35 -82 -56.5t-106 -21.5q-53 0 -100 21.5t-82 58.5t-55.5 85t-20.5 101t19.5 100t54 82t80.5 55.5t99 20.5q58 0 104 -22t78 -60.5t49 -91.5t17 -115h-405zM308 430q-27 0 -52 -9.5
t-46 -26.5t-36.5 -39.5t-22.5 -49.5h300q-13 54 -51 89.5t-92 35.5zM253 651q0 23 16 39t39 16t39 -16t16 -39t-16 -39t-39 -16t-39 16t-16 39z" />
    <glyph glyph-name="egrave" unicode="&#xe8;" horiz-adv-x="586" 
d="M146 227q5 -33 20.5 -60t37 -47t48.5 -31t56 -11q42 0 72 15.5t53 39.5l63 -63q-35 -35 -82 -56.5t-106 -21.5q-53 0 -100 21.5t-82 58.5t-55.5 85t-20.5 101t19.5 100t54 82t80.5 55.5t99 20.5q58 0 104 -22t78 -60.5t49 -91.5t17 -115h-405zM308 430q-27 0 -52 -9.5
t-46 -26.5t-36.5 -39.5t-22.5 -49.5h300q-13 54 -51 89.5t-92 35.5zM390 580q-55 9 -106.5 36.5t-95.5 71.5l67 66q17 -25 40 -51q20 -22 48 -47.5t65 -46.5z" />
    <glyph glyph-name="emacron" unicode="&#x113;" horiz-adv-x="586" 
d="M146 227q5 -33 20.5 -60t37 -47t48.5 -31t56 -11q42 0 72 15.5t53 39.5l63 -63q-35 -35 -82 -56.5t-106 -21.5q-53 0 -100 21.5t-82 58.5t-55.5 85t-20.5 101t19.5 100t54 82t80.5 55.5t99 20.5q58 0 104 -22t78 -60.5t49 -91.5t17 -115h-405zM308 430q-27 0 -52 -9.5
t-46 -26.5t-36.5 -39.5t-22.5 -49.5h300q-13 54 -51 89.5t-92 35.5zM110 651h385l-9 -63h-385z" />
    <glyph glyph-name="eogonek" unicode="&#x119;" horiz-adv-x="586" 
d="M496 70q-42 -42 -97 -63q-16 -11 -36 -26.5t-37.5 -33.5t-29.5 -37.5t-12 -37.5q0 -21 9.5 -32.5t22.5 -11.5q8 0 14 4q3 2 5 4l45 -74q-12 -9 -28 -14.5t-33 -5.5q-23 0 -42 8.5t-32.5 22.5t-21.5 33t-8 39q0 23 8.5 45t21.5 41.5t27 35t25 25.5q-51 3 -96 25.5
t-78.5 58.5t-53 83t-19.5 99q0 53 19.5 100t54 82t80.5 55.5t99 20.5q58 0 104 -22t78 -60.5t49 -91.5t17 -115h-405q5 -33 20.5 -60t37 -47t48.5 -31t56 -11q42 0 72 15.5t53 39.5zM308 430q-27 0 -52 -9.5t-46 -26.5t-36.5 -39.5t-22.5 -49.5h300q-13 54 -51 89.5
t-92 35.5z" />
    <glyph glyph-name="ae" unicode="&#xe6;" horiz-adv-x="1008" 
d="M730 78q42 0 72 15.5t53 39.5l63 -63q-35 -35 -82 -56.5t-106 -21.5q-47 0 -88.5 16.5t-75.5 45.5v-54h-94v78q-12 -18 -30 -33.5t-40 -27t-46.5 -18.5t-47.5 -7q-53 0 -100 21.5t-82 58.5t-55.5 85t-20.5 101q0 52 20.5 99t55.5 82.5t82 56t100 20.5q23 0 47.5 -7
t46.5 -18.5t40 -27t30 -33.5v78l94 8v-57q32 26 73 41.5t86 15.5q58 0 104 -22t78 -60.5t49 -91.5t17 -115h-405q5 -33 20.5 -60t37 -47t48.5 -31t56 -11zM144 258q0 -38 12.5 -71t34.5 -57t52 -38t65 -14t66.5 14t55 38t37 57t13.5 71q0 35 -13.5 66.5t-37 55t-55 37
t-66.5 13.5t-65 -13.5t-52 -37t-34.5 -55t-12.5 -66.5zM730 430q-27 0 -52 -9.5t-46 -26.5t-36.5 -39.5t-22.5 -49.5h300q-13 54 -51 89.5t-92 35.5z" />
    <glyph glyph-name="aeacute" unicode="&#x1fd;" horiz-adv-x="1008" 
d="M730 78q42 0 72 15.5t53 39.5l63 -63q-35 -35 -82 -56.5t-106 -21.5q-47 0 -88.5 16.5t-75.5 45.5v-54h-94v78q-12 -18 -30 -33.5t-40 -27t-46.5 -18.5t-47.5 -7q-53 0 -100 21.5t-82 58.5t-55.5 85t-20.5 101q0 52 20.5 99t55.5 82.5t82 56t100 20.5q23 0 47.5 -7
t46.5 -18.5t40 -27t30 -33.5v78l94 8v-57q32 26 73 41.5t86 15.5q58 0 104 -22t78 -60.5t49 -91.5t17 -115h-405q5 -33 20.5 -60t37 -47t48.5 -31t56 -11zM144 258q0 -38 12.5 -71t34.5 -57t52 -38t65 -14t66.5 14t55 38t37 57t13.5 71q0 35 -13.5 66.5t-37 55t-55 37
t-66.5 13.5t-65 -13.5t-52 -37t-34.5 -55t-12.5 -66.5zM730 430q-27 0 -52 -9.5t-46 -26.5t-36.5 -39.5t-22.5 -49.5h300q-13 54 -51 89.5t-92 35.5zM413 609q37 21 65 46.5t48 47.5q23 26 40 51l67 -66q-44 -44 -95.5 -71.5t-106.5 -36.5z" />
    <glyph glyph-name="B" unicode="B" horiz-adv-x="619" 
d="M464 357q18 -13 35 -29.5t30.5 -36.5t21.5 -44t8 -53q0 -50 -16 -86.5t-45 -60.5t-71 -35.5t-93 -11.5h-234v680h209q48 0 89.5 -12t72 -36t47.5 -59.5t17 -82.5q0 -48 -22.5 -80.5t-48.5 -52.5zM202 389h107q26 0 48.5 4t39.5 15t26.5 30t9.5 49q0 54 -33.5 76.5
t-90.5 22.5h-107v-197zM326 94q28 0 52 5t41.5 17t27.5 31.5t10 49.5q0 27 -11 46.5t-29.5 32.5t-42 19t-48.5 6h-124v-207h124z" />
    <glyph glyph-name="C" unicode="C" horiz-adv-x="683" 
d="M577 517q-33 35 -77.5 56t-95.5 21q-50 0 -94 -20t-77 -54.5t-52 -81t-19 -98.5q0 -53 19 -99t52 -80.5t77 -54.5t94 -20q51 0 95.5 20.5t77.5 56.5l69 -69q-48 -48 -109.5 -75t-132.5 -27t-133.5 27.5t-109 74t-74 109t-27.5 133.5q0 70 27.5 134t74 112.5t109 77
t133.5 28.5q72 0 134 -29.5t110 -78.5z" />
    </font>
</defs>
</svg>
