<?xml version="1.0" standalone="no"?>
<!DOCTYPE svg PUBLIC "-//W3C//DTD SVG 1.1//EN" "http://www.w3.org/Graphics/SVG/1.1/DTD/svg11.dtd" >
<svg xmlns="http://www.w3.org/2000/svg" xmlns:xlink="http://www.w3.org/1999/xlink" version="1.1">
<metadata>
Created by FontForge 20170924 at Sun May  8 16:03:03 2016
 By www-data
</metadata>
<defs>
<font id="ElliotSans-Regular" horiz-adv-x="587" >
  <font-face 
    font-family="Elliot Sans"
    font-weight="400"
    font-stretch="normal"
    units-per-em="1000"
    panose-1="0 0 5 0 0 0 0 0 0 0"
    ascent="800"
    descent="-200"
    x-height="525"
    cap-height="700"
    bbox="-100 -325 1455 785"
    underline-thickness="50"
    underline-position="-100"
    unicode-range="U+0020-2212"
  />
<missing-glyph horiz-adv-x="513" 
d="M420 -325h-325v1025h325v-1025zM172 631v-33h67v-38h-68v-34h170v34h-67v38h67v33h-169zM171 499v-106h170v34h-67v72h-103zM239 427h-34v37h34v-37zM171 365v-34h68v-38h-68v-34h103v72h67v34h-170zM308 303v-67h-137v-35h170v102h-33zM239 178v-57h35v23h34v-48h-103
v82h-34v-116h170v116h-102zM171 1v-116h170v116h-170zM308 -81h-103v48h103v-48zM171 -138v-34h72l-72 -48v-34h170v34h-104l72 48h32v34h-170z" />
    <glyph glyph-name=".notdef" horiz-adv-x="513" 
d="M420 -325h-325v1025h325v-1025zM172 631v-33h67v-38h-68v-34h170v34h-67v38h67v33h-169zM171 499v-106h170v34h-67v72h-103zM239 427h-34v37h34v-37zM171 365v-34h68v-38h-68v-34h103v72h67v34h-170zM308 303v-67h-137v-35h170v102h-33zM239 178v-57h35v23h34v-48h-103
v82h-34v-116h170v116h-102zM171 1v-116h170v116h-170zM308 -81h-103v48h103v-48zM171 -138v-34h72l-72 -48v-34h170v34h-104l72 48h32v34h-170z" />
    <glyph glyph-name="space" unicode=" " horiz-adv-x="260" 
 />
    <glyph glyph-name="A" unicode="A" horiz-adv-x="685" 
d="M305 700h75l280 -700h-75l-93 232h-299l-93 -232h-75zM464 302l-121 304l-122 -304h243z" />
    <glyph glyph-name="B" unicode="B" horiz-adv-x="627" 
d="M62 385v315h309q51 0 92.5 -25t65 -69t23.5 -98q0 -44 -15.5 -81t-43.5 -64q43 -24 68.5 -69.5t25.5 -101.5q0 -54 -23.5 -98t-65 -69t-92.5 -25h-344v385zM371 385q48 0 79.5 35t31.5 88t-31.5 87.5t-79.5 34.5h-239v-245h239zM406 70q48 0 79.5 34.5t31.5 87.5
t-31.5 88t-79.5 35h-274v-245h274z" />
    <glyph glyph-name="C" unicode="C" horiz-adv-x="673" 
d="M214 32q-76 49 -120 133t-44 186q0 101 44 185.5t120 133t168 48.5q76 0 143 -34t113 -96l-56 -42q-37 49 -88.5 75.5t-111.5 26.5q-72 0 -132 -39.5t-95 -107.5t-35 -150t35 -150.5t95 -108t132 -39.5q60 0 111.5 26.5t88.5 75.5l56 -42q-46 -62 -113 -96t-143 -34
q-92 0 -168 49z" />
    <glyph glyph-name="D" unicode="D" horiz-adv-x="672" 
d="M62 700h233q92 0 166.5 -45.5t117.5 -125.5t43 -179t-43 -179t-117.5 -125.5t-166.5 -45.5h-233v700zM295 70q74 0 132.5 36t91.5 100t33 144t-33 144t-91.5 100t-132.5 36h-163v-560h163z" />
    <glyph glyph-name="E" unicode="E" horiz-adv-x="574" 
d="M62 700h450v-70h-380v-245h380v-70h-380v-245h380v-70h-450v700z" />
    <glyph glyph-name="F" unicode="F" horiz-adv-x="539" 
d="M62 700h415v-70h-345v-245h345v-70h-345v-315h-70v700z" />
    <glyph glyph-name="G" unicode="G" horiz-adv-x="740" 
d="M214 31q-76 49 -120 133t-44 186q0 101 44 185.5t120 133t168 48.5q76 0 143 -34t113 -96l-56 -42q-37 49 -88.5 75.5t-111.5 26.5q-72 0 -132 -39.5t-95 -107.5t-35 -150t35 -150.5t95 -108t132 -39.5q54 0 102.5 26.5t83.5 74.5q17 25 26 52t14 66v6h-230v70h300v-347
h-70v92q-44 -53 -102.5 -81.5t-123.5 -28.5q-92 0 -168 49z" />
    <glyph glyph-name="H" unicode="H" horiz-adv-x="670" 
d="M62 700h70v-315h406v315h70v-700h-70v315h-406v-315h-70v700z" />
    <glyph glyph-name="I" unicode="I" horiz-adv-x="214" 
d="M72 700h70v-700h-70v700z" />
    <glyph glyph-name="J" unicode="J" horiz-adv-x="556" 
d="M168 9q-49 27 -77.5 73.5t-28.5 104.5v15h70v-15q0 -59 41 -97t105 -38t105 38t41 97v513h70v-513q0 -58 -28.5 -104.5t-77.5 -73.5t-110 -27t-110 27z" />
    <glyph glyph-name="K" unicode="K" horiz-adv-x="667" 
d="M62 700h70v-352l380 352h103l-332 -308l334 -392h-92l-293 345l-100 -93v-252h-70v700z" />
    <glyph glyph-name="L" unicode="L" horiz-adv-x="594" 
d="M72 700h70v-630h380v-70h-450v700z" />
    <glyph glyph-name="M" unicode="M" horiz-adv-x="824" 
d="M62 700h73l277 -615l277 615h73v-700h-70v537l-242 -537h-76l-242 537v-537h-70v700z" />
    <glyph glyph-name="N" unicode="N" horiz-adv-x="684" 
d="M62 700h78l412 -589v589h70v-700h-78l-412 589v-589h-70v700z" />
    <glyph glyph-name="O" unicode="O" horiz-adv-x="765" 
d="M214 32q-76 49 -120 133t-44 186q0 101 44 185.5t120 133t168 48.5t168.5 -48.5t120.5 -133t44 -185.5q0 -102 -44 -186.5t-120.5 -133t-168.5 -48.5t-168 49zM514.5 92.5q60.5 39.5 95.5 108t35 150.5t-35 150t-95.5 107.5t-132.5 39.5t-132 -39.5t-95 -107.5t-35 -150
t35 -150.5t95 -108t132 -39.5t132.5 39.5z" />
    <glyph glyph-name="P" unicode="P" horiz-adv-x="596" 
d="M62 350v350h312q51 0 92.5 -25.5t65.5 -69.5t24 -98t-24 -98t-65.5 -69t-92.5 -25h-242v-315h-70v350zM374 385q49 0 80.5 34.5t31.5 87.5t-31.5 88t-80.5 35h-242v-245h242z" />
    <glyph glyph-name="Q" unicode="Q" horiz-adv-x="765" 
d="M214 31q-76 49 -120 133t-44 186q0 101 44 185.5t120 133t168 48.5t168.5 -48.5t120.5 -133t44 -185.5q0 -70 -21.5 -133t-61.5 -112l83 -69l-45 -54l-87 73q-42 -35 -93.5 -54t-107.5 -19q-92 0 -168 49zM528 101l-107 90l45 53l112 -94q32 40 49.5 91t17.5 109
q0 82 -35 150t-95.5 107.5t-132.5 39.5t-132 -39.5t-95 -107.5t-35 -150t35 -150.5t95 -108t132 -39.5q81 0 146 49z" />
    <glyph glyph-name="R" unicode="R" horiz-adv-x="616" 
d="M506 0l-214 315h-160v-315h-70v350v350h312q51 0 92.5 -25.5t65.5 -69.5t24 -98q0 -53 -23.5 -97t-64.5 -69.5t-92 -25.5l215 -315h-85zM374 385q49 0 80.5 34.5t31.5 87.5t-31.5 88t-80.5 35h-242v-245h242z" />
    <glyph glyph-name="S" unicode="S" horiz-adv-x="592" 
d="M130.5 27q-70.5 45 -90.5 116l67 19q13 -48 65.5 -79t120.5 -31q51 0 94.5 18.5t69 49.5t25.5 68q0 47 -39.5 84t-102.5 48l-51 10q-46 8 -56 12q-79 16 -129 67.5t-50 116.5q0 52 32 95.5t87 69.5t120 26q80 0 144.5 -39t85.5 -101l-66 -23q-14 40 -60.5 66.5
t-103.5 26.5q-46 0 -84.5 -16.5t-61.5 -44t-23 -60.5q0 -39 33.5 -71.5t85.5 -43.5h1l4 -1q5 -1 20 -4.5t33 -6.5l20 -4l32 -6q88 -17 143.5 -72.5t55.5 -128.5q0 -56 -35 -103t-94.5 -75t-129.5 -28q-92 0 -162.5 45z" />
    <glyph glyph-name="T" unicode="T" horiz-adv-x="693" 
d="M312 630h-250v70h569v-70h-249v-630h-70v630z" />
    <glyph glyph-name="U" unicode="U" horiz-adv-x="684" 
d="M199 16.5q-64 34.5 -100.5 95.5t-36.5 135v453h70v-453q0 -56 27 -100.5t75 -69.5t108 -25t108 25t75 69.5t27 100.5v453h70v-453q0 -74 -36.5 -135t-100.5 -95.5t-143 -34.5t-143 34.5z" />
    <glyph glyph-name="V" unicode="V" horiz-adv-x="618" 
d="M272 0l-252 700h74l215 -597l215 597h74l-252 -700h-74z" />
    <glyph glyph-name="W" unicode="W" horiz-adv-x="888" 
d="M20 700h73l157 -569l158 569h72l158 -569l157 569h73l-194 -700h-73l-157 569l-157 -569h-73z" />
    <glyph glyph-name="X" unicode="X" horiz-adv-x="656" 
d="M285 350l-245 350h85l203 -289l202 289h86l-246 -350l246 -350h-86l-202 289l-203 -289h-85z" />
    <glyph glyph-name="Y" unicode="Y" horiz-adv-x="625" 
d="M278 338l-268 362h87l216 -291l215 291h87l-267 -362v-338h-70v338z" />
    <glyph glyph-name="Z" unicode="Z" horiz-adv-x="612" 
d="M62 92l416 538h-416v70h488v-92l-417 -538h417v-70h-488v92z" />
    <glyph glyph-name="a" unicode="a" horiz-adv-x="512" 
d="M144 13.5q-48 22.5 -76 62t-28 86.5t28 86.5t76 62t106 22.5q81 0 140 -43v41q0 58 -41 95.5t-105 37.5q-39 0 -71 -15.5t-52 -43.5l-58 39q30 43 77.5 66.5t103.5 23.5q61 0 110 -26.5t77.5 -73t28.5 -103.5v-331h-70v34q-59 -43 -140 -43q-58 0 -106 22.5zM349.5 90
q40.5 29 40.5 72t-40.5 72t-99.5 29t-99.5 -29t-40.5 -72t40.5 -72t99.5 -29t99.5 29z" />
    <glyph glyph-name="b" unicode="b" 
d="M201 12q-46 21 -79 59v-71h-70v700h70v-247q34 38 79.5 59.5t96.5 21.5q68 0 124.5 -36t89.5 -98.5t33 -137.5t-33 -137t-89.5 -98t-124.5 -36q-51 0 -97 21zM387.5 87.5q40.5 26.5 64 72.5t23.5 102t-23.5 102t-64 73t-89.5 27t-89 -27t-63.5 -73t-23.5 -102t23.5 -102
t63.5 -72.5t89 -26.5t89.5 26.5z" />
    <glyph glyph-name="c" unicode="c" horiz-adv-x="488" 
d="M151.5 27q-56.5 36 -89 98t-32.5 137t32.5 137.5t89 98.5t124.5 36q53 0 100.5 -22.5t81.5 -64.5l-53 -45q-25 30 -58 46t-71 16q-49 0 -89 -27t-63.5 -73t-23.5 -102t23.5 -102t63.5 -72.5t89 -26.5q37 0 70.5 16t58.5 45l53 -44q-34 -42 -81.5 -64.5t-100.5 -22.5
q-68 0 -124.5 36z" />
    <glyph glyph-name="d" unicode="d" 
d="M163.5 27q-56.5 36 -89 98t-32.5 137t32.5 137.5t89 98.5t124.5 36q51 0 96.5 -21.5t80.5 -59.5v247h70v-700h-70v71q-34 -38 -79.5 -59t-97.5 -21q-68 0 -124.5 36zM377.5 87.5q40.5 26.5 64 72.5t23.5 102t-23.5 102t-64 73t-89.5 27t-89 -27t-63.5 -73t-23.5 -102
t23.5 -102t63.5 -72.5t89 -26.5t89.5 26.5z" />
    <glyph glyph-name="e" unicode="e" horiz-adv-x="556" 
d="M161.5 27q-56.5 36 -89 98t-32.5 137q0 76 31 138.5t85.5 98t121.5 35.5t121 -35.5t85.5 -98t31.5 -138.5v-35h-403q11 -72 59.5 -119t113.5 -47q37 0 70.5 16t58.5 45l53 -44q-34 -42 -81.5 -64.5t-100.5 -22.5q-68 0 -124.5 36zM443 297q-9 74 -54.5 120.5t-110.5 46.5
t-110.5 -46.5t-55.5 -120.5h331z" />
    <glyph glyph-name="f" unicode="f" horiz-adv-x="415" 
d="M228.5 614.5q-28.5 -33.5 -28.5 -83.5v-7h154v-70h-154v-454h-70v454h-105v70h105v7q0 52 22.5 94.5t61.5 67.5t86 25q52 0 95 -31l-41 -57q-24 18 -54 18q-43 0 -71.5 -33.5z" />
    <glyph glyph-name="g" unicode="g" horiz-adv-x="585" 
d="M167.5 -199.5q-55.5 28.5 -87.5 78.5l59 38q23 -35 62.5 -55t87.5 -20q50 0 89.5 20.5t62 56.5t22.5 81v71q-34 -38 -79.5 -59t-97.5 -21q-68 0 -124.5 36t-89 98t-32.5 137t32.5 137t89 98t124.5 36q52 0 97.5 -21t79.5 -59v72h70v-525q0 -64 -32 -116t-87.5 -82
t-124.5 -30q-66 0 -121.5 28.5zM375.5 87.5q40.5 26.5 64 72.5t23.5 102t-23.5 102t-64 72.5t-89.5 26.5t-89 -26.5t-63.5 -72.5t-23.5 -102t23.5 -102t63.5 -72.5t89 -26.5t89.5 26.5z" />
    <glyph glyph-name="h" unicode="h" horiz-adv-x="524" 
d="M52 700h70v-224q28 28 64 43t76 15q58 0 106 -31t76 -83.5t28 -116.5v-303h-70v303q0 44 -18.5 81t-50.5 58.5t-71 21.5t-71 -21.5t-50.5 -58.5t-18.5 -81v-303h-70v700z" />
    <glyph glyph-name="i" unicode="i" horiz-adv-x="222" 
d="M145.5 694.5q-14.5 14.5 -34.5 14.5t-34.5 -14.5t-14.5 -34.5t14.5 -34.5t34.5 -14.5t34.5 14.5t14.5 34.5t-14.5 34.5zM146 525h-70v-525h70v525z" />
    <glyph glyph-name="j" unicode="j" horiz-adv-x="221" 
d="M95.5 633.5q-14.5 14.5 -14.5 34.5t14.5 34.5t34.5 14.5t34.5 -14.5t14.5 -34.5t-14.5 -34.5t-34.5 -14.5t-34.5 14.5zM-100 -162l41 57q24 -18 54 -18q43 0 71.5 33.5t28.5 83.5v531h70v-531q0 -52 -22.5 -94.5t-61.5 -67.5t-86 -25q-52 0 -95 31z" />
    <glyph glyph-name="k" unicode="k" horiz-adv-x="538" 
d="M62 700h70v-419l263 244h103l-249 -232l249 -293h-92l-209 246l-65 -61v-185h-70v700z" />
    <glyph glyph-name="l" unicode="l" horiz-adv-x="194" 
d="M62 700h70v-700h-70v700z" />
    <glyph glyph-name="m" unicode="m" horiz-adv-x="804" 
d="M52 525h70v-38q25 22 56.5 34.5t66.5 12.5q48 0 89 -24t68 -65q27 41 68 65t90 24q53 0 97 -28t69.5 -76.5t25.5 -106.5v-323h-70v323q0 39 -16.5 71.5t-44.5 51t-61 18.5q-34 0 -62 -18.5t-44.5 -51t-16.5 -71.5v-323h-70v323q0 39 -16.5 71.5t-44.5 51t-61 18.5
q-34 0 -62 -18.5t-44.5 -51t-16.5 -71.5v-323h-70v525z" />
    <glyph glyph-name="n" unicode="n" horiz-adv-x="524" 
d="M52 525h70v-49q28 28 64 43t76 15q58 0 106 -31t76 -83.5t28 -116.5v-303h-70v303q0 44 -18.5 81t-50.5 58.5t-71 21.5t-71 -21.5t-50.5 -58.5t-18.5 -81v-303h-70v525z" />
    <glyph glyph-name="o" unicode="o" horiz-adv-x="573" 
d="M161.5 27q-56.5 36 -89 98t-32.5 137t32.5 137.5t89 98.5t124.5 36t124.5 -36t89.5 -98.5t33 -137.5t-33 -137t-89.5 -98t-124.5 -36t-124.5 36zM375.5 87.5q40.5 26.5 64 72.5t23.5 102t-23.5 102t-64 73t-89.5 27t-89 -27t-63.5 -73t-23.5 -102t23.5 -102t63.5 -72.5
t89 -26.5t89.5 26.5z" />
    <glyph glyph-name="p" unicode="p" 
d="M52 525h70v-71q34 37 79.5 58.5t96.5 21.5q68 0 124.5 -36t89.5 -98t33 -137t-33 -137.5t-89.5 -98.5t-124.5 -36q-51 0 -96.5 21.5t-79.5 58.5v-246h-70v700zM387.5 88q40.5 27 64 73t23.5 102q0 55 -23.5 101t-64 73t-89.5 27t-89 -27t-63.5 -73t-23.5 -101
q0 -56 23.5 -102t63.5 -73t89 -27t89.5 27z" />
    <glyph glyph-name="q" unicode="q" 
d="M465 71q-35 -38 -80.5 -59t-96.5 -21q-68 0 -124.5 36t-89 98.5t-32.5 137.5t32.5 137t89 98t124.5 36q51 0 96.5 -21t80.5 -59v71h70v-700h-70v246zM377.5 88q40.5 27 64 73t23.5 102q0 55 -23.5 101t-64 73t-89.5 27t-89 -27t-63.5 -73t-23.5 -101q0 -56 23.5 -102
t63.5 -73t89 -27t89.5 27z" />
    <glyph glyph-name="r" unicode="r" horiz-adv-x="459" 
d="M52 525h70v-60q31 33 71.5 51t86.5 18q51 0 97 -23t77 -65l-56 -43q-22 29 -52.5 45t-65.5 16q-44 0 -80 -24t-57 -65.5t-21 -91.5v-283h-70v525z" />
    <glyph glyph-name="s" unicode="s" horiz-adv-x="464" 
d="M108 25q-53 34 -68 88l67 18q9 -30 43.5 -50t78.5 -20q51 0 88 26t37 61q0 28 -26 52t-67 32l-36 6q-18 3 -28 5.5t-13 3.5q-59 12 -96.5 51.5t-37.5 89.5q0 39 24 72.5t65 53.5t90 20q61 0 109 -30t65 -77l-67 -22q-8 26 -38.5 42.5t-68.5 16.5q-44 0 -76.5 -22.5
t-32.5 -53.5q0 -25 21 -44.5t54 -27.5h1l4 -1l37 -8q3 -1 13.5 -2.5t23.5 -4.5q66 -12 108 -54.5t42 -97.5q0 -43 -26.5 -79t-71 -57t-97.5 -21q-68 0 -121 34z" />
    <glyph glyph-name="t" unicode="t" horiz-adv-x="395" 
d="M385 21q-44 -30 -95 -30q-47 0 -86 25t-61.5 67.5t-22.5 93.5v277h-105v70h105v176h70v-176h154v-70h-154v-277q0 -50 28.5 -83t71.5 -33q29 0 54 17z" />
    <glyph glyph-name="u" unicode="u" horiz-adv-x="524" 
d="M156 21.5q-48 30.5 -76 83.5t-28 117v303h70v-303q0 -44 18.5 -81t50.5 -58.5t71 -21.5t71 21.5t50.5 58.5t18.5 81v303h70v-525h-70v48q-28 -27 -64 -42t-76 -15q-58 0 -106 30.5z" />
    <glyph glyph-name="v" unicode="v" horiz-adv-x="490" 
d="M10 525h75l160 -426l161 426h74l-197 -525h-75z" />
    <glyph glyph-name="w" unicode="w" horiz-adv-x="723" 
d="M167 0l-157 525h73l121 -403l121 403h73l121 -403l121 403h73l-158 -525h-73l-121 404l-121 -404h-73z" />
    <glyph glyph-name="x" unicode="x" horiz-adv-x="532" 
d="M223 263l-193 262h87l149 -203l149 203h87l-193 -262l193 -263h-87l-149 203l-149 -203h-87z" />
    <glyph glyph-name="y" unicode="y" horiz-adv-x="490" 
d="M19 -173l33 62q20 -11 44 -11q68 0 106 107l6 15l-198 525h75l160 -425l161 425h74l-212 -564q-55 -153 -172 -153q-42 0 -77 19z" />
    <glyph glyph-name="z" unicode="z" horiz-adv-x="509" 
d="M52 88l327 367h-327v70h405v-88l-327 -367h327v-70h-405v88z" />
    <glyph glyph-name="zero" unicode="0" horiz-adv-x="604" 
d="M391.5 4q42.5 21 76.5 61q28 33 47 75t27 87q11 63 12 123v1q-2 61 -12 122q-8 46 -27 88t-47 75q-34 40 -76.5 61t-89.5 21q-48 0 -90 -21t-76 -61q-28 -33 -47 -75t-27 -88q-10 -61 -12 -122v-1q2 -61 12 -122q8 -46 27 -88t47 -75q34 -40 76 -61t90 -21q47 0 89.5 21z
M131 461q8 48 31.5 91t59.5 69.5t80 26.5t80 -26.5t59.5 -69.5t31.5 -91q10 -59 11 -111q-1 -51 -11 -110q-8 -48 -31.5 -91t-59.5 -69.5t-80 -26.5t-80 26.5t-59.5 69.5t-31.5 91q-9 49 -11 110q2 62 11 111z" />
    <glyph glyph-name="one" unicode="1" horiz-adv-x="398" 
d="M303 700v-700h-70v630l-121 -92l-42 56l140 106h93z" />
    <glyph glyph-name="two" unicode="2" horiz-adv-x="559" 
d="M492 70h-359q16 58 51.5 106t81.5 73l124 66q56 28 87.5 78t31.5 109q0 60 -31.5 109t-85.5 77.5t-120 28.5q-75 0 -135 -37.5t-86 -99.5l65 -27q17 43 60 68.5t97 25.5q46 0 84 -19t60 -52.5t22 -73.5q0 -39 -21.5 -72.5t-59.5 -52.5l-125 -66q-64 -35 -110.5 -100.5
t-62.5 -144.5q-2 -10 -4 -26l-6 -40h442v70z" />
    <glyph glyph-name="three" unicode="3" horiz-adv-x="572" 
d="M404.5 394q53.5 -30 84.5 -80t31 -110q0 -62 -32.5 -112.5t-88.5 -80t-123 -29.5q-76 0 -137 37.5t-89 99.5l64 28q20 -44 63.5 -69.5t98.5 -25.5q48 0 88 20t63 55t23 77t-23 77t-63 55t-88 20q-46 0 -88 -20l-39 56l249 238h-316v70h421v-67l-218 -207q66 -2 119.5 -32
z" />
    <glyph glyph-name="four" unicode="4" horiz-adv-x="595" 
d="M555 236v-70h-105v-166h-70v166h-328v94l320 440h78v-464h105zM380 592l-259 -356h259v356z" />
    <glyph glyph-name="five" unicode="5" horiz-adv-x="564" 
d="M82 373l60 -30q25 26 58 40t70 14q49 0 88.5 -22.5t62.5 -62t23 -87.5q0 -49 -23 -88.5t-62.5 -62t-88.5 -22.5q-51 0 -93 26t-64 70l-63 -30q30 -63 89.5 -99.5t130.5 -36.5q67 0 123 32.5t88.5 88t32.5 122.5t-32.5 122.5t-88.5 87.5t-123 32q-54 0 -104 -22l32 185
h299v70h-357z" />
    <glyph glyph-name="six" unicode="6" horiz-adv-x="583" 
d="M417.5 436q53.5 -32 84.5 -87.5t31 -122.5t-31 -122.5t-85 -88t-118 -32.5q-69 0 -125 36.5t-85 98.5q-20 36 -29.5 93t-9.5 122q0 83 13 148q13 67 43.5 118t75.5 80q59 39 130 39q67 0 121.5 -33.5t79.5 -89.5l-65 -28q-16 37 -53 59t-83 22q-50 0 -92 -28h-1
q-32 -20 -55 -59.5t-33 -93.5q-7 -44 -10 -82q33 39 79 61t99 22q65 0 118.5 -32zM382.5 75.5q37.5 22.5 59 62t21.5 88.5q0 48 -21.5 87.5t-59 62t-83.5 22.5t-83.5 -22.5t-59 -62t-21.5 -87.5q0 -49 21.5 -88.5t59 -62t83.5 -22.5t83.5 22.5z" />
    <glyph glyph-name="seven" unicode="7" horiz-adv-x="560" 
d="M520 650l-306 -650h-78l297 630h-383v70h470v-50z" />
    <glyph glyph-name="eight" unicode="8" horiz-adv-x="573" 
d="M493 304.5q30 -48.5 30 -106.5q0 -59 -31.5 -108.5t-85.5 -78t-119 -28.5t-119.5 28.5t-86 78t-31.5 108.5q0 58 30 106.5t81 77.5q-38 26 -59 64.5t-21 84.5q0 52 27.5 94.5t74.5 67.5t104 25t104 -25t74 -67.5t27 -94.5q0 -46 -21 -84.5t-59 -64.5q51 -29 81 -77.5z
M190.5 448q39.5 -34 96.5 -34q56 0 95.5 34t39.5 83q0 32 -18 59t-49 42.5t-68 15.5t-68.5 -15.5t-49.5 -42.5t-18 -59q0 -49 39.5 -83zM371 72.5q38 19.5 60 52.5t22 73t-22 73.5t-60 53t-84 19.5t-84.5 -19.5t-60.5 -53t-22 -73.5t22 -73t60.5 -52.5t84.5 -19.5t84 19.5z
" />
    <glyph glyph-name="nine" unicode="9" horiz-adv-x="583" 
d="M165.5 265q-53.5 32 -84.5 87.5t-31 122.5t31 122.5t85 88t118 32.5q69 0 125 -36.5t85 -98.5q20 -36 29.5 -93t9.5 -122q0 -83 -13 -148q-13 -67 -43.5 -118t-75.5 -80q-59 -39 -130 -39q-67 0 -121.5 33.5t-79.5 89.5l65 28q16 -37 53 -59t83 -22q50 0 92 28
q32 20 55.5 59.5t33.5 93.5q8 47 9 82q-32 -39 -78 -61t-99 -22q-65 0 -118.5 32zM200.5 625.5q-37.5 -22.5 -59 -62t-21.5 -88.5q0 -48 21.5 -87.5t59 -62t83.5 -22.5t83.5 22.5t59 62t21.5 87.5q0 49 -21.5 88.5t-59 62t-83.5 22.5t-83.5 -22.5z" />
    <glyph glyph-name="fraction" unicode="&#x2044;" horiz-adv-x="643" 
d="M546 727h77l-527 -753h-76z" />
    <glyph glyph-name="asterisk" unicode="*" horiz-adv-x="295" 
d="M187 540l66 -92l-39 -28l-67 91l-66 -91l-40 28l66 92l-107 35l15 47l108 -35v113h49v-113l107 35l16 -47z" />
    <glyph glyph-name="backslash" unicode="\" horiz-adv-x="416" 
d="M84 736l312 -753h-64l-312 753h64z" />
    <glyph glyph-name="periodcentered" unicode="&#xb7;" horiz-adv-x="192" 
d="M135.5 322.5q-16.5 16.5 -39.5 16.5t-39.5 -16.5t-16.5 -39.5t16.5 -39.5t39.5 -16.5t39.5 16.5t16.5 39.5t-16.5 39.5z" />
    <glyph glyph-name="bullet" unicode="&#x2022;" horiz-adv-x="311" 
d="M209 404q-22 22 -54 22q-31 0 -53 -22t-22 -54q0 -31 22 -53t53 -22t53.5 22t22.5 53q0 32 -22 54z" />
    <glyph glyph-name="colon" unicode=":" horiz-adv-x="212" 
d="M145.5 517.5q-16.5 16.5 -39.5 16.5t-39.5 -16.5t-16.5 -39.5t16.5 -39.5t39.5 -16.5t39.5 16.5t16.5 39.5t-16.5 39.5zM145.5 95.5q-16.5 16.5 -39.5 16.5t-39.5 -16.5t-16.5 -39.5t16.5 -39.5t39.5 -16.5t39.5 16.5t16.5 39.5t-16.5 39.5z" />
    <glyph glyph-name="comma" unicode="," horiz-adv-x="198" 
d="M27 -117q26 55 36 108t10 94q0 10 -0.5 16t-0.5 8h76q0 -44 -15.5 -111.5t-82.5 -136.5z" />
    <glyph glyph-name="exclam" unicode="!" horiz-adv-x="212" 
d="M148 590v110h-84v-110l21 -393h42zM145.5 86.5q-16.5 16.5 -39.5 16.5t-39.5 -16.5t-16.5 -39.5t16.5 -39.5t39.5 -16.5t39.5 16.5t16.5 39.5t-16.5 39.5z" />
    <glyph glyph-name="numbersign" unicode="#" horiz-adv-x="695" 
d="M514 460l-59 -220h115v-60h-131l-48 -180h-61l48 180h-149l-48 -180h-62l49 180h-118v60h134l59 220h-116v60h131l49 180h61l-48 -180h148l48 180h62l-48 -180h115v-60h-131zM452 460h-148l-59 -220h149z" />
    <glyph glyph-name="period" unicode="." horiz-adv-x="212" 
d="M145.5 86.5q-16.5 16.5 -39.5 16.5t-39.5 -16.5t-16.5 -39.5t16.5 -39.5t39.5 -16.5t39.5 16.5t16.5 39.5t-16.5 39.5z" />
    <glyph glyph-name="question" unicode="?" horiz-adv-x="525" 
d="M296 210q0 38 17.5 65t56.5 58q49 39 77 80t28 97q0 58 -29.5 105.5t-79.5 75t-111 27.5q-70 0 -125.5 -36.5t-79.5 -97.5l65 -25q16 41 54 65t87 24q64 0 106.5 -39.5t42.5 -98.5q0 -35 -19 -62.5t-60 -60.5q-50 -40 -75 -80t-25 -97v-12h70v12zM300.5 87.5
q-16.5 16.5 -39.5 16.5t-39.5 -16.5t-16.5 -39.5t16.5 -39.5t39.5 -16.5t39.5 16.5t16.5 39.5t-16.5 39.5z" />
    <glyph glyph-name="quotedbl" unicode="&#x22;" horiz-adv-x="383" 
d="M160 700h-70v-252h70v252zM293 700h-70v-252h70v252z" />
    <glyph glyph-name="quotesingle" unicode="'" horiz-adv-x="228" 
d="M27 474q26 55 36 108t10 94q0 10 -0.5 16t-0.5 8h76q0 -44 -15.5 -111.5t-82.5 -136.5z" />
    <glyph glyph-name="semicolon" unicode=";" horiz-adv-x="215" 
d="M69.5 438.5q-16.5 16.5 -16.5 39.5t16.5 39.5t39.5 16.5t39.5 -16.5t16.5 -39.5t-16.5 -39.5t-39.5 -16.5t-39.5 16.5zM27 -124q26 54 35.5 106t9.5 93q0 11 -0.5 18t-0.5 9h76q0 -44 -15.5 -111.5t-82.5 -136.5z" />
    <glyph glyph-name="slash" unicode="/" horiz-adv-x="416" 
d="M332 736l-312 -753h64l312 753h-64z" />
    <glyph glyph-name="underscore" unicode="_" horiz-adv-x="590" 
d="M550 -60h-510v-50h510v50z" />
    <glyph glyph-name="braceleft" unicode="{" horiz-adv-x="384" 
d="M200.5 309q-21.5 -35 -57.5 -49q35 -13 57 -48.5t22 -81.5v-217q0 -25 15.5 -42t38.5 -17h28v-52h-37q-49 0 -82 36t-33 88v215q0 36 -20.5 60t-51.5 24v35v35q31 0 51.5 24t20.5 60v215q0 53 33 88.5t82 35.5h37v-52h-28q-23 0 -38.5 -17t-15.5 -42v-217
q0 -46 -21.5 -81z" />
    <glyph glyph-name="braceright" unicode="}" horiz-adv-x="384" 
d="M183.5 309q21.5 -35 57.5 -49q-35 -13 -57 -48.5t-22 -81.5v-217q0 -25 -15.5 -42t-38.5 -17h-28v-52h37q48 0 81.5 36t33.5 88v215q0 36 20.5 60t51.5 24v35v35q-31 0 -51.5 24t-20.5 60v215q0 52 -33.5 88t-81.5 36h-37v-52h28q23 0 38.5 -17t15.5 -42v-217
q0 -46 21.5 -81z" />
    <glyph glyph-name="bracketleft" unicode="[" horiz-adv-x="321" 
d="M241 -128h-91v776h91v70h-161v-916h161v70z" />
    <glyph glyph-name="bracketright" unicode="]" horiz-adv-x="321" 
d="M80 -128h91v776h-91v70h161v-916h-161v70z" />
    <glyph glyph-name="parenleft" unicode="(" horiz-adv-x="362" 
d="M194 18q-31 117 -31 242t31 241.5t88 216.5h-61q-67 -97 -104 -214t-37 -244t37 -244t104 -214h61q-57 99 -88 216z" />
    <glyph glyph-name="parenright" unicode=")" horiz-adv-x="362" 
d="M168 18.5q31 116.5 31 241.5t-31 242t-88 216h60q68 -97 105 -214t37 -244t-37 -243.5t-105 -214.5h-60q57 100 88 216.5z" />
    <glyph glyph-name="emdash" unicode="&#x2014;" horiz-adv-x="865" 
d="M765 307h-665v-63h665v63z" />
    <glyph glyph-name="endash" unicode="&#x2013;" horiz-adv-x="610" 
d="M550 307h-490v-63h490v63z" />
    <glyph glyph-name="hyphen" unicode="-" horiz-adv-x="435" 
d="M375 307h-315v-63h315v63z" />
    <glyph glyph-name="quotedblleft" unicode="&#x201c;" horiz-adv-x="429" 
d="M95.5 581.5q15.5 67.5 82.5 136.5l23 -22q-26 -55 -36 -108t-10 -94q0 -10 0.5 -16t0.5 -8h-76q0 44 15.5 111.5zM243.5 581.5q15.5 67.5 82.5 136.5l23 -22q-26 -55 -36 -108t-10 -94q0 -10 0.5 -16t0.5 -8h-76q0 44 15.5 111.5z" />
    <glyph glyph-name="quotedblright" unicode="&#x201d;" horiz-adv-x="428" 
d="M80 473q26 54 35.5 106.5t9.5 93.5q0 11 -0.5 18t-0.5 9h76q0 -44 -15.5 -111.5t-82.5 -136.5zM227 473q26 56 36 109t10 94q0 10 -0.5 16t-0.5 8h76q0 -44 -15.5 -111.5t-82.5 -136.5z" />
    <glyph glyph-name="quoteleft" unicode="&#x2018;" horiz-adv-x="281" 
d="M95.5 581.5q-15.5 -67.5 -15.5 -111.5h76q0 2 -0.5 8t-0.5 16q0 41 10 94t36 108l-23 22q-67 -69 -82.5 -136.5z" />
    <glyph glyph-name="quoteright" unicode="&#x2019;" horiz-adv-x="280" 
d="M184.5 588.5q15.5 67.5 15.5 111.5h-76q0 -2 0.5 -9t0.5 -18q0 -41 -9.5 -93t-35.5 -106l23 -22q66 69 81.5 136.5z" />
    <glyph glyph-name="dollar" unicode="$" horiz-adv-x="636" 
d="M528.5 90q-27.5 -45 -75.5 -74.5t-106 -36.5v-68h-59v67q-77 8 -134.5 52.5t-73.5 110.5l74 19q10 -40 47 -68.5t87 -35.5v274l-30 7q-73 17 -119.5 69t-46.5 119q0 49 26 91t71 69t99 33v67h59v-68q66 -8 116 -46.5t67 -94.5l-73 -23q-10 33 -40 56t-70 30v-243
q6 -1 25 -5q81 -17 132.5 -74t51.5 -130q0 -52 -27.5 -97zM280.5 411q2.5 -1 7.5 -2v231q-51 -8 -85 -40t-34 -75q0 -38 28.5 -69.5t74.5 -42.5l5 -1q1 0 3.5 -1zM441.5 102.5q37.5 36.5 37.5 84.5q0 46 -34 82t-89 47q-3 0 -9 2v-261q57 9 94.5 45.5z" />
    <glyph glyph-name="asciitilde" unicode="~" horiz-adv-x="605" 
d="M488 324q38 27 57 74l-58 23q-12 -29 -34.5 -45t-51.5 -16q-20 0 -38 9t-38 31q-26 27 -54.5 42.5t-67.5 15.5q-49 0 -86.5 -27t-56.5 -74l58 -23q12 29 34 45t51 16q21 0 38.5 -9t38.5 -30q26 -27 54 -43t67 -16q49 0 87 27z" />
    <glyph glyph-name="equal" unicode="=" horiz-adv-x="645" 
d="M585 411v-63h-525v63h525zM60 202h525v-63h-525v63z" />
    <glyph glyph-name="greater" unicode="&#x3e;" horiz-adv-x="627" 
d="M547 278v-57l-467 -221v71l377 179l-377 179v70z" />
    <glyph glyph-name="less" unicode="&#x3c;" horiz-adv-x="627" 
d="M547 0l-467 222v56l467 222v-71l-377 -179l377 -179v-71z" />
    <glyph glyph-name="minus" unicode="&#x2212;" horiz-adv-x="435" 
d="M375 307h-315v-63h315v63z" />
    <glyph glyph-name="percent" unicode="%" horiz-adv-x="993" 
d="M731 727h77l-527 -753h-76zM171.5 344q-42.5 35 -54.5 100q-7 37 -7 64v1q0 26 7 64q12 64 54.5 99t89.5 35q48 0 90 -34.5t55 -99.5q5 -29 7 -64v-1q-2 -36 -7 -64q-13 -65 -55 -100t-89 -35h-1q-47 0 -89.5 35zM314.5 401.5q21.5 25.5 26.5 54.5q5 30 5 52q0 24 -5 52
q-5 30 -26.5 55.5t-53.5 25.5q-31 0 -52.5 -25.5t-26.5 -55.5q-5 -28 -5 -52q0 -22 5 -52q5 -29 26.5 -54.5t52.5 -25.5q32 0 53.5 25.5zM661.5 28q-42.5 35 -54.5 100q-7 37 -7 64v1q0 26 7 64q12 64 54.5 99t89.5 35q48 0 90 -34.5t55 -99.5q5 -29 7 -64v-1q-2 -36 -7 -64
q-13 -65 -55 -100t-89 -35h-1q-47 0 -89.5 35zM804.5 85.5q21.5 25.5 26.5 54.5q5 30 5 52q0 24 -5 52q-5 30 -26.5 55.5t-53.5 25.5q-31 0 -52.5 -25.5t-26.5 -55.5q-5 -28 -5 -52q0 -22 5 -52q5 -29 26.5 -54.5t52.5 -25.5q32 0 53.5 25.5z" />
    <glyph glyph-name="plus" unicode="+" horiz-adv-x="610" 
d="M550 244h-214v-214h-63v214h-213v63h213v213h63v-213h214v-63z" />
    <glyph glyph-name="at" unicode="@" horiz-adv-x="820" 
d="M284 11q-67 28 -117 78q-49 50 -78 117q-29 69 -29 146q0 75 29 142q28 65 79 116q49 49 116 78t141 29q66 0 129 -23q59 -21 107 -62q46 -42 72 -96q27 -55 27 -122q0 -64 -24 -117q-22 -52 -57 -90q-34 -37 -75 -58q-39 -20 -75 -20q-25 0 -43 15q-17 16 -20 49h-3
q-22 -26 -54 -46q-30 -20 -68 -20q-32 0 -57 12q-25 11 -44 33q-18 20 -29 49q-10 27 -10 61q0 53 16 101q19 53 47 90q32 41 73 64q45 25 95 25q32 0 64 -19q29 -17 46 -62l23 62h62l-83 -280q-3 -8 -7 -26q-4 -12 -4 -24q0 -30 24 -30q22 0 47 20q23 20 43 54q18 27 33 72
q13 44 13 80q0 56 -22 105q-22 48 -60 81q-39 33 -85 50q-48 18 -100 18q-64 0 -118 -25q-55 -26 -95 -69q-41 -44 -63 -100q-23 -58 -23 -122q0 -66 24 -123t66 -99t97 -66q56 -24 117 -24q72 0 136 33q65 31 108 86h62q-25 -43 -57 -73q-31 -30 -73 -54q-40 -22 -86 -34
q-47 -11 -92 -11q-76 0 -145 29zM419 215q29 23 48 53q21 31 33 68q12 36 12 67q0 14 -7 35q-5 13 -17 29q-13 13 -26 20q-16 8 -30 8q-34 0 -64 -21q-27 -18 -49 -50q-21 -32 -33 -67q-12 -36 -12 -68q0 -41 24 -68t61 -27q33 0 60 21z" />
    <glyph glyph-name="ampersand" unicode="&#x26;" horiz-adv-x="724" 
d="M578 0l-79 85q-46 -61 -104.5 -82t-106.5 -21q-64 0 -119 28t-87 75t-32 103q0 43 19.5 82.5t55.5 68.5l1 1l80 61l-38 41q-20 21 -34 46.5t-14 63.5q0 41 20 75t55 53.5t77 19.5t76.5 -19.5t54.5 -53.5t20 -75q0 -33 -14 -62t-40 -51l-1 -1l-59 -46l174 -187
q18 55 22 123l70 -4q-6 -101 -39 -176l138 -148h-96zM198 518.5q8 -13.5 21 -28.5l42 -46l64 49q28 24 28 59q0 33 -23.5 55.5t-57.5 22.5q-35 0 -58.5 -22.5t-23.5 -55.5q0 -20 8 -33.5zM372.5 70q43.5 18 77.5 68l-197 212l-84 -65q-49 -40 -49 -97q0 -37 22.5 -68
t61 -49.5t84.5 -18.5q41 0 84.5 18z" />
    <glyph glyph-name="trademark" unicode="&#x2122;" horiz-adv-x="1517" 
d="M312 630h-250v70h569v-70h-249v-630h-70v630zM755 700h73l277 -615l277 615h73v-700h-70v537l-242 -537h-76l-242 537v-537h-70v700z" />
    <glyph glyph-name="asciicircum" unicode="^" horiz-adv-x="550" 
d="M490 298l-187 402h-56l-187 -402h70l145 312l146 -312h69z" />
    </font>
</defs>
</svg>
