<?xml version="1.0" standalone="no"?>
<!DOCTYPE svg PUBLIC "-//W3C//DTD SVG 1.1//EN" "http://www.w3.org/Graphics/SVG/1.1/DTD/svg11.dtd" >
<svg xmlns="http://www.w3.org/2000/svg" xmlns:xlink="http://www.w3.org/1999/xlink" version="1.1">
<metadata>
Created by FontForge 20170924 at Sun May  8 16:29:05 2016
 By www-data
</metadata>
<defs>
<font id="ElliotSans-BoldItalic" horiz-adv-x="695" >
  <font-face 
    font-family="Elliot Sans Bold"
    font-weight="700"
    font-style="italic"
    font-stretch="normal"
    units-per-em="1000"
    panose-1="0 0 8 0 0 0 0 0 0 0"
    ascent="800"
    descent="-200"
    x-height="525"
    cap-height="700"
    bbox="-283 -325 1567 785"
    underline-thickness="50"
    underline-position="-100"
    unicode-range="U+0020-2212"
  />
<missing-glyph horiz-adv-x="513" 
d="M420 -325h-325v1025h325v-1025zM172 631v-33h67v-38h-68v-34h170v34h-67v38h67v33h-169zM171 499v-106h170v34h-67v72h-103zM239 427h-34v37h34v-37zM171 365v-34h68v-38h-68v-34h103v72h67v34h-170zM308 303v-67h-137v-35h170v102h-33zM239 178v-57h35v23h34v-48h-103
v82h-34v-116h170v116h-102zM171 1v-116h170v116h-170zM308 -81h-103v48h103v-48zM171 -138v-34h72l-72 -48v-34h170v34h-104l72 48h32v34h-170z" />
    <glyph glyph-name=".notdef" horiz-adv-x="513" 
d="M420 -325h-325v1025h325v-1025zM172 631v-33h67v-38h-68v-34h170v34h-67v38h67v33h-169zM171 499v-106h170v34h-67v72h-103zM239 427h-34v37h34v-37zM171 365v-34h68v-38h-68v-34h103v72h67v34h-170zM308 303v-67h-137v-35h170v102h-33zM239 178v-57h35v23h34v-48h-103
v82h-34v-116h170v116h-102zM171 1v-116h170v116h-170zM308 -81h-103v48h103v-48zM171 -138v-34h72l-72 -48v-34h170v34h-104l72 48h32v34h-170z" />
    <glyph glyph-name="space" unicode=" " horiz-adv-x="260" 
 />
    <glyph glyph-name="A" unicode="A" horiz-adv-x="746" 
d="M-124 0l429 700h136l131 -700h-136l-27 148h-306l-91 -148h-136zM179 274h205l-47 256z" />
    <glyph glyph-name="B" unicode="B" horiz-adv-x="671" 
d="M531 253q0 -19 -5 -46q-12 -58 -49 -105.5t-90 -74.5t-110 -27h-364l61 287l27 126l61 287h330q75 0 120.5 -44.5t45.5 -115.5q0 -19 -5 -46q-15 -73 -68 -126q46 -43 46 -115zM127 413h204q35 0 62 22.5t34 58.5q2 14 2 19q0 28 -17.5 44.5t-46.5 16.5h-204zM366 148.5
q27 22.5 34 58.5q2 14 2 19q0 28 -17.5 44.5t-46.5 16.5h-238l-34 -161h238q35 0 62 22.5z" />
    <glyph glyph-name="C" unicode="C" horiz-adv-x="706" 
d="M407 17q78 34 139 96l-81 79q-40 -40 -89.5 -61.5t-100.5 -21.5q-81 0 -130.5 50.5t-49.5 132.5q0 24 7 59q14 68 55.5 123t99.5 86.5t121 31.5q51 0 91 -21.5t63 -61.5l115 79q-35 62 -98.5 96t-143.5 34q-97 0 -187.5 -48.5t-155 -133t-86.5 -185.5q-9 -43 -9 -84
q0 -82 35 -146.5t99 -101t148 -36.5q80 0 158 34z" />
    <glyph glyph-name="D" unicode="D" horiz-adv-x="713" 
d="M354 46q89 46 151.5 126t83.5 178q9 41 9 79q0 79 -35 140.5t-98.5 96t-147.5 34.5h-255l-149 -700h255q97 0 186 46zM161 574h129q81 0 130 -47.5t49 -124.5q0 -25 -6 -52q-14 -64 -53.5 -115t-95.5 -80t-119 -29h-129z" />
    <glyph glyph-name="E" unicode="E" horiz-adv-x="616" 
d="M161 574l-34 -161h366l-27 -126h-366l-34 -161h366l-27 -126h-492l149 700h492l-27 -126h-366z" />
    <glyph glyph-name="F" unicode="F" horiz-adv-x="581" 
d="M161 574l-34 -161h331l-27 -126h-331l-61 -287h-126l149 700h457l-27 -126h-331z" />
    <glyph glyph-name="G" unicode="G" horiz-adv-x="771" 
d="M641 378l-81 -378h-126l10 44q-97 -63 -200 -63q-83 0 -146 36.5t-97.5 101.5t-34.5 147q0 40 9 83q22 102 86 186.5t154 133t186 48.5q79 0 142 -34t98 -96l-117 -78q-22 40 -61 61t-89 21q-62 0 -119.5 -31.5t-98 -87t-55.5 -123.5q-6 -30 -6 -59q0 -81 48 -132
t128 -51q55 0 99 26t72 55q27 28 42 64h-186l27 126h316z" />
    <glyph glyph-name="H" unicode="H" horiz-adv-x="736" 
d="M664 700l-149 -700h-126l61 287h-350l-61 -287h-126l149 700h126l-61 -287h350l61 287h126z" />
    <glyph glyph-name="I" unicode="I" horiz-adv-x="270" 
d="M198 700h-126l-149 -700h126z" />
    <glyph glyph-name="J" unicode="J" horiz-adv-x="610" 
d="M282.5 10.5q61.5 28.5 104 78.5t55.5 112l106 499h-126l-106 -499q-9 -41 -47 -67t-90 -26q-45 0 -72 20.5t-27 53.5q0 5 2 19l15 73h-126l-15 -73q-5 -27 -5 -45q0 -51 25 -90.5t70.5 -61.5t105.5 -22q69 0 130.5 28.5z" />
    <glyph glyph-name="K" unicode="K" horiz-adv-x="734" 
d="M367 0l-194 304l-83 -64l-51 -240h-126l149 700h126l-61 -288l372 288h185l-400 -310l249 -390h-166z" />
    <glyph glyph-name="L" unicode="L" horiz-adv-x="636" 
d="M442 126h-366l122 574h-126l-149 -700h492z" />
    <glyph glyph-name="M" unicode="M" horiz-adv-x="880" 
d="M818 700l-149 -700h-126l87 406l-270 -406h-138l-96 406l-87 -406h-126l149 700h132l130 -546l362 546h132z" />
    <glyph glyph-name="N" unicode="N" horiz-adv-x="740" 
d="M39 0h-126l149 700h140l244 -500l106 500h126l-149 -700h-140l-244 500z" />
    <glyph glyph-name="O" unicode="O" horiz-adv-x="798" 
d="M434 31.5q90 48.5 154 133t86 186.5q9 44 9 84q0 82 -35 146t-98.5 100.5t-146.5 36.5q-96 0 -186.5 -48.5t-154.5 -133t-86 -185.5q-9 -43 -9 -84q0 -82 35 -146.5t98.5 -101t146.5 -36.5q97 0 187 48.5zM505 541q49 -51 49 -132q0 -28 -6 -58q-15 -68 -56 -123.5
t-98.5 -87t-120.5 -31.5q-80 0 -129 50.5t-49 132.5q0 22 7 59q14 68 55 123t98.5 86.5t120.5 31.5q80 0 129 -51z" />
    <glyph glyph-name="P" unicode="P" horiz-adv-x="645" 
d="M519.5 655q46.5 -45 46.5 -116q0 -19 -5 -46q-12 -58 -49.5 -105.5t-91 -74.5t-111.5 -27h-209l-61 -286h-126l61 286l13 63l75 351h335q76 0 122.5 -45zM400.5 434q27.5 22 34.5 59q2 14 2 20q0 28 -18 44.5t-49 16.5h-209l-34 -162h209q37 0 64.5 22z" />
    <glyph glyph-name="Q" unicode="Q" horiz-adv-x="804" 
d="M627 225.5q-33 -59.5 -80 -108.5l69 -67l-101 -98l-81 80q-93 -49 -187 -49q-83 0 -146.5 36.5t-98.5 101t-35 146.5q0 41 9 84q22 101 86 185.5t154.5 133t186.5 48.5q83 0 146.5 -36.5t98.5 -100.5t35 -146q0 -40 -9 -84q-14 -66 -47 -125.5zM345 120l-52 52l100 97
l73 -72q63 64 82 154q6 30 6 58q0 81 -49 132t-129 51q-63 0 -120.5 -31.5t-98.5 -86.5t-55 -123q-7 -37 -7 -59q0 -82 49 -132.5t129 -50.5q34 0 72 11z" />
    <glyph glyph-name="R" unicode="R" horiz-adv-x="688" 
d="M358 0l-147 287h-111l-61 -287h-126l61 287l14 63l74 350h331q75 0 121 -44.5t46 -116.5q0 -19 -5 -46q-16 -72 -69 -126.5t-123 -72.5l151 -294h-156zM332 413q41 0 70 28.5t29 71.5q0 28 -17.5 44.5t-47.5 16.5h-205l-34 -161h205z" />
    <glyph glyph-name="S" unicode="S" horiz-adv-x="637" 
d="M311 12.5q71 29.5 119 79.5t61 111q4 17 4 37q0 66 -48 114.5t-129 62.5q-43 9 -49 9l-49 10l-6 2h-1q-34 7 -55 25.5t-21 40.5q0 24 23.5 44.5t59.5 32t71 11.5q51 0 83.5 -20t36.5 -45l127 43q-10 67 -70.5 107.5t-149.5 40.5q-72 0 -138 -27.5t-111 -74.5t-57 -104
q-4 -24 -4 -34q0 -60 43.5 -105.5t116.5 -59.5q7 -3 54 -11q4 -1 17 -3t30 -6q43 -7 70 -29.5t27 -49.5q0 -7 -1 -11q-5 -22 -30 -44t-64 -36t-83 -14q-62 0 -100 27q-16 10 -25.5 24t-10.5 28l-128 -36q4 -49 36 -87.5t84.5 -60t117.5 -21.5q78 0 149 29.5z" />
    <glyph glyph-name="T" unicode="T" horiz-adv-x="749" 
d="M660 574h-249l-122 -574h-126l122 574h-250l27 126h625z" />
    <glyph glyph-name="U" unicode="U" horiz-adv-x="742" 
d="M383 18q78 36 132 98.5t71 139.5l94 444h-126l-94 -444q-14 -65 -75 -106.5t-140 -41.5q-70 0 -112 32.5t-42 86.5q0 14 3 29l94 444h-126l-94 -444q-6 -28 -6 -56q0 -63 32 -112.5t90 -77.5t134 -28q87 0 165 36z" />
    <glyph glyph-name="V" unicode="V" horiz-adv-x="678" 
d="M123 0l-103 700h134l76 -514l294 514h134l-401 -700h-134z" />
    <glyph glyph-name="W" unicode="W" horiz-adv-x="945" 
d="M65 0l-45 700h131l29 -464l227 464h131l29 -464l228 464h130l-342 -700h-131l-29 464l-228 -464h-130z" />
    <glyph glyph-name="X" unicode="X" horiz-adv-x="724" 
d="M365 350l170 -350h-114h-40l-117 240l-219 -240h-114h-40l320 350l-171 350h154l117 -240l219 240h154z" />
    <glyph glyph-name="Y" unicode="Y" 
d="M685 700l-354 -371l-70 -329h-126l70 329l-195 371h157l128 -244l233 244h157z" />
    <glyph glyph-name="Z" unicode="Z" horiz-adv-x="668" 
d="M573 545l-487 -419h398l-27 -126h-544l33 155l486 419h-397l27 126h544z" />
    <glyph glyph-name="a" unicode="a" horiz-adv-x="543" 
d="M362 486.5q53 -46.5 53 -121.5q0 -19 -5 -44l-68 -321h-126l2 8q-48 -17 -103 -17q-57 0 -100.5 18.5t-67.5 51.5t-24 75q0 10 4 32q10 50 48.5 90.5t95 63.5t120.5 23q52 0 95 -17q4 35 -21 57t-70 22q-29 0 -55 -9.5t-44 -26.5l-80 81q41 39 95 60t111 21
q87 0 140 -46.5zM196.5 125.5q25.5 8.5 40.5 21t15 25.5q0 18 -25 32.5t-63 14.5q-29 0 -54.5 -8.5t-41 -21t-15.5 -25.5q0 -18 25 -32.5t64 -14.5q29 0 54.5 8.5z" />
    <glyph glyph-name="b" unicode="b" horiz-adv-x="606" 
d="M380.5 507q46.5 -27 72 -75t25.5 -108q0 -25 -7 -62q-16 -75 -63 -137t-113.5 -98t-137.5 -36t-122 37l-6 -28h-126l149 700h126l-43 -203q69 37 138 37q61 0 107.5 -27zM286 158.5q46 41.5 59 103.5q4 17 4 37q0 48 -28 78.5t-75 30.5q-55 0 -101 -42t-60 -104
q-4 -17 -4 -37q0 -48 28 -78t75 -30q56 0 102 41.5z" />
    <glyph glyph-name="c" unicode="c" horiz-adv-x="521" 
d="M256.5 13.5q55.5 22.5 102.5 63.5l-77 84q-50 -44 -111 -44q-51 0 -81.5 30.5t-30.5 80.5q0 18 4 34q14 62 62.5 104t107.5 42q30 0 54 -11.5t38 -33.5l112 84q-29 42 -74.5 64.5t-102.5 22.5q-73 0 -141.5 -36t-117 -98.5t-64.5 -137.5q-6 -31 -6 -60q0 -61 26.5 -109
t75 -75t111.5 -27q57 0 112.5 22.5z" />
    <glyph glyph-name="d" unicode="d" horiz-adv-x="620" 
d="M13 399.5q48 62.5 116.5 98.5t140.5 36q74 0 128 -39l44 205h126l-149 -700h-126l7 30q-70 -39 -146 -39q-62 0 -110 27t-74.5 75t-26.5 109q0 29 6 60q16 75 64 137.5zM71 227q0 -49 30 -79.5t80 -30.5q59 0 107 41.5t61 103.5q4 16 4 35q0 49 -30 80t-80 31
q-58 0 -106 -42t-62 -104q-4 -16 -4 -35z" />
    <glyph glyph-name="e" unicode="e" horiz-adv-x="592" 
d="M264.5 13.5q55.5 22.5 101.5 63.5l-77 84q-23 -21 -51.5 -32.5t-57.5 -11.5q-42 0 -70.5 22.5t-36.5 59.5h373l13 63q7 31 7 65q0 60 -25.5 107t-72 73.5t-107.5 26.5q-72 0 -138 -35.5t-113 -98t-63 -138.5q-6 -31 -6 -60q0 -61 26.5 -109t74.5 -75t111 -27
q56 0 111.5 22.5zM155 385q35 23 79 23t69 -23t31 -60h-237q23 37 58 60z" />
    <glyph glyph-name="f" unicode="f" horiz-adv-x="429" 
d="M225 573.5q-24 -18.5 -33 -46.5h124l-27 -126h-125l-85 -401h-126l85 401h-77l27 126h77q14 53 50.5 97t86 69t102.5 25q58 0 102 -33l-93 -105q-14 12 -36 12q-28 0 -52 -18.5z" />
    <glyph glyph-name="g" unicode="g" horiz-adv-x="619" 
d="M530 525l-109 -511q-14 -68 -61 -123t-115.5 -86.5t-144.5 -31.5q-71 0 -125.5 29.5t-79.5 81.5l118 71q13 -26 43 -41t71 -15q62 0 110 32.5t58 82.5l4 16q-72 -39 -146 -39q-63 0 -111 27t-74.5 75t-26.5 109q0 29 6 60q16 75 64 137.5t116.5 98.5t141.5 36
q75 0 128 -39l7 30h126zM286 158.5q48 41.5 62 103.5q4 16 4 35q0 49 -30 80t-80 31q-59 0 -107 -42t-62 -104q-4 -16 -4 -35q0 -48 30.5 -79t80.5 -31q58 0 106 41.5z" />
    <glyph glyph-name="h" unicode="h" horiz-adv-x="566" 
d="M345 510q42 -24 65 -67t23 -97q0 -26 -6 -55l-62 -291h-126l62 291q3 15 3 29q0 39 -22.5 63.5t-60.5 24.5q-45 0 -82 -33.5t-48 -83.5l-62 -291h-126l149 700h126l-41 -192q57 26 111 26q55 0 97 -24z" />
    <glyph glyph-name="i" unicode="i" horiz-adv-x="264" 
d="M63 584.5q-16 15.5 -16 39.5q0 33 27 59t60 26q25 0 41 -16t16 -40q0 -33 -27 -58.5t-60 -25.5q-25 0 -41 15.5zM32 525h126l-112 -525h-126z" />
    <glyph glyph-name="j" unicode="j" horiz-adv-x="266" 
d="M85.5 585q-15.5 16 -15.5 40q0 33 26.5 58.5t59.5 25.5q25 0 41 -16t16 -40q0 -33 -27 -58.5t-60 -25.5q-25 0 -40.5 16zM54 525h126l-110 -516q-12 -56 -49 -102t-89.5 -73t-109.5 -27q-61 0 -105 32l90 107q18 -13 42 -13q34 0 61 22t34 54z" />
    <glyph glyph-name="k" unicode="k" horiz-adv-x="608" 
d="M118 205l-42 -32l-37 -173h-126l149 700h126l-75 -355l232 180h186l-303 -234l186 -291h-165z" />
    <glyph glyph-name="l" unicode="l" horiz-adv-x="250" 
d="M188 700h-126l-149 -700h126z" />
    <glyph glyph-name="m" unicode="m" horiz-adv-x="849" 
d="M636 511q40 -22 62 -61.5t22 -88.5q0 -21 -5 -48l-67 -313h-126l67 313q2 14 2 21q0 33 -20 53t-54 20q-39 0 -71.5 -27t-40.5 -67l-67 -313h-126l67 313q2 7 2 22q0 32 -20 52t-53 20q-40 0 -72 -27t-40 -67l-67 -313h-126l112 525h126l-3 -12q48 20 97 20
q45 0 80.5 -16.5t59.5 -47.5q37 30 80.5 47t88.5 17q52 0 92 -22z" />
    <glyph glyph-name="n" unicode="n" horiz-adv-x="571" 
d="M349 510q43 -24 66.5 -66.5t23.5 -95.5q0 -25 -6 -52l-63 -296h-126l63 296q3 14 3 27q0 38 -24 61.5t-63 23.5q-46 0 -83 -32t-48 -80l-63 -296h-126l112 525h126l-4 -17q59 26 113 26q56 0 99 -24z" />
    <glyph glyph-name="o" unicode="o" horiz-adv-x="606" 
d="M292.5 27q68.5 36 116.5 98t64 137q6 32 6 60q0 61 -26.5 109t-74.5 75.5t-110 27.5q-73 0 -141 -36t-116 -98.5t-64 -137.5q-6 -31 -6 -60q0 -61 26 -109t74 -75t111 -27q72 0 140.5 36zM321 377q30 -31 30 -80q0 -19 -4 -35q-13 -62 -61 -103.5t-107 -41.5
q-50 0 -80 30.5t-30 79.5q0 19 4 35q14 62 62 104t106 42q50 0 80 -31z" />
    <glyph glyph-name="p" unicode="p" horiz-adv-x="620" 
d="M391 507q48 -27 74 -75.5t26 -109.5q0 -28 -6 -60q-16 -75 -64 -137t-116 -98t-141 -36q-75 0 -128 39l-44 -205h-126l149 700h126l-7 -30q72 39 146 39q63 0 111 -27zM297 158.5q48 41.5 62 103.5q4 16 4 35q0 49 -30 80t-80 31q-58 0 -106 -42t-62 -104q-4 -16 -4 -35
q0 -49 30 -79.5t80 -30.5q58 0 106 41.5z" />
    <glyph glyph-name="q" unicode="q" horiz-adv-x="621" 
d="M532 525l-149 -700h-126l44 205q-75 -39 -146 -39q-63 0 -111 27.5t-74.5 75.5t-26.5 109q0 29 6 60q16 75 64 137t116.5 98t141.5 36q75 0 128 -39l7 30h126zM288 159q48 42 62 104q4 16 4 35q0 49 -30 79.5t-80 30.5q-59 0 -107 -41.5t-62 -103.5q-4 -16 -4 -35
q0 -49 30.5 -80t80.5 -31q58 0 106 42z" />
    <glyph glyph-name="r" unicode="r" horiz-adv-x="486" 
d="M358.5 510.5q43.5 -23.5 68.5 -66.5l-115 -79q-12 21 -32.5 32t-46.5 11q-50 0 -91.5 -37t-53.5 -93l-59 -278h-126l112 525h126l-5 -22q60 31 124 31q55 0 98.5 -23.5z" />
    <glyph glyph-name="s" unicode="s" horiz-adv-x="508" 
d="M226 18.5q59 27.5 94.5 73.5t35.5 99q0 50 -37 87.5t-99 49.5l-36 6v0q-11 2 -20.5 3.5t-12.5 2.5l-6 2q-20 5 -31 14.5t-10 16.5q2 6 13.5 14t30.5 14.5t41 6.5q29 0 48 -10.5t21 -21.5l127 44q-8 51 -54.5 82.5t-114.5 31.5q-56 0 -107 -21.5t-86 -58.5t-45 -81
q-3 -13 -3 -26q0 -48 33.5 -83.5t90.5 -46.5l40 -8l32 -6q28 -5 43.5 -18t12.5 -24q-2 -8 -15.5 -18.5t-36 -18t-48.5 -7.5q-35 0 -57.5 12.5t-24.5 27.5l-128 -37q5 -57 56 -93t127 -36q67 0 126 27.5z" />
    <glyph glyph-name="t" unicode="t" horiz-adv-x="408" 
d="M254 23q-55 -32 -115 -32q-71 0 -115.5 44.5t-44.5 113.5q0 19 5 44l45 209h-77l26 126h77l37 172h126l-37 -172h125l-26 -126h-125l-45 -209q-2 -12 -2 -18q0 -26 16 -42t42 -16q21 0 41 11z" />
    <glyph glyph-name="u" unicode="u" horiz-adv-x="578" 
d="M489 525l-112 -525h-126l4 18q-59 -27 -117 -27q-57 0 -100.5 24t-67.5 66t-24 95q0 26 6 53l63 296h126l-63 -296q-3 -13 -3 -26q0 -38 25 -62t65 -24q47 0 86 32t49 80l63 296h126z" />
    <glyph glyph-name="v" unicode="v" horiz-adv-x="550" 
d="M59 0l-86 525h135l56 -346l205 346h134l-310 -525h-134z" />
    <glyph glyph-name="w" unicode="w" horiz-adv-x="781" 
d="M18 0l-45 525h132l26 -305l157 305h132l26 -305l157 305h131l-269 -525h-132l-26 306l-157 -306h-132z" />
    <glyph glyph-name="x" unicode="x" horiz-adv-x="601" 
d="M130 262l-137 263h156l82 -156l147 156h156l-248 -263l136 -262h-156l-81 156l-148 -156h-156z" />
    <glyph glyph-name="y" unicode="y" horiz-adv-x="568" 
d="M509 506l-327 -532l-26 -42q-72 -122 -173 -152q-28 -8 -57 -8q-47 0 -84 20l80 113q13 -7 31 -7q19 0 42 14t53 66l1 1l21 35l-97 511h136l65 -342l211 342h136z" />
    <glyph glyph-name="z" unicode="z" horiz-adv-x="565" 
d="M445 379l-346 -253h292l-27 -126h-461l31 146l346 253h-292l27 126h461z" />
    <glyph glyph-name="zero" unicode="0" horiz-adv-x="651" 
d="M277 4.5q51 21.5 97 63.5q37 33 66.5 75.5t48.5 88.5q23 57 37 117l1 3q12 62 12 127q0 43 -12 82.5t-33 71.5q-29 41 -71 63t-94 22t-103.5 -22t-97.5 -63q-76 -67 -115 -164q-23 -57 -37 -117l-1 -3q-12 -61 -12 -127q0 -89 45 -154q28 -42 70 -63.5t95 -21.5t104 21.5
zM132 446q21 53 67.5 99.5t102.5 46.5q55 0 81.5 -45t26.5 -98q0 -41 -9 -99q-15 -56 -32 -95q-21 -53 -67.5 -99.5t-102.5 -46.5q-55 0 -81.5 45t-26.5 98q0 41 11 98q11 47 30 96z" />
    <glyph glyph-name="one" unicode="1" horiz-adv-x="443" 
d="M348 700l-149 -700h-126l122 573l-88 -57l-55 101l128 83h168z" />
    <glyph glyph-name="two" unicode="2" horiz-adv-x="600" 
d="M409 126h-324q24 37 56 63.5t61 40.5l131 61q67 29 113 82t59 117q5 27 5 45q0 53 -26.5 94t-74 64.5t-109.5 23.5q-80 0 -153 -39t-115 -105l106 -49q19 30 56 48.5t79 18.5q48 0 78 -23.5t30 -59.5q0 -32 -21.5 -60t-58.5 -44l-132 -61q-74 -34 -136 -100t-96 -145
q-2 -5 -4.5 -11.5t-4.5 -14.5l-27 -72h481z" />
    <glyph glyph-name="three" unicode="3" horiz-adv-x="628" 
d="M551 700h-472l-27 -126h262l-220 -162l46 -104q36 15 78 15q53 0 87 -25.5t34 -63.5q0 -34 -23.5 -63t-62 -46t-81.5 -17q-46 0 -78.5 19t-40.5 51l-125 -54q17 -65 76 -103.5t141 -38.5q74 0 142 31t115 85t61 118q5 25 5 44q0 64 -39.5 112t-105.5 67l204 150z" />
    <glyph glyph-name="four" unicode="4" horiz-adv-x="623" 
d="M490 264l-26 -126h-105l-30 -138h-126l30 138h-300l36 170l368 392h141l-93 -436h105zM311 506l-228 -242h176z" />
    <glyph glyph-name="five" unicode="5" horiz-adv-x="608" 
d="M9 377l94 -57q50 41 115 41q53 0 85.5 -28t32.5 -73q0 -41 -24 -76t-63.5 -55.5t-84.5 -20.5q-42 0 -72.5 19.5t-40.5 52.5l-124 -57q20 -65 76 -103t134 -38q74 0 142.5 33.5t116.5 91.5t63 128q6 27 6 51q0 58 -27.5 103.5t-78 71.5t-114.5 26q-35 0 -66 -7l38 94h296
l27 126h-401z" />
    <glyph glyph-name="six" unicode="6" horiz-adv-x="631" 
d="M387.5 463.5q47.5 -25.5 74 -70.5t26.5 -102q0 -26 -6 -55q-15 -70 -61 -128t-112.5 -91.5t-137.5 -33.5q-75 0 -129 38t-73 101q-12 35 -12 82q0 64 17.5 140.5t41.5 132.5q28 68 73 120t100 81q35 19 74 29.5t77 10.5q73 0 126 -35.5t68 -94.5l-125 -54q-7 26 -33 42
t-63 16q-41 0 -80 -21l-2 -1q-29 -15 -54 -45.5t-43 -72.5q68 37 144 37q62 0 109.5 -25.5zM276.5 130q37.5 21 60 57t22.5 78q0 44 -29.5 71t-78.5 27q-56 0 -101.5 -36t-57.5 -91q-3 -13 -3 -27q0 -44 30 -72t78 -28q42 0 79.5 21z" />
    <glyph glyph-name="seven" unicode="7" horiz-adv-x="613" 
d="M554 609l-429 -609h-141l404 574h-365l27 126h523z" />
    <glyph glyph-name="eight" unicode="8" horiz-adv-x="623" 
d="M459.5 325q14.5 -33 14.5 -71q0 -18 -5 -43q-13 -63 -59 -115.5t-112.5 -82.5t-138.5 -30q-64 0 -113.5 24t-77 66t-27.5 95q0 18 5 43q11 51 43.5 95.5t79.5 75.5q-31 40 -31 95q0 22 4 39q12 56 52.5 102t99 73t121.5 27q57 0 100.5 -21t67.5 -58t24 -84q0 -22 -4 -39
q-8 -38 -30 -72.5t-55 -61.5q27 -24 41.5 -57zM192 457.5q25 -18.5 64 -18.5q32 0 60 12t45 33t17 44q0 27 -25.5 45.5t-64.5 18.5q-31 0 -59 -12t-45 -32.5t-17 -43.5q0 -28 25 -46.5zM263 125q37 16 59.5 43.5t22.5 59.5q0 37 -32.5 61t-83.5 24q-41 0 -77.5 -16
t-59 -43.5t-22.5 -59.5q0 -37 32 -61t83 -24q41 0 78 16z" />
    <glyph glyph-name="nine" unicode="9" horiz-adv-x="631" 
d="M526 495q0 -63 -17.5 -139t-41.5 -132q-29 -68 -73.5 -120t-99.5 -81q-72 -40 -150 -40q-74 0 -127.5 35.5t-68.5 94.5l126 54q7 -26 33 -42t63 -16q41 0 80 21l2 1q29 15 54 45.5t43 72.5q-69 -37 -145 -37q-62 0 -109.5 25.5t-74 71t-26.5 102.5q0 26 6 54
q15 70 61.5 128t113 91.5t137.5 33.5q76 0 129.5 -38t71.5 -101q13 -33 13 -84zM310.5 358.5q37.5 20.5 60 56t22.5 77.5q0 44 -29.5 72t-78.5 28q-42 0 -79 -21t-60 -56.5t-23 -76.5q0 -44 29.5 -72t78.5 -28q42 0 79.5 20.5z" />
    <glyph glyph-name="fraction" unicode="&#x2044;" 
d="M-6 -26l687 752h-128l-687 -752h128z" />
    <glyph glyph-name="asterisk" unicode="*" horiz-adv-x="369" 
d="M172 350l97 61l-43 84l106 33l-12 100l-105 -32l22 104h-105l-22 -104l-92 32l-55 -101l92 -32l-79 -85l74 -60l77 83z" />
    <glyph glyph-name="backslash" unicode="\" horiz-adv-x="469" 
d="M180 -17l-152 753h117l152 -753h-117z" />
    <glyph glyph-name="periodcentered" unicode="&#xb7;" horiz-adv-x="241" 
d="M95.5 343q-18.5 18 -48.5 18q-24 0 -46.5 -13.5t-37 -35.5t-14.5 -48q0 -27 18 -45.5t46 -18.5q25 0 48.5 13.5t38 36t14.5 48.5q0 27 -18.5 45z" />
    <glyph glyph-name="bullet" unicode="&#x2022;" horiz-adv-x="361" 
d="M186.5 427q-22.5 23 -58.5 23q-31 0 -60 -17t-46.5 -45t-17.5 -60q0 -34 22.5 -56.5t58.5 -22.5q30 0 59 17t47 44.5t18 59.5q0 34 -22.5 57z" />
    <glyph glyph-name="colon" unicode=":" horiz-adv-x="261" 
d="M142.5 516q-18.5 18 -48.5 18q-31 0 -59 -22.5t-37 -54.5q-2 -7 -2 -20q0 -27 18 -45.5t46 -18.5q24 0 47.5 13.5t38.5 36.5t15 48q0 27 -18.5 45zM81 97q0 27 -18.5 45.5t-48.5 18.5q-23 0 -46 -13.5t-37 -35.5t-14 -48q0 -27 18.5 -45.5t47.5 -18.5q32 0 59.5 22.5
t36.5 55.5q2 7 2 19z" />
    <glyph glyph-name="comma" unicode="," horiz-adv-x="259" 
d="M-109 -207l24 20q62 53 98.5 112t50.5 102.5t14 55.5l3 26h-133l-2 -31q0 -6 -7.5 -37.5t-27 -78.5t-52.5 -95l-13 -19z" />
    <glyph glyph-name="exclam" unicode="!" horiz-adv-x="261" 
d="M-29 197l56 364l30 139h147l-30 -139l-98 -364h-105zM79 88q0 27 -18.5 45.5t-47.5 18.5q-32 0 -59.5 -22.5t-36.5 -55.5q-2 -7 -2 -19q0 -27 18.5 -45.5t47.5 -18.5q32 0 59.5 22.5t36.5 55.5q2 7 2 19z" />
    <glyph glyph-name="numbersign" unicode="#" 
d="M471 446l-93 -192h97l-19 -88h-120l-79 -166h-91l80 166h-120l-80 -166h-90l79 166h-99l19 88h123l92 192h-97l19 88h121l79 166h91l-80 -166h120l79 166h90l-79 -166h97l-19 -88h-120zM380 446h-119l-93 -192h120z" />
    <glyph glyph-name="period" unicode="." horiz-adv-x="261" 
d="M79 88q0 27 -18.5 45.5t-47.5 18.5q-32 0 -59.5 -22.5t-36.5 -55.5q-2 -7 -2 -19q0 -27 18.5 -45.5t47.5 -18.5q32 0 59.5 22.5t36.5 55.5q2 7 2 19z" />
    <glyph glyph-name="question" unicode="?" horiz-adv-x="571" 
d="M242 209q5 26 22 45t58 47q60 39 100.5 84t54.5 107q5 27 5 46q0 52 -25 93t-70.5 64t-104.5 23q-77 0 -148 -39.5t-111 -105.5l107 -47q19 30 52.5 48t72.5 18q44 0 71 -22.5t27 -58.5q0 -5 -2 -19q-5 -23 -23.5 -43t-61.5 -48q-60 -40 -98 -84t-52 -108l-3 -11h126z
M214 134.5q-18 18.5 -48 18.5q-32 0 -59.5 -22.5t-36.5 -55.5q-2 -7 -2 -19q0 -27 18.5 -45.5t47.5 -18.5q24 0 46.5 13t37 35.5t14.5 47.5q0 28 -18 46.5z" />
    <glyph glyph-name="quotedbl" unicode="&#x22;" horiz-adv-x="524" 
d="M216 700h-126l-67 -315h126zM434 700h-126l-67 -315h126z" />
    <glyph glyph-name="quotesingle" unicode="'" horiz-adv-x="289" 
d="M17 384l24 20q62 53 98 112t50 102.5t14 55.5l4 26h-133l-3 -31q0 -7 -7 -38t-26.5 -78t-52.5 -95l-13 -19z" />
    <glyph glyph-name="semicolon" unicode=";" horiz-adv-x="273" 
d="M173 472q0 27 -18.5 44.5t-47.5 17.5q-32 0 -60 -22.5t-37 -54.5q-2 -12 -2 -18q0 -29 18 -47.5t46 -18.5q33 0 62 23t36 55q3 11 3 21zM-104 -185l24 20q62 53 97.5 111.5t98.5 252.5t-33 -94l3 26h-133l-4 -31q0 -7 -7 -38t-26.5 -78t-52.5 -95l-12 -19z" />
    <glyph glyph-name="slash" unicode="/" horiz-adv-x="469" 
d="M-132 -17l472 753h117l-472 -753h-117z" />
    <glyph glyph-name="underscore" unicode="_" horiz-adv-x="590" 
d="M388 -60h-510l-10 -50h510z" />
    <glyph glyph-name="braceleft" unicode="{" horiz-adv-x="440" 
d="M169 -198l23 109h-57q-11 0 -16.5 8.5t-2.5 21.5l40 189q4 19 4 41q0 56 -30 89q30 23 51.5 57t29.5 73l40 190q3 13 12.5 21.5t20.5 8.5h57l23 108h-66q-39 0 -76 -20t-63.5 -55t-35.5 -77l-40 -186q-5 -24 -20.5 -40.5t-34.5 -16.5h-28l-27 -126h28q15 0 24 -11t9 -28
q0 -5 -2 -17l-40 -187q-4 -16 -4 -34q0 -52 32 -85t83 -33h66z" />
    <glyph glyph-name="braceright" unicode="}" horiz-adv-x="440" 
d="M-45 -198q39 0 76 20t63 55t35 77l40 186q5 24 21 40.5t35 16.5h28l27 126h-28q-16 0 -25 11t-9 29q0 4 2 16l39 186q4 17 4 37q0 51 -31 83.5t-82 32.5h-66l-23 -109h57q9 0 14 -6t5 -16q0 -5 -1 -8l-40 -189q-4 -19 -4 -40q0 -55 30 -90q-30 -24 -51.5 -58t-29.5 -73
l-41 -189q-2 -13 -11 -21.5t-20 -8.5h-57l-23 -108h66z" />
    <glyph glyph-name="bracketleft" unicode="[" horiz-adv-x="377" 
d="M106 -198l27 126h-91l141 664h91l27 126h-217l-195 -916h217z" />
    <glyph glyph-name="bracketright" unicode="]" horiz-adv-x="377" 
d="M301 718l-195 -916h-217l27 126h91l141 664h-91l27 126h217z" />
    <glyph glyph-name="parenleft" unicode="(" horiz-adv-x="414" 
d="M72.5 501.5q59.5 116.5 147.5 216.5h118q-77 -98 -132 -218t-81 -240q-22 -101 -22 -206q0 -142 40 -253h-118q-58 131 -58 283q0 88 19 176q27 125 86.5 241.5z" />
    <glyph glyph-name="parenright" unicode=")" horiz-adv-x="414" 
d="M260 438q0 150 -58 280h-118q39 -108 39 -250q0 -107 -22 -208q-26 -122 -81 -241.5t-131 -216.5h118q88 100 147.5 216.5t85.5 241.5q20 94 20 178z" />
    <glyph glyph-name="emdash" unicode="&#x2014;" horiz-adv-x="865" 
d="M687 335h-665l-25 -119h665z" />
    <glyph glyph-name="endash" unicode="&#x2013;" horiz-adv-x="610" 
d="M472 335h-490l-25 -119h490z" />
    <glyph glyph-name="hyphen" unicode="-" horiz-adv-x="435" 
d="M297 335h-315l-25 -119h315z" />
    <glyph glyph-name="quotedblleft" unicode="&#x201c;" horiz-adv-x="568" 
d="M209 718l-24 -20q-62 -52 -97.5 -110.5t-101 -260t35.5 101.5l-3 -26h133l2 31q0 1 10 58t77 153l13 18zM434 718l-23 -20q-87 -73 -121.5 -150t-41.5 -119l-4 -26h133l3 31q0 1 10 58t77 153l13 18z" />
    <glyph glyph-name="quotedblright" unicode="&#x201d;" horiz-adv-x="569" 
d="M71 385l23 20q87 73 121.5 150t41.5 119l4 26h-133l-4 -31q0 -7 -7 -38t-26.5 -78t-52.5 -95l-13 -18zM297 385l23 20q87 73 121.5 150t41.5 119l4 26h-133l-4 -31q0 -7 -7 -38t-26.5 -78t-52.5 -95l-13 -18z" />
    <glyph glyph-name="quoteleft" unicode="&#x2018;" horiz-adv-x="342" 
d="M209 718l-24 -20q-62 -52 -97.5 -110.5t-101 -260t35.5 101.5l-3 -26h133l3 31q0 6 7.5 37.5t27 78.5t52.5 95l12 18z" />
    <glyph glyph-name="quoteright" unicode="&#x2019;" horiz-adv-x="342" 
d="M71 384l23 20q62 53 98 112t50 102.5t14 55.5l5 26h-133l-4 -31q0 -7 -7 -38t-26.5 -78t-52.5 -95l-13 -19z" />
    <glyph glyph-name="dollar" unicode="$" horiz-adv-x="680" 
d="M440.5 93q-40.5 -49 -100 -80t-125.5 -38l-14 -65h-60l14 65q-82 7 -135.5 54.5t-56.5 118.5l135 34q1 -27 24.5 -47t60.5 -26l41 190q-14 3 -21.5 5t-11.5 3q-66 16 -105 61t-39 105q0 21 4 38q11 53 50 99t95 75.5t117 34.5l14 65h60l-14 -65q71 -8 118 -49.5
t54 -102.5l-136 -41q-2 20 -19 36t-45 22l-35 -162l27 -5q74 -16 117.5 -64t43.5 -114q0 -19 -5 -42q-12 -56 -52.5 -105zM253 436l32 150q-42 -8 -72 -32t-30 -53q0 -21 16 -38t43 -25l8 -2h3zM327 147.5q35 29.5 35 64.5q0 26 -21.5 47t-57.5 28q-2 0 -2 1l-38 -179
q49 9 84 38.5z" />
    <glyph glyph-name="asciitilde" unicode="~" horiz-adv-x="658" 
d="M443.5 290.5q51.5 31.5 86.5 87.5l-102 44q-26 -44 -68 -44q-14 0 -25 6.5t-25 24.5q-22 30 -52 48.5t-76 18.5q-58 0 -109 -31t-86 -87l102 -44q26 43 68 43q14 0 25 -6t25 -24q22 -30 51.5 -49t75.5 -19q58 0 109.5 31.5z" />
    <glyph glyph-name="equal" unicode="=" horiz-adv-x="645" 
d="M530 439l-26 -119h-525l26 119h525zM-40 230h525l-25 -119h-525z" />
    <glyph glyph-name="greater" unicode="&#x3e;" horiz-adv-x="627" 
d="M-69 0l514 222l25 118l-419 222l-29 -133l281 -148l-344 -148z" />
    <glyph glyph-name="less" unicode="&#x3c;" horiz-adv-x="627" 
d="M398 0l-420 222l25 118l515 222l-29 -133l-343 -148l280 -148z" />
    <glyph glyph-name="minus" unicode="&#x2212;" horiz-adv-x="435" 
d="M297 335h-315l-25 -119h315z" />
    <glyph glyph-name="percent" unicode="%" horiz-adv-x="1098" 
d="M206 -26l686 753h-128l-686 -753h128zM310 344.5q56 35.5 84 101.5q14 37 20 62v1q6 30 6 61q0 45 -20 76t-51 46t-66 15q-54 0 -110 -35.5t-84 -101.5q-13 -32 -20 -61v-2q-6 -30 -6 -61q0 -45 20 -76t51 -46t66 -15q54 0 110 35.5zM297.5 590q11.5 -18 11.5 -39
q0 -25 -4 -42q-4 -19 -14 -44q-9 -21 -28 -39t-42 -18q-24 0 -35.5 18t-11.5 39q0 22 3 43q7 24 15 43q9 21 28 39t42 18q24 0 35.5 -18zM796 28.5q56 35.5 84 101.5q14 37 20 62v1q6 40 6 61q0 45 -20 76t-51 46t-66 15q-54 0 -110 -35.5t-84 -101.5q-16 -39 -20 -61v-2
q-6 -30 -6 -61q0 -45 20 -76t51 -46t66 -15q54 0 110 35.5zM783.5 274q11.5 -18 11.5 -39q0 -25 -4 -42q-4 -19 -14 -44q-9 -21 -28 -39t-42 -18q-24 0 -35.5 18t-11.5 39q0 22 3 43q7 24 15 43q9 21 28 39t42 18q24 0 35.5 -18z" />
    <glyph glyph-name="plus" unicode="+" horiz-adv-x="610" 
d="M447 216h-185l-39 -185h-119l39 185h-186l25 119h186l40 186h119l-40 -186h185z" />
    <glyph glyph-name="at" unicode="@" horiz-adv-x="837" 
d="M466 24q90 42 154 118l10 10h-97l-3 -2q-44 -36 -102 -57q-58 -20 -117 -20t-108 20q-46 19 -75 56q-29 35 -40 86q-5 25 -5 47q0 29 8 66q13 57 43 111q31 53 73 89q44 38 96 58q54 21 114 21q53 0 98 -15q45 -16 71 -45q29 -29 38 -72q5 -23 5 -44q0 -25 -6 -55
q-6 -32 -24 -69q-21 -36 -37 -55q-17 -20 -42 -34q-23 -12 -40 -12q-6 0 -6 3q-2 6 -1 12l6 19l11 21l117 257h-93l-21 -40q-11 28 -35 40q-31 16 -64 16q-48 0 -95 -22q-46 -24 -80 -58q-38 -38 -61 -81q-24 -42 -35 -92q-4 -19 -4 -40q0 -18 2 -27q8 -34 22 -54
q17 -23 44 -37q22 -14 58 -14q32 0 65 14q26 12 47 33q2 -16 14 -29q17 -17 51 -17q25 0 67 16q43 16 88 51q44 34 84 89t56 131q6 30 6 59q0 35 -9 65q-17 56 -56 95t-96 60q-57 22 -124 22q-76 0 -151 -29q-71 -26 -136 -77q-62 -49 -105 -117q-44 -68 -60 -145
q-9 -40 -9 -79q0 -33 8 -67q13 -67 56 -117q42 -49 104 -76q62 -28 142 -28q91 0 179 41zM422 427q11 -14 11 -33q0 -10 -3 -21q-4 -23 -18 -49q-11 -19 -33 -45q-19 -19 -42 -32t-48 -13q-31 0 -44 22q-10 13 -10 34q0 11 3 23q4 22 18 47t33 44q21 21 43 32q24 12 47 12
q29 0 43 -21z" />
    <glyph glyph-name="ampersand" unicode="&#x26;" horiz-adv-x="799" 
d="M424 0l-46 60q-50 -42 -107.5 -62t-114.5 -20q-62 0 -111.5 23.5t-77 65t-27.5 92.5q0 21 4 40q10 47 41 89.5t78 73.5l1 1l56 36l-9 11q-13 18 -22.5 39t-9.5 51q0 18 4 34q9 46 40.5 84t76.5 60t94 22q65 0 104.5 -37.5t39.5 -95.5q0 -16 -3 -33q-8 -38 -32 -71.5
t-60 -57.5l-2 -1l-32 -21l84 -111q12 30 19 58l125 -8q-25 -89 -65 -153l128 -169h-176zM226.5 561q-18.5 -13 -18.5 -35q0 -11 12 -28l19 -24l48 30q17 13 22 30q4 18 -9 29t-33 11q-22 0 -40.5 -13zM310 150l-120 158l-72 -46q-41 -27 -48 -63q-2 -10 -2 -15
q0 -34 32.5 -57t81.5 -23q72 0 128 46z" />
    <glyph glyph-name="trademark" unicode="&#x2122;" horiz-adv-x="1629" 
d="M660 574h-249l-122 -574h-126l122 574h-250l27 126h625zM1567 700l-149 -700h-126l87 406l-270 -406h-138l-96 406l-87 -406h-126l149 700h132l130 -546l362 546h132z" />
    <glyph glyph-name="asciicircum" unicode="^" horiz-adv-x="597" 
d="M-25 299l273 401h102l102 -401h-116l-67 262l-178 -262h-116z" />
    </font>
</defs>
</svg>
