<?xml version="1.0" standalone="no"?>
<!DOCTYPE svg PUBLIC "-//W3C//DTD SVG 1.1//EN" "http://www.w3.org/Graphics/SVG/1.1/DTD/svg11.dtd" >
<svg xmlns="http://www.w3.org/2000/svg" xmlns:xlink="http://www.w3.org/1999/xlink" version="1.1">
<metadata>
Created by FontForge 20170924 at Sun May  8 16:09:31 2016
 By www-data
</metadata>
<defs>
<font id="ElliotSans-LightItalic" horiz-adv-x="570" >
  <font-face 
    font-family="Elliot Sans Light"
    font-weight="300"
    font-style="italic"
    font-stretch="normal"
    units-per-em="1000"
    panose-1="0 0 4 0 0 0 0 0 0 0"
    ascent="800"
    descent="-200"
    x-height="525"
    cap-height="700"
    bbox="-283 -325 1399 785"
    underline-thickness="50"
    underline-position="-100"
    unicode-range="U+0020-2212"
  />
<missing-glyph horiz-adv-x="513" 
d="M420 -325h-325v1025h325v-1025zM172 631v-33h67v-38h-68v-34h170v34h-67v38h67v33h-169zM171 499v-106h170v34h-67v72h-103zM239 427h-34v37h34v-37zM171 365v-34h68v-38h-68v-34h103v72h67v34h-170zM308 303v-67h-137v-35h170v102h-33zM239 178v-57h35v23h34v-48h-103
v82h-34v-116h170v116h-102zM171 1v-116h170v116h-170zM308 -81h-103v48h103v-48zM171 -138v-34h72l-72 -48v-34h170v34h-104l72 48h32v34h-170z" />
    <glyph glyph-name=".notdef" horiz-adv-x="513" 
d="M420 -325h-325v1025h325v-1025zM172 631v-33h67v-38h-68v-34h170v34h-67v38h67v33h-169zM171 499v-106h170v34h-67v72h-103zM239 427h-34v37h34v-37zM171 365v-34h68v-38h-68v-34h103v72h67v34h-170zM308 303v-67h-137v-35h170v102h-33zM239 178v-57h35v23h34v-48h-103
v82h-34v-116h170v116h-102zM171 1v-116h170v116h-170zM308 -81h-103v48h103v-48zM171 -138v-34h72l-72 -48v-34h170v34h-104l72 48h32v34h-170z" />
    <glyph glyph-name="space" unicode=" " horiz-adv-x="260" 
 />
    <glyph glyph-name="A" unicode="A" horiz-adv-x="655" 
d="M-124 0l429 700h45l131 -700h-45l-52 274h-295l-168 -274h-45zM115 316h261l-60 327z" />
    <glyph glyph-name="B" unicode="B" horiz-adv-x="605" 
d="M440.5 310q20.5 -34 20.5 -80q0 -19 -5 -44q-11 -52 -42.5 -94.5t-75 -67t-91.5 -24.5h-334l70 329l9 42l70 329h299q61 0 98 -39t37 -101q0 -18 -5 -45q-10 -49 -38.5 -89.5t-68.5 -65.5q36 -16 56.5 -50zM34 371h257q55 0 100 41t58 103q4 17 4 36q0 48 -27.5 77.5
t-73.5 29.5h-257zM356.5 82.5q44.5 40.5 57.5 103.5q4 17 4 37q0 48 -27 77t-74 29h-292l-61 -287h292q56 0 100.5 40.5z" />
    <glyph glyph-name="C" unicode="C" horiz-adv-x="656" 
d="M366 17q72 34 130 96l-28 24q-52 -54 -113 -83t-125 -29q-66 0 -116 31.5t-77.5 87t-27.5 126.5q0 39 9 81q19 90 72 164.5t126.5 117.5t151.5 43q64 0 112.5 -29t77.5 -83l39 24q-31 62 -89 96t-131 34q-89 0 -173.5 -48.5t-145 -133t-82.5 -185.5q-10 -44 -10 -90
q0 -81 31.5 -144t89.5 -98.5t134 -35.5q73 0 145 34z" />
    <glyph glyph-name="D" unicode="D" horiz-adv-x="652" 
d="M417.5 666.5q57.5 -33.5 88.5 -93.5t31 -138q0 -40 -9 -85q-21 -98 -80 -178t-141.5 -126t-171.5 -46h-222l149 700h222q76 0 133.5 -33.5zM439.5 228.5q32.5 56.5 46.5 121.5q8 36 8 78q0 85 -40 143q-29 42 -75.5 64.5t-103.5 22.5h-180l-131 -616h180q57 0 113 22.5
t103 64.5q47 43 79.5 99.5z" />
    <glyph glyph-name="E" unicode="E" horiz-adv-x="551" 
d="M95 658l-61 -287h385l-9 -42h-385l-61 -287h385l-9 -42h-427l149 700h427l-9 -42h-385z" />
    <glyph glyph-name="F" unicode="F" horiz-adv-x="513" 
d="M62 700h389l-9 -42h-347l-61 -286h347l-9 -42h-347l-70 -330h-42z" />
    <glyph glyph-name="G" unicode="G" horiz-adv-x="721" 
d="M581 332l-71 -332h-42l27 127l-12 -14q-56 -62 -124.5 -96t-137.5 -34q-76 0 -134 35.5t-89.5 98.5t-31.5 143q0 46 10 90q21 101 82 185.5t145.5 133t173.5 48.5q73 0 131 -33.5t90 -95.5l-39 -25q-29 54 -78 83t-113 29q-78 0 -151.5 -43t-126.5 -117.5t-72 -164.5
q-9 -42 -9 -81q0 -71 27.5 -126.5t77.5 -86.5t116 -31q58 0 116.5 29.5t106.5 82.5q25 27 42 57t30 72l5 24h-248l9 42h290z" />
    <glyph glyph-name="H" unicode="H" horiz-adv-x="642" 
d="M538 700h42l-149 -700h-42l70 329h-434l-70 -329h-42l149 700h42l-70 -329h434z" />
    <glyph glyph-name="I" unicode="I" horiz-adv-x="186" 
d="M114 700h-42l-149 -700h42z" />
    <glyph glyph-name="J" unicode="J" horiz-adv-x="526" 
d="M217.5 8q51.5 26 87.5 71t48 101l111 520h-42l-111 -520q-14 -68 -68.5 -112t-123.5 -44q-59 0 -94.5 33t-35.5 87q0 20 4 36l18 83h-42l-18 -83q-5 -25 -5 -44q0 -68 45 -111t119 -43q56 0 107.5 26z" />
    <glyph glyph-name="K" unicode="K" horiz-adv-x="635" 
d="M381 0l-233 365l-138 -107l-55 -258h-42l149 700h42l-82 -384l496 384h62l-395 -307l251 -393h-55z" />
    <glyph glyph-name="L" unicode="L" 
d="M358 42h-384l140 658h-42l-149 -700h426z" />
    <glyph glyph-name="M" unicode="M" horiz-adv-x="796" 
d="M734 700l-149 -700h-42l128 602l-399 -602h-46l-143 602l-128 -602h-42l149 700h44l154 -649l430 649h44z" />
    <glyph glyph-name="N" unicode="N" horiz-adv-x="656" 
d="M398 0l-308 633l-135 -633h-42l149 700h47l308 -633l135 633h42l-149 -700h-47z" />
    <glyph glyph-name="O" unicode="O" horiz-adv-x="748" 
d="M395.5 32q84.5 49 145.5 133t83 186q10 44 10 89q0 80 -32 143.5t-90 99t-134 35.5q-90 0 -174.5 -48.5t-145 -133t-82.5 -185.5q-10 -44 -10 -90q0 -81 32 -144t90 -98.5t134 -35.5q89 0 173.5 49zM485.5 644.5q50.5 -31.5 78 -87t27.5 -126.5q0 -38 -9 -80
q-19 -90 -72.5 -165t-127 -118t-151.5 -43q-66 0 -116.5 31.5t-78 87t-27.5 126.5q0 39 9 81q19 90 72.5 164.5t127 117.5t151.5 43q66 0 116.5 -31.5z" />
    <glyph glyph-name="P" unicode="P" horiz-adv-x="572" 
d="M461 661q37 -39 37 -102q0 -19 -5 -44q-11 -52 -42.5 -94.5t-75.5 -66.5t-92 -24h-258l-70 -330h-42l70 330l5 21l74 349h300q62 0 99 -39zM393 412.5q45 40.5 58 102.5q4 17 4 36q0 48 -27.5 77.5t-74.5 29.5h-258l-61 -286h258q56 0 101 40.5z" />
    <glyph glyph-name="Q" unicode="Q" horiz-adv-x="748" 
d="M512 681q58 -36 89.5 -99t31.5 -144q0 -43 -9 -88q-17 -78 -57 -146t-97 -118l70 -70l-34 -33l-72 73q-49 -36 -103 -55t-110 -19q-76 0 -134 35.5t-89.5 98.5t-31.5 144q0 46 10 90q21 101 82 185.5t145.5 133t174.5 48.5q76 0 134 -36zM444 113q51 45 86.5 106
t51.5 131q8 36 8 79q0 71 -27.5 127t-77.5 87.5t-116 31.5q-78 0 -152 -43t-127 -117.5t-72 -164.5q-9 -42 -9 -81q0 -71 27.5 -126.5t77.5 -87t116 -31.5q92 0 177 60l-106 108l34 32z" />
    <glyph glyph-name="R" unicode="R" horiz-adv-x="581" 
d="M-87 0l70 330l5 21l74 349h301q62 0 99 -39t37 -102q0 -19 -5 -44q-11 -52 -42.5 -94t-75.5 -66.5t-92 -24.5h-26l149 -330h-50l-149 330h-183l-70 -330h-42zM34 372h259q56 0 101 40.5t58 102.5q4 17 4 36q0 48 -27.5 77.5t-74.5 29.5h-259z" />
    <glyph glyph-name="S" unicode="S" horiz-adv-x="569" 
d="M258.5 9q62.5 27 106 73t54.5 100q3 17 3 33q0 59 -41 103t-110 58l-50 9q-18 4 -32.5 7.5t-19.5 4.5l-2 1h-1q-49 11 -78 41.5t-29 71.5q0 43 31 81t81.5 60.5t105.5 22.5q63 0 106.5 -30t49.5 -77l43 13q-8 60 -61 98t-129 38q-62 0 -119.5 -24.5t-97 -66.5t-49.5 -92
q-3 -16 -3 -32q0 -53 36 -93t98 -53q36 -9 54 -12l49 -10q58 -11 92 -46t34 -81q0 -48 -34.5 -90t-90.5 -67.5t-117 -25.5q-73 0 -122 35.5t-52 89.5l-43 -11q2 -45 29.5 -80.5t74 -55.5t104.5 -20q67 0 129.5 27z" />
    <glyph glyph-name="T" unicode="T" horiz-adv-x="665" 
d="M594 658h-249l-140 -658h-42l140 658h-250l9 42h541z" />
    <glyph glyph-name="U" unicode="U" horiz-adv-x="655" 
d="M317 16q68 34 115.5 93.5t63.5 132.5l97 458h-42l-97 -458q-13 -62 -52.5 -112t-96.5 -78t-121 -28q-83 0 -133 46t-50 122q0 25 6 50l97 458h-42l-97 -458q-6 -30 -6 -58q0 -59 27 -104.5t76 -71.5t113 -26q74 0 142 34z" />
    <glyph glyph-name="V" unicode="V" horiz-adv-x="589" 
d="M123 0l-103 700h45l93 -638l366 638h45l-401 -700h-45z" />
    <glyph glyph-name="W" unicode="W" horiz-adv-x="858" 
d="M65 0l-45 700h44l39 -621l304 621h44l40 -621l304 621h43l-342 -700h-44l-40 621l-304 -621h-43z" />
    <glyph glyph-name="X" unicode="X" horiz-adv-x="621" 
d="M211 350l-171 350h51l153 -313l286 313h51l-319 -350l170 -350h-51l-152 313l-287 -313h-51z" />
    <glyph glyph-name="Y" unicode="Y" horiz-adv-x="590" 
d="M580 700l-340 -357l-73 -343h-42l73 343l-188 357h52l166 -315l300 315h52z" />
    <glyph glyph-name="Z" unicode="Z" horiz-adv-x="584" 
d="M510 642l-548 -600h420l-9 -42h-460l13 58l546 600h-419l9 42h460z" />
    <glyph glyph-name="a" unicode="a" horiz-adv-x="493" 
d="M322 490q46 -43 46 -112q0 -18 -5 -43l-71 -335h-42l12 54q-34 -30 -79 -46.5t-93 -16.5q-75 0 -122 38t-47 98q0 51 33.5 95.5t88.5 71t117 26.5q48 0 86 -16.5t59 -46.5l16 78q4 17 4 36q0 54 -36.5 87t-97.5 33q-44 0 -84.5 -18t-69.5 -51l-30 24q38 41 88 64t105 23
q76 0 122 -43zM190 52.5q43 19.5 69 52.5t26 72q0 44 -37.5 72.5t-96.5 28.5q-48 0 -91.5 -19.5t-69.5 -52t-26 -70.5q0 -45 37.5 -74t97.5 -29q48 0 91 19.5z" />
    <glyph glyph-name="b" unicode="b" 
d="M353 507.5q42 -26.5 65.5 -73.5t23.5 -106q0 -34 -7 -66q-16 -75 -61 -137t-107 -98t-128 -36q-60 0 -105 30.5t-66 84.5l-23 -106h-42l149 700h42l-60 -282q44 54 102.5 85t118.5 31q56 0 98 -26.5zM253.5 63.5q51.5 30.5 89 83t50.5 115.5q6 30 6 57q0 76 -42 124.5
t-111 48.5q-54 0 -105.5 -30.5t-89 -83.5t-50.5 -116q-6 -30 -6 -57q0 -76 42 -124t111 -48q54 0 105.5 30.5z" />
    <glyph glyph-name="c" unicode="c" horiz-adv-x="472" 
d="M217 13.5q50 22.5 93 63.5l-28 27q-34 -34 -75 -52.5t-82 -18.5q-68 0 -110 48t-42 124q0 27 6 57q13 63 50.5 116t88.5 83.5t105 30.5q41 0 73.5 -18.5t53.5 -52.5l38 26q-25 42 -65 64.5t-91 22.5q-65 0 -127.5 -36t-107 -98.5t-60.5 -137.5q-7 -32 -7 -66
q0 -59 23 -105.5t65 -73t98 -26.5q51 0 101 22.5z" />
    <glyph glyph-name="d" unicode="d" 
d="M518 700l-149 -700h-42l23 106q-44 -53 -102 -84t-119 -31q-56 0 -98.5 26.5t-65.5 73t-23 105.5q0 34 7 66q16 75 60.5 137.5t107 98.5t128.5 36q60 0 105 -31t66 -85l60 282h42zM243.5 63.5q51.5 30.5 89 83t50.5 115.5q6 30 6 57q0 76 -42 124.5t-111 48.5
q-54 0 -105.5 -30.5t-89 -83.5t-50.5 -116q-6 -30 -6 -57q0 -76 42 -124t111 -48q54 0 105.5 30.5z" />
    <glyph glyph-name="e" unicode="e" horiz-adv-x="538" 
d="M400 241h-415q-2 -12 -2 -36q0 -76 42 -124t110 -48q42 0 83 18.5t75 52.5l28 -27q-43 -41 -93 -63.5t-102 -22.5q-56 0 -98 26.5t-65 73t-23 105.5q0 34 7 66q16 76 59.5 138.5t103 98t124.5 35.5q81 0 130 -55.5t49 -145.5q0 -31 -8 -71zM366 283q3 23 3 43
q0 75 -39 120.5t-105 45.5q-51 0 -98 -26.5t-82 -74.5t-51 -108h372z" />
    <glyph glyph-name="f" unicode="f" horiz-adv-x="408" 
d="M205.5 636q-41.5 -40 -53.5 -97l-3 -13h168l-9 -42h-168l-103 -484h-42l103 484h-119l9 42h119l3 13q10 49 39.5 90t71 65t84.5 24q45 0 80 -30l-32 -33q-26 21 -57 21q-49 0 -90.5 -40z" />
    <glyph glyph-name="g" unicode="g" horiz-adv-x="568" 
d="M479 525l-113 -532q-13 -62 -54 -113t-100 -80t-124 -29q-62 0 -109 28t-67 77l41 22q15 -40 53 -62.5t90 -22.5q54 0 102 23.5t81.5 64.5t44.5 92l24 113q-44 -53 -102 -84t-119 -31q-56 0 -98 26.5t-65.5 73t-23.5 105.5q0 34 7 66q16 75 61 137t107 98t128 36
q60 0 105 -30.5t66 -84.5l23 107h42zM241.5 63.5q51.5 30.5 89 83t50.5 115.5q6 30 6 57q0 76 -42 124t-111 48q-54 0 -105.5 -30.5t-89 -83t-50.5 -115.5q-6 -30 -6 -57q0 -76 42 -124t111 -48q54 0 105.5 30.5z" />
    <glyph glyph-name="h" unicode="h" horiz-adv-x="500" 
d="M328 486.5q43 -47.5 43 -122.5q0 -26 -6 -55l-66 -309h-42l66 309q5 27 5 46q0 61 -33.5 99t-88.5 38q-43 0 -84 -24t-70.5 -66t-40.5 -93l-66 -309h-42l149 700h42l-53 -251q36 40 81.5 62.5t92.5 22.5q70 0 113 -47.5z" />
    <glyph glyph-name="i" unicode="i" horiz-adv-x="198" 
d="M122.5 700q-8.5 8 -21.5 8q-18 0 -32 -13t-14 -31q0 -13 8.5 -21t21.5 -8q17 0 31.5 13t14.5 31q0 13 -8.5 21zM83 525h-42l-112 -525h42z" />
    <glyph glyph-name="j" unicode="j" horiz-adv-x="196" 
d="M149 681q0 12 -8.5 20t-21.5 8q-15 0 -27.5 -10.5t-16.5 -26.5q-3 -15 5 -25.5t23 -10.5q16 0 29 10.5t16 25.5q1 3 1 9zM-122.5 -168.5q40.5 23.5 69.5 64.5t39 90l115 539h-42l-115 -539q-12 -57 -52.5 -96.5t-87.5 -39.5q-32 0 -54 20l-33 -33q32 -29 78 -29
q42 0 82.5 23.5z" />
    <glyph glyph-name="k" unicode="k" horiz-adv-x="506" 
d="M262 0l-170 266l-96 -75l-41 -191h-42l149 700h42l-96 -451l357 276h62l-298 -231l188 -294h-55z" />
    <glyph glyph-name="l" unicode="l" horiz-adv-x="166" 
d="M104 700h-42l-149 -700h42z" />
    <glyph glyph-name="m" unicode="m" horiz-adv-x="782" 
d="M617.5 489.5q38.5 -43.5 38.5 -112.5q0 -29 -5 -50l-70 -327h-42l70 327q4 19 4 41q0 54 -29.5 88.5t-77.5 34.5q-38 0 -74.5 -22t-63 -59.5t-35.5 -82.5l-70 -327h-42l70 327q4 19 4 41q0 54 -29.5 88.5t-77.5 34.5q-38 0 -74.5 -22t-63 -59.5t-35.5 -82.5l-70 -327h-42
l112 525h42l-14 -64q33 34 73 53t81 19q52 0 87.5 -29t48.5 -79q33 49 81.5 78.5t100.5 29.5q64 0 102.5 -43.5z" />
    <glyph glyph-name="n" unicode="n" horiz-adv-x="501" 
d="M328 486q43 -48 43 -123q0 -27 -6 -56l-65 -307h-42l65 307q5 27 5 47q0 61 -33.5 99.5t-88.5 38.5q-43 0 -84 -24.5t-71 -67t-41 -93.5l-65 -307h-42l112 525h42l-17 -77q36 40 82 63t93 23q70 0 113 -48z" />
    <glyph glyph-name="o" unicode="o" horiz-adv-x="556" 
d="M255 27q62 36 107 98t61 137q7 32 7 66q0 59 -23.5 106t-65.5 73.5t-98 26.5q-66 0 -128.5 -36t-107 -98.5t-60.5 -137.5q-7 -32 -7 -66q0 -59 23 -105.5t65.5 -73t98.5 -26.5q66 0 128 36zM345 443.5q42 -48.5 42 -124.5q0 -27 -6 -57q-13 -63 -50.5 -115.5t-89 -83
t-105.5 -30.5q-69 0 -111 48t-42 124q0 27 6 57q13 63 50.5 116t89 83.5t105.5 30.5q69 0 111 -48.5z" />
    <glyph glyph-name="p" unicode="p" horiz-adv-x="569" 
d="M353 507.5q42 -26.5 65 -73t23 -105.5q0 -34 -7 -66q-16 -75 -60.5 -137t-106.5 -98t-127 -36q-61 0 -106 31t-66 84l-60 -282h-42l149 700h42l-23 -106q43 53 101.5 84t119.5 31q56 0 98 -26.5zM253 64.5q51 30.5 88.5 83t50.5 115.5q6 30 6 57q0 76 -42 124t-110 48
q-54 0 -105.5 -30.5t-89 -83t-50.5 -115.5q-6 -30 -6 -57q0 -76 42 -124t111 -48q54 0 105 30.5z" />
    <glyph glyph-name="q" unicode="q" horiz-adv-x="569" 
d="M480 525l-149 -700h-42l60 281q-43 -53 -101.5 -84t-119.5 -31q-56 0 -98 26.5t-65 73t-23 105.5q0 34 7 66q16 75 60.5 137t106.5 98t128 36q61 0 105.5 -31t65.5 -84l23 107h42zM242.5 63.5q51.5 30.5 89 83t50.5 115.5q6 30 6 57q0 76 -42 124t-111 48
q-54 0 -105 -30.5t-88.5 -83t-50.5 -115.5q-6 -30 -6 -57q0 -76 42 -124t110 -48q54 0 105.5 30.5z" />
    <glyph glyph-name="r" unicode="r" horiz-adv-x="439" 
d="M321 511q38 -23 59 -64l-39 -25q-18 34 -47.5 52t-68.5 18q-48 0 -94 -27.5t-79 -74.5t-45 -104h-1l-61 -286h-42l113 525h42l-20 -91q40 46 91.5 73t104.5 27q49 0 87 -23z" />
    <glyph glyph-name="s" unicode="s" horiz-adv-x="441" 
d="M172.5 15.5q50.5 24.5 81.5 65t31 86.5q0 44 -30 77t-82 43q-13 3 -22.5 4.5t-12.5 2.5q-13 2 -23.5 4.5t-14.5 3.5l-1 1h-1q-34 8 -53.5 29t-19.5 48q0 29 21.5 55t56 41.5t71.5 15.5q43 0 72.5 -21t33.5 -53l43 14q-4 45 -43.5 73.5t-96.5 28.5q-50 0 -96 -23
t-75 -60.5t-29 -78.5q0 -40 27 -70.5t73 -40.5q5 -1 15.5 -3.5t22.5 -4.5l35 -7q39 -8 62.5 -32t23.5 -55q0 -33 -23.5 -62t-62 -46.5t-80.5 -17.5q-50 0 -83.5 24.5t-34.5 61.5l-44 -11q4 -52 46.5 -84.5t106.5 -32.5q55 0 105.5 24.5z" />
    <glyph glyph-name="t" unicode="t" horiz-adv-x="388" 
d="M233 20q-46 -29 -93 -29q-56 0 -90 37.5t-34 97.5q0 19 5 44l68 317h-119l9 42h119l36 171h42l-36 -171h169l-9 -42h-169l-68 -317q-4 -24 -4 -34q0 -45 25 -74t65 -29q36 0 67 21z" />
    <glyph glyph-name="u" unicode="u" horiz-adv-x="497" 
d="M408 525l-112 -525h-42l16 76q-36 -40 -81 -62.5t-91 -22.5q-70 0 -112 47.5t-42 122.5q0 27 6 57l65 307h42l-65 -307q-6 -25 -6 -49q0 -60 33.5 -98t87.5 -38q42 0 82.5 24.5t70.5 67t41 93.5l65 307h42z" />
    <glyph glyph-name="v" unicode="v" horiz-adv-x="460" 
d="M59 0l-86 525h45l76 -465l275 465h44l-309 -525h-45z" />
    <glyph glyph-name="w" unicode="w" horiz-adv-x="694" 
d="M18 0l-45 525h44l39 -451l232 451h44l39 -451l232 451h44l-270 -525h-44l-39 452l-232 -452h-44z" />
    <glyph glyph-name="x" unicode="x" horiz-adv-x="497" 
d="M130 262l-137 263h52l119 -227l214 227h52l-248 -263l136 -262h-52l-118 227l-215 -227h-52z" />
    <glyph glyph-name="y" unicode="y" horiz-adv-x="472" 
d="M425 525l-350 -604q-83 -149 -191 -149q-39 0 -67 18l28 37q20 -13 48 -13q79 0 145 121l35 59l-81 531h45l71 -470l272 470h45z" />
    <glyph glyph-name="z" unicode="z" horiz-adv-x="481" 
d="M380 470l-425 -428h334l-9 -42h-377l12 55l425 428h-334l9 42h377z" />
    <glyph glyph-name="zero" unicode="0" horiz-adv-x="580" 
d="M312 63q33 32 60.5 74.5t44.5 87.5q24 62 39 125v1q14 79 14 142q0 87 -36 145q-24 39 -59.5 59.5t-80.5 20.5q-91 0 -174 -80q-33 -32 -61 -74.5t-45 -87.5q-25 -67 -38 -125v-1q-15 -77 -15 -141q0 -41 9.5 -79t27.5 -67q24 -39 59.5 -59.5t80.5 -20.5q91 0 174 80z
M54 469q26 67 65.5 114t83.5 70t82 23q37 0 69.5 -21t53 -64.5t20.5 -105.5q0 -58 -14 -135q-14 -60 -36 -118q-26 -67 -66 -114t-83.5 -70t-81.5 -23q-37 0 -69.5 21t-53 64t-20.5 104q0 59 14 136q16 69 36 119z" />
    <glyph glyph-name="one" unicode="1" horiz-adv-x="375" 
d="M280 700l-149 -700h-42l140 658l-166 -108l-18 33l180 117h55z" />
    <glyph glyph-name="two" unicode="2" horiz-adv-x="535" 
d="M327 42h-366q32 78 85 134t107 82l140 69q59 27 99 75.5t52 106.5q5 25 5 42q0 48 -23.5 85.5t-65.5 59t-96 21.5q-71 0 -136.5 -36.5t-102.5 -97.5l36 -15q30 49 83 78t112 29q66 0 108 -37.5t42 -95.5q0 -11 -4 -33q-10 -47 -42 -85t-79 -60l-140 -69
q-69 -34 -128 -99.5t-91 -145.5q-5 -12 -10 -26l-9 -24h415z" />
    <glyph glyph-name="three" unicode="3" horiz-adv-x="549" 
d="M477 700h-394l-9 -42h329l-325 -275l18 -33q47 22 99 22q69 0 113 -39.5t44 -99.5q0 -19 -4 -35q-10 -48 -43.5 -87.5t-82 -62.5t-100.5 -23q-60 0 -102.5 29.5t-52.5 78.5l-41 -16q13 -62 63.5 -98.5t122.5 -36.5q64 0 123.5 28.5t101 78t53.5 109.5q5 25 5 44
q0 50 -24 89t-67.5 61t-99.5 22q-22 0 -33 -2l298 252z" />
    <glyph glyph-name="four" unicode="4" horiz-adv-x="581" 
d="M439 222l-9 -42h-105l-38 -180h-42l38 180h-342l12 56l436 464h47l-102 -478h105zM380 635l-389 -413h301z" />
    <glyph glyph-name="five" unicode="5" horiz-adv-x="551" 
d="M13 372l34 -17q32 29 71.5 45t80.5 16q68 0 110.5 -42.5t42.5 -109.5q0 -19 -5 -44q-11 -54 -45.5 -98.5t-83.5 -70.5t-102 -26q-56 0 -96 29t-52 80l-42 -18q15 -62 63.5 -98t116.5 -36q64 0 124 31.5t102.5 86.5t56.5 120q6 27 6 52q0 54 -23.5 96t-66 66t-97.5 24
q-67 0 -133 -36l91 236h299l9 42h-335z" />
    <glyph glyph-name="six" unicode="6" horiz-adv-x="558" 
d="M328 434.5q40 -23.5 62 -65t22 -94.5q0 -26 -6 -55q-14 -65 -54.5 -119.5t-98 -86t-118.5 -31.5q-66 0 -112 36t-60 97q-9 29 -9 69q0 42 10 104q18 110 52 194q28 68 68 118.5t88 78.5q65 38 132 38q63 0 107.5 -32.5t55.5 -87.5l-42 -16q-9 43 -44.5 68.5t-85.5 25.5
q-54 0 -107 -31q-40 -23 -74 -67t-58 -103q-23 -56 -42 -141q40 56 99.5 90t122.5 34q52 0 92 -23.5zM240.5 51q46.5 26 79.5 70.5t44 98.5q5 27 5 46q0 66 -39 108t-103 42q-50 0 -96.5 -26t-80 -71t-44.5 -99q-5 -27 -5 -45q0 -66 39.5 -108t103.5 -42q50 0 96.5 26z" />
    <glyph glyph-name="seven" unicode="7" horiz-adv-x="533" 
d="M487 670l-452 -670h-47l444 658h-391l9 42h443z" />
    <glyph glyph-name="eight" unicode="8" horiz-adv-x="548" 
d="M370 322.5q25 -39.5 25 -88.5q0 -19 -5 -42q-12 -58 -52 -105.5t-97 -75.5t-119 -28q-54 0 -96 21.5t-65.5 59.5t-23.5 86q0 17 5 42q13 63 59 114t110 76q-32 18 -49.5 49t-17.5 70q0 20 4 37q10 50 44.5 91t83.5 65t102 24q71 0 115 -40.5t44 -103.5q0 -20 -4 -36
q-11 -50 -46.5 -91.5t-85.5 -64.5q44 -20 69 -59.5zM121.5 431.5q34.5 -30.5 88.5 -30.5q46 0 88.5 22.5t69 60t26.5 81.5q0 48 -35 79.5t-90 31.5q-46 0 -88.5 -22.5t-68 -61t-25.5 -82.5q0 -48 34.5 -78.5zM227.5 47q46.5 22 78.5 60.5t42 84.5q4 22 4 33q0 58 -42 96
t-108 38q-50 0 -96.5 -22.5t-79 -60.5t-42.5 -84q-4 -22 -4 -33q0 -59 42 -96.5t109 -37.5q50 0 96.5 22z" />
    <glyph glyph-name="nine" unicode="9" horiz-adv-x="558" 
d="M394 218q-28 -68 -68 -118.5t-88 -78.5q-65 -38 -131 -38q-64 0 -108.5 32.5t-56.5 86.5l43 17q8 -43 44 -68.5t87 -25.5q55 0 106 31q40 23 74 66.5t58 103.5q26 67 41 141q-41 -57 -99.5 -90.5t-121.5 -33.5q-52 0 -92.5 23.5t-62.5 65.5t-22 95q0 26 6 54
q14 66 55 120t98.5 85.5t118.5 31.5q66 0 112 -36t60 -97q9 -28 9 -69q0 -42 -10 -104q-15 -96 -52 -194zM279.5 311q46.5 26 80 71t44.5 99q5 20 5 46q0 65 -39.5 107t-103.5 42q-49 0 -95.5 -26t-80 -70.5t-45.5 -98.5q-5 -27 -5 -45q0 -67 39.5 -109t103.5 -42
q50 0 96.5 26z" />
    <glyph glyph-name="fraction" unicode="&#x2044;" horiz-adv-x="610" 
d="M-91 -26l687 753h-43l-687 -753h43z" />
    <glyph glyph-name="asterisk" unicode="*" horiz-adv-x="269" 
d="M11 444l89 95l50 -95l25 15l-49 96l120 37l-2 26l-121 -37l25 119h-27l-25 -118l-105 36l-14 -26l104 -37l-89 -96z" />
    <glyph glyph-name="backslash" unicode="\" horiz-adv-x="386" 
d="M214 -17l-152 753h-34l152 -753h34z" />
    <glyph glyph-name="periodcentered" unicode="&#xb7;" horiz-adv-x="164" 
d="M27 316q-9 9 -25 9q-20 0 -36 -15.5t-16 -35.5q0 -14 9.5 -23.5t24.5 -9.5q20 0 36 15.5t16 35.5q0 15 -9 24z" />
    <glyph glyph-name="bullet" unicode="&#x2022;" horiz-adv-x="286" 
d="M119 399q-14 14 -37 14q-30 0 -54 -23.5t-24 -53.5q0 -21 14.5 -35t36.5 -14q30 0 54 23t24 53q0 22 -14 36z" />
    <glyph glyph-name="colon" unicode=":" horiz-adv-x="184" 
d="M81.5 524.5q-9.5 9.5 -24.5 9.5q-20 0 -36 -15.5t-16 -35.5q0 -14 9.5 -23.5t24.5 -9.5q20 0 36 15.5t16 35.5q0 14 -9.5 23.5zM-14.5 74.5q-9.5 9.5 -24.5 9.5q-20 0 -36 -15.5t-16 -35.5q0 -14 9.5 -23.5t24.5 -9.5q20 0 36 15.5t16 35.5q0 14 -9.5 23.5z" />
    <glyph glyph-name="comma" unicode="," horiz-adv-x="176" 
d="M-130 -113q63 56 92.5 117t37.5 105h-56q-6 -37 -26 -92t-61 -117z" />
    <glyph glyph-name="exclam" unicode="!" horiz-adv-x="184" 
d="M-4 197l98 366l29 137h-63l-29 -137l-57 -366h22zM-7 43q0 14 -9.5 23.5t-24.5 9.5q-17 0 -32 -12.5t-19 -29.5q-3 -17 7 -29.5t27 -12.5t32 12.5t18 29.5q1 3 1 9z" />
    <glyph glyph-name="numbersign" unicode="#" horiz-adv-x="695" 
d="M235 0l90 187h136l10 46h-124l112 234h136l10 46h-124l90 187h-47l-90 -187h-163l90 187h-47l-90 -187h-137l-10 -46h125l-112 -234h-139l-10 -46h127l-90 -187h47l90 187h163l-90 -187h47zM249 467h163l-112 -234h-163z" />
    <glyph glyph-name="period" unicode="." horiz-adv-x="184" 
d="M-16.5 66q-9.5 9 -24.5 9q-20 0 -36 -15.5t-16 -35.5q0 -14 9.5 -23.5t24.5 -9.5q20 0 36 15.5t16 35.5q0 15 -9.5 24z" />
    <glyph glyph-name="question" unicode="?" horiz-adv-x="506" 
d="M339 697.5q39 -20.5 60.5 -57t21.5 -82.5q0 -19 -5 -44q-12 -57 -47.5 -97t-90.5 -79q-49 -34 -75.5 -65.5t-35.5 -75.5h-44q13 55 45.5 95t88.5 80q51 35 79 67.5t36 74.5q4 16 4 35q0 55 -37.5 90t-97.5 35q-54 0 -102 -28t-75 -75l-38 15q35 60 96 96t128 36
q50 0 89 -20.5zM148.5 67q-9.5 9 -24.5 9q-19 0 -35 -15.5t-16 -35.5q0 -14 10 -23.5t25 -9.5q18 0 34 15.5t16 35.5q0 15 -9.5 24z" />
    <glyph glyph-name="quotedbl" unicode="&#x22;" horiz-adv-x="327" 
d="M132 700h-42l-47 -222h42zM237 700h-42l-47 -222h42z" />
    <glyph glyph-name="quotesingle" unicode="'" horiz-adv-x="206" 
d="M-4 478q62 56 91 116t39 106h-56q-21 -110 -87 -209z" />
    <glyph glyph-name="semicolon" unicode=";" horiz-adv-x="190" 
d="M87.5 524.5q-9.5 9.5 -24.5 9.5q-20 0 -36 -15.5t-16 -35.5q0 -14 9.5 -23.5t24.5 -9.5q20 0 36 15.5t16 35.5q0 14 -9.5 23.5zM-133 -130q62 56 91 116t39 106h-56q-21 -110 -88 -209z" />
    <glyph glyph-name="slash" unicode="/" horiz-adv-x="386" 
d="M-132 -17l472 753h34l-472 -753h-34z" />
    <glyph glyph-name="underscore" unicode="_" horiz-adv-x="590" 
d="M388 -60h-510l-10 -50h510z" />
    <glyph glyph-name="braceleft" unicode="{" horiz-adv-x="356" 
d="M41 270l-22 -10l17 -10q42 -23 42 -79q0 -18 -5 -41l-49 -231q-2 -12 -2 -18q0 -24 14.5 -39t38.5 -15h15l-5 -25h-24q-35 0 -57 23.5t-22 59.5q0 13 3 27l48 229q3 14 3 25q0 29 -14.5 48.5t-39.5 23.5l4 22l5 22q33 6 59 33t34 65l48 228q11 47 46.5 78.5t77.5 31.5h24
l-5 -24h-15q-28 0 -52 -21t-31 -52l-49 -231q-20 -90 -87 -120z" />
    <glyph glyph-name="braceright" unicode="}" horiz-adv-x="356" 
d="M92 348q0 -56 42 -78l15 -11l-20 -10q-35 -15 -56.5 -46t-30.5 -74l-49 -231q-7 -30 -31.5 -51t-52.5 -21h-15l-5 -25h24q42 0 78 32t47 79l48 228q8 38 34 65t58 32l4 22l5 23q-24 5 -38.5 24t-14.5 48q0 12 3 25l48 228q3 14 3 26q0 37 -22 61t-58 24h-24l-5 -25h15
q24 0 39 -15.5t15 -39.5q0 -5 -2 -17l-49 -231q-5 -25 -5 -42z" />
    <glyph glyph-name="bracketleft" unicode="[" horiz-adv-x="293" 
d="M22 -198l9 42h-91l177 832h91l9 42h-133l-195 -916h133z" />
    <glyph glyph-name="bracketright" unicode="]" horiz-adv-x="293" 
d="M-111 -198l9 42h91l177 832h-91l9 42h133l-195 -916h-133z" />
    <glyph glyph-name="parenleft" unicode="(" horiz-adv-x="333" 
d="M62 -198q-42 129 -42 263q0 96 21 195q51 238 216 458h-32q-185 -208 -239 -458q-18 -87 -18 -169q0 -153 62 -289h32z" />
    <glyph glyph-name="parenright" unicode=")" horiz-adv-x="334" 
d="M-111 -198q166 220 216 458q21 99 21 196q0 135 -42 262h32q63 -138 63 -288q0 -85 -19 -170q-52 -249 -239 -458h-32z" />
    <glyph glyph-name="emdash" unicode="&#x2014;" horiz-adv-x="865" 
d="M678 293h-665l-7 -35h665z" />
    <glyph glyph-name="endash" unicode="&#x2013;" horiz-adv-x="610" 
d="M463 293h-490l-7 -35h490z" />
    <glyph glyph-name="hyphen" unicode="-" horiz-adv-x="435" 
d="M288 293h-315l-7 -35h315z" />
    <glyph glyph-name="quotedblleft" unicode="&#x201c;" horiz-adv-x="379" 
d="M168 718q-98 -86 -132 -223h57q6 38 26 93t62 117zM287 718q-63 -56 -92 -116t-39 -107h56q21 109 88 210z" />
    <glyph glyph-name="quotedblright" unicode="&#x201d;" horiz-adv-x="379" 
d="M49 478q62 56 91 116t39 106h-56q-21 -110 -87 -209zM168 478q97 87 131 222h-57q-6 -38 -25.5 -92.5t-61.5 -116.5z" />
    <glyph glyph-name="quoteleft" unicode="&#x2018;" horiz-adv-x="259" 
d="M167 718q-63 -57 -92 -117t-39 -106h56q22 111 88 209z" />
    <glyph glyph-name="quoteright" unicode="&#x2019;" horiz-adv-x="259" 
d="M49 478q62 56 91 116t39 106h-56q-22 -111 -87 -209z" />
    <glyph glyph-name="dollar" unicode="$" horiz-adv-x="612" 
d="M373 83.5q-37 -44.5 -90 -73t-111 -32.5l-15 -68h-39l14 67q-73 5 -121.5 49.5t-50.5 109.5l51 12q1 -49 38 -82.5t94 -38.5l67 315l-35 9q-57 14 -89.5 53.5t-32.5 92.5q0 19 4 35q10 48 44.5 89.5t84.5 67t104 29.5l14 67h39l-14 -67q64 -6 105.5 -44t45.5 -94l-49 -14
q-4 41 -35 69t-78 33l-60 -284q5 -1 13 -2.5t18 -4.5q63 -14 99.5 -57.5t36.5 -101.5q0 -21 -4 -38q-11 -52 -48 -96.5zM221 392l58 277q-45 -4 -85.5 -27t-65.5 -59t-25 -75q0 -38 25 -67.5t66 -40.5l3 -1zM276.5 58q44.5 26 71.5 66.5t27 84.5t-29 76.5t-78 43.5
q-14 4 -21 5l-65 -307q50 5 94.5 31z" />
    <glyph glyph-name="asciitilde" unicode="~" horiz-adv-x="580" 
d="M393.5 349.5q40.5 24.5 66.5 67.5l-30 13q-20 -34 -49.5 -52t-63.5 -18q-23 0 -41.5 10.5t-35.5 33.5q-18 25 -41.5 39.5t-58.5 14.5q-44 0 -84.5 -24.5t-66.5 -67.5l30 -13q21 34 50 52t63 18q24 0 42 -10.5t36 -33.5q17 -24 40.5 -39t58.5 -15q44 0 84.5 24.5z" />
    <glyph glyph-name="equal" unicode="=" horiz-adv-x="645" 
d="M521 397h-525l-8 -35h525zM476 188h-525l-7 -35h525z" />
    <glyph glyph-name="greater" unicode="&#x3e;" horiz-adv-x="627" 
d="M-69 0l9 40l451 195l-369 194l9 39l420 -221l-6 -26z" />
    <glyph glyph-name="less" unicode="&#x3c;" horiz-adv-x="627" 
d="M398 0l9 40l-369 195l451 194l9 39l-514 -221l-6 -26z" />
    <glyph glyph-name="minus" unicode="&#x2212;" horiz-adv-x="435" 
d="M288 293h-315l-7 -35h315z" />
    <glyph glyph-name="percent" unicode="%" horiz-adv-x="937" 
d="M82 -26l687 753h-42l-687 -753h42zM253.5 344q45.5 34 69.5 98q16 39 21 66v1q7 29 7 66q3 63 -28 97.5t-74 35.5q-43 -1 -88.5 -35t-70.5 -98q-15 -42 -21 -66v-1q-7 -40 -7 -73q0 -60 30.5 -92.5t72.5 -32.5q43 0 88.5 34zM295.5 635q17.5 -31 17.5 -68q-4 -38 -8 -59
q-5 -24 -17 -58q-16 -37 -46.5 -68t-68.5 -31q-37 0 -54.5 30t-17.5 66q0 25 7 62q6 27 18 58q15 37 46 68t68 31q38 0 55.5 -31zM648.5 28q45.5 34 69.5 98q16 39 21 66v1q7 29 7 66q3 63 -28 97.5t-74 35.5q-43 -1 -88.5 -35t-70.5 -98q-15 -42 -21 -66v-1q-7 -40 -7 -73
q0 -60 30.5 -92.5t72.5 -32.5q43 0 88.5 34zM690.5 319q17.5 -31 17.5 -68q-1 -26 -8 -59q-5 -24 -17 -58q-15 -37 -46 -68t-69 -31q-37 0 -54.5 30t-17.5 66q0 25 7 62q4 21 18 58q15 37 46 68t68 31q38 0 55.5 -31z" />
    <glyph glyph-name="plus" unicode="+" horiz-adv-x="610" 
d="M456 258h-228l-48 -228h-35l48 228h-227l7 35h227l49 227h35l-49 -227h228z" />
    <glyph glyph-name="at" unicode="@" horiz-adv-x="818" 
d="M430 250l156 285h-53l-38 -64q-8 46 -31 63q-25 20 -56 20q-51 0 -101 -25q-51 -26 -89 -67q-41 -42 -67 -92q-29 -56 -39 -102q-4 -17 -4 -38q0 -12 1 -18q5 -27 17 -45q12 -20 34 -31q21 -12 53 -12q37 0 74 21q33 18 66 45h2q-1 -5 -1 -15q0 -24 11 -35q17 -17 41 -17
q41 0 87 23q48 23 87 61q40 37 73 92q31 51 43 111q8 40 8 70q0 28 -6 55q-13 56 -50 97t-93 64q-56 22 -128 22q-76 0 -147 -28q-72 -28 -132 -77q-60 -48 -103 -116q-42 -65 -59 -144q-9 -43 -9 -85q0 -28 5 -61q13 -67 51 -118q39 -49 101 -78q59 -28 141 -28q45 0 94 12
q48 12 92 34q51 27 85 56q42 34 72 73h-51q-29 -32 -62 -55q-35 -25 -72 -41q-38 -17 -74 -26q-37 -9 -75 -9q-67 0 -120 24q-55 27 -85 68q-33 44 -45 101q-5 21 -5 54q0 39 8 72q15 70 50 128q33 57 86 104q53 45 114 70q63 25 132 25q60 0 105 -17q46 -18 79 -51
q30 -32 43 -82q6 -22 6 -49q0 -30 -7 -61q-9 -41 -32 -85q-21 -41 -53 -79q-32 -37 -66 -58q-35 -23 -68 -23q-13 0 -17 7q-2 6 -2 10l1 8q1 11 8 26zM393 501q15 0 27 -8q9 -6 20 -20q10 -14 11 -30q2 -5 2 -16q0 -12 -2 -18q-6 -30 -28 -73q-21 -41 -52 -76
q-28 -34 -64 -59q-34 -24 -69 -24q-37 0 -54 26q-11 15 -11 40q0 14 3 30q8 36 28 75q23 43 50 74q32 35 65 57q35 22 74 22z" />
    <glyph glyph-name="ampersand" unicode="&#x26;" horiz-adv-x="688" 
d="M431 0l-69 99q-59 -68 -123 -91.5t-114 -23.5q-55 0 -98 21.5t-67 59t-24 83.5q0 20 4 36q9 41 35.5 79t66.5 66l110 74l-37 55q-11 16 -18.5 33t-7.5 41q0 14 3 30q12 58 61 98t108 40q51 0 82.5 -30.5t31.5 -78.5q0 -40 -19.5 -75t-55.5 -60l-1 -1l-85 -57l155 -224
q38 60 64 154l43 -2q-29 -109 -82 -187l95 -139h-58zM192 430l87 59q24 18 38 42t14 51q0 33 -21.5 54t-57.5 21q-31 0 -58.5 -15.5t-44 -42.5t-16.5 -58q0 -27 20 -54zM236 49q55 22 104 83l-166 239l-112 -76q-38 -27 -60 -63.5t-22 -75.5q0 -36 20 -65.5t55 -46.5t79 -17
q47 0 102 22z" />
    <glyph glyph-name="trademark" unicode="&#x2122;" horiz-adv-x="1461" 
d="M594 658h-249l-140 -658h-42l140 658h-250l9 42h541zM1399 700l-149 -700h-42l128 602l-399 -602h-46l-143 602l-128 -602h-42l149 700h44l154 -649l430 649h44z" />
    <glyph glyph-name="asciicircum" unicode="^" horiz-adv-x="519" 
d="M374 299l-102 401h-24l-273 -401h39l234 345l88 -345h38z" />
    </font>
</defs>
</svg>
